<?xml version="1.0" encoding="utf-8"?>
<!-- Generator: Adobe Illustrator 19.2.1, SVG Export Plug-In . SVG Version: 6.00 Build 0)  -->
<svg version="1.1" id="Capa_1" xmlns="http://www.w3.org/2000/svg" xmlns:xlink="http://www.w3.org/1999/xlink" x="0px" y="0px"
	 viewBox="0 0 340.2 119.1" style="enable-background:new 0 0 340.2 119.1;" xml:space="preserve">
<style type="text/css">
	.st0{fill-rule:evenodd;clip-rule:evenodd;fill:#1B1918;}
	.st1{fill-rule:evenodd;clip-rule:evenodd;fill:#0F0F0F;}
	.st2{fill-rule:evenodd;clip-rule:evenodd;fill:#D4D2D2;}
	.st3{fill-rule:evenodd;clip-rule:evenodd;fill:#E2E1DE;}
	.st4{fill-rule:evenodd;clip-rule:evenodd;fill:#D9D8D5;}
	.st5{fill-rule:evenodd;clip-rule:evenodd;fill:#D0CECB;}
	.st6{fill-rule:evenodd;clip-rule:evenodd;fill:#C6C5C3;}
	.st7{fill-rule:evenodd;clip-rule:evenodd;fill:#BDBCB9;}
	.st8{fill-rule:evenodd;clip-rule:evenodd;fill:#B4B3B0;}
	.st9{fill-rule:evenodd;clip-rule:evenodd;fill:#ACACA9;}
	.st10{fill-rule:evenodd;clip-rule:evenodd;fill:#A3A3A0;}
	.st11{fill-rule:evenodd;clip-rule:evenodd;fill:#9C9B98;}
	.st12{fill-rule:evenodd;clip-rule:evenodd;fill:#949390;}
	.st13{fill-rule:evenodd;clip-rule:evenodd;fill:#8C8B88;}
	.st14{fill-rule:evenodd;clip-rule:evenodd;fill:#858481;}
	.st15{fill-rule:evenodd;clip-rule:evenodd;fill:#7C7C79;}
	.st16{fill-rule:evenodd;clip-rule:evenodd;fill:#767572;}
	.st17{fill-rule:evenodd;clip-rule:evenodd;fill:#6E6E6B;}
	.st18{fill-rule:evenodd;clip-rule:evenodd;fill:#676764;}
	.st19{fill-rule:evenodd;clip-rule:evenodd;fill:#61615E;}
	.st20{fill-rule:evenodd;clip-rule:evenodd;fill:#5A5B57;}
	.st21{fill-rule:evenodd;clip-rule:evenodd;fill:#545551;}
	.st22{fill-rule:evenodd;clip-rule:evenodd;fill:#4D4E4A;}
	.st23{fill-rule:evenodd;clip-rule:evenodd;fill:#474945;}
	.st24{fill-rule:evenodd;clip-rule:evenodd;fill:#414440;}
	.st25{fill-rule:evenodd;clip-rule:evenodd;fill:#3B3E3A;}
	.st26{fill-rule:evenodd;clip-rule:evenodd;fill:#363A35;}
	.st27{fill-rule:evenodd;clip-rule:evenodd;fill:#303530;}
	.st28{fill-rule:evenodd;clip-rule:evenodd;fill:#2B302B;}
	.st29{fill-rule:evenodd;clip-rule:evenodd;fill:#262C27;}
	.st30{fill-rule:evenodd;clip-rule:evenodd;fill:#202721;}
	.st31{fill-rule:evenodd;clip-rule:evenodd;fill:#D5D5D5;}
	.st32{fill-rule:evenodd;clip-rule:evenodd;fill:#2F418F;}
	.st33{fill-rule:evenodd;clip-rule:evenodd;fill:#6E68A5;}
	.st34{fill-rule:evenodd;clip-rule:evenodd;fill:#746EA8;}
	.st35{fill-rule:evenodd;clip-rule:evenodd;fill:#7B75AC;}
	.st36{fill-rule:evenodd;clip-rule:evenodd;fill:#827CB0;}
	.st37{fill-rule:evenodd;clip-rule:evenodd;fill:#8882B4;}
	.st38{fill-rule:evenodd;clip-rule:evenodd;fill:#8F8AB8;}
	.st39{fill-rule:evenodd;clip-rule:evenodd;fill:#9590BC;}
	.st40{fill-rule:evenodd;clip-rule:evenodd;fill:#9C97C0;}
	.st41{fill-rule:evenodd;clip-rule:evenodd;fill:#A39EC4;}
	.st42{fill-rule:evenodd;clip-rule:evenodd;fill:#AAA5C7;}
	.st43{fill-rule:evenodd;clip-rule:evenodd;fill:#B0ACCB;}
	.st44{fill-rule:evenodd;clip-rule:evenodd;fill:#B7B3CF;}
	.st45{fill-rule:evenodd;clip-rule:evenodd;fill:#BDBAD2;}
	.st46{fill-rule:evenodd;clip-rule:evenodd;fill:#C5C1D6;}
	.st47{fill-rule:evenodd;clip-rule:evenodd;fill:#CBC8D9;}
	.st48{fill-rule:evenodd;clip-rule:evenodd;fill:#D1CFDC;}
	.st49{fill-rule:evenodd;clip-rule:evenodd;fill:#D9D6E0;}
	.st50{fill-rule:evenodd;clip-rule:evenodd;fill:#DFDDE3;}
	.st51{fill-rule:evenodd;clip-rule:evenodd;fill:#E6E5E6;}
	.st52{fill-rule:evenodd;clip-rule:evenodd;fill:#F1E7D3;}
	.st53{fill-rule:evenodd;clip-rule:evenodd;fill:#FFFFFF;}
	.st54{fill-rule:evenodd;clip-rule:evenodd;fill:#FFFFFA;}
	.st55{fill-rule:evenodd;clip-rule:evenodd;fill:#FFFDF4;}
	.st56{fill-rule:evenodd;clip-rule:evenodd;fill:#FFFCEF;}
	.st57{fill-rule:evenodd;clip-rule:evenodd;fill:#FFFBE9;}
	.st58{fill-rule:evenodd;clip-rule:evenodd;fill:#FFFAE4;}
	.st59{fill-rule:evenodd;clip-rule:evenodd;fill:#FFF9DE;}
	.st60{fill-rule:evenodd;clip-rule:evenodd;fill:#FFF7D8;}
	.st61{fill-rule:evenodd;clip-rule:evenodd;fill:#FFF6D2;}
	.st62{fill-rule:evenodd;clip-rule:evenodd;fill:#FFF5CD;}
	.st63{fill-rule:evenodd;clip-rule:evenodd;fill:#FFF4C6;}
	.st64{fill-rule:evenodd;clip-rule:evenodd;fill:#FFF3C0;}
	.st65{fill-rule:evenodd;clip-rule:evenodd;fill:#FFF1BA;}
	.st66{fill-rule:evenodd;clip-rule:evenodd;fill:#FFF1B4;}
	.st67{fill-rule:evenodd;clip-rule:evenodd;fill:#FFF0AD;}
	.st68{fill-rule:evenodd;clip-rule:evenodd;fill:#FFEEA6;}
	.st69{fill-rule:evenodd;clip-rule:evenodd;fill:#FFED9F;}
	.st70{fill-rule:evenodd;clip-rule:evenodd;fill:#FFEC98;}
	.st71{fill-rule:evenodd;clip-rule:evenodd;fill:#FEEB90;}
	.st72{fill-rule:evenodd;clip-rule:evenodd;fill:#FFEA89;}
	.st73{fill-rule:evenodd;clip-rule:evenodd;fill:#FEE881;}
	.st74{fill-rule:evenodd;clip-rule:evenodd;fill:#FEE77A;}
	.st75{fill-rule:evenodd;clip-rule:evenodd;fill:#FEE671;}
	.st76{fill-rule:evenodd;clip-rule:evenodd;fill:#FEE56A;}
	.st77{fill-rule:evenodd;clip-rule:evenodd;fill:#FEE360;}
	.st78{fill-rule:evenodd;clip-rule:evenodd;fill:#FEE358;}
	.st79{fill-rule:evenodd;clip-rule:evenodd;fill:#FDE14E;}
	.st80{fill-rule:evenodd;clip-rule:evenodd;fill:#FEE045;}
	.st81{fill-rule:evenodd;clip-rule:evenodd;fill:#FEDF3A;}
	.st82{fill-rule:evenodd;clip-rule:evenodd;fill:#FDDE2E;}
	.st83{fill-rule:evenodd;clip-rule:evenodd;fill:#9BA6C5;}
	.st84{fill-rule:evenodd;clip-rule:evenodd;fill:#9FA9C3;}
	.st85{fill-rule:evenodd;clip-rule:evenodd;fill:#A3ABC0;}
	.st86{fill-rule:evenodd;clip-rule:evenodd;fill:#A7ADBD;}
	.st87{fill-rule:evenodd;clip-rule:evenodd;fill:#ABAFBA;}
	.st88{fill-rule:evenodd;clip-rule:evenodd;fill:#AFB1B6;}
	.st89{fill-rule:evenodd;clip-rule:evenodd;fill:#B3B4B3;}
	.st90{fill-rule:evenodd;clip-rule:evenodd;fill:#B7B6AF;}
	.st91{fill-rule:evenodd;clip-rule:evenodd;fill:#BBB8AB;}
	.st92{fill-rule:evenodd;clip-rule:evenodd;fill:#BFBAA6;}
	.st93{fill-rule:evenodd;clip-rule:evenodd;fill:#C3BCA2;}
	.st94{fill-rule:evenodd;clip-rule:evenodd;fill:#C6BE9E;}
	.st95{fill-rule:evenodd;clip-rule:evenodd;fill:#CAC099;}
	.st96{fill-rule:evenodd;clip-rule:evenodd;fill:#CEC294;}
	.st97{fill-rule:evenodd;clip-rule:evenodd;fill:#D2C48F;}
	.st98{fill-rule:evenodd;clip-rule:evenodd;fill:#D5C689;}
	.st99{fill-rule:evenodd;clip-rule:evenodd;fill:#D9C983;}
	.st100{fill-rule:evenodd;clip-rule:evenodd;fill:#DDCB7D;}
	.st101{fill-rule:evenodd;clip-rule:evenodd;fill:#E1CD77;}
	.st102{fill-rule:evenodd;clip-rule:evenodd;fill:#E5CF6F;}
	.st103{fill-rule:evenodd;clip-rule:evenodd;fill:#E8D169;}
	.st104{fill-rule:evenodd;clip-rule:evenodd;fill:#ECD361;}
	.st105{fill-rule:evenodd;clip-rule:evenodd;fill:#F0D559;}
	.st106{fill-rule:evenodd;clip-rule:evenodd;fill:#F3D850;}
	.st107{fill-rule:evenodd;clip-rule:evenodd;fill:#F6DA47;}
	.st108{fill-rule:evenodd;clip-rule:evenodd;fill:#F9DC3B;}
	.st109{fill-rule:evenodd;clip-rule:evenodd;fill:#FFD400;}
	.st110{fill-rule:evenodd;clip-rule:evenodd;fill:#F9FBFD;}
	.st111{fill-rule:evenodd;clip-rule:evenodd;fill:#F3F6FB;}
	.st112{fill-rule:evenodd;clip-rule:evenodd;fill:#ECF1F9;}
	.st113{fill-rule:evenodd;clip-rule:evenodd;fill:#E6ECF7;}
	.st114{fill-rule:evenodd;clip-rule:evenodd;fill:#DFE7F4;}
	.st115{fill-rule:evenodd;clip-rule:evenodd;fill:#D9E3F2;}
	.st116{fill-rule:evenodd;clip-rule:evenodd;fill:#D1DEF0;}
	.st117{fill-rule:evenodd;clip-rule:evenodd;fill:#CBD9EE;}
	.st118{fill-rule:evenodd;clip-rule:evenodd;fill:#C3D4EC;}
	.st119{fill-rule:evenodd;clip-rule:evenodd;fill:#BDD0EA;}
	.st120{fill-rule:evenodd;clip-rule:evenodd;fill:#B5CBE7;}
	.st121{fill-rule:evenodd;clip-rule:evenodd;fill:#AEC7E5;}
	.st122{fill-rule:evenodd;clip-rule:evenodd;fill:#A6C2E3;}
	.st123{fill-rule:evenodd;clip-rule:evenodd;fill:#9FBEE1;}
	.st124{fill-rule:evenodd;clip-rule:evenodd;fill:#97B9DE;}
	.st125{fill-rule:evenodd;clip-rule:evenodd;fill:#8FB4DC;}
	.st126{fill-rule:evenodd;clip-rule:evenodd;fill:#87B0DA;}
	.st127{fill-rule:evenodd;clip-rule:evenodd;fill:#7EABD7;}
	.st128{fill-rule:evenodd;clip-rule:evenodd;fill:#75A6D5;}
	.st129{fill-rule:evenodd;clip-rule:evenodd;fill:#6CA3D3;}
	.st130{fill-rule:evenodd;clip-rule:evenodd;fill:#639ED1;}
	.st131{fill-rule:evenodd;clip-rule:evenodd;fill:#589ACE;}
	.st132{fill-rule:evenodd;clip-rule:evenodd;fill:#4E96CC;}
	.st133{fill-rule:evenodd;clip-rule:evenodd;fill:#4191CA;}
	.st134{fill-rule:evenodd;clip-rule:evenodd;fill:#348DC8;}
	.st135{fill-rule:evenodd;clip-rule:evenodd;fill:#2189C5;}
	.st136{fill-rule:evenodd;clip-rule:evenodd;fill:#0085C3;}
	.st137{fill-rule:evenodd;clip-rule:evenodd;fill:#0081C1;}
	.st138{fill-rule:evenodd;clip-rule:evenodd;fill:#007EBF;}
	.st139{fill-rule:evenodd;clip-rule:evenodd;fill:#AAA9BF;}
	.st140{fill-rule:evenodd;clip-rule:evenodd;fill:#4D4F44;}
	.st141{fill-rule:evenodd;clip-rule:evenodd;fill:#4B5047;}
	.st142{fill-rule:evenodd;clip-rule:evenodd;fill:#49504B;}
	.st143{fill-rule:evenodd;clip-rule:evenodd;fill:#48504F;}
	.st144{fill-rule:evenodd;clip-rule:evenodd;fill:#465153;}
	.st145{fill-rule:evenodd;clip-rule:evenodd;fill:#445157;}
	.st146{fill-rule:evenodd;clip-rule:evenodd;fill:#42515B;}
	.st147{fill-rule:evenodd;clip-rule:evenodd;fill:#41515F;}
	.st148{fill-rule:evenodd;clip-rule:evenodd;fill:#3E5163;}
	.st149{fill-rule:evenodd;clip-rule:evenodd;fill:#3B5167;}
	.st150{fill-rule:evenodd;clip-rule:evenodd;fill:#39516B;}
	.st151{fill-rule:evenodd;clip-rule:evenodd;fill:#35526F;}
	.st152{fill-rule:evenodd;clip-rule:evenodd;fill:#325173;}
	.st153{fill-rule:evenodd;clip-rule:evenodd;fill:#2F5177;}
	.st154{fill-rule:evenodd;clip-rule:evenodd;fill:#2A517B;}
	.st155{fill-rule:evenodd;clip-rule:evenodd;fill:#26517F;}
	.st156{fill-rule:evenodd;clip-rule:evenodd;fill:#215183;}
	.st157{fill-rule:evenodd;clip-rule:evenodd;fill:#242423;}
	.st158{fill-rule:evenodd;clip-rule:evenodd;fill:#2C2D2D;}
	.st159{fill-rule:evenodd;clip-rule:evenodd;fill:#353637;}
	.st160{fill-rule:evenodd;clip-rule:evenodd;fill:#3C3E40;}
	.st161{fill-rule:evenodd;clip-rule:evenodd;fill:#414447;}
	.st162{fill-rule:evenodd;clip-rule:evenodd;fill:#474B4F;}
	.st163{fill-rule:evenodd;clip-rule:evenodd;fill:#4B5056;}
	.st164{fill-rule:evenodd;clip-rule:evenodd;fill:#50565D;}
	.st165{fill-rule:evenodd;clip-rule:evenodd;fill:#545A63;}
	.st166{fill-rule:evenodd;clip-rule:evenodd;fill:#575F68;}
	.st167{fill-rule:evenodd;clip-rule:evenodd;fill:#59636E;}
	.st168{fill-rule:evenodd;clip-rule:evenodd;fill:#5C6774;}
	.st169{fill-rule:evenodd;clip-rule:evenodd;fill:#5E6A79;}
	.st170{fill-rule:evenodd;clip-rule:evenodd;fill:#5F6D7E;}
	.st171{fill-rule:evenodd;clip-rule:evenodd;fill:#606F82;}
	.st172{fill-rule:evenodd;clip-rule:evenodd;fill:#607287;}
	.st173{fill-rule:evenodd;clip-rule:evenodd;fill:#60748B;}
	.st174{fill-rule:evenodd;clip-rule:evenodd;fill:#60768F;}
	.st175{fill-rule:evenodd;clip-rule:evenodd;fill:#5E7793;}
	.st176{fill-rule:evenodd;clip-rule:evenodd;fill:#5D7997;}
	.st177{fill-rule:evenodd;clip-rule:evenodd;fill:#5B7A9A;}
	.st178{fill-rule:evenodd;clip-rule:evenodd;fill:#587B9E;}
	.st179{fill-rule:evenodd;clip-rule:evenodd;fill:#557CA1;}
	.st180{fill-rule:evenodd;clip-rule:evenodd;fill:#507DA5;}
	.st181{fill-rule:evenodd;clip-rule:evenodd;fill:#4C7DA8;}
	.st182{fill-rule:evenodd;clip-rule:evenodd;fill:#477EAB;}
	.st183{fill-rule:evenodd;clip-rule:evenodd;fill:#417EAD;}
	.st184{fill-rule:evenodd;clip-rule:evenodd;fill:#3A7EB0;}
	.st185{fill-rule:evenodd;clip-rule:evenodd;fill:#327FB3;}
	.st186{fill-rule:evenodd;clip-rule:evenodd;fill:#257FB6;}
	.st187{fill-rule:evenodd;clip-rule:evenodd;fill:#157FB8;}
	.st188{fill-rule:evenodd;clip-rule:evenodd;fill:#007FBB;}
	.st189{fill-rule:evenodd;clip-rule:evenodd;fill:#007FBD;}
	.st190{fill-rule:evenodd;clip-rule:evenodd;fill:#2E2E2E;}
	.st191{fill-rule:evenodd;clip-rule:evenodd;fill:#BDBCC8;}
	.st192{fill-rule:evenodd;clip-rule:evenodd;fill:#BBBBC6;}
	.st193{fill-rule:evenodd;clip-rule:evenodd;fill:#B9B8C3;}
	.st194{fill-rule:evenodd;clip-rule:evenodd;fill:#B6B6C1;}
	.st195{fill-rule:evenodd;clip-rule:evenodd;fill:#B4B4BE;}
	.st196{fill-rule:evenodd;clip-rule:evenodd;fill:#B1B1BB;}
	.st197{fill-rule:evenodd;clip-rule:evenodd;fill:#AFAEB8;}
	.st198{fill-rule:evenodd;clip-rule:evenodd;fill:#ACACB5;}
	.st199{fill-rule:evenodd;clip-rule:evenodd;fill:#A8A9B1;}
	.st200{fill-rule:evenodd;clip-rule:evenodd;fill:#A5A6AE;}
	.st201{fill-rule:evenodd;clip-rule:evenodd;fill:#A3A3AB;}
	.st202{fill-rule:evenodd;clip-rule:evenodd;fill:#9FA0A8;}
	.st203{fill-rule:evenodd;clip-rule:evenodd;fill:#9C9DA4;}
	.st204{fill-rule:evenodd;clip-rule:evenodd;fill:#9899A0;}
	.st205{fill-rule:evenodd;clip-rule:evenodd;fill:#95969C;}
	.st206{fill-rule:evenodd;clip-rule:evenodd;fill:#919298;}
	.st207{fill-rule:evenodd;clip-rule:evenodd;fill:#8C8E93;}
	.st208{fill-rule:evenodd;clip-rule:evenodd;fill:#898A8F;}
	.st209{fill-rule:evenodd;clip-rule:evenodd;fill:#85868B;}
	.st210{fill-rule:evenodd;clip-rule:evenodd;fill:#808186;}
	.st211{fill-rule:evenodd;clip-rule:evenodd;fill:#7C7D81;}
	.st212{fill-rule:evenodd;clip-rule:evenodd;fill:#76787B;}
	.st213{fill-rule:evenodd;clip-rule:evenodd;fill:#717376;}
	.st214{fill-rule:evenodd;clip-rule:evenodd;fill:#6C6D70;}
	.st215{fill-rule:evenodd;clip-rule:evenodd;fill:#66676A;}
	.st216{fill-rule:evenodd;clip-rule:evenodd;fill:#616264;}
	.st217{fill-rule:evenodd;clip-rule:evenodd;fill:#5B5C5E;}
	.st218{fill-rule:evenodd;clip-rule:evenodd;fill:#545556;}
	.st219{fill-rule:evenodd;clip-rule:evenodd;fill:#4E4E50;}
	.st220{fill-rule:evenodd;clip-rule:evenodd;fill:#464748;}
	.st221{fill-rule:evenodd;clip-rule:evenodd;fill:#3F4040;}
	.st222{fill-rule:evenodd;clip-rule:evenodd;fill:#373737;}
	.st223{fill-rule:evenodd;clip-rule:evenodd;fill:#2F2F2E;}
	.st224{fill-rule:evenodd;clip-rule:evenodd;fill:#252423;}
	.st225{fill-rule:evenodd;clip-rule:evenodd;fill:#253C8B;}
	.st226{fill-rule:evenodd;clip-rule:evenodd;fill:#645F9F;}
	.st227{fill-rule:evenodd;clip-rule:evenodd;fill:#6A65A3;}
	.st228{fill-rule:evenodd;clip-rule:evenodd;fill:#6F6BA5;}
	.st229{fill-rule:evenodd;clip-rule:evenodd;fill:#7571A9;}
	.st230{fill-rule:evenodd;clip-rule:evenodd;fill:#7A77AC;}
	.st231{fill-rule:evenodd;clip-rule:evenodd;fill:#807EAE;}
	.st232{fill-rule:evenodd;clip-rule:evenodd;fill:#8784B1;}
	.st233{fill-rule:evenodd;clip-rule:evenodd;fill:#8C8AB4;}
	.st234{fill-rule:evenodd;clip-rule:evenodd;fill:#9390B7;}
	.st235{fill-rule:evenodd;clip-rule:evenodd;fill:#9896B9;}
	.st236{fill-rule:evenodd;clip-rule:evenodd;fill:#9F9DBC;}
	.st237{fill-rule:evenodd;clip-rule:evenodd;fill:#A5A3BF;}
	.st238{fill-rule:evenodd;clip-rule:evenodd;fill:#ABAAC1;}
	.st239{fill-rule:evenodd;clip-rule:evenodd;fill:#B1B0C4;}
	.st240{fill-rule:evenodd;clip-rule:evenodd;fill:#B6B6C6;}
	.st241{clip-path:url(#SVGID_2_);fill-rule:evenodd;clip-rule:evenodd;fill:#007EBF;}
	.st242{clip-path:url(#SVGID_2_);fill-rule:evenodd;clip-rule:evenodd;fill:#FFD400;}
	.st243{fill:none;stroke:#007EBF;stroke-width:0.162;}
</style>
<g>
	<path class="st0" d="M213.8,75.9c-0.3-0.2-0.6-0.4-0.9-0.5c-0.3-0.1-0.6-0.2-0.9-0.2c-0.7,0-1.2,0.2-1.6,0.6
		c-0.4,0.4-0.6,0.9-0.6,1.6c0,0.6,0.2,1.2,0.6,1.5c0.4,0.4,0.9,0.6,1.5,0.6c0.4,0,0.7-0.1,1-0.2c0.3-0.1,0.6-0.3,0.9-0.5l0,1.4
		c-0.3,0.2-0.6,0.3-0.9,0.4c-0.3,0.1-0.7,0.1-1,0.1c-1,0-1.9-0.3-2.5-0.9c-0.7-0.6-1-1.4-1-2.3c0-0.9,0.3-1.7,1-2.3
		c0.7-0.6,1.5-0.9,2.5-0.9c0.3,0,0.7,0,1,0.1c0.3,0.1,0.6,0.2,1,0.3L213.8,75.9z M213.8,75.9"/>
	<path class="st0" d="M215.1,80.5v-6.2h3.8v1.1h-2.4v1.3h2.4v1.1h-2.4v1.5h2.4v1.1H215.1z M215.1,80.5"/>
	<path class="st0" d="M220.2,80.5v-6.2h1.4l2.8,3.6c0.1,0.1,0.2,0.2,0.3,0.4c0.1,0.2,0.2,0.4,0.3,0.6c0-0.2-0.1-0.4-0.1-0.5
		c0-0.2,0-0.4,0-0.7v-3.5h1.3v6.2h-1.3l-2.9-3.7c-0.1-0.1-0.2-0.2-0.3-0.4c-0.1-0.2-0.2-0.4-0.3-0.7c0,0.2,0.1,0.4,0.1,0.5
		c0,0.2,0,0.4,0,0.7v3.5H220.2z M220.2,80.5"/>
	<path class="st0" d="M230.1,75.5v5.1h-1.4v-5.1h-1.6v-1.1h4.5v1.1H230.1z M230.1,75.5"/>
	<path class="st0" d="M237.1,80.5h-1.6l-1.7-2.9v2.9h-1.4v-6.2h2c0.8,0,1.4,0.1,1.7,0.4c0.4,0.3,0.6,0.7,0.6,1.3
		c0,0.4-0.1,0.8-0.4,1.1c-0.3,0.3-0.6,0.5-1,0.5L237.1,80.5z M233.9,77h0.2c0.6,0,0.9-0.1,1.1-0.2c0.2-0.1,0.3-0.3,0.3-0.6
		c0-0.3-0.1-0.5-0.3-0.6c-0.2-0.1-0.5-0.2-1.1-0.2h-0.2V77z M233.9,77"/>
	<path class="st0" d="M244.5,77.4c0,0.4-0.1,0.9-0.3,1.3c-0.2,0.4-0.4,0.7-0.7,1c-0.3,0.3-0.7,0.5-1.1,0.7c-0.4,0.2-0.8,0.2-1.3,0.2
		c-0.4,0-0.8-0.1-1.1-0.2c-0.4-0.1-0.7-0.3-1-0.5c-0.4-0.3-0.7-0.7-0.9-1.1c-0.2-0.4-0.3-0.9-0.3-1.4c0-0.4,0.1-0.9,0.3-1.3
		c0.2-0.4,0.4-0.7,0.7-1c0.3-0.3,0.7-0.5,1.1-0.7c0.4-0.2,0.9-0.2,1.3-0.2c0.4,0,0.9,0.1,1.3,0.2c0.4,0.2,0.8,0.4,1.1,0.7
		c0.3,0.3,0.6,0.7,0.7,1C244.4,76.6,244.5,77,244.5,77.4L244.5,77.4z M241.1,79.5c0.6,0,1.1-0.2,1.4-0.6c0.4-0.4,0.6-0.9,0.6-1.5
		c0-0.6-0.2-1.1-0.6-1.5c-0.4-0.4-0.9-0.6-1.4-0.6c-0.6,0-1.1,0.2-1.4,0.6c-0.4,0.4-0.6,0.9-0.6,1.5c0,0.6,0.2,1.1,0.6,1.5
		C240,79.3,240.5,79.5,241.1,79.5L241.1,79.5z M241.1,79.5"/>
	<path class="st0" d="M245.2,79.7l0.8-0.8c0.1,0.2,0.3,0.4,0.5,0.5c0.2,0.1,0.5,0.2,0.7,0.2c0.3,0,0.6-0.1,0.8-0.2
		c0.2-0.1,0.3-0.3,0.3-0.6c0-0.3-0.3-0.6-0.9-0.9c-0.2-0.1-0.4-0.2-0.5-0.2c-0.6-0.3-0.9-0.6-1.2-0.8c-0.2-0.3-0.3-0.6-0.3-1
		c0-0.5,0.2-0.9,0.6-1.3c0.4-0.3,1-0.5,1.6-0.5c0.4,0,0.7,0.1,1,0.2c0.3,0.1,0.5,0.3,0.7,0.6l-0.8,0.7c-0.1-0.2-0.2-0.3-0.4-0.4
		c-0.2-0.1-0.3-0.1-0.6-0.1c-0.3,0-0.5,0.1-0.7,0.2c-0.2,0.1-0.2,0.3-0.2,0.5c0,0.3,0.3,0.6,1,0.9c0.1,0.1,0.2,0.1,0.3,0.1
		c0.5,0.2,0.9,0.5,1.2,0.8c0.3,0.3,0.4,0.6,0.4,1c0,0.6-0.2,1-0.6,1.4c-0.4,0.3-1,0.5-1.6,0.5c-0.5,0-0.9-0.1-1.3-0.2
		C245.6,80.3,245.4,80,245.2,79.7L245.2,79.7z M245.2,79.7"/>
	<path class="st0" d="M254.7,79.4h0.8c0.7,0,1.2-0.2,1.6-0.5c0.3-0.3,0.5-0.8,0.5-1.5c0-0.7-0.2-1.2-0.5-1.5
		c-0.3-0.3-0.8-0.5-1.6-0.5h-0.8V79.4z M253.4,80.5v-6.2h1.7c0.7,0,1.2,0,1.6,0.1c0.4,0.1,0.7,0.2,1,0.5c0.4,0.3,0.7,0.6,0.9,1
		c0.2,0.4,0.3,0.9,0.3,1.4c0,0.5-0.1,1-0.3,1.5c-0.2,0.4-0.5,0.8-0.9,1c-0.3,0.2-0.6,0.3-1,0.4c-0.4,0.1-0.9,0.1-1.6,0.1H253.4z
		 M253.4,80.5"/>
	<path class="st0" d="M260.1,80.5v-6.2h3.8v1.1h-2.4v1.3h2.4v1.1h-2.4v1.5h2.4v1.1H260.1z M260.1,80.5"/>
	<path class="st0" d="M267.9,80.5v-6.2h3.8v1.1h-2.4v1.3h2.4v1.1h-2.4v2.7H267.9z M267.9,80.5"/>
	<path class="st0" d="M279.3,77.4c0,0.4-0.1,0.9-0.3,1.3c-0.2,0.4-0.4,0.7-0.7,1c-0.3,0.3-0.7,0.5-1.1,0.7c-0.4,0.2-0.8,0.2-1.3,0.2
		c-0.4,0-0.8-0.1-1.1-0.2c-0.4-0.1-0.7-0.3-1-0.5c-0.4-0.3-0.7-0.7-0.9-1.1c-0.2-0.4-0.3-0.9-0.3-1.4c0-0.4,0.1-0.9,0.3-1.3
		c0.2-0.4,0.4-0.7,0.7-1c0.3-0.3,0.7-0.5,1.1-0.7c0.4-0.2,0.9-0.2,1.3-0.2c0.4,0,0.9,0.1,1.3,0.2c0.4,0.2,0.8,0.4,1.1,0.7
		c0.3,0.3,0.6,0.7,0.7,1C279.2,76.6,279.3,77,279.3,77.4L279.3,77.4z M275.9,79.5c0.6,0,1.1-0.2,1.4-0.6c0.4-0.4,0.6-0.9,0.6-1.5
		c0-0.6-0.2-1.1-0.6-1.5c-0.4-0.4-0.9-0.6-1.4-0.6c-0.6,0-1.1,0.2-1.4,0.6c-0.4,0.4-0.6,0.9-0.6,1.5c0,0.6,0.2,1.1,0.6,1.5
		C274.8,79.3,275.3,79.5,275.9,79.5L275.9,79.5z M275.9,79.5"/>
	<path class="st0" d="M285.1,80.5h-1.6l-1.7-2.9v2.9h-1.4v-6.2h2c0.8,0,1.4,0.1,1.7,0.4c0.4,0.3,0.6,0.7,0.6,1.3
		c0,0.4-0.1,0.8-0.4,1.1c-0.3,0.3-0.6,0.5-1,0.5L285.1,80.5z M281.8,77h0.2c0.6,0,0.9-0.1,1.1-0.2c0.2-0.1,0.3-0.3,0.3-0.6
		c0-0.3-0.1-0.5-0.3-0.6c-0.2-0.1-0.5-0.2-1.1-0.2h-0.2V77z M281.8,77"/>
	<path class="st0" d="M285.3,80.5l1-6.2h1.4L289,78c0,0.1,0.1,0.2,0.1,0.3c0,0.1,0.1,0.3,0.1,0.5c0-0.2,0.1-0.4,0.1-0.5
		c0-0.2,0.1-0.3,0.1-0.3l1.3-3.6h1.4l1,6.2h-1.3l-0.5-3.7c0-0.3-0.1-0.5-0.1-0.6c0-0.1,0-0.3,0-0.4c0-0.1,0-0.1,0-0.1
		c0,0,0-0.1,0-0.1c0,0.2-0.1,0.5-0.1,0.6c0,0.2-0.1,0.3-0.1,0.4l-1.4,3.9h-0.8l-1.3-3.9c0,0,0-0.1-0.1-0.3c0-0.2-0.1-0.4-0.2-0.7
		v0.2c0,0.3,0,0.6-0.1,1.1l0,0l-0.5,3.7H285.3z M285.3,80.5"/>
	<path class="st0" d="M297.1,78.2l-0.7-2c0-0.1,0-0.2-0.1-0.3c0-0.1-0.1-0.3-0.1-0.5c0,0.2-0.1,0.4-0.1,0.5c0,0.2-0.1,0.3-0.1,0.3
		l-0.7,2H297.1z M293,80.5l2.4-6.2h1.6l2.5,6.2H298l-0.5-1.3H295l-0.4,1.3H293z M293,80.5"/>
	<path class="st0" d="M305.2,75.9c-0.3-0.2-0.6-0.4-0.9-0.5c-0.3-0.1-0.6-0.2-0.9-0.2c-0.7,0-1.2,0.2-1.6,0.6
		c-0.4,0.4-0.6,0.9-0.6,1.6c0,0.6,0.2,1.2,0.6,1.5c0.4,0.4,0.9,0.6,1.5,0.6c0.4,0,0.7-0.1,1-0.2c0.3-0.1,0.6-0.3,0.9-0.5l0,1.4
		c-0.3,0.2-0.6,0.3-0.9,0.4c-0.3,0.1-0.7,0.1-1,0.1c-1,0-1.9-0.3-2.5-0.9c-0.7-0.6-1-1.4-1-2.3c0-0.9,0.3-1.7,1-2.3
		c0.7-0.6,1.5-0.9,2.5-0.9c0.3,0,0.7,0,1,0.1c0.3,0.1,0.6,0.2,1,0.3L305.2,75.9z M305.2,75.9"/>
	<rect x="306.5" y="74.3" class="st0" width="1.4" height="6.2"/>
	<path class="st0" d="M315.8,77.4c0,0.4-0.1,0.9-0.3,1.3c-0.2,0.4-0.4,0.7-0.7,1c-0.3,0.3-0.7,0.5-1.1,0.7c-0.4,0.2-0.8,0.2-1.3,0.2
		c-0.4,0-0.8-0.1-1.1-0.2c-0.4-0.1-0.7-0.3-1-0.5c-0.4-0.3-0.7-0.7-0.9-1.1c-0.2-0.4-0.3-0.9-0.3-1.4c0-0.4,0.1-0.9,0.3-1.3
		c0.2-0.4,0.4-0.7,0.7-1c0.3-0.3,0.7-0.5,1.1-0.7c0.4-0.2,0.9-0.2,1.3-0.2c0.4,0,0.9,0.1,1.3,0.2c0.4,0.2,0.8,0.4,1.1,0.7
		c0.3,0.3,0.6,0.7,0.7,1C315.7,76.6,315.8,77,315.8,77.4L315.8,77.4z M312.4,79.5c0.6,0,1.1-0.2,1.4-0.6c0.4-0.4,0.6-0.9,0.6-1.5
		c0-0.6-0.2-1.1-0.6-1.5c-0.4-0.4-0.9-0.6-1.4-0.6c-0.6,0-1.1,0.2-1.4,0.6c-0.4,0.4-0.6,0.9-0.6,1.5c0,0.6,0.2,1.1,0.6,1.5
		C311.4,79.3,311.8,79.5,312.4,79.5L312.4,79.5z M313.7,72.2l-1.4,1.6h-0.6l0.9-1.6H313.7z M313.7,72.2"/>
	<path class="st0" d="M317,80.5v-6.2h1.4l2.8,3.6c0.1,0.1,0.2,0.2,0.3,0.4c0.1,0.2,0.2,0.4,0.3,0.6c0-0.2-0.1-0.4-0.1-0.5
		c0-0.2,0-0.4,0-0.7v-3.5h1.3v6.2h-1.3l-2.9-3.7c-0.1-0.1-0.2-0.2-0.3-0.4c-0.1-0.2-0.2-0.4-0.3-0.7c0,0.2,0.1,0.4,0.1,0.5
		c0,0.2,0,0.4,0,0.7v3.5H317z M317,80.5"/>
	<path class="st0" d="M201.1,111.3c0,0,0,0-1.2-3.3l-1.1,3.3H201.1z M201.8,113.3H198l-0.7,1.8h-2.9l4.1-10.2h3l4,10.2h-2.9
		L201.8,113.3z M201.8,113.3"/>
	<path class="st0" d="M214.2,105.1v3.2c-0.6-0.7-1.5-1.1-2.4-1.1c-1.7,0-2.8,1.3-2.8,2.8c0,1.6,1.2,2.8,2.9,2.8
		c0.9,0,1.8-0.4,2.4-1.1v3.2c-0.9,0.3-1.6,0.5-2.4,0.5c-1.5,0-2.9-0.5-4-1.5c-1.2-1-1.7-2.3-1.7-3.9c0-1.4,0.6-2.7,1.6-3.7
		c1-1,2.5-1.7,4-1.7C212.5,104.6,213.3,104.8,214.2,105.1L214.2,105.1z M214.2,105.1"/>
	<path class="st0" d="M221.9,111.3c0,0,0,0-1.2-3.3l-1.1,3.3H221.9z M222.6,113.3h-3.8l-0.7,1.8h-2.9l4.1-10.2h3l4,10.2h-2.9
		L222.6,113.3z M222.6,113.3"/>
	<path class="st0" d="M230.2,107.1v5.7h0.6c1.6,0,3-0.9,3-2.9c0-1.8-1.3-2.9-3-2.9H230.2z M227.4,115.1v-10.2h3.9
		c3,0,5.4,2.2,5.4,5.1c0,2.9-2.4,5.1-5.4,5.1H227.4z M227.4,115.1"/>
	<path class="st0" d="M244.3,107.1H241v1.7h3.1v2.3H241v1.8h3.3v2.3h-6v-10.2h6V107.1z M244.3,107.1"/>
	<path class="st0" d="M245.6,115.1l1.8-10.2h2.7l2.1,5.5l2.3-5.5h2.7l1.6,10.2h-2.8c0,0,0,0-0.8-5.9l-2.5,5.9h-1.1c0,0,0,0-2.5-5.9
		l-0.9,5.9H245.6z M245.6,115.1"/>
	<rect x="260.4" y="104.9" class="st0" width="2.8" height="10.2"/>
	<path class="st0" d="M270.9,111.3c0,0,0,0-1.2-3.3l-1.1,3.3H270.9z M271.7,113.3h-3.8l-0.7,1.8h-2.9l4.1-10.2h3l4,10.2h-2.9
		L271.7,113.3z M271.7,113.3"/>
	<path class="st0" d="M284.3,107v2.6h0.5c1,0,2,0,2-1.3c0-1.3-0.9-1.3-2-1.3H284.3z M281.6,115.1v-10.2h4.2c2.3,0,3.9,1,3.9,3.4
		c0,2.4-1.4,3.5-3.8,3.5h-1.6v3.4H281.6z M281.6,115.1"/>
	<path class="st0" d="M296.5,107.1c-1.6,0-3,1.3-3,2.7c0,1.8,1.4,3.1,3,3.1c1.6,0,3-1.3,3-3.1C299.4,108.4,298.1,107.1,296.5,107.1
		L296.5,107.1z M296.5,104.5c3.1,0,5.9,2.2,5.9,5.3c0,3.3-2.5,5.6-5.9,5.6c-3.4,0-5.9-2.3-5.9-5.6
		C290.6,106.7,293.4,104.5,296.5,104.5L296.5,104.5z M296.5,104.5"/>
	<path class="st0" d="M310.8,105.4l-1.1,2.1c-0.5-0.4-1.2-0.7-1.8-0.7c-0.5,0-1.2,0.3-1.2,0.9c0,0.6,0.7,0.8,1.2,1l0.7,0.2
		c1.5,0.4,2.6,1.1,2.6,2.8c0,1-0.3,2.1-1.1,2.8c-0.8,0.7-1.9,1-3,1c-1.3,0-2.6-0.4-3.7-1.2l1.2-2.1c0.7,0.6,1.5,1.1,2.4,1.1
		c0.6,0,1.3-0.3,1.3-1c0-0.7-1.1-1-1.7-1.2c-1.7-0.5-2.9-0.9-2.9-2.9c0-2.1,1.5-3.4,3.7-3.4C308.5,104.6,309.8,104.9,310.8,105.4
		L310.8,105.4z M310.8,105.4"/>
	<path class="st0" d="M317,107.1v8h-2.8v-8H312v-2.3h7.3v2.3H317z M317,107.1"/>
	<path class="st0" d="M325.5,111.3c0,0,0,0-1.2-3.3l-1.1,3.3H325.5z M326.2,113.3h-3.8l-0.7,1.8h-2.9l4.1-10.2h3l4,10.2h-2.9
		L326.2,113.3z M326.2,113.3"/>
	<path class="st0" d="M333.8,104.9v8h3.3v2.3H331v-10.2H333.8z M333.8,104.9"/>
	<path class="st0" d="M244.1,92.4h5.5c0,1.5-0.1,2.8-1.1,4c-1,1.4-2.6,2-4.4,2c-3.3,0-5.6-2.2-5.6-5.4c0-3.3,2.3-5.5,5.7-5.5
		c2.2,0,3.9,1,4.8,2.9l-2.6,1.1c-0.4-1-1.2-1.6-2.3-1.6c-1.8,0-2.8,1.7-2.8,3.2c0,1.6,1,3.2,2.8,3.2c1.2,0,2.1-0.6,2.2-1.8h-2.2
		V92.4z M244.1,92.4"/>
	<path class="st0" d="M253.9,89.9v2.6h0.3c0.9,0,1.9-0.2,1.9-1.3c0-1.1-1-1.3-1.9-1.3H253.9z M256.6,93.9l3.3,4.2h-3.4
		c0,0,0,0-2.6-3.9v3.9h-2.8V87.9h4.1c2.1,0,3.7,1,3.7,3.1C259,92.5,258.1,93.7,256.6,93.9L256.6,93.9z M256.6,93.9"/>
	<path class="st0" d="M267.4,87.9h2.8v5.8c0,1.3-0.1,2.6-1.1,3.6c-0.9,0.8-2.3,1.1-3.5,1.1c-1.2,0-2.6-0.3-3.5-1.1
		c-1.1-1-1.1-2.3-1.1-3.6v-5.8h2.8v5.4c0,1.3,0.1,2.8,1.9,2.8c1.8,0,1.9-1.4,1.9-2.8V87.9z M267.4,87.9"/>
	<path class="st0" d="M275,90.1v2.6h0.5c1,0,2,0,2-1.2c0-1.3-0.9-1.3-2-1.3H275z M272.2,98.1V87.9h4.2c2.3,0,3.8,1,3.8,3.4
		c0,2.4-1.3,3.5-3.8,3.5H275v3.4H272.2z M272.2,98.1"/>
	<path class="st0" d="M287.1,90.1c-1.6,0-3,1.3-3,2.7c0,1.8,1.3,3,3,3c1.6,0,3-1.3,3-3C290.1,91.4,288.8,90.1,287.1,90.1L287.1,90.1
		z M287.1,87.6c3,0,5.9,2.2,5.9,5.3c0,3.3-2.5,5.6-5.9,5.6c-3.4,0-5.9-2.3-5.9-5.6C281.2,89.7,284.1,87.6,287.1,87.6L287.1,87.6z
		 M287.1,87.6"/>
	<path class="st1" d="M280.4,60.4l-1.7,1.4l-1-1l2.1-1.7L280.4,60.4z M280.4,60.4"/>
	<path class="st1" d="M278.8,61.8l1.7-1.4l0.5,1.2l-1.9,0.5L278.8,61.8z M278.8,61.8"/>
	<path class="st2" d="M278.1,55.2l-3,2.5l-0.1-0.1l3-2.5L278.1,55.2z M278.1,55.2"/>
	<path class="st3" d="M278.2,55.4l-3,2.5l-0.1-0.1l3-2.5L278.2,55.4z M278.2,55.4"/>
	<path class="st4" d="M278.3,55.5l-3,2.5l-0.1-0.1l3-2.5L278.3,55.5z M278.3,55.5"/>
	<path class="st5" d="M278.3,55.7l-3,2.5l-0.1-0.1l3-2.5L278.3,55.7z M278.3,55.7"/>
	<path class="st6" d="M278.4,55.8l-3,2.5l-0.1-0.1l3-2.5L278.4,55.8z M278.4,55.8"/>
	<path class="st7" d="M278.4,56l-3,2.5l-0.1-0.1l3-2.5L278.4,56z M278.4,56"/>
	<path class="st8" d="M278.5,56.1l-3,2.5l-0.1-0.1l3-2.5L278.5,56.1z M278.5,56.1"/>
	<path class="st9" d="M278.6,56.2l-2.9,2.5l-0.1-0.1l3-2.5L278.6,56.2z M278.6,56.2"/>
	<path class="st10" d="M278.6,56.4l-2.9,2.5l-0.1-0.1l2.9-2.5L278.6,56.4z M278.6,56.4"/>
	<path class="st11" d="M278.7,56.5l-2.9,2.4l-0.1-0.1l0-0.1l2.9-2.5L278.7,56.5z M278.7,56.5"/>
	<path class="st12" d="M278.8,56.7l-2.9,2.4l-0.1-0.1l2.9-2.4L278.8,56.7z M278.8,56.7"/>
	<path class="st13" d="M278.8,56.8l-2.8,2.4l-0.1-0.1l2.9-2.4L278.8,56.8z M278.8,56.8"/>
	<path class="st14" d="M278.9,57l-2.8,2.3l-0.1-0.1l2.8-2.4L278.9,57z M278.9,57"/>
	<path class="st15" d="M279,57.1l-2.7,2.3l-0.1-0.1l2.8-2.3L279,57.1z M279,57.1"/>
	<path class="st16" d="M279,57.3l-2.7,2.2l-0.1-0.1l2.7-2.3L279,57.3z M279,57.3"/>
	<path class="st17" d="M279.1,57.4l-2.6,2.2l-0.1-0.1l2.7-2.2L279.1,57.4z M279.1,57.4"/>
	<path class="st18" d="M279.2,57.6l-2.6,2.2l-0.1-0.1l2.6-2.2L279.2,57.6z M279.2,57.6"/>
	<path class="st19" d="M279.2,57.7l-2.5,2.1l-0.1-0.1l2.6-2.2L279.2,57.7z M279.2,57.7"/>
	<path class="st20" d="M279.3,57.9l-2.5,2.1l-0.1-0.1l2.5-2.1L279.3,57.9z M279.3,57.9"/>
	<path class="st21" d="M279.4,58l-2.4,2l-0.1-0.1l2.5-2.1L279.4,58z M279.4,58"/>
	<path class="st22" d="M279.4,58.2l-2.4,2l-0.1-0.1l2.4-2L279.4,58.2z M279.4,58.2"/>
	<path class="st23" d="M279.5,58.3l-2.3,2l-0.1-0.1l2.4-2L279.5,58.3z M279.5,58.3"/>
	<path class="st24" d="M279.6,58.4l-2.3,1.9l-0.1-0.1l2.3-2L279.6,58.4z M279.6,58.4"/>
	<path class="st25" d="M279.6,58.6l-2.2,1.9l-0.1-0.1l2.3-1.9L279.6,58.6z M279.6,58.6"/>
	<path class="st26" d="M279.7,58.7l-2.2,1.8l-0.1-0.1l2.2-1.9L279.7,58.7z M279.7,58.7"/>
	<path class="st27" d="M279.8,58.9l-2.1,1.8l-0.1-0.1l2.2-1.8L279.8,58.9z M279.8,58.9"/>
	<path class="st28" d="M279.8,59l-2.1,1.8l-0.1-0.1l2.1-1.8L279.8,59z M279.8,59"/>
	<path class="st29" d="M279.9,59.2l-2.1,1.7l-0.1-0.1l2.1-1.8L279.9,59.2z M279.9,59.2"/>
	<path class="st30" d="M279.9,59.3l-2,1.7l-0.1-0.1l2.1-1.7L279.9,59.3z M279.9,59.3"/>
	<path class="st1" d="M280,59.5l-2,1.6l-0.1-0.1l2-1.7L280,59.5z M280,59.5"/>
	<path class="st31" d="M277.8,54.4l-3.1,2.6l-0.5-0.9l3.2-2.7L277.8,54.4z M277.8,54.4"/>
	<path class="st2" d="M278.2,55.4l-3,2.5l-0.5-0.9l3.1-2.6L278.2,55.4z M278.2,55.4"/>
	<path class="st32" d="M275.5,49.3l-3.5,2.9l-0.1-0.2l3.5-2.9L275.5,49.3z M275.5,49.3"/>
	<path class="st33" d="M275.6,49.5l-3.5,2.9l-0.1-0.2l3.5-2.9L275.6,49.5z M275.6,49.5"/>
	<path class="st34" d="M275.7,49.7l-3.5,2.9l-0.1-0.2l3.5-2.9L275.7,49.7z M275.7,49.7"/>
	<path class="st35" d="M275.8,49.9l-3.4,2.9l-0.1-0.2l3.5-2.9L275.8,49.9z M275.8,49.9"/>
	<path class="st36" d="M275.9,50.2l-3.4,2.9l-0.1-0.2l3.4-2.9L275.9,50.2z M275.9,50.2"/>
	<path class="st37" d="M276,50.4l-3.4,2.8l-0.1-0.2l3.4-2.9L276,50.4z M276,50.4"/>
	<path class="st38" d="M276.1,50.6l-3.4,2.8l-0.1-0.2l3.4-2.8L276.1,50.6z M276.1,50.6"/>
	<path class="st39" d="M276.2,50.9l-3.4,2.8l-0.1-0.2l3.4-2.8L276.2,50.9z M276.2,50.9"/>
	<path class="st40" d="M276.3,51.1l-3.3,2.8l-0.1-0.2l3.4-2.8L276.3,51.1z M276.3,51.1"/>
	<path class="st41" d="M276.4,51.3l-3.3,2.8l-0.1-0.2l3.3-2.8L276.4,51.3z M276.4,51.3"/>
	<path class="st42" d="M276.5,51.5l-3.3,2.8l-0.1-0.2l3.3-2.8L276.5,51.5z M276.5,51.5"/>
	<path class="st43" d="M276.6,51.8l-3.3,2.8l-0.1-0.2l3.3-2.8L276.6,51.8z M276.6,51.8"/>
	<path class="st44" d="M276.7,52l-3.3,2.8l-0.1-0.2l3.3-2.8L276.7,52z M276.7,52"/>
	<path class="st45" d="M276.8,52.2l-3.3,2.7l-0.1-0.2l3.3-2.8L276.8,52.2z M276.8,52.2"/>
	<path class="st46" d="M276.9,52.4l-3.2,2.7l-0.1-0.2l3.3-2.7L276.9,52.4z M276.9,52.4"/>
	<path class="st47" d="M277,52.7l-3.2,2.7l-0.1-0.2l3.2-2.7L277,52.7z M277,52.7"/>
	<path class="st48" d="M277.1,52.9l-3.2,2.7l-0.1-0.2l3.2-2.7L277.1,52.9z M277.1,52.9"/>
	<path class="st49" d="M277.2,53.1l-3.2,2.7l-0.1-0.2l3.2-2.7L277.2,53.1z M277.2,53.1"/>
	<path class="st50" d="M277.3,53.4l-3.2,2.7l-0.1-0.2l3.2-2.7L277.3,53.4z M277.3,53.4"/>
	<path class="st51" d="M277.4,53.6l-3.1,2.6l-0.1-0.2l3.2-2.7L277.4,53.6z M277.4,53.6"/>
	<path class="st31" d="M277.5,53.8l-3.1,2.6l-0.1-0.2l3.1-2.6L277.5,53.8z M277.5,53.8"/>
	<path class="st32" d="M274.4,47l-3.1,2.6l1.2-4.1l0.9-0.7L274.4,47z M274.4,47"/>
	<path class="st32" d="M275.5,49.4l-3.5,2.9l-1-1.7l0.3-1l3.1-2.6L275.5,49.4z M275.5,49.4"/>
	<path class="st52" d="M251,61.7l7-16.8l2,2l-3.3,8.9l-4.2,6L251,61.7z M251,61.7"/>
	<path class="st53" d="M266.4,46.3v4l-0.3,0.1v-4.1C266.2,46.3,266.3,46.3,266.4,46.3L266.4,46.3z M266.4,46.3"/>
	<path class="st54" d="M266.7,46.3v4l-0.3,0.1v-4C266.5,46.3,266.6,46.3,266.7,46.3L266.7,46.3z M266.7,46.3"/>
	<path class="st55" d="M266.9,46.3v3.9l-0.3,0.1v-4C266.7,46.3,266.8,46.3,266.9,46.3L266.9,46.3z M266.9,46.3"/>
	<path class="st56" d="M267.2,46.2v3.9l-0.2,0.1v-3.9C267,46.3,267.1,46.3,267.2,46.2L267.2,46.2z M267.2,46.2"/>
	<path class="st57" d="M267.4,46.2v3.9l-0.3,0.1v-3.9C267.2,46.2,267.3,46.2,267.4,46.2L267.4,46.2z M267.4,46.2"/>
	<path class="st58" d="M267.7,46.2V50l-0.2,0.1v-3.9C267.5,46.2,267.6,46.2,267.7,46.2L267.7,46.2z M267.7,46.2"/>
	<path class="st59" d="M267.9,46.1v3.8l-0.3,0.1v-3.8C267.7,46.2,267.8,46.2,267.9,46.1L267.9,46.1z M267.9,46.1"/>
	<path class="st60" d="M268.2,46.1v3.8l-0.3,0.1v-3.8C268,46.1,268.1,46.1,268.2,46.1L268.2,46.1z M268.2,46.1"/>
	<path class="st61" d="M268.4,46.1v3.7l-0.3,0.1v-3.8C268.2,46.1,268.3,46.1,268.4,46.1L268.4,46.1z M268.4,46.1"/>
	<path class="st62" d="M268.7,46v3.7l-0.3,0.1v-3.7C268.5,46.1,268.6,46,268.7,46L268.7,46z M268.7,46"/>
	<path class="st63" d="M268.9,46v3.7l-0.2,0.1V46C268.8,46,268.8,46,268.9,46L268.9,46z M268.9,46"/>
	<path class="st64" d="M269.2,45.9v3.7l-0.3,0.1V46L269.2,45.9z M269.2,45.9"/>
	<path class="st65" d="M269.4,45.9v3.7l-0.2,0.1v-3.7L269.4,45.9z M269.4,45.9"/>
	<path class="st66" d="M269.7,45.8v3.7l-0.3,0.1v-3.7L269.7,45.8z M269.7,45.8"/>
	<path class="st67" d="M269.9,45.8v3.6l-0.3,0.1v-3.7L269.9,45.8z M269.9,45.8"/>
	<path class="st68" d="M270.2,45.7v3.6l-0.3,0.1v-3.6L270.2,45.7z M270.2,45.7"/>
	<path class="st69" d="M270.4,45.6v3.6l-0.2,0.1v-3.6L270.4,45.6z M270.4,45.6"/>
	<path class="st70" d="M270.7,45.6v3.6l-0.3,0.1v-3.6L270.7,45.6z M270.7,45.6"/>
	<path class="st71" d="M270.9,45.5v3.6l-0.3,0.1v-3.6L270.9,45.5z M270.9,45.5"/>
	<path class="st72" d="M271.2,45.4v3.6l-0.3,0.1v-3.6L271.2,45.4z M271.2,45.4"/>
	<path class="st73" d="M271.4,45.4V49l-0.3,0.1v-3.6L271.4,45.4z M271.4,45.4"/>
	<path class="st74" d="M271.7,45.3v3.6l-0.3,0.1v-3.6L271.7,45.3z M271.7,45.3"/>
	<path class="st75" d="M271.9,45.2v3.6l-0.3,0.1v-3.6L271.9,45.2z M271.9,45.2"/>
	<path class="st76" d="M272.2,45.2v3.6l-0.3,0.1v-3.6L272.2,45.2z M272.2,45.2"/>
	<path class="st77" d="M272.5,45.1v3.6l0,0.1l-0.2,0.1v-3.6L272.5,45.1z M272.5,45.1"/>
	<path class="st78" d="M272.7,45v2.7l-0.3,0.9v-3.6L272.7,45z M272.7,45"/>
	<path class="st79" d="M273,45v1.9l-0.3,0.9V45L273,45z M273,45"/>
	<path class="st80" d="M273.2,44.9v1l-0.3,0.9V45L273.2,44.9z M273.2,44.9"/>
	<path class="st81" d="M273.5,44.8V45l-0.3,0.9v-1L273.5,44.8z M273.5,44.8"/>
	<path class="st82" d="M273.5,45v-0.2l0.1,0L273.5,45z M273.5,45"/>
	<path class="st82" d="M258,44.9v0.3V44.9L258,44.9z M258,44.9"/>
	<path class="st81" d="M258.3,45v1.3l-0.3-1v-0.3C258.1,44.9,258.2,45,258.3,45L258.3,45z M258.3,45"/>
	<path class="st80" d="M258.6,45.1v2.3l-0.3-1V45L258.6,45.1z M258.6,45.1"/>
	<path class="st79" d="M258.9,45.1v3.2l-0.3-1v-2.3L258.9,45.1z M258.9,45.1"/>
	<path class="st78" d="M259.2,45.2v3.9l-0.1,0l-0.2-0.7v-3.2L259.2,45.2z M259.2,45.2"/>
	<path class="st77" d="M259.5,45.3v3.9l-0.3-0.1v-3.9L259.5,45.3z M259.5,45.3"/>
	<path class="st76" d="M259.8,45.4v3.9l-0.3-0.1v-3.9L259.8,45.4z M259.8,45.4"/>
	<path class="st75" d="M260.1,45.4v3.9l-0.3-0.1v-3.9L260.1,45.4z M260.1,45.4"/>
	<path class="st74" d="M260.4,45.5v3.8l-0.3-0.1v-3.9L260.4,45.5z M260.4,45.5"/>
	<path class="st73" d="M260.7,45.6v3.8l-0.3-0.1v-3.8L260.7,45.6z M260.7,45.6"/>
	<path class="st72" d="M261,45.6v3.8l-0.3-0.1v-3.8L261,45.6z M261,45.6"/>
	<path class="st71" d="M261.3,45.7v3.8l-0.3-0.1v-3.8L261.3,45.7z M261.3,45.7"/>
	<path class="st70" d="M261.6,45.7v3.8l-0.3-0.1v-3.8L261.6,45.7z M261.6,45.7"/>
	<path class="st69" d="M261.8,45.8v3.8l-0.3-0.1v-3.8L261.8,45.8z M261.8,45.8"/>
	<path class="st68" d="M262.1,45.9v3.8l-0.3-0.1v-3.8L262.1,45.9z M262.1,45.9"/>
	<path class="st67" d="M262.4,45.9v3.8l-0.3-0.1v-3.8L262.4,45.9z M262.4,45.9"/>
	<path class="st66" d="M262.7,46v3.8l-0.3-0.1v-3.8C262.5,45.9,262.6,45.9,262.7,46L262.7,46z M262.7,46"/>
	<path class="st65" d="M263,46v3.8l-0.3-0.1V46C262.8,46,262.9,46,263,46L263,46z M263,46"/>
	<path class="st64" d="M263.3,46.1v3.8l-0.3-0.1V46C263.1,46,263.2,46,263.3,46.1L263.3,46.1z M263.3,46.1"/>
	<path class="st63" d="M263.6,46.1v3.8l-0.3-0.1v-3.8C263.4,46.1,263.5,46.1,263.6,46.1L263.6,46.1z M263.6,46.1"/>
	<path class="st62" d="M263.9,46.1V50l-0.3-0.1v-3.8C263.7,46.1,263.8,46.1,263.9,46.1L263.9,46.1z M263.9,46.1"/>
	<path class="st61" d="M264.2,46.2v3.9l-0.3-0.1v-3.9C264,46.2,264.1,46.2,264.2,46.2L264.2,46.2z M264.2,46.2"/>
	<path class="st60" d="M264.5,46.2v3.9l-0.3-0.1v-3.9C264.3,46.2,264.4,46.2,264.5,46.2L264.5,46.2z M264.5,46.2"/>
	<path class="st59" d="M264.8,46.3v3.9l-0.3-0.1v-3.9C264.6,46.2,264.7,46.2,264.8,46.3L264.8,46.3z M264.8,46.3"/>
	<path class="st58" d="M265.1,46.3v3.9l-0.3-0.1v-3.9C264.9,46.3,265,46.3,265.1,46.3L265.1,46.3z M265.1,46.3"/>
	<path class="st57" d="M265.4,46.3v4l-0.3-0.1v-3.9C265.2,46.3,265.3,46.3,265.4,46.3L265.4,46.3z M265.4,46.3"/>
	<path class="st56" d="M265.7,46.3v4l-0.3-0.1v-4C265.5,46.3,265.6,46.3,265.7,46.3L265.7,46.3z M265.7,46.3"/>
	<path class="st55" d="M266,46.3v4.1l-0.3-0.1v-4C265.8,46.3,265.9,46.3,266,46.3L266,46.3z M266,46.3"/>
	<path class="st54" d="M266.3,46.3v4.1l-0.2,0l-0.1,0v-4.1h0C266.1,46.3,266.2,46.3,266.3,46.3L266.3,46.3z M266.3,46.3"/>
	<path class="st53" d="M266.5,46.3v4l-0.3,0.1v-4.1C266.3,46.3,266.4,46.3,266.5,46.3L266.5,46.3z M266.5,46.3"/>
	<path class="st83" d="M266.7,61.2v3.1c-0.2,0-0.4,0-0.6,0v-3.1L266.7,61.2z M266.7,61.2"/>
	<path class="st84" d="M267.2,61.2v3.1c-0.2,0-0.4,0-0.6,0v-3.1H267.2z M267.2,61.2"/>
	<path class="st85" d="M267.8,61.2v3.1c-0.2,0-0.4,0-0.6,0v-3.1L267.8,61.2z M267.8,61.2"/>
	<path class="st86" d="M268.4,61.2v3c-0.2,0-0.4,0-0.6,0v-3.1L268.4,61.2z M268.4,61.2"/>
	<path class="st87" d="M268.9,61.2v3c-0.2,0-0.4,0-0.6,0v-3L268.9,61.2z M268.9,61.2"/>
	<path class="st88" d="M269.5,61.2v3c-0.2,0-0.4,0-0.6,0v-3L269.5,61.2z M269.5,61.2"/>
	<path class="st89" d="M270,61.2v3c-0.2,0-0.4,0-0.6,0v-3L270,61.2z M270,61.2"/>
	<path class="st90" d="M270.6,61.2v2.9c-0.2,0-0.4,0-0.6,0v-3L270.6,61.2z M270.6,61.2"/>
	<path class="st91" d="M271.1,61.2v2.9c-0.2,0-0.4,0-0.6,0v-2.9H271.1z M271.1,61.2"/>
	<path class="st92" d="M271.7,61.2V64c-0.2,0-0.4,0-0.6,0.1v-2.9L271.7,61.2z M271.7,61.2"/>
	<path class="st93" d="M272.3,61.2V64c-0.2,0-0.4,0-0.6,0.1v-2.8L272.3,61.2z M272.3,61.2"/>
	<path class="st94" d="M272.8,61.2v2.7c-0.2,0-0.4,0-0.6,0.1v-2.8L272.8,61.2z M272.8,61.2"/>
	<path class="st95" d="M273.4,61.2v2.6c-0.2,0-0.4,0-0.6,0.1v-2.7L273.4,61.2z M273.4,61.2"/>
	<path class="st96" d="M273.9,61.2v2.5c-0.2,0-0.4,0.1-0.6,0.1v-2.6L273.9,61.2z M273.9,61.2"/>
	<path class="st97" d="M274.5,61.2v2.5c-0.2,0-0.4,0.1-0.6,0.1v-2.5L274.5,61.2z M274.5,61.2"/>
	<path class="st98" d="M275,61.2v2.4c-0.2,0-0.4,0.1-0.6,0.1v-2.5L275,61.2z M275,61.2"/>
	<path class="st99" d="M275.6,61.2v2.3c-0.2,0-0.4,0.1-0.6,0.1v-2.4H275.6z M275.6,61.2"/>
	<path class="st100" d="M276.2,61.2v2.1c-0.2,0-0.4,0.1-0.6,0.1v-2.3L276.2,61.2z M276.2,61.2"/>
	<path class="st101" d="M276.7,61.2v2c-0.2,0-0.4,0.1-0.6,0.1v-2.1L276.7,61.2z M276.7,61.2"/>
	<path class="st102" d="M277.3,61.2v1.9c-0.2,0-0.4,0.1-0.6,0.1v-2L277.3,61.2z M277.3,61.2"/>
	<path class="st103" d="M277.8,61.2V63c-0.2,0.1-0.4,0.1-0.6,0.2v-1.9L277.8,61.2z M277.8,61.2"/>
	<path class="st104" d="M278.4,61.3v1.5c-0.2,0.1-0.4,0.1-0.6,0.2v-1.7h0.2L278.4,61.3z M278.4,61.3"/>
	<path class="st105" d="M279,61.4v1.2c-0.2,0.1-0.4,0.1-0.6,0.2v-1.5L279,61.4z M279,61.4"/>
	<path class="st106" d="M279.5,61.4v1c-0.2,0.1-0.4,0.1-0.6,0.2v-1.2L279.5,61.4z M279.5,61.4"/>
	<path class="st107" d="M280.1,61.5v0.6c-0.2,0.1-0.3,0.2-0.6,0.3v-1L280.1,61.5z M280.1,61.5"/>
	<path class="st108" d="M280.6,61.6v0.3c-0.1,0.1-0.3,0.2-0.6,0.3v-0.6L280.6,61.6z M280.6,61.6"/>
	<path class="st82" d="M280.6,61.8v-0.3l0.4,0C281,61.6,280.9,61.7,280.6,61.8L280.6,61.8z M280.6,61.8"/>
	<path class="st82" d="M251.4,61.6v0.3c-0.3-0.1-0.4-0.2-0.4-0.2L251.4,61.6z M251.4,61.6"/>
	<path class="st108" d="M251.9,61.5v0.7c-0.2-0.1-0.4-0.2-0.6-0.3v-0.3L251.9,61.5z M251.9,61.5"/>
	<path class="st107" d="M252.5,61.4v1.1c-0.2-0.1-0.4-0.2-0.6-0.2v-0.7L252.5,61.4z M252.5,61.4"/>
	<path class="st106" d="M253.1,61.2v1.4c-0.2-0.1-0.4-0.1-0.6-0.2v-1.1L253.1,61.2z M253.1,61.2"/>
	<path class="st105" d="M253.7,61.1v1.8c-0.2-0.1-0.4-0.1-0.6-0.2v-1.4L253.7,61.1L253.7,61.1z M253.7,61.1"/>
	<path class="st104" d="M254.3,61.1V63c-0.2-0.1-0.4-0.1-0.6-0.2v-1.8L254.3,61.1z M254.3,61.1"/>
	<path class="st103" d="M254.9,61.1v2.1c-0.2-0.1-0.4-0.1-0.6-0.2v-1.9L254.9,61.1z M254.9,61.1"/>
	<path class="st102" d="M255.4,61.1v2.2c-0.2,0-0.4-0.1-0.6-0.1v-2.1L255.4,61.1z M255.4,61.1"/>
	<path class="st101" d="M256,61.1v2.3c-0.2,0-0.4-0.1-0.6-0.1v-2.2L256,61.1z M256,61.1"/>
	<path class="st100" d="M256.6,61.1v2.4c-0.2,0-0.4-0.1-0.6-0.1v-2.3L256.6,61.1z M256.6,61.1"/>
	<path class="st99" d="M257.2,61.1v2.5c-0.2,0-0.4-0.1-0.6-0.1v-2.4L257.2,61.1z M257.2,61.1"/>
	<path class="st98" d="M257.8,61.1v2.6c-0.2,0-0.4-0.1-0.6-0.1v-2.5L257.8,61.1z M257.8,61.1"/>
	<path class="st97" d="M258.4,61.1v2.7c-0.2,0-0.4,0-0.6-0.1v-2.6L258.4,61.1z M258.4,61.1"/>
	<path class="st96" d="M258.9,61.1v2.8c-0.2,0-0.4,0-0.6-0.1v-2.7H258.9z M258.9,61.1"/>
	<path class="st95" d="M259.5,61.1V64c-0.2,0-0.4,0-0.6-0.1v-2.8L259.5,61.1z M259.5,61.1"/>
	<path class="st94" d="M260.1,61.1V64c-0.2,0-0.4,0-0.6-0.1v-2.8L260.1,61.1z M260.1,61.1"/>
	<path class="st93" d="M260.7,61.1v2.9c-0.2,0-0.4,0-0.6-0.1v-2.9L260.7,61.1z M260.7,61.1"/>
	<path class="st92" d="M261.3,61.1v3c-0.2,0-0.4,0-0.6,0v-2.9L261.3,61.1z M261.3,61.1"/>
	<path class="st91" d="M261.9,61.2v3c-0.2,0-0.4,0-0.6,0v-3L261.9,61.2z M261.9,61.2"/>
	<path class="st90" d="M262.4,61.2v3c-0.2,0-0.4,0-0.6,0v-3L262.4,61.2z M262.4,61.2"/>
	<path class="st89" d="M263,61.2v3.1c-0.2,0-0.4,0-0.6,0v-3L263,61.2z M263,61.2"/>
	<path class="st88" d="M263.6,61.2v3.1c-0.2,0-0.4,0-0.6,0v-3.1L263.6,61.2z M263.6,61.2"/>
	<path class="st87" d="M264.2,61.2v3.1c-0.2,0-0.4,0-0.6,0v-3.1L264.2,61.2z M264.2,61.2"/>
	<path class="st86" d="M264.8,61.2v3.1c-0.2,0-0.4,0-0.6,0v-3.1L264.8,61.2z M264.8,61.2"/>
	<path class="st85" d="M265.4,61.2v3.1c-0.2,0-0.4,0-0.6,0v-3.1H265.4z M265.4,61.2"/>
	<path class="st84" d="M265.9,61.2v3.1c-0.2,0-0.4,0-0.6,0v-3.1H265.9z M265.9,61.2"/>
	<path class="st83" d="M266.5,61.2v3.1c-0.1,0-0.3,0-0.4,0h-0.1v-3.1L266.5,61.2z M266.5,61.2"/>
	<path class="st109" d="M258.8,47.9L253,61.2c0,0,5.2,2,13.1,2c7.9,0,12.8-1.9,12.8-1.9l-6.1-13.4c0,0-4.9,0.9-6.7,0.9
		C264.1,48.8,258.8,47.9,258.8,47.9L258.8,47.9z M258.8,47.9"/>
	<path class="st53" d="M226.3,59V43.5l1.2,0.7v15.2L226.3,59z M226.3,17.5V7.9c0.4-0.1,0.8-0.2,1.2-0.3v9.6L226.3,17.5z M226.3,17.5
		"/>
	<path class="st110" d="M225.1,58.5V42.8l1.2,0.7V59L225.1,58.5z M225.1,17.7V8.2c0.4-0.1,0.8-0.2,1.2-0.3v9.6L225.1,17.7z
		 M225.1,17.7"/>
	<path class="st111" d="M223.9,58.1V42.1l1.2,0.7v15.8C224.7,58.4,224.3,58.3,223.9,58.1L223.9,58.1z M223.9,18V8.5
		c0.4-0.1,0.8-0.2,1.2-0.3v9.6L223.9,18z M223.9,18"/>
	<path class="st112" d="M222.7,57.7V41.4l1.2,0.7v16.1C223.5,58,223.1,57.9,222.7,57.7L222.7,57.7z M222.7,18.2V8.8
		c0.4-0.1,0.8-0.2,1.2-0.3V18L222.7,18.2z M222.7,18.2"/>
	<path class="st113" d="M221.5,57.3V40.7l1.2,0.7v16.3C222.3,57.6,221.9,57.4,221.5,57.3L221.5,57.3z M221.5,18.5V9.1
		c0.4-0.1,0.8-0.2,1.2-0.3v9.5L221.5,18.5z M221.5,18.5"/>
	<path class="st114" d="M220.3,56.9V40l1.2,0.7v16.6C221.1,57.2,220.7,57,220.3,56.9L220.3,56.9z M220.3,18.7V9.4
		c0.4-0.1,0.8-0.2,1.2-0.3v9.4L220.3,18.7z M220.3,18.7"/>
	<path class="st115" d="M219.2,56.4V39.2l1.2,0.7v16.9C220,56.7,219.6,56.6,219.2,56.4L219.2,56.4z M219.2,19V9.8
		c0.4-0.1,0.8-0.2,1.2-0.4v9.3L219.2,19z M219.2,19"/>
	<path class="st116" d="M218,56V38.5l1.2,0.7v17.2C218.8,56.3,218.4,56.1,218,56L218,56z M218,20.8V10.2c0.4-0.1,0.8-0.2,1.2-0.4V19
		l-0.3,0.1L218,20.8z M218,20.8"/>
	<path class="st117" d="M216.8,55.5V37.8l1.2,0.7V56C217.6,55.8,217.2,55.7,216.8,55.5L216.8,55.5z M216.8,23.2V10.5
		c0.4-0.1,0.8-0.3,1.2-0.4v10.7L216.8,23.2z M216.8,23.2"/>
	<path class="st118" d="M215.6,55.1V37.1l1.2,0.7v17.7C216.4,55.4,216,55.2,215.6,55.1L215.6,55.1z M215.6,25.7V10.9
		c0.4-0.1,0.8-0.3,1.2-0.4v12.7L215.6,25.7z M215.6,25.7"/>
	<path class="st119" d="M214.4,54.6V36.4l1.2,0.7v17.9C215.2,54.9,214.8,54.7,214.4,54.6L214.4,54.6z M214.4,28.1V11.4
		c0.4-0.1,0.8-0.3,1.2-0.4v14.7L214.4,28.1z M214.4,28.1"/>
	<path class="st120" d="M213.3,54.1V35.7l1.2,0.7v18.2C214,54.4,213.7,54.2,213.3,54.1L213.3,54.1z M213.3,30.5V11.8
		c0.4-0.1,0.8-0.3,1.2-0.4v16.7L213.3,30.5z M213.3,30.5"/>
	<path class="st121" d="M212.1,53.6V35l1.2,0.7v18.4C212.9,53.9,212.5,53.7,212.1,53.6L212.1,53.6z M212.1,33V12.3
		c0.4-0.2,0.8-0.3,1.2-0.5v18.7L212.1,33z M212.1,33"/>
	<path class="st122" d="M210.9,53V12.8c0.4-0.2,0.8-0.3,1.2-0.5V33l-0.8,1.6l0.8,0.5v18.6C211.7,53.4,211.3,53.2,210.9,53L210.9,53z
		 M210.9,53"/>
	<path class="st123" d="M209.7,52.5V13.3c0.4-0.2,0.8-0.3,1.2-0.5V53C210.5,52.8,210.1,52.7,209.7,52.5L209.7,52.5z M209.7,52.5"/>
	<path class="st124" d="M208.5,51.9V13.8c0.4-0.2,0.8-0.4,1.2-0.5v39.2C209.3,52.3,208.9,52.1,208.5,51.9L208.5,51.9z M208.5,51.9"
		/>
	<path class="st125" d="M207.4,51.3V14.4c0.4-0.2,0.8-0.4,1.2-0.6v38.1C208.1,51.7,207.7,51.5,207.4,51.3L207.4,51.3z M207.4,51.3"
		/>
	<path class="st126" d="M206.2,50.6V15c0.4-0.2,0.8-0.4,1.2-0.6v36.9C207,51.1,206.6,50.9,206.2,50.6L206.2,50.6z M206.2,50.6"/>
	<path class="st127" d="M205,50V15.6c0.4-0.2,0.8-0.4,1.2-0.6v35.7C205.8,50.4,205.4,50.2,205,50L205,50z M205,50"/>
	<path class="st128" d="M203.8,49.2V16.3c0.4-0.2,0.8-0.5,1.2-0.7V50C204.6,49.7,204.2,49.5,203.8,49.2L203.8,49.2z M203.8,49.2"/>
	<path class="st129" d="M202.6,48.5V17c0.4-0.3,0.8-0.5,1.2-0.7v32.9C203.4,49,203,48.7,202.6,48.5L202.6,48.5z M202.6,48.5"/>
	<path class="st130" d="M201.4,47.7V17.8c0.4-0.3,0.8-0.5,1.2-0.8v31.4C202.2,48.2,201.8,47.9,201.4,47.7L201.4,47.7z M201.4,47.7"
		/>
	<path class="st131" d="M200.3,46.8V18.7c0.4-0.3,0.8-0.6,1.2-0.9v29.8C201,47.4,200.6,47.1,200.3,46.8L200.3,46.8z M200.3,46.8"/>
	<path class="st132" d="M199.1,45.8V19.6c0.4-0.3,0.8-0.6,1.2-1v28.1C199.9,46.5,199.5,46.1,199.1,45.8L199.1,45.8z M199.1,45.8"/>
	<path class="st133" d="M197.9,44.7v-24c0.4-0.4,0.8-0.7,1.2-1.1v26.2C198.7,45.5,198.3,45.1,197.9,44.7L197.9,44.7z M197.9,44.7"/>
	<path class="st134" d="M196.7,43.5V21.9c0.4-0.4,0.8-0.8,1.2-1.2v24C197.5,44.3,197.1,43.9,196.7,43.5L196.7,43.5z M196.7,43.5"/>
	<path class="st135" d="M195.5,42.1V23.3c0.4-0.5,0.8-0.9,1.2-1.4v21.6C196.3,43.1,195.9,42.6,195.5,42.1L195.5,42.1z M195.5,42.1"
		/>
	<path class="st136" d="M194.4,40.4V25.1c0.4-0.6,0.8-1.2,1.2-1.7v18.8C195.1,41.6,194.7,41,194.4,40.4L194.4,40.4z M194.4,40.4"/>
	<path class="st137" d="M193.2,38V27.5c0.3-0.8,0.7-1.6,1.2-2.4v15.3C193.9,39.6,193.5,38.8,193.2,38L193.2,38z M193.2,38"/>
	<path class="st138" d="M193.2,27.5V38c-0.6-1.6-1-3.4-1-5.2C192.2,30.9,192.5,29.1,193.2,27.5L193.2,27.5z M193.2,27.5"/>
	<path class="st138" d="M264.5,7.5V3.4c0.4,0,0.7,0,1.1,0L264.5,7.5z M264.5,7.5"/>
	<path class="st137" d="M263.2,9.5V3.4c0.4,0,0.9,0,1.3,0v4.1L264,9.4L263.2,9.5z M263.2,9.5"/>
	<path class="st136" d="M261.9,9.8V3.4c0.4,0,0.9,0,1.3,0v6.1L261.9,9.8z M261.9,9.8"/>
	<path class="st135" d="M260.7,10.1V3.5c0.4,0,0.9,0,1.3,0v6.4L260.7,10.1z M260.7,10.1"/>
	<path class="st134" d="M259.4,10.4V3.5c0.4,0,0.9,0,1.3,0v6.6L259.4,10.4z M259.4,10.4"/>
	<path class="st133" d="M258.1,10.6V3.6c0.4,0,0.9,0,1.3-0.1v6.8L258.1,10.6z M258.1,10.6"/>
	<path class="st132" d="M256.8,10.9V3.6c0.4,0,0.9,0,1.3-0.1v7.1L256.8,10.9z M256.8,10.9"/>
	<path class="st131" d="M255.5,11.2V3.7c0.4,0,0.9-0.1,1.3-0.1v7.3L255.5,11.2z M255.5,11.2"/>
	<path class="st130" d="M254.2,11.5V3.8c0.4,0,0.9-0.1,1.3-0.1v7.5L254.2,11.5z M254.2,11.5"/>
	<path class="st129" d="M252.9,11.7V3.9c0.4,0,0.9-0.1,1.3-0.1v7.7L252.9,11.7z M252.9,11.7"/>
	<path class="st128" d="M251.6,12V4c0.4,0,0.9-0.1,1.3-0.1v7.9L251.6,12z M251.6,12"/>
	<path class="st127" d="M250.3,12.3V4.1c0.4,0,0.9-0.1,1.3-0.1v8L250.3,12.3z M250.3,12.3"/>
	<path class="st126" d="M249,12.6V4.2c0.4,0,0.9-0.1,1.3-0.1v8.2L249,12.6z M249,12.6"/>
	<path class="st125" d="M247.7,12.9V4.3c0.4,0,0.9-0.1,1.3-0.1v8.4L247.7,12.9z M247.7,12.9"/>
	<path class="st124" d="M246.4,13.1V4.5c0.4,0,0.9-0.1,1.3-0.1v8.5L246.4,13.1z M246.4,13.1"/>
	<path class="st123" d="M245.1,13.4V4.6c0.4,0,0.9-0.1,1.3-0.1v8.7L245.1,13.4z M245.1,13.4"/>
	<path class="st122" d="M243.8,13.7V4.8c0.4-0.1,0.9-0.1,1.3-0.2v8.8L243.8,13.7z M243.8,13.7"/>
	<path class="st121" d="M242.6,14v-9c0.4-0.1,0.9-0.1,1.3-0.2v8.9L242.6,14z M242.6,14"/>
	<path class="st120" d="M241.3,14.2V5.1c0.4-0.1,0.9-0.1,1.3-0.2v9L241.3,14.2z M241.3,14.2"/>
	<path class="st119" d="M240,14.5V5.3c0.4-0.1,0.9-0.1,1.3-0.2v9.1L240,14.5z M240,14.5"/>
	<path class="st118" d="M238.7,14.8V5.5c0.4-0.1,0.9-0.1,1.3-0.2v9.2L238.7,14.8z M238.7,14.8"/>
	<path class="st117" d="M237.4,15.1V5.7c0.4-0.1,0.9-0.1,1.3-0.2v9.3L237.4,15.1z M237.4,15.1"/>
	<path class="st116" d="M236.1,15.4V5.9c0.4-0.1,0.9-0.1,1.3-0.2v9.4L236.1,15.4z M236.1,15.4"/>
	<path class="st115" d="M234.8,50.8v-2.2l0.9,0.5L234.8,50.8z M234.8,15.6V6.1c0.4-0.1,0.9-0.2,1.3-0.2v9.5L234.8,15.6z M234.8,15.6
		"/>
	<path class="st114" d="M233.5,53.4v-5.6l1.3,0.8v2.2L233.5,53.4z M233.5,15.9V6.4c0.4-0.1,0.9-0.2,1.3-0.2v9.5L233.5,15.9z
		 M233.5,15.9"/>
	<path class="st113" d="M232.2,56V47l1.3,0.8v5.6L232.2,56z M232.2,16.2V6.6c0.4-0.1,0.9-0.2,1.3-0.2v9.6L232.2,16.2z M232.2,16.2"
		/>
	<path class="st112" d="M230.9,58.5V46.3l1.3,0.8V56L230.9,58.5z M230.9,16.5V6.9c0.4-0.1,0.9-0.2,1.3-0.3v9.6L230.9,16.5z
		 M230.9,16.5"/>
	<path class="st111" d="M229.6,60.1V45.5l1.3,0.8v12.3l-0.9,1.7L229.6,60.1z M229.6,16.7V7.1c0.4-0.1,0.9-0.2,1.3-0.3v9.6
		L229.6,16.7z M229.6,16.7"/>
	<path class="st110" d="M228.3,59.7V44.7l1.3,0.8v14.6C229.2,60,228.8,59.8,228.3,59.7L228.3,59.7z M228.3,17V7.4
		c0.4-0.1,0.9-0.2,1.3-0.3v9.6L228.3,17z M228.3,17"/>
	<path class="st53" d="M227,59.2V44l1.3,0.8v14.9C227.9,59.5,227.5,59.4,227,59.2L227,59.2z M227,17.3V7.7c0.4-0.1,0.9-0.2,1.3-0.3
		V17L227,17.3z M227,17.3"/>
	<path class="st138" d="M227.3,70.1v-5.5l2.5-6.3v11l-0.3,0.5L227.3,70.1z M227.3,70.1"/>
	<path class="st138" d="M227.3,64.6v5.5l-2.4,0.3L227.3,64.6z M227.3,64.6"/>
	<path class="st53" d="M248.8,24.9v-1.1l0.5,0L248.8,24.9z M248.8,24.9"/>
	<path class="st110" d="M248.2,26.5v-2.7l0.7,0v1.1L248.2,26.5z M248.2,26.5"/>
	<path class="st111" d="M247.5,28.1v-4.3l0.7,0v2.7L247.5,28.1z M247.5,28.1"/>
	<path class="st112" d="M246.8,29.7v-5.9l0.7,0v4.3L246.8,29.7z M246.8,29.7"/>
	<path class="st113" d="M246.2,31.3v-7.5l0.7,0v5.9L246.2,31.3z M246.2,31.3"/>
	<path class="st114" d="M245.5,32.9v-9.1l0.7,0v7.5L245.5,32.9z M245.5,32.9"/>
	<path class="st115" d="M244.8,34.5V23.8l0.7,0v9.1L244.8,34.5z M244.8,34.5"/>
	<path class="st116" d="M244.2,36.1V23.8l0.7,0v10.7L244.2,36.1z M244.2,36.1"/>
	<path class="st117" d="M243.5,37.7V24.8l0.4-1.1l0.2,0v12.4L243.5,37.7z M243.5,37.7"/>
	<path class="st118" d="M242.8,39.3V26.4l0.7-1.6v12.9L242.8,39.3z M242.8,39.3"/>
	<path class="st119" d="M242.2,40.9V28.1l0.7-1.6v12.9L242.2,40.9z M242.2,40.9"/>
	<path class="st120" d="M241.5,42.5V29.7l0.7-1.6v12.8L241.5,42.5z M241.5,42.5"/>
	<path class="st121" d="M240.8,44.1V31.4l0.7-1.6v12.8L240.8,44.1z M240.8,44.1"/>
	<path class="st122" d="M240.1,45.7V33l0.7-1.6v12.7L240.1,45.7z M240.1,45.7"/>
	<path class="st123" d="M239.5,47.3V34.7l0.7-1.6v12.7L239.5,47.3z M239.5,47.3"/>
	<path class="st124" d="M238.8,48.9V36.3l0.7-1.6v12.6L238.8,48.9z M238.8,48.9"/>
	<path class="st125" d="M238.1,50.5V37.9l0.7-1.6v12.6L238.1,50.5z M238.1,50.5"/>
	<path class="st126" d="M237.5,52.1V39.6l0.7-1.6v12.5L237.5,52.1z M237.5,52.1"/>
	<path class="st127" d="M236.8,53.7V41.2l0.7-1.6v12.5L236.8,53.7z M236.8,53.7"/>
	<path class="st128" d="M236.1,55.2V42.9l0.7-1.6v12.4L236.1,55.2z M236.1,55.2"/>
	<path class="st129" d="M235.5,56.8V44.5l0.7-1.6v12.4L235.5,56.8z M235.5,56.8"/>
	<path class="st130" d="M234.8,58.4V46.1l0.7-1.6v12.3L234.8,58.4z M234.8,58.4"/>
	<path class="st131" d="M234.1,60V47.8l0.7-1.6v12.3L234.1,60z M234.1,60"/>
	<path class="st132" d="M233.5,61.6V49.4l0.7-1.6V60L233.5,61.6z M233.5,61.6"/>
	<path class="st133" d="M232.8,63.2V51.1l0.7-1.6v12.2L232.8,63.2z M232.8,63.2"/>
	<path class="st134" d="M232.1,64.8V52.7l0.7-1.6v12.1L232.1,64.8z M232.1,64.8"/>
	<path class="st135" d="M231.5,66.3V54.4l0.7-1.6v12.1l-0.4,1L231.5,66.3z M231.5,66.3"/>
	<path class="st136" d="M230.8,67.5V56l0.7-1.6v11.9L230.8,67.5z M230.8,67.5"/>
	<path class="st137" d="M230.1,68.8V57.6l0.7-1.6v11.5L230.1,68.8z M230.1,68.8"/>
	<path class="st138" d="M229.5,69.8V59.3l0.7-1.6v11.1l-0.5,1L229.5,69.8z M229.5,69.8"/>
	<path class="st139" d="M224.9,70.4h21.7l-1.3-2.9l-15.8,0L224.9,70.4z M224.9,70.4"/>
	<path class="st139" d="M264.7,27.1l1-0.4V3.4L261.8,7l-0.7,19.3L264.7,27.1z M264.7,27.1"/>
	<path class="st140" d="M254,53.5v-9.6l0.6-1.5V52L254,53.5z M254,53.5"/>
	<path class="st141" d="M253.4,54.9v-9.6l0.6-1.5v9.6L253.4,54.9z M253.4,54.9"/>
	<path class="st142" d="M252.8,56.4v-9.5l0.6-1.5v9.6L252.8,56.4z M252.8,56.4"/>
	<path class="st143" d="M252.1,57.9v-9.5l0.6-1.5v9.5L252.1,57.9z M252.1,57.9"/>
	<path class="st144" d="M251.5,59.3v-9.5l0.6-1.5v9.5L251.5,59.3z M251.5,59.3"/>
	<path class="st145" d="M250.8,60.8v-9.5l0.6-1.5v9.5L250.8,60.8z M250.8,60.8"/>
	<path class="st146" d="M250.2,62.3v-9.5l0.6-1.5v9.5L250.2,62.3z M250.2,62.3"/>
	<path class="st147" d="M249.6,63.8v-9.5l0.6-1.5v9.5L249.6,63.8z M249.6,63.8"/>
	<path class="st148" d="M248.9,65.2v-9.5l0.6-1.5v9.5L248.9,65.2z M248.9,65.2"/>
	<path class="st149" d="M248.3,66.7v-9.5l0.6-1.5v9.5L248.3,66.7z M248.3,66.7"/>
	<path class="st150" d="M247.7,68.2v-9.5l0.6-1.5v9.5L247.7,68.2z M247.7,68.2"/>
	<path class="st151" d="M247,69.6v-9.5l0.6-1.5v9.5L247,69.6z M247,69.6"/>
	<path class="st152" d="M246.4,70v-8.3l0.6-1.5v9.5l-0.3,0.7L246.4,70z M246.4,70"/>
	<path class="st153" d="M245.7,69.2v-6.1l0.6-1.5V70L245.7,69.2z M245.7,69.2"/>
	<path class="st154" d="M245.1,68.4v-3.8l0.6-1.5v6.1L245.1,68.4z M245.1,68.4"/>
	<path class="st155" d="M244.5,67.6v-1.6l0.6-1.5v3.8L244.5,67.6z M244.5,67.6"/>
	<path class="st156" d="M244.5,66.1v1.6l-0.4-0.5L244.5,66.1z M244.5,66.1"/>
	<path class="st156" d="M265.2,27.8v-1.2l0.5,0.1L265.2,27.8z M265.2,27.8"/>
	<path class="st155" d="M264.5,29.4v-3l0.7,0.2v1.2L264.5,29.4z M264.5,29.4"/>
	<path class="st154" d="M263.8,30.9v-4.8l0.7,0.2v3L263.8,30.9z M263.8,30.9"/>
	<path class="st153" d="M263.1,32.5V26l0.7,0.2v4.8L263.1,32.5z M263.1,32.5"/>
	<path class="st152" d="M262.4,34.1v-8.3l0.7,0.2v6.5L262.4,34.1z M262.4,34.1"/>
	<path class="st151" d="M261.8,35.6V26l0.2-0.4l0.5,0.1v8.3L261.8,35.6z M261.8,35.6"/>
	<path class="st150" d="M261.1,37.2v-9.6l0.7-1.6v9.7L261.1,37.2z M261.1,37.2"/>
	<path class="st149" d="M260.4,38.8v-9.6l0.7-1.6v9.6L260.4,38.8z M260.4,38.8"/>
	<path class="st148" d="M259.7,40.3v-9.6l0.7-1.6v9.6L259.7,40.3z M259.7,40.3"/>
	<path class="st147" d="M259,41.9v-9.6l0.7-1.6v9.6L259,41.9z M259,41.9"/>
	<path class="st146" d="M258.3,43.5v-9.6l0.7-1.6v9.6L258.3,43.5z M258.3,43.5"/>
	<path class="st145" d="M257.7,45.1v-9.6l0.7-1.6v9.6L257.7,45.1z M257.7,45.1"/>
	<path class="st144" d="M257,46.6V37l0.7-1.6v9.6L257,46.6z M257,46.6"/>
	<path class="st143" d="M256.3,48.2v-9.6L257,37v9.6L256.3,48.2z M256.3,48.2"/>
	<path class="st142" d="M255.6,49.8v-9.6l0.7-1.6v9.6L255.6,49.8z M255.6,49.8"/>
	<path class="st141" d="M254.9,51.3v-9.6l0.7-1.6v9.6L254.9,51.3z M254.9,51.3"/>
	<path class="st140" d="M254.3,52.9v-9.6l0.7-1.6v9.6L254.3,52.9z M254.3,52.9"/>
	<path class="st138" d="M229.2,67.6h15.3l17.9-41.8V6.4c-9.9,0-66.7,5.1-66.7,25.9c0,17.1,35,23.9,35,23.9l5.6-13.7
		c0,0-18.1-4-18.1-9.4c0-7.6,29-9.2,29-9.2L229.2,67.6z M229.2,67.6"/>
	<path class="st0" d="M320.9,12.9v40c-0.2,0.1-0.4,0.2-0.5,0.3V12.6C320.6,12.7,320.7,12.8,320.9,12.9L320.9,12.9z M320.9,12.9"/>
	<path class="st157" d="M321.5,13.1v39.5c-0.2,0.1-0.4,0.2-0.5,0.3v-40C321.1,12.9,321.3,13,321.5,13.1L321.5,13.1z M321.5,13.1"/>
	<path class="st158" d="M322,13.3v39c-0.2,0.1-0.4,0.2-0.5,0.3V13.1C321.7,13.2,321.8,13.3,322,13.3L322,13.3z M322,13.3"/>
	<path class="st159" d="M322.6,13.6v38.5c-0.2,0.1-0.4,0.2-0.5,0.3v-39C322.2,13.4,322.4,13.5,322.6,13.6L322.6,13.6z M322.6,13.6"
		/>
	<path class="st160" d="M323.1,13.8v38c-0.2,0.1-0.4,0.2-0.5,0.3V13.6C322.7,13.7,322.9,13.8,323.1,13.8L323.1,13.8z M323.1,13.8"/>
	<path class="st161" d="M323.6,14.1v37.4c-0.2,0.1-0.4,0.2-0.5,0.3v-38C323.3,13.9,323.5,14,323.6,14.1L323.6,14.1z M323.6,14.1"/>
	<path class="st162" d="M324.2,14.4v36.9c-0.2,0.1-0.4,0.2-0.5,0.3V14.1C323.8,14.2,324,14.3,324.2,14.4L324.2,14.4z M324.2,14.4"/>
	<path class="st163" d="M324.7,14.6v36.3c-0.2,0.1-0.4,0.2-0.5,0.3V14.4C324.4,14.5,324.6,14.6,324.7,14.6L324.7,14.6z M324.7,14.6"
		/>
	<path class="st164" d="M325.3,14.9v35.7c-0.2,0.1-0.4,0.2-0.5,0.3V14.6C324.9,14.7,325.1,14.8,325.3,14.9L325.3,14.9z M325.3,14.9"
		/>
	<path class="st165" d="M325.8,15.2v35.1c-0.2,0.1-0.4,0.2-0.5,0.3V14.9C325.5,15,325.6,15.1,325.8,15.2L325.8,15.2z M325.8,15.2"/>
	<path class="st166" d="M326.4,15.5V50c-0.2,0.1-0.4,0.2-0.5,0.3V15.2C326,15.3,326.2,15.4,326.4,15.5L326.4,15.5z M326.4,15.5"/>
	<path class="st167" d="M326.9,15.8v33.9c-0.2,0.1-0.4,0.2-0.5,0.3V15.5C326.6,15.6,326.7,15.7,326.9,15.8L326.9,15.8z M326.9,15.8"
		/>
	<path class="st168" d="M327.5,16.1v33.2c-0.2,0.1-0.4,0.2-0.5,0.3V15.8C327.1,15.9,327.3,16,327.5,16.1L327.5,16.1z M327.5,16.1"/>
	<path class="st169" d="M328,16.5V49c-0.2,0.1-0.4,0.2-0.5,0.3V16.1C327.6,16.3,327.8,16.4,328,16.5L328,16.5z M328,16.5"/>
	<path class="st170" d="M328.5,16.8v31.8c-0.2,0.1-0.4,0.2-0.5,0.4V16.5C328.2,16.6,328.4,16.7,328.5,16.8L328.5,16.8z M328.5,16.8"
		/>
	<path class="st171" d="M329.1,17.2v31.1c-0.2,0.1-0.4,0.2-0.5,0.4V16.8C328.7,16.9,328.9,17.1,329.1,17.2L329.1,17.2z M329.1,17.2"
		/>
	<path class="st172" d="M329.6,17.5v30.4c-0.2,0.1-0.4,0.3-0.5,0.4V17.2C329.3,17.3,329.5,17.4,329.6,17.5L329.6,17.5z M329.6,17.5"
		/>
	<path class="st173" d="M330.2,17.9v29.6c-0.2,0.1-0.4,0.3-0.5,0.4V17.5C329.8,17.7,330,17.8,330.2,17.9L330.2,17.9z M330.2,17.9"/>
	<path class="st174" d="M330.7,18.3v28.8c-0.2,0.1-0.4,0.3-0.5,0.4V17.9C330.4,18,330.5,18.2,330.7,18.3L330.7,18.3z M330.7,18.3"/>
	<path class="st175" d="M331.3,18.7v28c-0.2,0.1-0.4,0.3-0.5,0.4V18.3C330.9,18.4,331.1,18.6,331.3,18.7L331.3,18.7z M331.3,18.7"/>
	<path class="st176" d="M331.8,19.2v27.1c-0.2,0.1-0.4,0.3-0.5,0.4v-28C331.5,18.9,331.6,19,331.8,19.2L331.8,19.2z M331.8,19.2"/>
	<path class="st177" d="M332.4,19.6v26.2c-0.2,0.2-0.4,0.3-0.5,0.5V19.2C332,19.3,332.2,19.5,332.4,19.6L332.4,19.6z M332.4,19.6"/>
	<path class="st178" d="M332.9,20.1v25.3c-0.2,0.2-0.4,0.3-0.5,0.5V19.6C332.5,19.8,332.7,19.9,332.9,20.1L332.9,20.1z M332.9,20.1"
		/>
	<path class="st179" d="M333.5,20.6v24.2c-0.2,0.2-0.4,0.3-0.5,0.5V20.1C333.1,20.2,333.3,20.4,333.5,20.6L333.5,20.6z M333.5,20.6"
		/>
	<path class="st180" d="M334,21.1v23.2c-0.2,0.2-0.4,0.4-0.5,0.5V20.6C333.6,20.8,333.8,20.9,334,21.1L334,21.1z M334,21.1"/>
	<path class="st181" d="M334.5,21.7v22c-0.2,0.2-0.4,0.4-0.5,0.6V21.1C334.2,21.3,334.4,21.5,334.5,21.7L334.5,21.7z M334.5,21.7"/>
	<path class="st182" d="M335.1,22.3v20.8c-0.2,0.2-0.4,0.4-0.5,0.6v-22C334.7,21.9,334.9,22.1,335.1,22.3L335.1,22.3z M335.1,22.3"
		/>
	<path class="st183" d="M335.6,22.9v19.5c-0.2,0.2-0.4,0.4-0.5,0.7V22.3C335.3,22.5,335.5,22.7,335.6,22.9L335.6,22.9z M335.6,22.9"
		/>
	<path class="st184" d="M336.2,23.7v18.1c-0.2,0.2-0.4,0.5-0.5,0.7V22.9C335.8,23.2,336,23.4,336.2,23.7L336.2,23.7z M336.2,23.7"/>
	<path class="st185" d="M336.7,24.5V41c-0.2,0.3-0.4,0.5-0.5,0.8V23.7C336.4,23.9,336.5,24.2,336.7,24.5L336.7,24.5z M336.7,24.5"/>
	<path class="st186" d="M337.3,25.4v14.7c-0.2,0.3-0.4,0.6-0.5,0.9V24.5C336.9,24.7,337.1,25.1,337.3,25.4L337.3,25.4z M337.3,25.4"
		/>
	<path class="st187" d="M337.8,26.4V39c-0.2,0.4-0.3,0.7-0.5,1V25.4C337.5,25.7,337.6,26.1,337.8,26.4L337.8,26.4z M337.8,26.4"/>
	<path class="st188" d="M338.4,27.7v10c-0.2,0.4-0.3,0.9-0.5,1.3V26.4C338,26.8,338.2,27.3,338.4,27.7L338.4,27.7z M338.4,27.7"/>
	<path class="st189" d="M338.9,29.6v6.3c-0.1,0.6-0.3,1.2-0.5,1.8v-10C338.6,28.3,338.8,28.9,338.9,29.6L338.9,29.6z M338.9,29.6"/>
	<path class="st138" d="M338.9,35.9v-6.3c0.2,1,0.3,2.1,0.3,3.2C339.2,33.8,339.1,34.9,338.9,35.9L338.9,35.9z M338.9,35.9"/>
	<path class="st138" d="M282.5,4.2v8.4l-1.1-0.2V4.1C281.7,4.1,282.1,4.1,282.5,4.2L282.5,4.2z M282.5,4.2"/>
	<path class="st189" d="M283.6,4.3v8.5l-1.1-0.2V4.2C282.9,4.2,283.2,4.3,283.6,4.3L283.6,4.3z M283.6,4.3"/>
	<path class="st188" d="M284.8,4.4v8.7l-1.1-0.2V4.3C284,4.3,284.4,4.4,284.8,4.4L284.8,4.4z M284.8,4.4"/>
	<path class="st187" d="M285.9,4.5v8.8l-1.1-0.2V4.4C285.1,4.4,285.5,4.5,285.9,4.5L285.9,4.5z M285.9,4.5"/>
	<path class="st186" d="M287,4.7v8.9l-1.1-0.2V4.5C286.3,4.6,286.6,4.6,287,4.7L287,4.7z M287,4.7"/>
	<path class="st185" d="M288.1,4.8v9l-1.1-0.2V4.7C287.4,4.7,287.8,4.7,288.1,4.8L288.1,4.8z M288.1,4.8"/>
	<path class="st184" d="M289.3,4.9V14l-1.1-0.2v-9C288.5,4.8,288.9,4.9,289.3,4.9L289.3,4.9z M289.3,4.9"/>
	<path class="st183" d="M290.4,5.1v9.2l-1.1-0.2V4.9C289.6,5,290,5,290.4,5.1L290.4,5.1z M290.4,5.1"/>
	<path class="st182" d="M291.5,5.2v9.3l-1.1-0.2V5.1C290.8,5.1,291.1,5.2,291.5,5.2L291.5,5.2z M291.5,5.2"/>
	<path class="st181" d="M292.6,5.4v9.3l-1.1-0.2V5.2C291.9,5.3,292.3,5.4,292.6,5.4L292.6,5.4z M292.6,5.4"/>
	<path class="st180" d="M293.8,5.6V15l-1.1-0.2V5.4C293,5.5,293.4,5.5,293.8,5.6L293.8,5.6z M293.8,5.6"/>
	<path class="st179" d="M294.9,5.8v9.5l-1.1-0.2V5.6C294.1,5.6,294.5,5.7,294.9,5.8L294.9,5.8z M294.9,5.8"/>
	<path class="st178" d="M296,6v9.5l-1.1-0.2V5.8C295.3,5.8,295.6,5.9,296,6L296,6z M296,49v0.4l-0.2-0.3L296,49z M296,49"/>
	<path class="st177" d="M297.1,6.2v9.6l-1.1-0.2V6C296.4,6,296.8,6.1,297.1,6.2L297.1,6.2z M297.1,48.3v3.3l-1.1-2.2V49L297.1,48.3z
		 M297.1,48.3"/>
	<path class="st176" d="M298.3,6.4V16l-1.1-0.2V6.2C297.5,6.2,297.9,6.3,298.3,6.4L298.3,6.4z M298.3,47.7v6.3l-1.1-2.2v-3.3
		L298.3,47.7z M298.3,47.7"/>
	<path class="st175" d="M299.4,6.6v9.6l-1.1-0.2V6.4C298.6,6.4,299,6.5,299.4,6.6L299.4,6.6z M299.4,47v9.2l-1.1-2.2v-6.3L299.4,47z
		 M299.4,47"/>
	<path class="st174" d="M300.5,6.8v9.7l-1.1-0.2V6.6C299.8,6.6,300.1,6.7,300.5,6.8L300.5,6.8z M300.5,46.3v12.1l-1.1-2.2V47
		L300.5,46.3z M300.5,46.3"/>
	<path class="st173" d="M301.6,7v9.7l-1.1-0.2V6.8C300.9,6.9,301.3,6.9,301.6,7L301.6,7z M301.6,45.6v14.6l-0.2,0.1l-0.9-1.9V46.3
		L301.6,45.6z M301.6,45.6"/>
	<path class="st172" d="M302.8,7.3v9.7l-1.1-0.2V7C302,7.1,302.4,7.2,302.8,7.3L302.8,7.3z M302.8,45v14.9c-0.4,0.1-0.8,0.3-1.1,0.4
		V45.6L302.8,45z M302.8,45"/>
	<path class="st171" d="M303.9,7.5v9.7l-1.1-0.2V7.3C303.1,7.4,303.5,7.4,303.9,7.5L303.9,7.5z M303.9,44.3v15.1
		c-0.4,0.1-0.8,0.3-1.1,0.4V45L303.9,44.3z M303.9,44.3"/>
	<path class="st170" d="M305,7.8v9.6l-1.1-0.2V7.5C304.3,7.6,304.6,7.7,305,7.8L305,7.8z M305,43.6V59c-0.4,0.1-0.8,0.3-1.1,0.4
		V44.3L305,43.6z M305,43.6"/>
	<path class="st169" d="M306.1,8.1v9.6l-1.1-0.2V7.8C305.4,7.9,305.8,8,306.1,8.1L306.1,8.1z M306.1,42.9v15.7L305,59V43.6
		L306.1,42.9z M306.1,42.9"/>
	<path class="st168" d="M307.3,8.3v9.6l-1.1-0.2V8.1C306.5,8.1,306.9,8.2,307.3,8.3L307.3,8.3z M307.3,42.3v16l-1.1,0.4V42.9
		L307.3,42.3z M307.3,42.3"/>
	<path class="st167" d="M308.4,8.6v9.5l-1.1-0.2V8.3C307.6,8.4,308,8.5,308.4,8.6L308.4,8.6z M308.4,41.6v16.3
		c-0.4,0.1-0.8,0.3-1.1,0.4v-16L308.4,41.6z M308.4,41.6"/>
	<path class="st166" d="M309.5,8.9v9.5l-1.1-0.2V8.6C308.8,8.7,309.1,8.8,309.5,8.9L309.5,8.9z M309.5,40.9v16.5
		c-0.4,0.1-0.8,0.3-1.1,0.4V41.6L309.5,40.9z M309.5,40.9"/>
	<path class="st165" d="M310.6,9.2v9.4l-1.1-0.2V8.9C309.9,9,310.3,9.1,310.6,9.2L310.6,9.2z M310.6,40.2V57
		c-0.4,0.1-0.8,0.3-1.1,0.4V40.9L310.6,40.2z M310.6,40.2"/>
	<path class="st164" d="M311.8,9.6v9.3l-1.1-0.2V9.2C311,9.4,311.4,9.5,311.8,9.6L311.8,9.6z M311.8,39.6v17.1
		c-0.4,0.1-0.8,0.3-1.1,0.4V40.2L311.8,39.6z M311.8,39.6"/>
	<path class="st163" d="M312.9,9.9v9.7l-0.3-0.5l-0.9-0.2V9.6C312.1,9.7,312.5,9.8,312.9,9.9L312.9,9.9z M312.9,38.9v17.3
		c-0.4,0.1-0.8,0.3-1.1,0.4V39.6L312.9,38.9z M312.9,38.9"/>
	<path class="st162" d="M314,10.3v11.6l-1.1-2.3V9.9C313.3,10,313.6,10.2,314,10.3L314,10.3z M314,38.2v17.6
		c-0.4,0.1-0.8,0.3-1.1,0.4V38.9L314,38.2z M314,38.2"/>
	<path class="st161" d="M315.1,10.7v13.6l-1.1-2.3V10.3C314.4,10.4,314.8,10.5,315.1,10.7L315.1,10.7z M315.1,37.5v17.8
		c-0.4,0.1-0.8,0.3-1.1,0.4V38.2L315.1,37.5z M315.1,37.5"/>
	<path class="st160" d="M316.3,11v15.5l-1.1-2.3V10.7C315.5,10.8,315.9,10.9,316.3,11L316.3,11z M316.3,36.9v18
		c-0.4,0.2-0.8,0.3-1.1,0.5V37.5L316.3,36.9z M316.3,36.9"/>
	<path class="st159" d="M317.4,11.5v17.4l-1.1-2.3V11C316.7,11.2,317,11.3,317.4,11.5L317.4,11.5z M317.4,36.2v18.2
		c-0.4,0.2-0.8,0.3-1.1,0.5v-18L317.4,36.2z M317.4,36.2"/>
	<path class="st190" d="M318.5,11.9v19.3l-1.1-2.3V11.5C317.8,11.6,318.2,11.7,318.5,11.9L318.5,11.9z M318.5,35.5v18.4
		c-0.4,0.2-0.8,0.3-1.1,0.5V36.2L318.5,35.5z M318.5,35.5"/>
	<path class="st157" d="M319.7,12.3v21.2l-1.1-2.3V11.9C318.9,12,319.3,12.2,319.7,12.3L319.7,12.3z M319.7,34.8v18.6
		c-0.4,0.2-0.8,0.3-1.1,0.5V35.5L319.7,34.8z M319.7,34.8"/>
	<path class="st0" d="M320.8,12.8v40.1c-0.4,0.2-0.8,0.3-1.1,0.5V34.8l0.5-0.3l-0.5-1V12.3C320,12.5,320.4,12.6,320.8,12.8
		L320.8,12.8z M320.8,12.8"/>
	<path class="st138" d="M273.9,3.6v7.2l-6.4-1.4l-1.3-6C268.7,3.4,271.2,3.4,273.9,3.6L273.9,3.6z M273.9,3.6"/>
	<path class="st138" d="M281.8,4.1v8.3l-7.9-1.7V3.6C276.5,3.7,279.1,3.9,281.8,4.1L281.8,4.1z M281.8,4.1"/>
	<path class="st139" d="M266.2,26.7V3.4l3.8,3.8l0.6,18.5l-2,1.5L266.2,26.7z M266.2,26.7"/>
	<path class="st191" d="M292.4,35.8v10.8l-0.4-1.1V34.7L292.4,35.8z M292.4,35.8"/>
	<path class="st192" d="M292.8,36.8v10.8l-0.4-1.1V35.8L292.8,36.8z M292.8,36.8"/>
	<path class="st193" d="M293.2,37.8v10.8l-0.4-1.1V36.8L293.2,37.8z M293.2,37.8"/>
	<path class="st194" d="M293.7,38.9v10.8l-0.4-1V37.8L293.7,38.9z M293.7,38.9"/>
	<path class="st195" d="M294.1,39.9v10.9l-0.4-1.1V38.9L294.1,39.9z M294.1,39.9"/>
	<path class="st196" d="M294.5,40.9v10.9l-0.4-1.1V39.9L294.5,40.9z M294.5,40.9"/>
	<path class="st197" d="M295,41.9v10.9l-0.4-1.1V40.9L295,41.9z M295,41.9"/>
	<path class="st198" d="M295.4,43v10.9l-0.4-1.1V41.9L295.4,43z M295.4,43"/>
	<path class="st199" d="M295.8,44v10.9l-0.4-1.1V43L295.8,44z M295.8,44"/>
	<path class="st200" d="M296.3,45v11l-0.4-1.1V44L296.3,45z M296.3,45"/>
	<path class="st201" d="M296.7,46.1v11l-0.4-1.1V45L296.7,46.1z M296.7,46.1"/>
	<path class="st202" d="M297.2,47.1v11l-0.4-1.1v-11L297.2,47.1z M297.2,47.1"/>
	<path class="st203" d="M297.6,48.1v11l-0.4-1v-11L297.6,48.1z M297.6,48.1"/>
	<path class="st204" d="M298,49.2v11l-0.4-1.1v-11L298,49.2z M298,49.2"/>
	<path class="st205" d="M298.5,50.2v11.1l-0.4-1.1v-11L298.5,50.2z M298.5,50.2"/>
	<path class="st206" d="M298.9,51.2v11.1l-0.4-1.1V50.2L298.9,51.2z M298.9,51.2"/>
	<path class="st207" d="M299.3,52.3v11.1l-0.4-1.1V51.2L299.3,52.3z M299.3,52.3"/>
	<path class="st208" d="M299.8,53.3v11.1l-0.4-1.1V52.3L299.8,53.3z M299.8,53.3"/>
	<path class="st209" d="M300.2,54.3v11.1l-0.4-1.1V53.3L300.2,54.3z M300.2,54.3"/>
	<path class="st210" d="M300.6,55.3v11.2l-0.4-1.1V54.3L300.6,55.3z M300.6,55.3"/>
	<path class="st211" d="M301.1,56.4v11.2l-0.4-1.1V55.3L301.1,56.4z M301.1,56.4"/>
	<path class="st212" d="M301.5,57.4v11.2l-0.4-1V56.4L301.5,57.4z M301.5,57.4"/>
	<path class="st213" d="M301.9,58.4v11.2l-0.4-1.1V57.4L301.9,58.4z M301.9,58.4"/>
	<path class="st214" d="M302.4,59.5v10.3l-0.4-0.1l0,0V58.4L302.4,59.5z M302.4,59.5"/>
	<path class="st215" d="M302.8,60.5v9.3l-0.4-0.1V59.5L302.8,60.5z M302.8,60.5"/>
	<path class="st216" d="M303.2,61.5v8.3l-0.4-0.1v-9.3L303.2,61.5z M303.2,61.5"/>
	<path class="st217" d="M303.7,62.6v7.3l-0.4-0.1v-8.3L303.7,62.6z M303.7,62.6"/>
	<path class="st218" d="M304.1,63.6V70l-0.4-0.1v-7.3L304.1,63.6z M304.1,63.6"/>
	<path class="st219" d="M304.6,64.6V70l-0.4-0.1v-6.4L304.6,64.6z M304.6,64.6"/>
	<path class="st220" d="M305,65.7v4.4l-0.4-0.1v-5.4L305,65.7z M305,65.7"/>
	<path class="st221" d="M305.4,66.7v3.5l-0.4-0.1v-4.4L305.4,66.7z M305.4,66.7"/>
	<path class="st222" d="M305.9,67.7v2.5l-0.4-0.1v-3.5L305.9,67.7z M305.9,67.7"/>
	<path class="st223" d="M306.3,68.8v1.5l-0.4-0.1v-2.5L306.3,68.8z M306.3,68.8"/>
	<path class="st224" d="M306.7,69.8v0.5l-0.4-0.1v-1.5L306.7,69.8z M306.7,69.8"/>
	<path class="st0" d="M306.7,70.3v-0.5l0.2,0.6L306.7,70.3z M306.7,70.3"/>
	<path class="st225" d="M283,22.9v0.9l-0.4-0.9L283,22.9z M283,22.9"/>
	<path class="st226" d="M283.5,23v2.3l-0.6-1.4v-0.9L283.5,23z M283.5,23"/>
	<path class="st227" d="M284.1,23v3.6l-0.6-1.4V23L284.1,23z M284.1,23"/>
	<path class="st228" d="M284.7,23.1v5l-0.6-1.4V23L284.7,23.1z M284.7,23.1"/>
	<path class="st229" d="M285.3,23.1v6.4l-0.6-1.4v-5L285.3,23.1z M285.3,23.1"/>
	<path class="st230" d="M285.9,23.1v7.8l-0.6-1.4v-6.4L285.9,23.1z M285.9,23.1"/>
	<path class="st231" d="M286.5,23.2v9.1l-0.6-1.4v-7.8L286.5,23.2z M286.5,23.2"/>
	<path class="st232" d="M287.1,23.2v10.5l-0.6-1.4v-9.1L287.1,23.2z M287.1,23.2"/>
	<path class="st233" d="M287.6,24.6v10.6l-0.6-1.4V23.2h0L287.6,24.6z M287.6,24.6"/>
	<path class="st234" d="M288.2,25.9v10.6l-0.6-1.4V24.6L288.2,25.9z M288.2,25.9"/>
	<path class="st235" d="M288.8,27.3V38l-0.6-1.4V25.9L288.8,27.3z M288.8,27.3"/>
	<path class="st236" d="M289.4,28.7v10.7l-0.6-1.4V27.3L289.4,28.7z M289.4,28.7"/>
	<path class="st237" d="M290,30.1v10.7l-0.6-1.4V28.7L290,30.1z M290,30.1"/>
	<path class="st238" d="M290.6,31.5v10.7l-0.6-1.4V30.1L290.6,31.5z M290.6,31.5"/>
	<path class="st239" d="M291.2,32.9v10.7l-0.6-1.4V31.5L291.2,32.9z M291.2,32.9"/>
	<path class="st240" d="M291.7,34.3V45l-0.6-1.4V32.9L291.7,34.3z M291.7,34.3"/>
	<path class="st191" d="M292.3,35.7v10.8l-0.6-1.4V34.3L292.3,35.7z M292.3,35.7"/>
	<path class="st83" d="M285.2,70.3H307l-5.7-3.4l-14.2,0L285.2,70.3z M285.2,70.3"/>
	<path class="st53" d="M276.3,50v-9.6l0.4,0.8v9.6L276.3,50z M276.3,50"/>
	<path class="st110" d="M276,49.2v-9.6l0.4,0.8V50L276,49.2z M276,49.2"/>
	<path class="st111" d="M275.6,48.3v-9.6l0.4,0.8v9.6L275.6,48.3z M275.6,48.3"/>
	<path class="st112" d="M275.3,47.5v-9.6l0.4,0.8v9.6L275.3,47.5z M275.3,47.5"/>
	<path class="st113" d="M274.9,46.7v-9.6l0.4,0.8v9.6L274.9,46.7z M274.9,46.7"/>
	<path class="st114" d="M274.5,45.9v-9.6l0.4,0.8v9.6L274.5,45.9z M274.5,45.9"/>
	<path class="st115" d="M274.2,45.1v-9.6l0.4,0.8v9.6L274.2,45.1z M274.2,45.1"/>
	<path class="st116" d="M273.8,44.2v-9.6l0.4,0.8v9.6L273.8,44.2z M273.8,44.2"/>
	<path class="st117" d="M273.5,43.4v-9.6l0.4,0.8v9.6L273.5,43.4z M273.5,43.4"/>
	<path class="st118" d="M273.1,42.6V33l0.4,0.8v9.6L273.1,42.6z M273.1,42.6"/>
	<path class="st119" d="M272.8,41.8v-9.6l0.4,0.8v9.6L272.8,41.8z M272.8,41.8"/>
	<path class="st120" d="M272.4,41v-9.6l0.4,0.8v9.6L272.4,41z M272.4,41"/>
	<path class="st121" d="M272.1,40.1v-9.6l0.4,0.8V41L272.1,40.1z M272.1,40.1"/>
	<path class="st122" d="M271.7,39.3v-9.6l0.4,0.8v9.6L271.7,39.3z M271.7,39.3"/>
	<path class="st123" d="M271.3,38.5v-9.6l0.4,0.8v9.6L271.3,38.5z M271.3,38.5"/>
	<path class="st124" d="M271,37.7V28l0.4,0.8v9.6L271,37.7z M271,37.7"/>
	<path class="st125" d="M270.6,36.9v-9.6L271,28v9.6L270.6,36.9z M270.6,36.9"/>
	<path class="st126" d="M270.3,36.1v-9.7l0.4,0.8v9.6L270.3,36.1z M270.3,36.1"/>
	<path class="st127" d="M269.9,35.2v-9.6l0,0l0.3,0.8v9.7L269.9,35.2z M269.9,35.2"/>
	<path class="st128" d="M269.6,34.4v-8.7l0.4-0.1v9.6L269.6,34.4z M269.6,34.4"/>
	<path class="st129" d="M269.2,33.6v-7.8l0.4-0.1v8.7L269.2,33.6z M269.2,33.6"/>
	<path class="st130" d="M268.9,32.8v-6.8l0.4-0.1v7.8L268.9,32.8z M268.9,32.8"/>
	<path class="st131" d="M268.5,31.9V26l0.4-0.1v6.8L268.5,31.9z M268.5,31.9"/>
	<path class="st132" d="M268.2,31.1v-5l0.4-0.1v5.9L268.2,31.1z M268.2,31.1"/>
	<path class="st133" d="M267.8,30.3v-4.1l0.4-0.1v5L267.8,30.3z M267.8,30.3"/>
	<path class="st134" d="M267.4,29.5v-3.2l0.4-0.1v4.1L267.4,29.5z M267.4,29.5"/>
	<path class="st135" d="M267.1,28.7v-2.2l0.4-0.1v3.2L267.1,28.7z M267.1,28.7"/>
	<path class="st136" d="M266.7,27.8v-1.3l0.4-0.1v2.2L266.7,27.8z M266.7,27.8"/>
	<path class="st137" d="M266.4,27v-0.4l0.4-0.1v1.3L266.4,27z M266.4,27"/>
	<path class="st138" d="M266.4,26.6V27l-0.2-0.4L266.4,26.6z M266.4,26.6"/>
	<path class="st138" d="M287.5,67.1v-0.7l0.2,0.4L287.5,67.1z M287.5,67.1"/>
	<path class="st137" d="M287.1,67.6v-2.1l0.4,0.9v0.7L287.1,67.6z M287.1,67.6"/>
	<path class="st136" d="M286.8,68.2v-3.6l0.4,0.9v2.1L286.8,68.2z M286.8,68.2"/>
	<path class="st135" d="M286.4,68.7v-5l0.4,0.9v3.6L286.4,68.7z M286.4,68.7"/>
	<path class="st134" d="M286,69.2v-6.4l0.4,0.9v5L286,69.2z M286,69.2"/>
	<path class="st133" d="M285.6,69.8v-7.9l0.4,0.9v6.4L285.6,69.8z M285.6,69.8"/>
	<path class="st132" d="M285.2,70.3V61l0.4,0.9v7.9L285.2,70.3z M285.2,70.3"/>
	<path class="st131" d="M284.8,69.6v-9.5l0.4,0.9v9.3l0,0.1L284.8,69.6z M284.8,69.6"/>
	<path class="st130" d="M284.4,68.7v-9.5l0.4,0.9v9.5L284.4,68.7z M284.4,68.7"/>
	<path class="st129" d="M284,67.8v-9.5l0.4,0.9v9.5L284,67.8z M284,67.8"/>
	<path class="st128" d="M283.7,66.9v-9.5l0.4,0.9v9.5L283.7,66.9z M283.7,66.9"/>
	<path class="st127" d="M283.3,66v-9.5l0.4,0.9v9.5L283.3,66z M283.3,66"/>
	<path class="st126" d="M282.9,65.1v-9.5l0.4,0.9V66L282.9,65.1z M282.9,65.1"/>
	<path class="st125" d="M282.5,64.2v-9.5l0.4,0.9v9.5L282.5,64.2z M282.5,64.2"/>
	<path class="st124" d="M282.1,63.3v-9.5l0.4,0.9v9.5L282.1,63.3z M282.1,63.3"/>
	<path class="st123" d="M281.7,62.4v-9.5l0.4,0.9v9.5L281.7,62.4z M281.7,62.4"/>
	<path class="st122" d="M281.3,61.5V52l0.4,0.9v9.5L281.3,61.5z M281.3,61.5"/>
	<path class="st121" d="M280.9,60.6v-9.5l0.4,0.9v9.5L280.9,60.6z M280.9,60.6"/>
	<path class="st120" d="M280.5,59.7v-9.5l0.4,0.9v9.5L280.5,59.7z M280.5,59.7"/>
	<path class="st119" d="M280.2,58.8v-9.5l0.4,0.9v9.5L280.2,58.8z M280.2,58.8"/>
	<path class="st118" d="M279.8,57.9v-9.5l0.4,0.9v9.5L279.8,57.9z M279.8,57.9"/>
	<path class="st117" d="M279.4,57.1v-9.5l0.4,0.9v9.5L279.4,57.1z M279.4,57.1"/>
	<path class="st116" d="M279,56.2v-9.5l0.4,0.9v9.5L279,56.2z M279,56.2"/>
	<path class="st115" d="M278.6,55.3v-9.5l0.4,0.9v9.5L278.6,55.3z M278.6,55.3"/>
	<path class="st114" d="M278.2,54.4v-9.6l0.4,0.9v9.5L278.2,54.4z M278.2,54.4"/>
	<path class="st113" d="M277.8,53.5v-9.6l0.4,0.9v9.6L277.8,53.5z M277.8,53.5"/>
	<path class="st112" d="M277.4,52.6V43l0.4,0.9v9.6L277.4,52.6z M277.4,52.6"/>
	<path class="st111" d="M277.1,51.7v-9.6l0.4,0.9v9.6L277.1,51.7z M277.1,51.7"/>
	<path class="st110" d="M276.7,50.8v-9.6l0.4,0.9v9.6L276.7,50.8z M276.7,50.8"/>
	<path class="st53" d="M276.3,49.9v-9.6l0.4,0.9v9.6L276.3,49.9z M276.3,49.9"/>
	<g>
		<defs>
			<rect id="SVGID_1_" x="0.2" y="2.6" width="339.8" height="113.8"/>
		</defs>
		<clipPath id="SVGID_2_">
			<use xlink:href="#SVGID_1_"  style="overflow:visible;"/>
		</clipPath>
		<path class="st241" d="M302.5,67.6h-15.3l-17.9-41.8V6.4c9.8,0,66.6,5.1,66.6,25.9c0,17.1-34.9,24-34.9,24l-5.9-13.8
			c0,0,18.2-4.1,18.2-9.4c0-7.6-29-9.2-29-9.2L302.5,67.6z M302.5,67.6"/>
		<path class="st242" d="M62.7,73.4v19.2l15.6-6.4V70.9c0,0,65.8-30.2,50.1-55.1C107.5-17.2-5.7,33,0.4,75.3c0,0,1.8,16.3,57-2.3
			c0.4,0,0-46.5,0-46.5l-17.2,9.2v23.8c0,0-22.4,10.2-28.3,1.1c-1.4-2.3,9.1-25.1,48.8-41.3c0-0.4,34.8-14.5,43.9-6.7
			c9,7.8-0.8,14.1-0.4,14.1c0.4,0,7,2.3,7.8,8.2C114.6,55.2,61.5,72.3,62.7,73.4L62.7,73.4z M62.7,73.4"/>
		<polyline class="st242" points="62.7,73.4 62.7,92.6 78.3,86.2 78.3,70.9 		"/>
		<path class="st242" d="M78.3,70.9c0,0,65.8-30.2,50.1-55.1C107.5-17.2-5.7,33,0.4,75.3c0,0,1.8,16.3,57-2.3c0.4,0,0-46.5,0-46.5"
			/>
	</g>
	<polyline class="st109" points="57.4,26.5 40.2,35.8 40.2,59.6 	"/>
	<path class="st109" d="M40.2,59.6c0,0-22.4,10.2-28.3,1.1c-1.4-2.3,9.1-25.1,48.8-41.3c0-0.4,34.8-14.5,43.9-6.7
		c9,7.8-0.8,14.1-0.4,14.1c0.4,0,7,2.3,7.8,8.2c2.6,20.1-50.5,37.3-49.3,38.4"/>
	<path class="st138" d="M35.3,38.4v18c0,0-16.3,6.7-18.1,1.7C15.3,53.1,35.3,38.4,35.3,38.4L35.3,38.4z M35.3,38.4"/>
	<path class="st243" d="M35.3,38.4v18c0,0-16.3,6.7-18.1,1.7C15.3,53.1,35.3,38.4,35.3,38.4L35.3,38.4z M35.3,38.4 M35.3,38.4v18"/>
	<path class="st138" d="M35.3,56.4c0,0-16.3,6.7-18.1,1.7c-1.8-5,18.1-19.7,18.1-19.7"/>
	<path class="st243" d="M35.3,56.4c0,0-16.3,6.7-18.1,1.7c-1.8-5,18.1-19.7,18.1-19.7"/>
	<path class="st138" d="M62.7,22.8c0,0,32.3-15.3,39.7-6.1c0.3,0.2,3.1,4.4-5.1,12.1c0.4,0.1,8.9-0.1,9.6,5.9
		c0.7,6-9.9,20.2-44.1,32.8c0,0.1,0-10.7,0-10.7s10.8-3.9,10.6-9.4C73.4,43.1,62.9,47,62.9,47v-8.8c0,0,11.1-4.4,10.3-8.5
		c-0.7-4-10.3-1.1-10.3-1.1L62.7,22.8z M62.7,22.8"/>
	<path class="st243" d="M62.7,22.8c0,0,32.3-15.3,39.7-6.1c0.3,0.2,3.1,4.4-5.1,12.1c0.4,0.1,8.9-0.1,9.6,5.9S97,55,62.9,67.5
		c0,0.1,0-10.7,0-10.7s10.8-3.9,10.6-9.4C73.4,43.1,62.9,47,62.9,47v-8.8c0,0,11.1-4.4,10.3-8.5c-0.7-4-10.3-1.1-10.3-1.1L62.7,22.8
		z M62.7,22.8"/>
	<path class="st138" d="M62.7,22.8c0,0,32.3-15.3,39.7-6.1c0.3,0.2,3.1,4.4-5.1,12.1c0.4,0.1,8.9-0.1,9.6,5.9
		c0.7,6-9.9,20.2-44.1,32.8c0,0.1,0-10.7,0-10.7s10.8-3.9,10.6-9.4C73.4,43.1,62.9,47,62.9,47"/>
	<path class="st243" d="M62.7,22.8c0,0,32.3-15.3,39.7-6.1c0.3,0.2,3.1,4.4-5.1,12.1c0.4,0.1,8.9-0.1,9.6,5.9S97,55,62.9,67.5
		c0,0.1,0-10.7,0-10.7s10.8-3.9,10.6-9.4C73.4,43.1,62.9,47,62.9,47 M62.9,47v-8.8"/>
	<path class="st138" d="M62.9,38.2c0,0,11.1-4.4,10.3-8.5c-0.7-4-10.3-1.1-10.3-1.1"/>
	<path class="st243" d="M62.9,38.2c0,0,11.1-4.4,10.3-8.5c-0.7-4-10.3-1.1-10.3-1.1"/>
	<line class="st138" x1="62.9" y1="28.6" x2="62.7" y2="22.8"/>
	<line class="st243" x1="62.9" y1="28.6" x2="62.7" y2="22.8"/>
	<path class="st0" d="M18.9,101.7h6.6c1.4,0,2.5,0.3,3.2,1c0.7,0.7,1.1,1.7,1.1,2.9c0,1.3-0.4,2.3-1.2,3c-0.8,0.7-2,1.1-3.6,1.1
		h-2.2v4.8h-4V101.7z M22.9,107.1h1c0.8,0,1.3-0.1,1.6-0.4c0.3-0.3,0.5-0.6,0.5-1c0-0.4-0.1-0.7-0.4-1c-0.3-0.3-0.8-0.4-1.5-0.4
		h-1.1V107.1z M22.9,107.1"/>
	<path class="st0" d="M31.3,108.1c0-2.1,0.6-3.7,1.7-4.9c1.2-1.2,2.8-1.8,4.9-1.8c2.1,0,3.8,0.6,4.9,1.7c1.2,1.1,1.7,2.7,1.7,4.8
		c0,1.5-0.3,2.7-0.8,3.7c-0.5,1-1.2,1.7-2.2,2.2c-1,0.5-2.1,0.8-3.6,0.8c-1.4,0-2.6-0.2-3.6-0.7c-0.9-0.5-1.7-1.2-2.3-2.2
		C31.6,110.8,31.3,109.6,31.3,108.1L31.3,108.1z M35.3,108.1c0,1.3,0.2,2.2,0.7,2.8c0.5,0.6,1.1,0.8,2,0.8c0.9,0,1.5-0.3,2-0.8
		c0.5-0.6,0.7-1.5,0.7-3c0-1.2-0.2-2.1-0.7-2.6c-0.5-0.6-1.1-0.8-2-0.8c-0.8,0-1.4,0.3-1.9,0.8C35.5,105.9,35.3,106.8,35.3,108.1
		L35.3,108.1z M35.3,108.1"/>
	<path class="st0" d="M46,110.3l3.8-0.2c0.1,0.6,0.2,1.1,0.5,1.4c0.4,0.5,1,0.8,1.7,0.8c0.6,0,1-0.1,1.3-0.4
		c0.3-0.3,0.5-0.6,0.5-0.9c0-0.3-0.1-0.6-0.4-0.9c-0.3-0.3-1-0.5-2-0.7c-1.7-0.4-3-0.9-3.7-1.6c-0.7-0.6-1.1-1.5-1.1-2.5
		c0-0.7,0.2-1.3,0.6-1.9c0.4-0.6,1-1,1.7-1.4c0.8-0.3,1.8-0.5,3.2-0.5c1.6,0,2.9,0.3,3.7,0.9c0.9,0.6,1.4,1.6,1.5,2.9l-3.7,0.2
		c-0.1-0.6-0.3-1-0.6-1.3c-0.3-0.3-0.8-0.4-1.3-0.4c-0.5,0-0.8,0.1-1,0.3c-0.2,0.2-0.3,0.4-0.3,0.7c0,0.2,0.1,0.4,0.3,0.5
		c0.2,0.2,0.6,0.3,1.3,0.5c1.7,0.4,3,0.8,3.7,1.1c0.8,0.4,1.3,0.9,1.6,1.4c0.3,0.6,0.5,1.2,0.5,1.9c0,0.8-0.2,1.6-0.7,2.3
		c-0.5,0.7-1.1,1.2-1.9,1.6c-0.8,0.4-1.8,0.5-3.1,0.5c-2.2,0-3.7-0.4-4.5-1.3C46.6,112.6,46.2,111.6,46,110.3L46,110.3z M46,110.3"
		/>
	<path class="st0" d="M58.8,101.7h12v3.2h-4v9.6h-4v-9.6h-4V101.7z M58.8,101.7"/>
	<path class="st0" d="M79.3,112.4h-4.5l-0.6,2.1h-4l4.8-12.8h4.3l4.8,12.8h-4.1L79.3,112.4z M78.4,109.6L77,105l-1.4,4.6H78.4z
		 M78.4,109.6"/>
	<path class="st0" d="M85.3,101.7h4v9.7h6.2v3.2H85.3V101.7z M85.3,101.7"/>
	<path class="st0" d="M101.1,105.4l-3.4-0.6c0.3-1.1,0.8-1.9,1.6-2.5c0.8-0.6,1.9-0.9,3.4-0.9c1.7,0,2.9,0.3,3.6,0.9
		c0.7,0.6,1.1,1.4,1.1,2.4c0,0.6-0.2,1.1-0.5,1.5c-0.3,0.4-0.8,0.8-1.4,1.2c0.5,0.1,0.9,0.3,1.1,0.4c0.4,0.3,0.8,0.6,1,1
		c0.2,0.4,0.4,0.9,0.4,1.5c0,0.7-0.2,1.5-0.6,2.1c-0.4,0.7-1,1.2-1.7,1.6c-0.7,0.4-1.7,0.6-2.9,0.6c-1.2,0-2.1-0.1-2.8-0.4
		c-0.7-0.3-1.2-0.7-1.7-1.2c-0.4-0.5-0.8-1.2-1-2l3.6-0.5c0.1,0.7,0.4,1.2,0.7,1.5c0.3,0.3,0.7,0.4,1.1,0.4c0.5,0,0.9-0.2,1.2-0.5
		c0.3-0.3,0.5-0.8,0.5-1.4c0-0.6-0.2-1.1-0.5-1.4c-0.3-0.3-0.7-0.5-1.2-0.5c-0.3,0-0.7,0.1-1.2,0.2l0.2-2.5c0.2,0,0.4,0,0.5,0
		c0.5,0,0.9-0.1,1.2-0.4c0.3-0.3,0.5-0.6,0.5-1.1c0-0.4-0.1-0.7-0.3-0.9c-0.2-0.2-0.6-0.3-1-0.3c-0.4,0-0.8,0.1-1,0.4
		C101.4,104.3,101.2,104.8,101.1,105.4L101.1,105.4z M101.1,105.4"/>
</g>
</svg>
