<?xml version="1.0" encoding="UTF-8" standalone="no"?>
<!-- Creator: CorelDRAW X7 -->

<svg
   xmlns:dc="http://purl.org/dc/elements/1.1/"
   xmlns:cc="http://creativecommons.org/ns#"
   xmlns:rdf="http://www.w3.org/1999/02/22-rdf-syntax-ns#"
   xmlns:svg="http://www.w3.org/2000/svg"
   xmlns="http://www.w3.org/2000/svg"
   xmlns:sodipodi="http://sodipodi.sourceforge.net/DTD/sodipodi-0.dtd"
   xmlns:inkscape="http://www.inkscape.org/namespaces/inkscape"
   xml:space="preserve"
   width="547.69684"
   height="844.35999"
   version="1.1"
   style="fill-rule:evenodd"
   viewBox="0 0 15457.222 23829.716"
   id="svg2"
   inkscape:version="0.48.4 r9939"
   sodipodi:docname="EscudoGuardiaCivil.svg"><metadata
   id="metadata140"><rdf:RDF><cc:Work
       rdf:about=""><dc:format>image/svg+xml</dc:format><dc:type
         rdf:resource="http://purl.org/dc/dcmitype/StillImage" /><dc:title /></cc:Work></rdf:RDF></metadata><sodipodi:namedview
   pagecolor="#ffffff"
   bordercolor="#666666"
   borderopacity="1"
   objecttolerance="10"
   gridtolerance="10"
   guidetolerance="10"
   inkscape:pageopacity="0"
   inkscape:pageshadow="2"
   inkscape:window-width="1440"
   inkscape:window-height="844"
   id="namedview138"
   showgrid="false"
   fit-margin-top="0.5"
   fit-margin-left="0.5"
   fit-margin-right="0.5"
   fit-margin-bottom="0.5"
   inkscape:zoom="0.74581431"
   inkscape:cx="273.84166"
   inkscape:cy="422.17325"
   inkscape:window-x="-4"
   inkscape:window-y="-4"
   inkscape:window-maximized="1"
   inkscape:current-layer="svg2"
   inkscape:object-paths="false" />
 <defs
   id="defs4"><inkscape:path-effect
     effect="spiro"
     id="path-effect4133"
     is_visible="true" /><inkscape:path-effect
     effect="spiro"
     id="path-effect4112"
     is_visible="true" /><inkscape:path-effect
     effect="spiro"
     id="path-effect4074"
     is_visible="true" /><inkscape:path-effect
     effect="spiro"
     id="path-effect4070"
     is_visible="true" /><style
     type="text/css"
     id="style6">
   
    .str0 {stroke:black;stroke-width:75}
    .str1 {stroke:#1F1A17;stroke-width:75;stroke-linecap:round;stroke-linejoin:round}
    .fil2 {fill:none}
    .fil3 {fill:#064186}
    .fil5 {fill:#FFF500}
    .fil7 {fill:white}
    .fil8 {fill:#00A6D6}
    .fil6 {fill:#0091CC}
    .fil1 {fill:#F7D417}
    .fil4 {fill:#F7D117}
    .fil0 {fill:#D42E12}
   
  </style></defs>
 <g
   id="Capa_x0020_1"
   transform="translate(-3613.3893,-2388.9)">
  <metadata
   id="CorelCorpID_0Corel-Layer" />
  
  
  
  
  
  
  
  
  
  
  
  
  
  
  
  
  
  
  
  
  
  
  
  
  
  
  
  
  
  
  
  
  
  
  
  
  
  
  
  
  
  
  
  
  
  
  
  
  
  
  
  
  
  
  
  
  
  
  
  
  
  
  
  
  
  
  
  
  
  
  
  
  
  
  
  
  
  
  
  
  
  
  
  
  
  
  
  
  
  
  
  
  
  
  
  
  
  
  
  
  
  
  
  
  
  
  
  
  
  
  
  
  
  
  
  
  
  
  
  
  
  
  
  
  
  
  
  <g
   id="g4268"><g
     id="g3166"
     style="stroke-width:47.97777939;stroke-miterlimit:4;stroke-dasharray:none"
     transform="translate(0,37.840818)"><path
       id="_49630040"
       class="fil0 str0"
       d="m 11342,4766 c 537,0 1610,262 1953,479 753,-183 1735,217 2078,640 -34,502 -377,559 -537,913 -160,354 -536,457 -719,606 -354,-92 -1987,-320 -2775,-320 -788,0 -2421,228 -2775,320 -183,-149 -560,-252 -720,-606 -159,-354 -502,-411 -536,-913 342,-423 1324,-823 2078,-640 343,-217 1416,-479 1953,-479 z"
       inkscape:connector-curvature="0"
       style="fill:#d42e12;stroke:#000000;stroke-width:47.97777939;stroke-miterlimit:4;stroke-dasharray:none" /><path
       id="_49628808"
       class="fil1 str0"
       d="m 8758,8047 c -20,20 -30,41 -30,62 0,228 1168,413 2608,413 1441,0 2609,-185 2609,-413 0,-21 -9,-42 -29,-62 -60,-74 24,-392 87,-541 165,40 331,-114 0,-194 -469,-113 -1748,-308 -2661,-308 -914,0 -2192,195 -2661,308 -331,80 -165,234 0,194 63,149 137,467 77,541 z"
       inkscape:connector-curvature="0"
       style="fill:#f7d417;stroke:#000000;stroke-width:47.97777939;stroke-miterlimit:4;stroke-dasharray:none" /><path
       id="_49628016"
       class="fil2 str0"
       d="m 8681,7506 c 1553.129,-459.3867 3979.919,-412.1803 5317.411,3.6655"
       inkscape:connector-curvature="0"
       style="fill:none;stroke:#000000;stroke-width:47.97777939;stroke-miterlimit:4;stroke-dasharray:none"
       sodipodi:nodetypes="cc" /><path
       id="_49627024"
       class="fil2 str0"
       d="m 13916,8047 c -191,-199 -1274,-352 -2580,-352 -1305,0 -2387,153 -2578,352"
       inkscape:connector-curvature="0"
       style="fill:none;stroke:#000000;stroke-width:47.97777939;stroke-miterlimit:4;stroke-dasharray:none" /><path
       id="_49625048"
       class="fil3 str0"
       d="m 11336,3840 c 214,0 388,-174 388,-388 0,-214 -174,-387 -388,-387 -214,0 -387,173 -387,387 0,214 173,388 387,388 z"
       inkscape:connector-curvature="0"
       style="fill:#064186;stroke:#000000;stroke-width:47.97777939;stroke-miterlimit:4;stroke-dasharray:none" /><path
       id="_49623928"
       class="fil1 str0"
       d="m 11422,2427 0,206 201,0 0,171 -201,0 0,580 308,0 c 9,43 14,137 -8,171 l -771,0 c -23,-34 -17,-128 -9,-171 l 308,0 0,-580 -201,0 0,-171 201,0 0,-206 172,0 z"
       inkscape:connector-curvature="0"
       style="fill:#f7d417;stroke:#000000;stroke-width:47.97777939;stroke-miterlimit:4;stroke-dasharray:none" /><path
       id="_49623136"
       class="fil1 str0"
       d="m 9218,4400 c -640,-308 -1450,-98 -1839,411 -388,508 -274,1085 -68,1405 l 137,28 200,-336 c -372,-389 -270,-950 -6,-1177 285,-245 874,-525 1513,-194 l 63,-137 z"
       inkscape:connector-curvature="0"
       style="fill:#f7d417;stroke:#000000;stroke-width:47.97777939;stroke-miterlimit:4;stroke-dasharray:none" /><path
       id="_49621800"
       class="fil4 str0"
       d="m 13466,4400 c 639,-308 1450,-98 1838,411 389,508 274,1085 69,1405 l -137,28 -200,-336 c 371,-389 270,-950 6,-1177 -286,-245 -874,-525 -1513,-194 l -63,-137 z"
       inkscape:connector-curvature="0"
       style="fill:#f7d117;stroke:#000000;stroke-width:47.97777939;stroke-miterlimit:4;stroke-dasharray:none" /><path
       id="_49620696"
       class="fil1 str0"
       d="m 11068,4069 c -514,-365 -1302,-308 -1736,137 -463,476 -148,1028 69,1199 l -143,211 97,103 c 57,-74 222,-308 222,-308 -371,-354 -428,-891 -51,-1165 437,-318 1045,-377 1548,29 l -6,-206 z"
       inkscape:connector-curvature="0"
       style="fill:#f7d417;stroke:#000000;stroke-width:47.97777939;stroke-miterlimit:4;stroke-dasharray:none" /><path
       id="_49619312"
       class="fil1 str0"
       d="m 11616,4069 c 514,-365 1302,-308 1736,137 463,476 148,1028 -69,1199 l 143,211 -97,103 c -57,-74 -223,-308 -223,-308 371,-354 428,-891 52,-1165 -437,-318 -1045,-377 -1548,29 l 6,-206 z"
       inkscape:connector-curvature="0"
       style="fill:#f7d417;stroke:#000000;stroke-width:47.97777939;stroke-miterlimit:4;stroke-dasharray:none" /><path
       id="_49618488"
       class="fil1 str0"
       d="m 11342,5742 537,-474 c -195,-206 -235,-565 -235,-862 0,-297 0,-583 -302,-583 -303,0 -303,286 -303,583 0,297 -40,656 -234,862 l 537,474 z"
       inkscape:connector-curvature="0"
       style="fill:#f7d417;stroke:#000000;stroke-width:47.97777939;stroke-miterlimit:4;stroke-dasharray:none" /><path
       id="_49617696"
       class="fil5 str0"
       d="m 11342,5582 319,-390 c -116,-170 -139,-466 -139,-711 0,-245 0,-480 -180,-480 -180,0 -180,235 -180,480 0,245 -24,541 -139,711 l 319,390 z"
       inkscape:connector-curvature="0"
       style="fill:#fff500;stroke:#000000;stroke-width:47.97777939;stroke-miterlimit:4;stroke-dasharray:none" /><path
       id="_49616720"
       class="fil4 str0"
       d="m 11336,5325 c -173,0 -173,-258 0,-258 176,0 173,258 0,258 z"
       inkscape:connector-curvature="0"
       style="fill:#f7d117;stroke:#000000;stroke-width:47.97777939;stroke-miterlimit:4;stroke-dasharray:none" /><path
       id="_49611688"
       class="fil4 str0"
       d="m 11336,5048 c -166,0 -166,-248 0,-248 169,0 166,248 0,248 z"
       inkscape:connector-curvature="0"
       style="fill:#f7d117;stroke:#000000;stroke-width:47.97777939;stroke-miterlimit:4;stroke-dasharray:none" /><path
       id="_49611480"
       class="fil4 str0"
       d="m 11336,4770 c -159,0 -159,-237 0,-237 161,0 159,237 0,237 z"
       inkscape:connector-curvature="0"
       style="fill:#f7d117;stroke:#000000;stroke-width:47.97777939;stroke-miterlimit:4;stroke-dasharray:none" /><path
       id="_49613152"
       class="fil4 str0"
       d="m 11336,4493 c -152,0 -152,-227 0,-227 154,0 152,227 0,227 z"
       inkscape:connector-curvature="0"
       style="fill:#f7d117;stroke:#000000;stroke-width:47.97777939;stroke-miterlimit:4;stroke-dasharray:none" /><path
       id="_49614816"
       class="fil4 str0"
       d="m 11336,4244 c -145,0 -145,-216 0,-216 147,0 145,216 0,216 z"
       inkscape:connector-curvature="0"
       style="fill:#f7d117;stroke:#000000;stroke-width:47.97777939;stroke-miterlimit:4;stroke-dasharray:none" /><path
       id="_49610328"
       class="fil1 str0"
       d="m 11342,6775 c 251,366 765,280 913,46 103,320 611,405 891,109 206,296 537,411 805,211 132,360 685,165 959,-303 275,-468 440,-428 571,-302 137,-526 -479,-434 -668,-12 l -319,-217 -29,137 -268,0 160,217 -69,160 394,57 c -297,360 -594,269 -674,-80 -63,160 -348,280 -491,229 -182,-66 -337,-289 -209,-516 l 420,346 21,-236 272,-30 -226,-156 93,-217 -533,107 385,-438 -205,-40 -92,-271 -209,196 -199,-61 133,567 -420,-345 -20,235 -272,31 225,155 -93,217 534,-107 c 6,261 -262,458 -455,437 -148,-16 -360,-223 -417,-440 -52,160 -257,343 -463,314 -205,-28 -411,-257 -337,-526 l 526,250 -40,-250 274,-102 -274,-102 40,-250 -526,250 286,-554 -223,11 -171,-257 -171,257 -223,-11 285,554 -525,-250 40,250 -274,102 274,102 -40,250 525,-250 c 75,269 -131,498 -337,526 -205,29 -411,-154 -462,-314 -57,217 -269,424 -417,440 -193,21 -461,-176 -455,-437 l 533,107 -93,-217 226,-155 -272,-31 -21,-235 -419,345 133,-567 -200,61 -208,-196 -92,271 -205,40 385,438 -533,-107 93,217 -226,156 272,30 21,236 420,-346 c 128,227 -27,450 -210,516 -142,51 -428,-69 -491,-229 -80,349 -376,440 -673,80 l 394,-57 -69,-160 160,-217 -268,0 -29,-137 -320,217 c -188,-422 -805,-514 -668,12 132,-126 297,-166 571,302 274,468 828,663 959,303 269,200 600,85 806,-211 279,296 787,211 890,-109 149,234 663,320 914,-46 z"
       inkscape:connector-curvature="0"
       style="fill:#f7d417;stroke:#000000;stroke-width:47.97777939;stroke-miterlimit:4;stroke-dasharray:none" /><path
       id="_49609336"
       class="fil6 str0"
       d="m 9960,7421 c -381,36 -366,191 15,156 380,-36 371,-193 -15,-156 z"
       inkscape:connector-curvature="0"
       style="fill:#0091cc;stroke:#000000;stroke-width:47.97777939;stroke-miterlimit:4;stroke-dasharray:none" /><path
       id="_49608344"
       class="fil6 str0"
       d="m 12724,7421 c 380,36 365,191 -15,156 -381,-36 -371,-193 15,-156 z"
       inkscape:connector-curvature="0"
       style="fill:#0091cc;stroke:#000000;stroke-width:47.97777939;stroke-miterlimit:4;stroke-dasharray:none" /><path
       id="_49607352"
       class="fil0 str0"
       d="m 9446,6216 c -241,0 -241,360 0,360 242,0 245,-360 0,-360 z"
       inkscape:connector-curvature="0"
       style="fill:#d42e12;stroke:#000000;stroke-width:47.97777939;stroke-miterlimit:4;stroke-dasharray:none" /><path
       id="_49606328"
       class="fil0 str0"
       d="m 11348,5965 c -242,0 -242,359 0,359 241,0 244,-359 0,-359 z"
       inkscape:connector-curvature="0"
       style="fill:#d42e12;stroke:#000000;stroke-width:47.97777939;stroke-miterlimit:4;stroke-dasharray:none" /><path
       id="_49605336"
       class="fil0 str0"
       d="m 7685,6673 c -121,72 65,380 185,308 121,-72 -63,-382 -185,-308 z"
       inkscape:connector-curvature="0"
       style="fill:#d42e12;stroke:#000000;stroke-width:47.97777939;stroke-miterlimit:4;stroke-dasharray:none" /><path
       id="_49604208"
       class="fil0 str0"
       d="m 13237,6216 c 242,0 242,360 0,360 -241,0 -244,-360 0,-360 z"
       inkscape:connector-curvature="0"
       style="fill:#d42e12;stroke:#000000;stroke-width:47.97777939;stroke-miterlimit:4;stroke-dasharray:none" /><path
       id="_49603216"
       class="fil0 str0"
       d="m 14999,6673 c 120,72 -65,380 -186,308 -120,-72 64,-382 186,-308 z"
       inkscape:connector-curvature="0"
       style="fill:#d42e12;stroke:#000000;stroke-width:47.97777939;stroke-miterlimit:4;stroke-dasharray:none" /><path
       id="_49602096"
       class="fil0 str0"
       d="m 11636,7518 c 37,0 54,-13 54,-49 l 0,-105 c 0,-36 -17,-49 -54,-49 l -600,0 c -37,0 -54,13 -54,49 l 0,105 c 0,36 17,49 54,49 l 600,0 z"
       inkscape:connector-curvature="0"
       style="fill:#d42e12;stroke:#000000;stroke-width:47.97777939;stroke-miterlimit:4;stroke-dasharray:none" /><polygon
       id="_49601120"
       class="fil0 str0"
       points="8572,7788 8770,7840 8933,7716 8735,7664 "
       style="fill:#d42e12;stroke:#000000;stroke-width:47.97777939;stroke-miterlimit:4;stroke-dasharray:none" /><polygon
       id="_49599792"
       class="fil0 str0"
       points="14112,7788 13914,7840 13750,7716 13949,7664 "
       style="fill:#d42e12;stroke:#000000;stroke-width:47.97777939;stroke-miterlimit:4;stroke-dasharray:none" /><path
       id="_49598800"
       class="fil4 str0"
       d="m 9212,4070 c -145,0 -145,216 0,216 145,0 147,-216 0,-216 z"
       inkscape:connector-curvature="0"
       style="fill:#f7d117;stroke:#000000;stroke-width:47.97777939;stroke-miterlimit:4;stroke-dasharray:none" /><path
       id="_49597808"
       class="fil4 str0"
       d="m 9418,3882 c -145,0 -145,216 0,216 144,0 147,-216 0,-216 z"
       inkscape:connector-curvature="0"
       style="fill:#f7d117;stroke:#000000;stroke-width:47.97777939;stroke-miterlimit:4;stroke-dasharray:none" /><path
       id="_49596816"
       class="fil4 str0"
       d="m 9663,3745 c -145,0 -145,215 0,215 145,0 147,-215 0,-215 z"
       inkscape:connector-curvature="0"
       style="fill:#f7d117;stroke:#000000;stroke-width:47.97777939;stroke-miterlimit:4;stroke-dasharray:none" /><path
       id="_49595824"
       class="fil4 str0"
       d="m 9949,3653 c -145,0 -145,216 0,216 145,0 147,-216 0,-216 z"
       inkscape:connector-curvature="0"
       style="fill:#f7d117;stroke:#000000;stroke-width:47.97777939;stroke-miterlimit:4;stroke-dasharray:none" /><path
       id="_49594832"
       class="fil4 str0"
       d="m 10223,3613 c -145,0 -145,216 0,216 145,0 147,-216 0,-216 z"
       inkscape:connector-curvature="0"
       style="fill:#f7d117;stroke:#000000;stroke-width:47.97777939;stroke-miterlimit:4;stroke-dasharray:none" /><path
       id="_49593696"
       class="fil4 str0"
       d="m 10503,3625 c -145,0 -145,216 0,216 144,0 146,-216 0,-216 z"
       inkscape:connector-curvature="0"
       style="fill:#f7d117;stroke:#000000;stroke-width:47.97777939;stroke-miterlimit:4;stroke-dasharray:none" /><path
       id="_49592704"
       class="fil4 str0"
       d="m 10754,3688 c -145,0 -145,215 0,215 145,0 147,-215 0,-215 z"
       inkscape:connector-curvature="0"
       style="fill:#f7d117;stroke:#000000;stroke-width:47.97777939;stroke-miterlimit:4;stroke-dasharray:none" /><path
       id="_49591712"
       class="fil4 str0"
       d="m 10993,3785 c -144,0 -144,215 0,215 145,0 147,-215 0,-215 z"
       inkscape:connector-curvature="0"
       style="fill:#f7d117;stroke:#000000;stroke-width:47.97777939;stroke-miterlimit:4;stroke-dasharray:none" /><path
       id="_49590720"
       class="fil4 str0"
       d="m 9069,4304 c -145,0 -145,216 0,216 145,0 147,-216 0,-216 z"
       inkscape:connector-curvature="0"
       style="fill:#f7d117;stroke:#000000;stroke-width:47.97777939;stroke-miterlimit:4;stroke-dasharray:none" /><path
       id="_49589720"
       class="fil4 str0"
       d="m 8984,4573 c -145,0 -145,215 0,215 145,0 147,-215 0,-215 z"
       inkscape:connector-curvature="0"
       style="fill:#f7d117;stroke:#000000;stroke-width:47.97777939;stroke-miterlimit:4;stroke-dasharray:none" /><path
       id="_49588728"
       class="fil4 str0"
       d="m 9006,4847 c -144,0 -144,215 0,215 145,0 147,-215 0,-215 z"
       inkscape:connector-curvature="0"
       style="fill:#f7d117;stroke:#000000;stroke-width:47.97777939;stroke-miterlimit:4;stroke-dasharray:none" /><path
       id="_49587736"
       class="fil4 str0"
       d="m 9109,5098 c -145,0 -145,216 0,216 145,0 147,-216 0,-216 z"
       inkscape:connector-curvature="0"
       style="fill:#f7d117;stroke:#000000;stroke-width:47.97777939;stroke-miterlimit:4;stroke-dasharray:none" /><path
       id="_49586744"
       class="fil4 str0"
       d="m 9258,5315 c -145,0 -145,216 0,216 145,0 147,-216 0,-216 z"
       inkscape:connector-curvature="0"
       style="fill:#f7d117;stroke:#000000;stroke-width:47.97777939;stroke-miterlimit:4;stroke-dasharray:none" /><path
       id="_49585720"
       class="fil4 str0"
       d="m 8921,4076 c -145,0 -145,216 0,216 145,0 147,-216 0,-216 z"
       inkscape:connector-curvature="0"
       style="fill:#f7d117;stroke:#000000;stroke-width:47.97777939;stroke-miterlimit:4;stroke-dasharray:none" /><path
       id="_49584728"
       class="fil4 str0"
       d="m 8652,4042 c -144,0 -144,215 0,215 145,0 147,-215 0,-215 z"
       inkscape:connector-curvature="0"
       style="fill:#f7d117;stroke:#000000;stroke-width:47.97777939;stroke-miterlimit:4;stroke-dasharray:none" /><path
       id="_49583600"
       class="fil4 str0"
       d="m 8384,4053 c -145,0 -145,216 0,216 145,0 147,-216 0,-216 z"
       inkscape:connector-curvature="0"
       style="fill:#f7d117;stroke:#000000;stroke-width:47.97777939;stroke-miterlimit:4;stroke-dasharray:none" /><path
       id="_49582608"
       class="fil4 str0"
       d="m 8099,4110 c -145,0 -145,216 0,216 145,0 147,-216 0,-216 z"
       inkscape:connector-curvature="0"
       style="fill:#f7d117;stroke:#000000;stroke-width:47.97777939;stroke-miterlimit:4;stroke-dasharray:none" /><path
       id="_49581584"
       class="fil4 str0"
       d="m 7836,4213 c -145,0 -145,216 0,216 145,0 147,-216 0,-216 z"
       inkscape:connector-curvature="0"
       style="fill:#f7d117;stroke:#000000;stroke-width:47.97777939;stroke-miterlimit:4;stroke-dasharray:none" /><path
       id="_49580592"
       class="fil4 str0"
       d="m 7591,4356 c -145,0 -145,215 0,215 144,0 146,-215 0,-215 z"
       inkscape:connector-curvature="0"
       style="fill:#f7d117;stroke:#000000;stroke-width:47.97777939;stroke-miterlimit:4;stroke-dasharray:none" /><path
       id="_49579600"
       class="fil4 str0"
       d="m 7379,4538 c -145,0 -145,216 0,216 145,0 147,-216 0,-216 z"
       inkscape:connector-curvature="0"
       style="fill:#f7d117;stroke:#000000;stroke-width:47.97777939;stroke-miterlimit:4;stroke-dasharray:none" /><path
       id="_49578608"
       class="fil4 str0"
       d="m 7202,4761 c -145,0 -145,216 0,216 145,0 147,-216 0,-216 z"
       inkscape:connector-curvature="0"
       style="fill:#f7d117;stroke:#000000;stroke-width:47.97777939;stroke-miterlimit:4;stroke-dasharray:none" /><path
       id="_49577584"
       class="fil4 str0"
       d="m 7088,5012 c -145,0 -145,216 0,216 145,0 147,-216 0,-216 z"
       inkscape:connector-curvature="0"
       style="fill:#f7d117;stroke:#000000;stroke-width:47.97777939;stroke-miterlimit:4;stroke-dasharray:none" /><path
       id="_49576592"
       class="fil4 str0"
       d="m 7025,5281 c -145,0 -145,215 0,215 145,0 147,-215 0,-215 z"
       inkscape:connector-curvature="0"
       style="fill:#f7d117;stroke:#000000;stroke-width:47.97777939;stroke-miterlimit:4;stroke-dasharray:none" /><path
       id="_49575600"
       class="fil4 str0"
       d="m 7020,5566 c -145,0 -145,216 0,216 144,0 146,-216 0,-216 z"
       inkscape:connector-curvature="0"
       style="fill:#f7d117;stroke:#000000;stroke-width:47.97777939;stroke-miterlimit:4;stroke-dasharray:none" /><path
       id="_49574608"
       class="fil4 str0"
       d="m 7071,5829 c -145,0 -145,216 0,216 145,0 147,-216 0,-216 z"
       inkscape:connector-curvature="0"
       style="fill:#f7d117;stroke:#000000;stroke-width:47.97777939;stroke-miterlimit:4;stroke-dasharray:none" /><path
       id="_49573448"
       class="fil4 str0"
       d="m 7162,6057 c -145,0 -145,216 0,216 145,0 147,-216 0,-216 z"
       inkscape:connector-curvature="0"
       style="fill:#f7d117;stroke:#000000;stroke-width:47.97777939;stroke-miterlimit:4;stroke-dasharray:none" /><path
       id="_49572456"
       class="fil4 str0"
       d="m 13472,4070 c 144,0 144,216 0,216 -145,0 -147,-216 0,-216 z"
       inkscape:connector-curvature="0"
       style="fill:#f7d117;stroke:#000000;stroke-width:47.97777939;stroke-miterlimit:4;stroke-dasharray:none" /><path
       id="_49571464"
       class="fil4 str0"
       d="m 13266,3882 c 145,0 145,216 0,216 -145,0 -147,-216 0,-216 z"
       inkscape:connector-curvature="0"
       style="fill:#f7d117;stroke:#000000;stroke-width:47.97777939;stroke-miterlimit:4;stroke-dasharray:none" /><path
       id="_49377256"
       class="fil4 str0"
       d="m 13021,3745 c 144,0 144,215 0,215 -145,0 -147,-215 0,-215 z"
       inkscape:connector-curvature="0"
       style="fill:#f7d117;stroke:#000000;stroke-width:47.97777939;stroke-miterlimit:4;stroke-dasharray:none" /><path
       id="_49376928"
       class="fil4 str0"
       d="m 12735,3653 c 145,0 145,216 0,216 -145,0 -147,-216 0,-216 z"
       inkscape:connector-curvature="0"
       style="fill:#f7d117;stroke:#000000;stroke-width:47.97777939;stroke-miterlimit:4;stroke-dasharray:none" /><path
       id="_49375936"
       class="fil4 str0"
       d="m 12461,3613 c 145,0 145,216 0,216 -145,0 -147,-216 0,-216 z"
       inkscape:connector-curvature="0"
       style="fill:#f7d117;stroke:#000000;stroke-width:47.97777939;stroke-miterlimit:4;stroke-dasharray:none" /><path
       id="_49374944"
       class="fil4 str0"
       d="m 12181,3625 c 145,0 145,216 0,216 -145,0 -147,-216 0,-216 z"
       inkscape:connector-curvature="0"
       style="fill:#f7d117;stroke:#000000;stroke-width:47.97777939;stroke-miterlimit:4;stroke-dasharray:none" /><path
       id="_49373952"
       class="fil4 str0"
       d="m 11930,3688 c 145,0 145,215 0,215 -145,0 -147,-215 0,-215 z"
       inkscape:connector-curvature="0"
       style="fill:#f7d117;stroke:#000000;stroke-width:47.97777939;stroke-miterlimit:4;stroke-dasharray:none" /><path
       id="_49372960"
       class="fil4 str0"
       d="m 11690,3785 c 145,0 145,215 0,215 -145,0 -147,-215 0,-215 z"
       inkscape:connector-curvature="0"
       style="fill:#f7d117;stroke:#000000;stroke-width:47.97777939;stroke-miterlimit:4;stroke-dasharray:none" /><path
       id="_49371968"
       class="fil4 str0"
       d="m 13614,4304 c 145,0 145,216 0,216 -144,0 -147,-216 0,-216 z"
       inkscape:connector-curvature="0"
       style="fill:#f7d117;stroke:#000000;stroke-width:47.97777939;stroke-miterlimit:4;stroke-dasharray:none" /><path
       id="_49370840"
       class="fil4 str0"
       d="m 13700,4573 c 145,0 145,215 0,215 -145,0 -147,-215 0,-215 z"
       inkscape:connector-curvature="0"
       style="fill:#f7d117;stroke:#000000;stroke-width:47.97777939;stroke-miterlimit:4;stroke-dasharray:none" /><path
       id="_49369848"
       class="fil4 str0"
       d="m 13677,4847 c 145,0 145,215 0,215 -145,0 -147,-215 0,-215 z"
       inkscape:connector-curvature="0"
       style="fill:#f7d117;stroke:#000000;stroke-width:47.97777939;stroke-miterlimit:4;stroke-dasharray:none" /><path
       id="_49368824"
       class="fil4 str0"
       d="m 13574,5098 c 145,0 145,216 0,216 -145,0 -147,-216 0,-216 z"
       inkscape:connector-curvature="0"
       style="fill:#f7d117;stroke:#000000;stroke-width:47.97777939;stroke-miterlimit:4;stroke-dasharray:none" /><path
       id="_49367832"
       class="fil4 str0"
       d="m 13426,5315 c 145,0 145,216 0,216 -145,0 -147,-216 0,-216 z"
       inkscape:connector-curvature="0"
       style="fill:#f7d117;stroke:#000000;stroke-width:47.97777939;stroke-miterlimit:4;stroke-dasharray:none" /><path
       id="_49366840"
       class="fil4 str0"
       d="m 13763,4076 c 145,0 145,216 0,216 -145,0 -147,-216 0,-216 z"
       inkscape:connector-curvature="0"
       style="fill:#f7d117;stroke:#000000;stroke-width:47.97777939;stroke-miterlimit:4;stroke-dasharray:none" /><path
       id="_49365848"
       class="fil4 str0"
       d="m 14031,4042 c 145,0 145,215 0,215 -145,0 -147,-215 0,-215 z"
       inkscape:connector-curvature="0"
       style="fill:#f7d117;stroke:#000000;stroke-width:47.97777939;stroke-miterlimit:4;stroke-dasharray:none" /><path
       id="_49364824"
       class="fil4 str0"
       d="m 14300,4053 c 144,0 144,216 0,216 -145,0 -147,-216 0,-216 z"
       inkscape:connector-curvature="0"
       style="fill:#f7d117;stroke:#000000;stroke-width:47.97777939;stroke-miterlimit:4;stroke-dasharray:none" /><path
       id="_49362984"
       class="fil4 str0"
       d="m 14585,4110 c 145,0 145,216 0,216 -145,0 -147,-216 0,-216 z"
       inkscape:connector-curvature="0"
       style="fill:#f7d117;stroke:#000000;stroke-width:47.97777939;stroke-miterlimit:4;stroke-dasharray:none" /><path
       id="_49362776"
       class="fil4 str0"
       d="m 14848,4213 c 144,0 144,216 0,216 -145,0 -147,-216 0,-216 z"
       inkscape:connector-curvature="0"
       style="fill:#f7d117;stroke:#000000;stroke-width:47.97777939;stroke-miterlimit:4;stroke-dasharray:none" /><path
       id="_49361736"
       class="fil4 str0"
       d="m 15093,4356 c 145,0 145,215 0,215 -145,0 -147,-215 0,-215 z"
       inkscape:connector-curvature="0"
       style="fill:#f7d117;stroke:#000000;stroke-width:47.97777939;stroke-miterlimit:4;stroke-dasharray:none" /><path
       id="_49360576"
       class="fil4 str0"
       d="m 15304,4538 c 145,0 145,216 0,216 -144,0 -146,-216 0,-216 z"
       inkscape:connector-curvature="0"
       style="fill:#f7d117;stroke:#000000;stroke-width:47.97777939;stroke-miterlimit:4;stroke-dasharray:none" /><path
       id="_49359584"
       class="fil4 str0"
       d="m 15481,4761 c 145,0 145,216 0,216 -144,0 -146,-216 0,-216 z"
       inkscape:connector-curvature="0"
       style="fill:#f7d117;stroke:#000000;stroke-width:47.97777939;stroke-miterlimit:4;stroke-dasharray:none" /><path
       id="_49358592"
       class="fil4 str0"
       d="m 15596,5012 c 144,0 144,216 0,216 -145,0 -147,-216 0,-216 z"
       inkscape:connector-curvature="0"
       style="fill:#f7d117;stroke:#000000;stroke-width:47.97777939;stroke-miterlimit:4;stroke-dasharray:none" /><path
       id="_49357600"
       class="fil4 str0"
       d="m 15658,5281 c 145,0 145,215 0,215 -144,0 -146,-215 0,-215 z"
       inkscape:connector-curvature="0"
       style="fill:#f7d117;stroke:#000000;stroke-width:47.97777939;stroke-miterlimit:4;stroke-dasharray:none" /><path
       id="_49356576"
       class="fil4 str0"
       d="m 15664,5566 c 145,0 145,216 0,216 -145,0 -147,-216 0,-216 z"
       inkscape:connector-curvature="0"
       style="fill:#f7d117;stroke:#000000;stroke-width:47.97777939;stroke-miterlimit:4;stroke-dasharray:none" /><path
       id="_49355584"
       class="fil4 str0"
       d="m 15613,5829 c 145,0 145,216 0,216 -145,0 -147,-216 0,-216 z"
       inkscape:connector-curvature="0"
       style="fill:#f7d117;stroke:#000000;stroke-width:47.97777939;stroke-miterlimit:4;stroke-dasharray:none" /><path
       id="_49354592"
       class="fil4 str0"
       d="m 15521,6057 c 145,0 145,216 0,216 -144,0 -146,-216 0,-216 z"
       inkscape:connector-curvature="0"
       style="fill:#f7d117;stroke:#000000;stroke-width:47.97777939;stroke-miterlimit:4;stroke-dasharray:none" /><path
       id="_49353600"
       class="fil7 str0"
       d="m 8681,6684 c -150,0 -150,223 0,223 150,0 152,-223 0,-223 z"
       inkscape:connector-curvature="0"
       style="fill:#ffffff;stroke:#000000;stroke-width:47.97777939;stroke-miterlimit:4;stroke-dasharray:none" /><path
       id="_49352608"
       class="fil7 str0"
       d="m 10428,6336 c -149,0 -149,222 0,222 150,0 152,-222 0,-222 z"
       inkscape:connector-curvature="0"
       style="fill:#ffffff;stroke:#000000;stroke-width:47.97777939;stroke-miterlimit:4;stroke-dasharray:none" /><path
       id="_49351616"
       class="fil7 str0"
       d="m 14003,6684 c 149,0 149,223 0,223 -150,0 -152,-223 0,-223 z"
       inkscape:connector-curvature="0"
       style="fill:#ffffff;stroke:#000000;stroke-width:47.97777939;stroke-miterlimit:4;stroke-dasharray:none" /><path
       id="_49350488"
       class="fil7 str0"
       d="m 12255,6336 c 150,0 150,222 0,222 -149,0 -151,-222 0,-222 z"
       inkscape:connector-curvature="0"
       style="fill:#ffffff;stroke:#000000;stroke-width:47.97777939;stroke-miterlimit:4;stroke-dasharray:none" /><path
       id="_49349496"
       class="fil7 str0"
       d="m 10651,7300 c -150,0 -150,223 0,223 150,0 152,-223 0,-223 z"
       inkscape:connector-curvature="0"
       style="fill:#ffffff;stroke:#000000;stroke-width:47.97777939;stroke-miterlimit:4;stroke-dasharray:none" /><path
       id="_49348504"
       class="fil7 str0"
       d="m 9275,7489 c -150,0 -150,223 0,223 149,0 152,-223 0,-223 z"
       inkscape:connector-curvature="0"
       style="fill:#ffffff;stroke:#000000;stroke-width:47.97777939;stroke-miterlimit:4;stroke-dasharray:none" /><path
       id="_49347512"
       class="fil7 str0"
       d="m 12033,7300 c 149,0 149,223 0,223 -150,0 -152,-223 0,-223 z"
       inkscape:connector-curvature="0"
       style="fill:#ffffff;stroke:#000000;stroke-width:47.97777939;stroke-miterlimit:4;stroke-dasharray:none" /><path
       id="_49346248"
       class="fil7 str0"
       d="m 13409,7489 c 149,0 149,223 0,223 -150,0 -152,-223 0,-223 z"
       inkscape:connector-curvature="0"
       style="fill:#ffffff;stroke:#000000;stroke-width:47.97777939;stroke-miterlimit:4;stroke-dasharray:none" /><path
       id="_49345456"
       class="fil8 str0"
       d="m 11336,8418 c 1298,0 2350,-128 2350,-287 0,-158 -1052,-287 -2350,-287 -1297,0 -2349,129 -2349,287 0,159 1052,287 2349,287 z"
       inkscape:connector-curvature="0"
       style="fill:#00a6d6;stroke:#000000;stroke-width:47.97777939;stroke-miterlimit:4;stroke-dasharray:none" /><path
       id="_49344664"
       class="fil2 str0"
       d="m 7379,4811 c -114,143 -217,742 74,1039"
       inkscape:connector-curvature="0"
       style="fill:none;stroke:#000000;stroke-width:47.97777939;stroke-miterlimit:4;stroke-dasharray:none" /><line
       id="_49343872"
       class="fil2 str0"
       x1="7453"
       y1="5850"
       x2="7311"
       y2="6216"
       style="fill:none;stroke:#000000;stroke-width:47.97777939;stroke-miterlimit:4;stroke-dasharray:none" /><path
       id="_49343080"
       class="fil2 str0"
       d="m 15304,4811 c 115,143 217,742 -74,1039"
       inkscape:connector-curvature="0"
       style="fill:none;stroke:#000000;stroke-width:47.97777939;stroke-miterlimit:4;stroke-dasharray:none" /><line
       id="_49342144"
       class="fil2 str0"
       x1="15230"
       y1="5850"
       x2="15373"
       y2="6216"
       style="fill:none;stroke:#000000;stroke-width:47.97777939;stroke-miterlimit:4;stroke-dasharray:none" /></g><g
     id="g4030"
     transform="translate(-220,0)"><g
       transform="matrix(0.98984602,0,0,0.98984602,-135.56994,128.51201)"
       id="g3145"
       style="color:#000000;fill:#f7d417;fill-opacity:1;fill-rule:nonzero;stroke:#1f1a17;stroke-width:75.76936116;stroke-linecap:round;stroke-linejoin:round;stroke-miterlimit:4;stroke-opacity:1;stroke-dasharray:none;stroke-dashoffset:0;marker:none;visibility:visible;display:inline;overflow:visible;enable-background:accumulate"><path
         style="fill:#f7d417;stroke:#1f1a17;stroke-width:75.76936116;stroke-linecap:round;stroke-linejoin:round;color:#000000;fill-opacity:1;fill-rule:nonzero;stroke-miterlimit:4;stroke-opacity:1;stroke-dasharray:none;stroke-dashoffset:0;marker:none;visibility:visible;display:inline;overflow:visible;enable-background:accumulate"
         inkscape:connector-curvature="0"
         d="m 6035,8950 c -67,-217 188,-481 444,-422 4036,5255 8072,10509 12108,15764 65,270 -252,571 -540,396 C 14043,19442 10039,14196 6035,8950 z"
         class="fil1 str1"
         id="_49340856" /><path
         style="fill:#f7d417;stroke:#1f1a17;stroke-width:75.76936116;stroke-linecap:round;stroke-linejoin:round;color:#000000;fill-opacity:1;fill-rule:nonzero;stroke-miterlimit:4;stroke-opacity:1;stroke-dasharray:none;stroke-dashoffset:0;marker:none;visibility:visible;display:inline;overflow:visible;enable-background:accumulate"
         inkscape:connector-curvature="0"
         d="m 5551,9341 c -67,-217 189,-480 445,-422 4035,5255 8071,10510 12107,15765 66,270 -252,570 -539,396 C 13560,19834 9555,14587 5551,9341 z"
         class="fil1 str1"
         id="_49339704" /><path
         style="fill:#f7d417;stroke:#1f1a17;stroke-width:75.76936116;stroke-linecap:round;stroke-linejoin:round;color:#000000;fill-opacity:1;fill-rule:nonzero;stroke-miterlimit:4;stroke-opacity:1;stroke-dasharray:none;stroke-dashoffset:0;marker:none;visibility:visible;display:inline;overflow:visible;enable-background:accumulate"
         inkscape:connector-curvature="0"
         d="m 5068,9733 c -67,-218 189,-481 444,-422 4036,5255 8072,10509 12108,15764 65,270 -252,571 -539,396 C 13076,20225 9072,14979 5068,9733 z"
         class="fil1 str1"
         id="_49338552" /><path
         style="fill:#f7d417;stroke:#1f1a17;stroke-width:75.76936116;stroke-linecap:round;stroke-linejoin:round;color:#000000;fill-opacity:1;fill-rule:nonzero;stroke-miterlimit:4;stroke-opacity:1;stroke-dasharray:none;stroke-dashoffset:0;marker:none;visibility:visible;display:inline;overflow:visible;enable-background:accumulate"
         inkscape:connector-curvature="0"
         d="m 4584,10124 c -66,-217 189,-481 445,-422 4036,5255 8071,10510 12107,15765 66,270 -252,570 -539,395 C 12593,20616 8589,15370 4584,10124 z"
         class="fil1 str1"
         id="_49337760" /><path
         style="fill:#f7d417;stroke:#1f1a17;stroke-width:75.76936116;stroke-linecap:round;stroke-linejoin:round;color:#000000;fill-opacity:1;fill-rule:nonzero;stroke-miterlimit:4;stroke-opacity:1;stroke-dasharray:none;stroke-dashoffset:0;marker:none;visibility:visible;display:inline;overflow:visible;enable-background:accumulate"
         inkscape:connector-curvature="0"
         d="m 4101,10516 c -67,-218 189,-481 444,-422 4036,5254 8072,10509 12108,15764 66,270 -252,571 -539,396 C 12109,21008 8105,15762 4101,10516 z"
         class="fil1 str1"
         id="_49336968" /><path
         style="fill:#f7d417;stroke:#1f1a17;stroke-width:75.76936116;stroke-linecap:round;stroke-linejoin:round;color:#000000;fill-opacity:1;fill-rule:nonzero;stroke-miterlimit:4;stroke-opacity:1;stroke-dasharray:none;stroke-dashoffset:0;marker:none;visibility:visible;display:inline;overflow:visible;enable-background:accumulate"
         inkscape:connector-curvature="0"
         d="m 7374,14804 c -550,-721 -1101,-1442 -1651,-2164 -356,11 -439,266 -297,592 l 8554,10978 c 21,241 33,373 33,373 253,348 471,121 684,-189 L 7374,14804 z"
         class="fil1 str1"
         id="_49335424" /><path
         style="fill:#f7d417;stroke:#1f1a17;stroke-width:75.76936116;stroke-linecap:round;stroke-linejoin:round;color:#000000;fill-opacity:1;fill-rule:nonzero;stroke-miterlimit:4;stroke-opacity:1;stroke-dasharray:none;stroke-dashoffset:0;marker:none;visibility:visible;display:inline;overflow:visible;enable-background:accumulate"
         inkscape:connector-curvature="0"
         d="m 7186,16106 c -721,-157 -889,-885 -657,-1460 -261,-335 -522,-670 -783,-1004 -512,190 -1062,-42 -1190,-1064 -1182,1145 -222,4534 2630,3528 z"
         class="fil1 str1"
         id="_49334272" /><path
         style="fill:#f7d417;stroke:#1f1a17;stroke-width:75.76936116;stroke-linecap:round;stroke-linejoin:round;color:#000000;fill-opacity:1;fill-rule:nonzero;stroke-miterlimit:4;stroke-opacity:1;stroke-dasharray:none;stroke-dashoffset:0;marker:none;visibility:visible;display:inline;overflow:visible;enable-background:accumulate"
         inkscape:connector-curvature="0"
         d="m 11298,14802 c -1901,-720 -3802,-1440 -5703,-2160 -326,194 -269,496 -105,675 1914,705 3828,1411 5741,2116 943,235 673,-390 67,-631 z"
         class="fil1 str1"
         id="_49332072" /><path
         style="fill:#f7d417;stroke:#1f1a17;stroke-width:75.76936116;stroke-linecap:round;stroke-linejoin:round;color:#000000;fill-opacity:1;fill-rule:nonzero;stroke-miterlimit:4;stroke-opacity:1;stroke-dasharray:none;stroke-dashoffset:0;marker:none;visibility:visible;display:inline;overflow:visible;enable-background:accumulate"
         inkscape:connector-curvature="0"
         d="m 5132,11824 c -195,3 -375,-118 -340,-453 808,-645 1615,-1290 2423,-1935 255,-22 430,284 340,454 -799,656 -1625,1278 -2423,1934 z"
         class="fil1 str1"
         id="_49330920" /><path
         style="fill:#f7d417;stroke:#1f1a17;stroke-width:75.76936116;stroke-linecap:round;stroke-linejoin:round;color:#000000;fill-opacity:1;fill-rule:nonzero;stroke-miterlimit:4;stroke-opacity:1;stroke-dasharray:none;stroke-dashoffset:0;marker:none;visibility:visible;display:inline;overflow:visible;enable-background:accumulate"
         inkscape:connector-curvature="0"
         d="m 5400,12246 c -195,3 -303,-87 -268,-422 807,-645 1615,-1289 2423,-1934 255,-22 372,201 282,371 -799,656 -1638,1329 -2437,1985 z"
         class="fil1 str1"
         id="_49329632" /><path
         style="fill:#f7d417;stroke:#1f1a17;stroke-width:75.76936116;stroke-linecap:round;stroke-linejoin:round;color:#000000;fill-opacity:1;fill-rule:nonzero;stroke-miterlimit:4;stroke-opacity:1;stroke-dasharray:none;stroke-dashoffset:0;marker:none;visibility:visible;display:inline;overflow:visible;enable-background:accumulate"
         inkscape:connector-curvature="0"
         d="m 5709,12651 c -195,3 -344,-70 -309,-405 808,-645 1629,-1340 2437,-1985 254,-22 358,252 268,422 -799,656 -1597,1312 -2396,1968 z"
         class="fil1 str1"
         id="_49328480" /><path
         style="fill:#f7d417;stroke:#1f1a17;stroke-width:75.76936116;stroke-linecap:round;stroke-linejoin:round;color:#000000;fill-opacity:1;fill-rule:nonzero;stroke-miterlimit:4;stroke-opacity:1;stroke-dasharray:none;stroke-dashoffset:0;marker:none;visibility:visible;display:inline;overflow:visible;enable-background:accumulate"
         inkscape:connector-curvature="0"
         d="m 14697,24394 c -199,3 -381,-121 -346,-461 822,-656 1644,-1313 2466,-1969 260,-22 438,288 346,461 -813,668 -1654,1301 -2466,1969 z"
         class="fil1 str1"
         id="_49327328" /><path
         style="fill:#f7d417;stroke:#1f1a17;stroke-width:75.76936116;stroke-linecap:round;stroke-linejoin:round;color:#000000;fill-opacity:1;fill-rule:nonzero;stroke-miterlimit:4;stroke-opacity:1;stroke-dasharray:none;stroke-dashoffset:0;marker:none;visibility:visible;display:inline;overflow:visible;enable-background:accumulate"
         inkscape:connector-curvature="0"
         d="m 14970,24823 c -199,3 -309,-89 -273,-429 822,-656 1644,-1313 2466,-1969 259,-22 378,205 286,378 -812,668 -1666,1353 -2479,2020 z"
         class="fil1 str1"
         id="_49326176" /><path
         style="fill:#f7d417;stroke:#1f1a17;stroke-width:75.76936116;stroke-linecap:round;stroke-linejoin:round;color:#000000;fill-opacity:1;fill-rule:nonzero;stroke-miterlimit:4;stroke-opacity:1;stroke-dasharray:none;stroke-dashoffset:0;marker:none;visibility:visible;display:inline;overflow:visible;enable-background:accumulate"
         inkscape:connector-curvature="0"
         d="m 15285,25236 c -199,3 -351,-72 -315,-413 822,-656 1657,-1364 2479,-2020 260,-22 365,256 274,429 -813,668 -1626,1336 -2438,2004 z"
         class="fil1 str1"
         id="_49325024" /><path
         style="fill:#f7d417;stroke:#1f1a17;stroke-width:75.76936116;stroke-linecap:round;stroke-linejoin:round;color:#000000;fill-opacity:1;fill-rule:nonzero;stroke-miterlimit:4;stroke-opacity:1;stroke-dasharray:none;stroke-dashoffset:0;marker:none;visibility:visible;display:inline;overflow:visible;enable-background:accumulate"
         inkscape:connector-curvature="0"
         d="m 9500,18545 c -228,3 -438,-139 -397,-530 944,-754 1888,-1508 2832,-2262 298,-26 503,331 397,530 -933,767 -1899,1495 -2832,2262 z"
         class="fil1 str1"
         id="_49323840" /><path
         style="fill:#f7d417;stroke:#1f1a17;stroke-width:75.76936116;stroke-linecap:round;stroke-linejoin:round;color:#000000;fill-opacity:1;fill-rule:nonzero;stroke-miterlimit:4;stroke-opacity:1;stroke-dasharray:none;stroke-dashoffset:0;marker:none;visibility:visible;display:inline;overflow:visible;enable-background:accumulate"
         inkscape:connector-curvature="0"
         d="m 9081,17997 c -228,4 -438,-139 -397,-529 944,-754 1888,-1508 2832,-2262 298,-26 503,331 397,529 -933,767 -1899,1495 -2832,2262 z"
         class="fil1 str1"
         id="_49322688" /><path
         style="fill:#f7d417;stroke:#1f1a17;stroke-width:75.76936116;stroke-linecap:round;stroke-linejoin:round;color:#000000;fill-opacity:1;fill-rule:nonzero;stroke-miterlimit:4;stroke-opacity:1;stroke-dasharray:none;stroke-dashoffset:0;marker:none;visibility:visible;display:inline;overflow:visible;enable-background:accumulate"
         inkscape:connector-curvature="0"
         d="m 9814,19038 c -228,3 -355,-103 -314,-493 944,-754 1888,-1508 2832,-2262 298,-26 435,235 330,434 -934,767 -1915,1554 -2848,2321 z"
         class="fil1 str1"
         id="_49321536" /><path
         style="fill:#f7d417;stroke:#1f1a17;stroke-width:75.76936116;stroke-linecap:round;stroke-linejoin:round;color:#000000;fill-opacity:1;fill-rule:nonzero;stroke-miterlimit:4;stroke-opacity:1;stroke-dasharray:none;stroke-dashoffset:0;marker:none;visibility:visible;display:inline;overflow:visible;enable-background:accumulate"
         inkscape:connector-curvature="0"
         d="m 10175,19511 c -228,4 -402,-82 -361,-473 944,-754 1903,-1567 2848,-2321 298,-26 419,294 313,493 -933,767 -1866,1534 -2800,2301 z"
         class="fil1 str1"
         id="_49320744" /><path
         style="fill:#f7d417;stroke:#1f1a17;stroke-width:75.76936116;stroke-linecap:round;stroke-linejoin:round;color:#000000;fill-opacity:1;fill-rule:nonzero;stroke-miterlimit:4;stroke-opacity:1;stroke-dasharray:none;stroke-dashoffset:0;marker:none;visibility:visible;display:inline;overflow:visible;enable-background:accumulate"
         inkscape:connector-curvature="0"
         d="m 10114,19663 61,-152 519,-426 c 1860,709 3741,1514 5600,2223 846,252 633,535 511,665 l -6691,-2310 z"
         class="fil1 str1"
         id="_49318840" /></g><g
       id="g3128"><line
         style="fill:none;stroke:#1f1a17;stroke-width:75;stroke-linecap:round;stroke-linejoin:round"
         y2="14872"
         x2="13712"
         y1="25353"
         x1="4642"
         class="fil2 str1"
         id="_49333224" /><line
         style="fill:none;stroke:#1f1a17;stroke-width:75;stroke-linecap:round;stroke-linejoin:round"
         y2="24995"
         x2="4953"
         y1="19383"
         x1="9863"
         class="fil2 str1"
         id="_49317656" /><polygon
         style="fill:#f7d417;stroke:#1f1a17;stroke-width:75;stroke-linecap:round;stroke-linejoin:round"
         points="13506,14414 4281,25101 3885,26167 5058,25518 14158,14948 "
         class="fil1 str1"
         id="_49316568" /><line
         style="fill:none;stroke:#1f1a17;stroke-width:75;stroke-linecap:round;stroke-linejoin:round"
         y2="25117"
         x2="4847"
         y1="14872"
         x1="13712"
         class="fil2 str1"
         id="_49311200" /><path
         style="fill:#f7d417;stroke:#1f1a17;stroke-width:75;stroke-linecap:round;stroke-linejoin:round"
         inkscape:connector-curvature="0"
         d="m 18474,9720 c -113,-91 -227,-182 -341,-272 -586.309,155.7176 -1300.598,823 -1300.598,823 0,0 -623.951,288.609 -676.682,664.111 -391.781,216.373 -405.203,461.501 -499.35,654.796 -255.95,147.902 -351.938,414.377 -407.414,668.292 -138.63,95.642 -190.93,235.514 -209.956,388.801 183,182 433,337 616,519 112.979,-86.596 227.248,-177.809 341.954,-273.375 275.711,-82.327 447.045,-316.124 618.962,-557.098 313.272,-169.593 500.061,-422.267 655.065,-699.663 281.011,-152.13 436.988,-393.835 520.309,-676.937 310.458,-220.804 409.534,-462.398 435.76,-714.563 160.147,-148.398 249,-321.3127 246.95,-524.364 z"
         class="fil1 str1"
         id="_49308784"
         sodipodi:nodetypes="cccccccccccccc" /><path
         style="fill:#f7d417;stroke:#1f1a17;stroke-width:75;stroke-linecap:round;stroke-linejoin:round"
         inkscape:connector-curvature="0"
         d="m 16290,14867 c -1390,-593 -2172,-1484 -2950,-2558 113,-145 281,-221 395,-367 1395,483 2186,1481 2913,2527 -119,132 -239,265 -358,398 z"
         class="fil1 str1"
         id="_49310408" /><circle
         sodipodi:ry="592"
         sodipodi:rx="592"
         sodipodi:cy="9154"
         sodipodi:cx="18647"
         d="m 19239,9154 c 0,326.9526 -265.047,592 -592,592 -326.953,0 -592,-265.0474 -592,-592 0,-326.9526 265.047,-592 592,-592 326.953,0 592,265.0474 592,592 z"
         style="fill:#f7d417;stroke:#1f1a17;stroke-width:75;stroke-linecap:round;stroke-linejoin:round"
         r="592"
         cy="9154"
         cx="18647"
         class="fil1 str1"
         id="_49307808" /><line
         style="fill:none;stroke:#1f1a17;stroke-width:75;stroke-linecap:round;stroke-linejoin:round"
         y2="10240"
         x2="18230"
         y1="10295"
         x1="16811"
         class="fil2 str1"
         id="_49306760" /><line
         style="fill:none;stroke:#1f1a17;stroke-width:75;stroke-linecap:round;stroke-linejoin:round"
         y2="10944"
         x2="17802"
         y1="10956"
         x1="16160"
         class="fil2 str1"
         id="_49305712" /><line
         style="fill:none;stroke:#1f1a17;stroke-width:75;stroke-linecap:round;stroke-linejoin:round"
         y2="11620"
         x2="17284"
         y1="11612"
         x1="15679"
         class="fil2 str1"
         id="_49304664" /><line
         style="fill:none;stroke:#1f1a17;stroke-width:75;stroke-linecap:round;stroke-linejoin:round"
         y2="12329"
         x2="16623"
         y1="12267"
         x1="15244"
         class="fil2 str1"
         id="_49303616" /><line
         style="fill:none;stroke:#1f1a17;stroke-width:75;stroke-linecap:round;stroke-linejoin:round"
         y2="12894"
         x2="15995"
         y1="12842"
         x1="15276"
         class="fil2 str1"
         id="_49302192" /><path
         style="fill:#f7d417;stroke:#1f1a17;stroke-width:75;stroke-linecap:round;stroke-linejoin:round"
         inkscape:connector-curvature="0"
         d="m 16411.086,15301.932 c -173.669,-131.347 -174.782,-424.25 -1.057,-654.911 172.653,-229.739 454.433,-309.903 629.174,-179.479 153.774,115.817 171.736,357.836 55.499,570.744 1.994,0.15 5.061,-0.623 8.052,-0.399 76.161,0.694 100.417,89.543 92.124,146.681 -6.537,45.032 -57.308,84.671 -102.476,90.189 -47.99,5.864 -117.8,1.218 -128.748,-66.79 -171.635,162.627 -401.562,206.565 -552.568,93.965 z"
         class="fil1 str1"
         id="_49300256_0"
         sodipodi:nodetypes="cccccaacc" /><polygon
         style="fill:#f7d417;stroke:#1f1a17;stroke-width:75;stroke-linecap:round;stroke-linejoin:round"
         points="14961,14092 14292,13486 13506,14414 13712,14872 14158,14948 "
         class="fil1 str1"
         id="_49299056" /><path
         style="color:#000000;fill:#f7d417;fill-opacity:1;fill-rule:nonzero;stroke:#1f1a17;stroke-width:75;stroke-linecap:round;stroke-linejoin:round;stroke-miterlimit:4;stroke-opacity:1;stroke-dasharray:none;stroke-dashoffset:0;marker:none;visibility:visible;display:inline;overflow:visible;enable-background:accumulate"
         d="m 16143.808,14793.309 c 0,0 92.096,-192.514 159.089,-274.254 64.148,-78.268 227.58,-200.933 227.58,-200.933"
         id="path4153"
         inkscape:connector-curvature="0"
         sodipodi:nodetypes="cac" /><path
         style="color:#000000;fill:#f7d417;fill-opacity:1;fill-rule:nonzero;stroke:#1f1a17;stroke-width:75;stroke-linecap:round;stroke-linejoin:round;stroke-miterlimit:4;stroke-opacity:1;stroke-dasharray:none;stroke-dashoffset:0;marker:none;visibility:visible;display:inline;overflow:visible;enable-background:accumulate"
         d="m 13849.504,12004.915 c 0,0 -92.096,192.514 -159.089,274.254 -64.148,78.268 -227.58,200.933 -227.58,200.933"
         id="path4153-9"
         inkscape:connector-curvature="0"
         sodipodi:nodetypes="cac" /><path
         sodipodi:nodetypes="cccccaacc"
         id="path4190"
         class="fil1 str1"
         d="m 13606.295,11478.105 c 173.669,131.347 174.782,424.25 1.057,654.911 -172.653,229.739 -454.433,309.903 -629.174,179.479 -153.774,-115.817 -171.736,-357.836 -55.499,-570.744 -1.994,-0.15 -5.061,0.623 -8.052,0.399 -76.161,-0.694 -100.417,-89.543 -92.124,-146.681 6.537,-45.032 57.308,-84.671 102.476,-90.189 47.99,-5.864 117.8,-1.218 128.748,66.79 171.635,-162.627 401.562,-206.565 552.568,-93.965 z"
         inkscape:connector-curvature="0"
         style="fill:#f7d417;stroke:#1f1a17;stroke-width:75;stroke-linecap:round;stroke-linejoin:round" /></g></g></g>
 </g>
</svg>