<?xml version="1.0" encoding="UTF-8" ?>
<!DOCTYPE svg PUBLIC "-//W3C//DTD SVG 1.1//EN" "http://www.w3.org/Graphics/SVG/1.1/DTD/svg11.dtd">
<svg width="1000pt" height="1000pt" viewBox="0 0 1000 1000" version="1.1" xmlns="http://www.w3.org/2000/svg">
<path fill="#fefefe" d=" M 0.00 0.00 L 1000.00 0.00 L 1000.00 1000.00 L 0.00 1000.00 L 0.00 0.00 Z" />
<path fill="#3851a3" d=" M 259.00 81.46 C 288.18 150.62 320.13 218.82 358.87 283.20 C 379.35 316.78 401.57 349.64 428.95 378.04 C 440.92 390.28 454.01 401.66 469.01 410.04 C 479.41 415.72 490.91 420.10 502.87 420.30 C 521.34 418.95 538.05 409.53 552.63 398.69 C 577.56 379.77 597.98 355.70 616.93 330.98 C 639.61 300.98 659.75 269.15 678.74 236.71 C 706.55 188.96 731.60 139.65 755.07 89.63 C 750.69 101.19 745.60 112.48 741.11 124.00 C 708.41 205.47 680.51 288.81 655.91 373.07 C 635.17 444.57 616.55 516.71 601.12 589.54 C 590.80 593.68 580.52 597.89 570.20 602.02 C 576.36 593.68 582.55 585.36 588.73 577.03 C 576.35 583.23 564.03 589.52 551.67 595.73 C 561.85 585.33 572.15 575.04 582.34 564.65 C 572.05 570.75 561.89 577.06 551.63 583.21 C 557.74 572.78 563.98 562.43 570.09 552.01 C 559.78 560.31 549.51 568.67 539.20 576.97 C 543.29 564.48 547.44 552.00 551.53 539.50 C 545.32 547.77 539.21 556.12 533.01 564.41 C 532.97 551.90 533.04 539.40 532.97 526.90 C 528.84 539.37 524.78 551.86 520.60 564.32 C 520.57 549.79 520.61 535.27 520.58 520.74 C 516.38 533.19 512.39 545.70 508.18 558.14 C 507.64 545.47 506.10 532.71 502.00 520.67 C 497.90 532.72 496.35 545.48 495.83 558.15 C 491.61 545.70 487.62 533.19 483.42 520.74 C 483.39 535.26 483.43 549.79 483.39 564.32 C 479.27 551.87 475.07 539.45 471.12 526.95 C 470.84 539.43 471.09 551.93 470.99 564.42 C 464.81 556.13 458.70 547.80 452.50 539.54 C 456.55 552.03 460.73 564.48 464.80 576.97 C 454.49 568.66 444.21 560.31 433.90 552.00 C 440.01 562.43 446.26 572.78 452.37 583.20 C 442.11 577.06 431.95 570.75 421.67 564.66 C 431.85 575.06 442.16 585.34 452.34 595.73 C 439.97 589.52 427.64 583.23 415.27 577.02 C 421.44 585.36 427.65 593.68 433.80 602.03 C 423.47 597.81 413.07 593.76 402.79 589.41 C 394.58 543.47 384.42 497.90 373.58 452.51 C 343.23 326.59 305.45 202.40 259.00 81.46 Z" />
<path fill="#3851a3" d=" M 490.56 220.75 C 508.96 218.06 528.25 222.03 544.03 231.89 C 559.21 241.25 571.10 255.78 577.33 272.48 C 583.92 289.94 584.27 309.68 578.34 327.37 C 573.24 342.81 563.36 356.61 550.41 366.44 C 526.19 385.37 490.80 388.12 463.95 373.14 C 450.05 365.63 438.49 353.92 431.08 339.98 C 422.26 323.59 419.41 304.14 422.92 285.88 C 425.92 269.88 433.90 254.88 445.43 243.41 C 457.53 231.27 473.59 223.16 490.56 220.75 Z" />
<path fill="#a86aa7" d=" M 338.34 361.73 C 340.25 384.31 343.76 406.73 347.36 429.10 C 356.41 483.18 368.35 536.83 383.99 589.40 C 334.11 574.02 282.65 564.62 231.31 555.63 C 206.39 523.85 179.09 493.80 148.42 467.46 C 175.12 487.18 202.10 506.76 231.28 522.74 C 247.38 531.53 264.11 539.71 282.07 543.90 C 291.51 545.94 301.89 547.08 310.95 542.98 C 319.89 537.70 324.93 527.99 328.60 518.64 C 335.33 500.51 337.66 481.11 339.21 461.94 C 341.26 433.64 340.66 405.22 339.01 376.92 C 338.72 371.86 338.24 366.80 338.34 361.73 Z" />
<path fill="#a86aa7" d=" M 663.55 363.49 C 664.01 370.67 663.05 377.84 662.81 385.02 C 661.37 415.65 661.17 446.46 664.83 476.95 C 667.09 493.46 670.06 510.30 677.83 525.24 C 682.15 533.21 688.64 541.51 698.29 542.70 C 714.24 545.06 729.98 539.38 744.57 533.50 C 783.67 516.45 818.69 491.60 852.82 466.33 C 842.57 475.90 831.98 485.14 822.21 495.23 C 804.61 513.02 788.13 531.90 772.66 551.55 C 771.10 554.11 767.71 553.52 765.20 554.23 C 715.79 562.95 666.27 572.08 618.25 586.87 C 630.53 546.20 640.27 504.78 648.49 463.11 C 653.29 438.45 657.41 413.66 660.77 388.76 C 661.84 380.36 663.11 371.96 663.55 363.49 Z" />
<path fill="#a86aa7" d=" M 708.41 458.64 C 725.32 454.83 743.65 465.65 748.88 482.08 C 754.92 498.53 746.87 518.56 731.05 526.12 C 717.05 533.47 698.53 529.63 688.45 517.51 C 677.98 505.65 676.89 486.84 685.85 473.82 C 690.96 466.03 699.28 460.46 708.41 458.64 Z" />
<path fill="#a86aa7" d=" M 280.47 460.71 C 296.78 457.23 314.33 467.24 320.09 482.78 C 326.92 499.10 319.69 519.75 303.95 527.95 C 289.63 536.17 269.97 532.11 259.86 519.13 C 249.34 506.59 249.03 486.95 259.11 474.07 C 264.28 467.20 272.04 462.35 280.47 460.71 Z" />
<path fill="#a39e9d" d=" M 675.82 596.76 C 704.41 591.04 733.27 586.74 762.21 583.26 C 762.28 656.31 762.17 729.35 762.27 802.39 C 730.68 803.92 699.16 807.26 668.03 812.89 C 634.37 819.05 600.95 827.67 569.56 841.49 C 552.07 849.32 535.22 858.90 520.59 871.37 C 520.56 800.86 520.59 730.36 520.58 659.86 C 520.32 657.58 522.61 656.39 523.92 654.91 C 535.52 644.40 549.54 637.02 563.64 630.45 C 599.37 614.38 637.54 604.57 675.82 596.76 Z" />
<path fill="#a39e9d" d=" M 254.09 583.27 C 299.49 588.72 344.78 596.11 388.95 608.09 C 411.12 614.18 433.07 621.38 453.97 631.02 C 468.99 638.20 484.26 646.09 495.81 658.34 C 495.88 729.35 495.84 800.36 495.84 871.38 C 470.21 849.77 438.71 836.58 406.96 826.80 C 357.36 812.06 305.73 804.84 254.12 802.51 C 254.06 729.43 254.12 656.35 254.09 583.27 Z" />
<path fill="#a39e9d" d=" M 198.36 608.29 C 210.98 608.49 223.46 610.96 235.52 614.56 C 235.58 679.30 235.49 744.04 235.56 808.78 C 285.47 811.61 335.44 817.83 383.67 831.29 C 416.31 840.56 448.48 853.07 476.56 872.41 C 488.43 880.85 500.04 890.33 508.14 902.61 C 480.19 882.91 448.43 869.33 415.96 859.03 C 376.60 846.74 335.93 838.97 295.03 834.01 C 262.96 830.13 230.68 827.83 198.36 827.55 C 198.32 754.46 198.32 681.38 198.36 608.29 Z" />
<path fill="#a39e9d" d=" M 781.08 614.40 C 793.12 611.04 805.47 608.44 818.02 608.29 C 818.06 681.38 818.11 754.47 817.99 827.56 C 764.67 828.19 711.35 833.53 659.06 844.03 C 627.21 850.58 595.70 859.28 565.59 871.64 C 545.46 879.91 526.09 890.09 508.27 902.60 C 515.89 890.97 526.75 881.92 537.87 873.79 C 564.72 854.78 595.60 842.30 626.97 832.94 C 676.97 818.32 728.97 811.74 780.87 808.78 C 780.91 774.85 780.87 740.92 780.89 706.98 C 781.02 676.13 780.62 645.25 781.08 614.40 Z" />
<path fill="#a39e9d" d=" M 136.42 633.39 C 150.86 635.42 165.30 637.56 179.74 639.61 C 179.86 704.35 179.73 769.09 179.81 833.83 C 228.95 836.06 278.01 840.81 326.62 848.49 C 361.59 854.22 396.47 861.37 430.07 872.81 C 448.04 879.10 465.84 886.51 481.64 897.27 C 485.80 900.25 490.05 903.20 493.49 907.02 C 479.64 898.11 464.02 892.48 448.43 887.44 C 413.76 876.61 377.94 869.96 342.09 864.46 C 273.96 854.34 205.19 849.48 136.43 846.35 C 136.38 775.36 136.40 704.38 136.42 633.39 Z" />
<path fill="#a39e9d" d=" M 836.65 639.65 C 851.09 637.51 865.54 635.45 880.00 633.38 C 879.99 704.38 880.02 775.37 879.98 846.36 C 800.00 850.05 719.89 855.82 641.00 869.99 C 611.66 875.46 582.37 881.94 554.25 892.11 C 543.28 896.15 532.44 900.77 522.64 907.21 C 534.39 895.60 549.40 888.02 564.32 881.30 C 592.29 869.33 621.88 861.68 651.59 855.47 C 712.54 843.14 774.58 836.81 836.64 833.82 C 836.65 769.09 836.63 704.37 836.65 639.65 Z" />
</svg>
