<?xml version="1.0" encoding="utf-8"?>
<!-- Generator: Adobe Illustrator 19.2.1, SVG Export Plug-In . SVG Version: 6.00 Build 0)  -->
<svg version="1.1"
	 id="svg5430" xmlns:cc="http://creativecommons.org/ns#" xmlns:dc="http://purl.org/dc/elements/1.1/" xmlns:rdf="http://www.w3.org/1999/02/22-rdf-syntax-ns#" xmlns:svg="http://www.w3.org/2000/svg"
	 xmlns="http://www.w3.org/2000/svg" xmlns:xlink="http://www.w3.org/1999/xlink" x="0px" y="0px" viewBox="0 0 688.9 688.9"
	 style="enable-background:new 0 0 688.9 688.9;" xml:space="preserve">
<style type="text/css">
	.st0{fill:#000080;}
	.st1{fill:url(#path12056_1_);}
	.st2{fill:url(#path12060_1_);}
	.st3{fill:url(#path12062_1_);}
	.st4{fill:#FFFFFF;}
	.st5{stroke:#FFFFFF;stroke-width:0.1748;stroke-linecap:round;stroke-linejoin:round;}
	.st6{opacity:0.55;fill:url(#path12068_1_);enable-background:new    ;}
	.st7{fill:url(#path12070_1_);}
	.st8{fill:#008080;}
	.st9{fill:url(#path12076_1_);}
	.st10{fill:#AA0000;stroke:#550000;stroke-width:0.121;}
	.st11{fill:url(#path12080_1_);}
	.st12{fill:url(#path12082_1_);}
	.st13{opacity:0.55;fill:url(#path12086_1_);enable-background:new    ;}
	.st14{fill:url(#path12088_1_);}
	.st15{fill:url(#path12094_1_);}
	.st16{fill:url(#path12098_1_);}
	.st17{fill:url(#path12100_1_);}
	.st18{fill:url(#path12104_1_);}
	.st19{fill:url(#path12106_1_);}
	.st20{fill:#786721;}
	.st21{fill:#C8AB37;stroke:#C8AB37;stroke-width:1.0767;}
	.st22{fill:#C8AB37;stroke:#C8AB37;stroke-width:0.6121;}
	.st23{fill:#C8AB37;stroke:#C8AB37;stroke-width:0.7624;}
	.st24{fill:#C8AB37;stroke:#C8AB37;stroke-width:1.0385;}
	.st25{fill:#C8AB37;stroke:#C8AB37;stroke-width:0.9929;}
	.st26{fill:#C8AB37;stroke:#C8AB37;stroke-width:0.5734;}
	.st27{fill:#A0892C;stroke:#A0892C;stroke-width:1.0767;}
	.st28{fill:#A0892C;stroke:#A0892C;stroke-width:0.6121;}
	.st29{fill:#A0892C;stroke:#A0892C;stroke-width:0.7624;}
	.st30{fill:#A0892C;stroke:#A0892C;stroke-width:1.0385;}
	.st31{fill:#A0892C;stroke:#A0892C;stroke-width:0.9929;}
	.st32{fill:#A0892C;stroke:#A0892C;stroke-width:0.5734;}
	.st33{fill:#DECD87;stroke:#DECD87;stroke-width:1.0767;}
	.st34{fill:#DECD87;stroke:#DECD87;stroke-width:0.6121;}
	.st35{fill:#DECD87;stroke:#DECD87;stroke-width:0.7624;}
	.st36{fill:#DECD87;stroke:#DECD87;stroke-width:1.0385;}
	.st37{fill:#DECD87;stroke:#DECD87;stroke-width:0.9929;}
	.st38{fill:#DECD87;stroke:#DECD87;stroke-width:0.5734;}
	.st39{fill:#E9DDAF;stroke:#E9DDAF;stroke-width:0.9512;}
	.st40{fill:#E9DDAF;stroke:#E9DDAF;stroke-width:0.5407;}
	.st41{fill:#E9DDAF;stroke:#E9DDAF;stroke-width:0.6736;}
	.st42{fill:#E9DDAF;stroke:#E9DDAF;stroke-width:0.9175;}
	.st43{fill:#E9DDAF;stroke:#E9DDAF;stroke-width:0.8772;}
	.st44{fill:#E9DDAF;stroke:#E9DDAF;stroke-width:0.5066;}
	.st45{fill:#DECD87;}
	.st46{filter:url(#filter4614);}
	.st47{fill:#241F1C;}
	.st48{opacity:0.55;fill:url(#path12312_1_);enable-background:new    ;}
	.st49{fill:url(#path12314_1_);}
	.st50{fill:url(#path12320_1_);}
	.st51{fill:url(#path12324_1_);}
	.st52{fill:url(#path12326_1_);}
	.st53{opacity:0.55;fill:url(#path12330_1_);enable-background:new    ;}
	.st54{fill:url(#path12332_1_);}
	.st55{fill:url(#path12338_1_);}
	.st56{fill:url(#path12342_1_);}
	.st57{fill:url(#path12344_1_);}
	.st58{fill:url(#path12348_1_);}
	.st59{fill:url(#path12350_1_);}
</style>
<filter  color-interpolation-filters="sRGB" id="filter4614">
	<feGaussianBlur  id="feGaussianBlur4616" stdDeviation="1.2189219"></feGaussianBlur>
</filter>
<g id="layer1" transform="translate(-53.557239,-162.85305)">
	<g id="g5472" transform="matrix(2.9397004,0,0,2.9397004,1163.2315,4558.385)">
		<g id="g12052" transform="translate(-121.83377,-1685.034)">
			<path id="path12054" class="st0" d="M-160.4,367.3c-41-3.6-71.9-38.7-68.9-78.4s38.6-68.9,79.6-65.3c41,3.6,71.9,38.7,68.9,78.4
				C-83.8,341.7-119.4,371-160.4,367.3z"/>
			
				<linearGradient id="path12056_1_" gradientUnits="userSpaceOnUse" x1="-3.6839" y1="-144.9865" x2="-183.4763" y2="-155.8633" gradientTransform="matrix(-0.1425 1.9159 2.1849 0.1935 160.5345 449.2113)">
				<stop  offset="0" style="stop-color:#000000"/>
				<stop  offset="1" style="stop-color:#000000;stop-opacity:0"/>
			</linearGradient>
			<path id="path12056" class="st1" d="M-160.4,367.3c-41-3.6-71.9-38.7-68.9-78.4s38.6-68.9,79.6-65.3c41,3.6,71.9,38.7,68.9,78.4
				C-83.8,341.7-119.4,371-160.4,367.3z"/>
			<path id="path12058" d="M-160.4,367.3c-41-3.6-71.9-38.7-68.9-78.4s38.6-68.9,79.6-65.3c41,3.6,71.9,38.7,68.9,78.4
				C-83.8,341.7-119.4,371-160.4,367.3z"/>
			
				<linearGradient id="path12060_1_" gradientUnits="userSpaceOnUse" x1="239.5416" y1="339.6496" x2="365.928" y2="474.9995" gradientTransform="matrix(2.9493 0 0 -2.9491 -889.5337 1329.2034)">
				<stop  offset="0" style="stop-color:#FFFFFF"/>
				<stop  offset="1" style="stop-color:#FFFFFF;stop-opacity:0"/>
			</linearGradient>
			<path id="path12060" class="st2" d="M-163.8,226.9c-0.3,0-0.7,0-0.9,0.3c-0.2,0.2-0.3,0.5-0.5,0.7c-0.1,0.1-0.2,0.4-0.5,0.4
				c-0.2,0-0.7-0.1-0.9,0c-0.2,0.2-0.5,0.3-0.6,0.6c-0.1,0.4-0.4,0.3-0.7,0.6c-0.1,0.1-0.5,0.4-0.7,0.5c-0.3,0.1-0.5,0.1-0.9,0.1
				c-0.2,0-0.6-0.1-0.8,0c-0.4,0.1-0.6,0.4-0.9,0.5c-0.3,0.1-0.4,0.2-0.6,0.4c-0.2,0.2-0.6,0.4-0.9,0.4c-0.5,0-0.5,0.1-0.8,0.3
				c-0.2,0.2-0.6,0.2-0.9,0.2c-0.4,0-1,0-1.3,0.2c-0.2,0.1-0.6,0.2-0.7,0.4c-0.2,0.4-0.3,0.5-0.7,0.7c-0.2,0.1-0.8,0.3-0.9,0.5
				c-0.1,0.1-0.2,0.7-0.4,0.7c0,0,0.3,0.3,0.4,0.3c0.3,0.1,0.7,0,1,0c0.4,0,0.7,0,1.1,0c0.3,0,0.6-0.2,0.9-0.2c0.4,0,0.8,0,1.2,0.1
				c0.3,0.1,0.6,0.2,0.9,0.2c0.4,0,0.5,0,0.9-0.1c0.4-0.1,0.6-0.1,0.8-0.3c0.2-0.2,0.3-0.4,0.5-0.5c0.2-0.1,0.8-0.8,0.9-0.8
				c0.4,0,0.6-0.1,0.9-0.2c0.2-0.1,0.2-0.6,0.5-0.6c0.1,0,0.4,0.4,0.6,0.3c0.1,0,0.3-0.1,0.4,0c0.1,0,0.2,0.1,0.3,0.3
				c0.1,0.3,0.2,0.3,0.3,0.5c0.1,0.1,0.5,0.6,0.4,0.7c-0.1,0.2-0.1,0.6,0,0.8c0.1,0.2,0.1,0.5,0.2,0.7c0.1,0.2,0.3,0.5,0.3,0.7
				c0.1,0.3,0.2,0.3,0.4,0.6c0.2,0.3,0.1,0.5,0,0.8c-0.1,0.3-0.3,0.6-0.2,0.9c0,0.1,0,0.2,0,0.2c0.1,0.2,0.1,0.3,0.1,0.4
				c0.1,0.1,0.1,0,0.4,0c0.3,0,0.7,0,0.8,0.1c0.2,0.2,0.4,0.3,0.4,0.6c0,0.2-0.1,0.7-0.3,0.8c-0.1,0.1-0.5,0.4-0.5,0.6
				c0,0.3,0,0.6,0,0.8c0,0.1,0,0.1,0,0.2c0.1,0.3,0.1,0.7,0.3,1c0.1,0.2,0.4,0.4,0.5,0.7c0.1,0.3,0.1,0.6,0.2,0.9
				c0.1,0.3,0.3,0.5,0.4,0.7c0.1,0.3,0.2,0.8,0.4,1c0.3,0.2,0.4,0.4,0.6,0.7c0.2,0.2,0.4,0.6,0.6,0.7c0.2,0.2,0.3,0.4,0.6,0.6
				c0.5,0.4,0.7,0.7,1.3,1c0.3,0.1,0.6,0.3,0.9,0.4c0.3,0.2,0.6,0.4,0.9,0.6c0.3,0.2,0.6,0.5,1,0.4c0.4-0.1,0.9,0,1.2-0.2
				c0.1-0.1,0.2-0.1,0.3-0.2c0.1-0.1,0.2-0.2,0.1-0.4c-0.1-0.1-0.2-0.4-0.2-0.6c0-0.4-0.1-0.7-0.1-1.1c0-0.3,0-0.5,0-0.7
				c0.1-0.2,0.1-0.5,0-0.7c-0.1-0.3,0-0.6-0.1-0.9c-0.1-0.3,0-0.6,0-0.9c0-0.3,0-0.5,0-0.7c0.1-0.3,0-0.6,0-0.9c0-0.2,0-0.5,0-0.7
				c0.1-0.2,0.2-0.6,0.5-0.7c0.2-0.1,1-0.2,1-0.5c0-0.3,0-0.5-0.1-0.8c-0.1-0.3-0.3-0.6-0.1-0.9c0.2-0.4,0.6-0.5,0.9-0.8
				c0.1-0.2,0.4-0.4,0.6-0.6c0.2-0.2,0.5-0.3,0.6-0.5c0.1-0.2,0.2-0.5,0.2-0.7c0-0.2,0.1-0.8-0.1-0.8c-0.2-0.1-0.5-0.1-0.5-0.4
				c0-0.2,0.2-0.6,0.1-0.8c-0.1-0.2-0.2-0.4-0.6-0.5c-0.3-0.1-0.7-0.1-1-0.2c-0.2,0-0.6-0.1-0.7-0.2c-0.1-0.2-0.2-0.6-0.3-0.7
				c-0.3-0.1-0.6-0.1-0.9-0.1c-0.1,0-1.1-0.2-0.8-0.3c0.3-0.1,0.3-0.1,0.5-0.4c0.1-0.2,0.2-0.4,0.1-0.6c-0.2-0.3-0.5-0.4-0.7-0.6
				c-0.3-0.3-0.9-0.4-1.2-0.4c-0.1,0-0.1,0-0.1,0c-0.2-0.1-0.4-0.3-0.6-0.4c-0.2-0.2-0.7-0.3-1-0.4c-0.2-0.1-0.4-0.3-0.7-0.3
				c-0.3-0.1-0.6-0.1-0.9-0.1c-0.4-0.1-0.8-0.2-1.1-0.2c-0.1,0-1.1-0.1-1-0.3c0-0.1,0.2-0.5,0.4-0.5c0.3,0,0.6,0.1,0.9,0
				c0.4-0.1,0.7-0.1,1.1-0.1c0.4,0,0.7,0,1.1,0.1c0.4,0.1,0.9,0,1.4,0.1c0.3,0.1,0.9,0.1,1.2,0.1c0.5,0,1.1,0,1.6,0
				c0.8,0,1.5-0.2,2.3-0.2c0.4,0,0.6-0.3,0.9-0.3c0.2,0,0.3-0.1,0.4-0.1c0.1-0.1,0-0.1-0.2-0.2c-0.3-0.1-0.6,0-0.9,0
				c-0.2-0.1-0.6-0.1-0.9-0.1c-0.4,0-0.7,0-1,0c-0.3,0-0.5,0.1-0.8,0.1c-0.3,0.1-0.7,0-1,0c-0.4,0-0.8,0-1.1,0c-0.5,0-1-0.1-1.5-0.1
				c-0.3,0-0.6,0-0.9,0c-0.5,0-1,0-1.4-0.2c-0.4-0.2-0.6-0.3-1-0.4C-163.3,227.3-163.7,226.9-163.8,226.9L-163.8,226.9z
				 M-133.7,227.4c-0.6,0.1-1.2,0.2-1.7,0.3c-0.7,0.2-1.1,0.5-1.7,0.3c-0.4-0.1-0.9-0.1-1.3-0.2c0.1,0.1,0.1,0.3,0,0.5
				c-0.1,0.2-0.3,0.3-0.4,0.4c0,0-1.1,0.1-1.1,0.1c-0.3,0.1-0.2,0.2,0,0.4c0.2,0.2,0.4,0.4,0.5,0.4c0.6,0.1,1.3,0.5,1.8,0.7
				c0.2,0.1,0.3,0.2,0.4,0.3c0,0.1,0,0.3,0.1,0.5c0.1,0.4,0.2,0.5,0.5,0.7c0.3,0.2,1,0.2,1.4,0.2c0.6,0,1.4,0.3,1.8,0.4
				c0.4,0.1,0.9,0.5,1.1,0.7c0.2,0.2,0.5,0.4,0.8,0.7c0.3,0.4,0.6,0.6,1,0.8c0.4,0.2,0.9,0.2,1.1,0.3c0.4,0.2,0.9,0.5,1.2,0.8
				c0.3,0.3,0.6,0.6,0.9,0.9c0.3,0.3,0.4,0.7,0.8,1c0.4,0.3,0.7,0.5,1,0.8c0.4,0.4,0.7,0.5,1,0.8c0.2,0.2,0.5,0.6,0.9,0.7
				c0.6,0.1,0.9-0.2,1.4-0.3c0.2-0.1,1.1,0.8,1.2,0.9c0.3,0.2,0.5,0.6,0.7,0.8c0.1,0.3,0.6,0.6,0.8,0.8c0.4,0.4,0.5,0.4,0.9,0.7
				c0.2,0.1,0.4,0.1,0.6,0c0.2-0.1,0.3-0.2,0.3-0.3c0.1-0.4,0.3-0.6,0.1-1c-0.1-0.3,0-0.5,0.1-0.7c0.1-0.2,0.3-0.3,0.7-0.1
				c0.2,0.1,0.4,0.5,0.5,0.7c0.2,0.3,0.4,0.7,0.4,1.2c0,0.4,0,0.7,0,1.1c0,0.2,2,1.3,2,1.3c0.3,0.3,0.6,0.4,0.9,0.6
				c0.3,0.2,0.5,0.4,1,0.7c0.3,0.1,0.4,0.4,0.5,0.6c0.1,0.2,0.1,0.5,0,0.7c-0.1,0.2,0.1,0.8,0,1.1c-0.1,0.3-0.1,0.5-0.1,0.7
				c0,0.1,0.2,0.2,0.5,0.4c0.5,0.2,0.6,0.6,1.1,0.9c0.3,0.2,0.5,1.9,0.6,2.2c0.2,0.4,0.4,0.8,0.3,1.2c-0.1,0.4-0.3,0.7-0.3,1.2
				c0,0.3-0.3,0.8-0.3,1.1c-0.1,0.3-0.2,0.6-0.3,0.8c-0.1,0.2-0.1,0.4,0.3,0.5c0.4,0.2,1.2,0.4,1.6,0.4c0.5,0,0.9,0,1.4,0
				c0.2,0,0.5,0.4,0.7,0.9c0.2,0.5,0.4,1,0.4,1.2c0.1,0.4,0.2,0.6,0.5,0.9c0.4,0.3,0.9,0.7,1,1.1c0.1,0.5,0.3,0.7,0.1,1.1
				c-0.1,0.2-0.9,0.4-1.1,0.5c-0.4,0.2-1,0.2-1.5,0.4c-0.3,0.1-0.5,0.2-0.7,0.3c-0.2,0.1-0.3,0.3-0.3,0.5c0,0.5,0.2,0.6,0.4,1
				c0.2,0.4,0.4,0.7,0.7,1.1c0,0.1,0.1,0.1,0.1,0.2c0.3,0.3,0.3,0.7,0.5,1.1c0.4,0.5,0.5,0.9,0.8,1.4c0.3,0.5,0.8,0.9,1.1,1.5
				c0.2,0.3,0.5,1,0.5,1.4c0,0.4,0.2,0.7,0.3,1.1c0.1,0.3,0.3,0.5,0.6,0.7c0.3,0.2,0.6,0.3,0.8,0.4c0.4,0.1,1,0,1.4,0
				c0.5,0,0.8-0.1,1.2-0.1c0.3,0,0.6-0.6,0.8-0.8c0.3-0.4,0.5-0.7,0.6-1.1c0.1-0.2,0.1-0.5,0.1-0.7c0-0.3,0-0.5-0.2-0.7
				c-0.2-0.2-0.2-0.3-0.2-0.5c0-0.2,0.1-0.3,0.2-0.5c0.1-0.1,0.1-1.2,0.1-1.3c0,0-0.6-0.8-0.7-0.9c-0.3-0.3-0.3-0.8-0.5-1.2
				c-0.2-0.4-0.2-0.7-0.2-1.3c0-0.4,0-0.8,0-1.2c0-0.5-0.2-0.7-0.5-1c-0.3-0.3-0.3-0.5-0.4-0.9c-0.1-0.3,0-0.4,0-0.6
				c0.1-0.1,0.2-0.2,0.4-0.3c0.3-0.2,0.4-0.7,0.4-1c0-0.3-0.1-0.5-0.1-0.7c0-0.2,0-0.3,0.2-0.4c0.2,0,0.4,0.1,0.6,0.3
				c0.2,0.2,0.3,0.4,0.3,0.5c0.2,0.3,0.3,0.5,0.6,0.7c0.4,0.3,1,0.5,1.4,0.7c0.4,0.2,0.7,0.4,1,0.6c0.4,0.3,0.7,0.5,0.9,0.7
				c0.2,0.2,0.3,0.6,0.5,0.9c0.2,0.3,0.4,0.3,0.7,0.6c0.3,0.2,0.4,0.7,0.5,1c0.1,0.3,0.2,0.4,0.3,0.4c0.1,0,0.2-0.1,0.4-0.2
				c0.1-0.1-0.2-1-0.2-1.2c-0.1-0.4-0.6-0.9-0.8-1.2c-0.2-0.3-0.1-0.4,0-0.4c0.1,0,0.3,0.1,0.4,0.2c0.3,0.3,0.6,0.4,0.9,0.9
				c0.1,0.2,0.5,0.5,0.7,0.7c0.3,0.3,0.3,0.6,0.4,1c0,0.2,0.1,0.2,0.2,0.2c0.1,0,0.2-0.1,0.3-0.2c0.2-0.2,0.5-0.5,0.5-0.6
				c0.1-0.3,0.2-0.6,0.3-0.9c0.1-0.4,0.1-0.7,0-1c-0.1-0.3-0.3-0.6-0.4-0.9c-0.1-0.3-0.3-0.5-0.4-0.7c-0.5-0.7-0.8-1.4-1.2-2.2
				c0,0,0-0.1,0-0.1C-100.9,244-115.9,232.4-133.7,227.4L-133.7,227.4z M-179.8,233.6c-0.2,0-0.6,0.4-0.8,0.5
				c-0.3,0.1-0.6,0.5-0.9,0.7c-0.3,0.2-0.5,0.4-0.8,0.6c-0.3,0.2-0.5,0.3-1,0.3c-0.4,0-0.5,0.2-0.8,0.4c-0.4,0.2-0.8,0.8-0.9,1.2
				c-0.2,0.3-0.4,0.7-0.6,0.9c-0.2,0.2-0.6,0.3-0.9,0.5c-0.3,0.1-0.2,0.7-0.2,1c0,0.2-0.8,0.2-0.9,0.2c-0.1,0-0.7-0.9-0.8-1
				c-0.3-0.3-0.2-0.4-0.7-0.5c-0.3-0.1-0.5,0-0.6-0.1c-0.1,0-0.2-0.2-0.2-0.5c0-0.4,0.4-0.5,0.6-0.7c0.2-0.2,0.6-0.4,0.9-0.5
				c0.3-0.1,0.4-0.4,0.7-0.7c0.3-0.3,0.3-0.6,0.3-1c0-0.1-0.7-0.4-0.8-0.5c-0.3-0.1-0.5-0.5-0.9-0.7c0,0,0,0,0,0
				c-6.8,3.7-12.8,8.5-18.1,14.1c-0.1,0.3-0.1,0.6-0.2,0.8c-0.2,0.4-0.5,0.5-0.8,0.7c-0.2,0.2-0.3,0.6-0.5,0.8
				c-0.2,0.3-0.6,0.4-0.8,0.7c-0.2,0.2-0.2,0.8-0.2,1.1c0,0.3,0.1,0.4,0.3,0.4c0.1,0,0.3-0.2,0.4-0.4c0.1-0.3,0.8-0.7,1.1-0.9
				c0.4-0.3,0.9-0.4,1-0.8c0.2-0.3,0.3-0.5,0.4-0.9c0.1-0.5,0.4-0.8,0.7-1.3c0.1,0.3,0.3,0.7,0.6,1c0.1,0.1,0.2,0.3,0.2,0.5
				c0,0.2-0.1,0.3-0.2,0.5c-0.1,0.2-0.5,0.5-0.8,0.7c-0.3,0.3-0.4,0.3-0.6,0.6c-0.2,0.3-0.4,0.4-0.5,0.7c-0.1,0.3-0.2,0.6-0.3,0.9
				c-0.1,0.5,0,0.7-0.4,1.1c-0.2,0.2-0.4,0.7-0.4,0.9c-0.1,0.5-0.3,0.6-0.6,0.8c-0.3,0.2-0.4,0.7-0.5,1.1c-0.1,0.5-0.7,1-0.9,1.4
				c-0.2,0.4-0.3,0.4-0.5,0.8c-0.1,0.3-0.1,0.7-0.2,1c-0.1,0.4-0.3,0.7-0.6,1.1c0,0.1-0.1,0.1-0.2,0.1c-0.3,0.2-0.4,0.8-0.4,1.2
				c0,0.3-0.4,0.9-0.5,1.2c-0.1,0.5-0.2,0.8-0.4,1.2c-0.2,0.4-0.4,0.6-0.6,1c-0.2,0.4-0.3,0.7-0.5,1c-0.1,0.3-0.1,0.7-0.1,1
				c0,0.3-0.1,0.8-0.2,1.1c-0.1,0.3,0,0.8,0,1.2c0,0.5-0.2,0.7-0.4,1c-0.3,0.3-0.5,0.5-0.6,0.9c-0.1,0.3-0.3,0.7-0.4,1
				c-0.2,0.4-0.2,0.6-0.5,1c-0.2,0.3-0.4,0.7-0.5,1.1c-0.1,0.4-0.1,0.7-0.3,1.1c-0.2,0.4-0.2,0.6-0.3,1c-0.1,0.4-0.3,0.6-0.4,0.9
				c-0.2,0.4-0.2,0.7-0.3,1.1c-0.1,0.4-0.1,0.9-0.1,1.3c0,0.4-0.2,0.8-0.2,1.2c0,0.4,0,0.8-0.1,1.2c-0.1,0.4,0,0.8,0,1.2
				c0,0.6-0.1,1.1-0.1,1.7c0,0.5,0.2,0.5,0.3,0.9c0.1,0.4,0.1,0.8,0.1,1.1c0,0.2,0.1,0.3,0.1,0.5c0.1,0.6,0.5,0.7,0.5,1.3
				c0,0.5,0,0.7,0.1,1c0.1,0.4,0,0.8,0,1.2c0,0.4-0.1,0.9-0.2,1.2c0,0,0,0.1,0,0.1c0,0.4-0.1,0.9-0.1,1.4c0,0.1,0.3,0.8,0.4,1
				c0.2,0.4,0.3,0.9,0.4,1.3c0.1,0.6,0.3,1,0.5,1.6c0.2,0.4,0.2,0.8,0.4,1.2c0.1,0.3,0,0.9,0,1.1c0.1,0.4,0.1,0.8,0.1,1.2
				c0,0.4,0.1,0.8,0.1,1.2c0,0.4,0.1,0.8,0.1,1.1c0.1,0.4,0,0.7,0.2,1c0.2,0.5,0.5,0.6,0.6,1c0.1,0.4,0.2,0.8,0.3,1.1
				c0.1,0.4,0.5,0.7,0.6,1.1c0.1,0.5,0.6,1,0.9,1.5c0.1,0.3,0.2,0.8,0.3,1c0.1,0.2,0.7,0.5,0.9,0.6c0.2,0.1,0.2,0.3,0.2,0.4
				c0.1,0.1,0.2,0.3,0.4,0.3c0.3,0.1,0.5,0.4,0.8,0.6c0.3,0.2-0.1-0.7-0.2-1c-0.1-0.4-0.5-0.8-0.7-1.1c-0.2-0.3,0-0.9-0.1-1.1
				c-0.2-0.4-0.4-0.7-0.5-1.1c-0.1-0.4-0.3-0.8-0.4-1.3c-0.1-0.4-0.3-0.7-0.5-1.1c-0.2-0.5-0.5-0.6-0.5-1.2c0-0.3-0.3-1-0.4-1.3
				c-0.2-0.3-0.1-1-0.1-1.3c0-0.4-0.1-0.7-0.1-1.1c0-0.5-0.1-0.9-0.2-1.3c-0.1-0.4-0.2-0.7-0.2-1.2c0-0.3,0.1-0.4,0.1-0.4
				c0.1,0,0.1,0.2,0.1,0.5c0,0.3,0.4,0.6,0.5,0.9c0.1,0.4,0.2,0.8,0.3,1.3c0.1,0.3-0.1,0.8,0,1.2c0.1,0.4,0.3,0.7,0.3,1.1
				c0,0.4,0.1,0.7,0.1,1c0,0.3,0.3,0.8,0.4,1c0.1,0.4,0.2,0.8,0.3,1.2c0.1,0.3,0.3,0.8,0.4,1.2c0.1,0.3,0.3,0.7,0.5,1
				c0.2,0.3,0.2,0.8,0.4,1c0.2,0.4,0.3,0.7,0.5,1.1c0.2,0.3,0.3,0.6,0.4,0.9c0.1,0.4,0.4,0.9,0.6,1.3c0.2,0.3,0.3,0.7,0.4,1
				c0.1,0.4,0.2,0.9,0.4,1.3c0.2,0.3,0.3,0.6,0.5,0.9c0.2,0.4,0.5,0.7,0.8,1c0.3,0.3,0.8,0.5,1.2,0.7c0.4,0.2,0.7,0.4,0.9,0.8
				c0.1,0.4,0.4,0.8,0.5,1c0.2,0.4,0.6,0.7,0.9,1c0.8,0.8,1.4,1.6,2.5,2.1c0.3,0.2,0.6,0.3,1,0.4c0.4,0.1,0.8,0.1,1.1,0.3
				c0.4,0.2,0.7,0.2,1.1,0.2c0.2,0,0.6,0.4,0.9,0.5c0.3,0.1,0.7-0.1,1,0c0.5,0.1,0.6-0.3,1.1-0.2c0.5,0.1,1.2,1.1,1.6,1.4
				c0.4,0.3,0.7,0.5,1.1,0.9c0.4,0.3,0.6,0.5,1.1,0.6c0.4,0.1,0.6,0.1,0.9,0.3c0.3,0.2,0.8,0,1.2,0c0.3,0,0.7,0.5,0.9,0.7
				c0.5,0.5,1.1,0.7,1.4,1.2c0.3,0.4,0.4,0.8,0.8,1.2c0.3,0.3,0.7,0.6,1,1c0.3,0.3,0.6,0.5,0.7,0.8c0.1,0.4,0.6,0.6,0.9,0.7
				c0.3,0.2,0.7,0.3,1,0.3c0.3,0.1,0.7,0.6,0.9,0.8c0.2,0.1,1-0.1,1.2-0.1c0.3,0,0.7,0.5,0.9,0.7c0.2,0.3,0.4,0.6,0.8,0.6
				c0.4,0,0.8-0.2,1.1-0.5c0.2-0.2,0.3-0.8,0.3-1.1c0-0.3,0.8,0.4,0.9,0.5c0.2,0.2,0.5,0.6,0.7,0.7c0.3,0.3,0.8,0.8,0.9,1.1
				c0.2,0.3,0.1,0.7,0.2,1.1c0.2,0.4,0.3,0.6,0.6,0.9c0.2,0.3,0.2,0.6,0.2,1.1c0,0.4,0.1,0.7,0.1,1.1c0,0.3-0.3,0.5-0.4,0.8
				c-0.1,0.4-0.2,0.6-0.2,1.1c0,0.3-0.6,0.7-0.6,1.2c0,0.4,0.4,0.9,0.5,1.3c0.1,0.4,0.2,1,0.4,1.3c0.2,0.5,0.6,0.4,0.7,0.9
				c0.1,0.4,0.1,0.9,0.2,1.3c0.1,0.4,0.3,0.5,0.4,0.9c0.1,0.3,0.3,0.6,0.5,0.8c0.2,0.2,0.7,0.5,1,0.6c0.6,0.1,0.8,0.4,1.1,0.8
				c0.3,0.4,0.4,0.7,0.8,1c0.4,0.3,0.6,0.3,0.9,0.6c0.1,0.1,0.1,0.1,0.2,0.1c0.4,0.2,0.5,0.6,0.9,0.8c0.4,0.2,0.7,0.5,1,0.7
				c0.4,0.3,0.7,0.4,1.1,0.7c0.4,0.2,0.7,0.5,1,0.7c0.4,0.2,0.6,0.3,1.1,0.4c0.4,0.1,0.8,0.2,1.1,0.3c0.5,0.1,0.9,0.2,1.3,0.4
				c0.3,0.2,0.7,0.6,0.9,0.7c0.3,0.3,0.7,0.5,1.1,0.7c0.3,0.1,0.6,0.3,0.9,0.5c0.5,0.2,0.7,0.6,1.1,0.9c0.3,0.2,0.5,0.5,0.8,0.8
				c0.3,0.3,0.5,0.7,0.8,1c0.3,0.3,0.4,0.6,0.5,1c0.1,0.5,0.4,0.7,0.6,1.1c0.2,0.4,0.7,0.6,0.9,0.9c0.2,0.3,0.7,0.5,0.9,0.7
				c0.3,0.3,0.6,0.4,0.9,0.8c0.3,0.4,0.6,0.5,0.8,0.7c0.3,0.3,0.7,0.4,0.9,0.5c0.1,0,0.1,0.1,0.2,0.1c2-0.1,4-0.3,5.9-0.5
				c0,0,0.1,0,0.1-0.1c0.1-0.5,0.7-0.9,1-1.3c0.3-0.4,0.7-0.4,1-0.5c0.4-0.1,0.6-0.3,0.9-0.7c0.3-0.3,0.6-0.6,0.9-1
				c0.3-0.4,0.4-0.6,0.6-0.9c0.3-0.4,0.3-0.7,0.5-1.1c0.2-0.4,0.4-0.8,0.8-0.9c0.4-0.2,0.5-0.5,0.9-0.6c0.5-0.1,0.7-0.3,1.1-0.4
				c0.4-0.1,0.9-0.9,1.1-1.1c0.3-0.3,0.5-0.5,0.8-0.9c0.1-0.1,0.2-0.3,0.3-0.5c0.1-0.1,0.2-0.2,0.3-0.3c0.2-0.2,0.2-0.9,0.2-1.1
				c0.1-0.3,0.3-0.8,0.4-1.1c0.2-0.3,0.1-0.8,0.3-1.1c0.2-0.4,0.3-0.7,0.5-1c0.2-0.4,0.1-0.8,0.2-1.1c0.2-0.4,0.3-0.7,0.4-1
				c0.2-0.4,0.1-0.5,0.6-0.7c0.3-0.1,0.5-0.6,0.8-0.8c0.2-0.2,0.3-0.8,0.4-1c0.2-0.3,0.6-0.7,0.9-0.9c0.2-0.2,0.4-0.6,0.5-0.7
				c0.2-0.2,0.2-0.8,0.3-1c0.1-0.3,0.1-0.7,0.1-1c0.1-0.4-0.3-0.6-0.4-0.8c-0.3-0.3-0.5-0.7-0.9-1c-0.3-0.2-0.6-0.4-0.8-0.6
				c-0.2-0.2-0.7-0.4-1-0.5c-0.3-0.1-0.5-0.2-0.9-0.2c-0.4,0-0.8,0-1.2,0c-0.4,0-0.7,0.1-1,0.1c-0.4,0-0.7,0.1-1.1,0.1
				c-0.4,0-0.8,0-1.1,0c-0.3,0-0.6-0.2-1-0.2c-0.4,0-0.4-0.3-0.7-0.6c-0.2-0.3-0.7-0.3-1-0.3c-0.4,0-0.9,0-1.4,0
				c-0.6,0-0.7,0.2-1.1,0.4c-0.3,0.2-0.6,0.4-0.8,0.6c-0.2,0.2-0.7,0.4-1,0.5c-0.4,0.1-0.8,0.1-1.1,0c-0.2-0.1-0.3-0.2-0.3-0.4
				c0-0.2,0-0.4,0-0.6c0-0.4,0.3-0.6,0.5-0.9c0.2-0.2,0.1-0.8,0.1-1c0-0.5,0.1-0.6-0.1-1c-0.2-0.3-0.5-0.5-0.7-0.7
				c-0.2-0.2-0.4-0.6-0.6-0.8c-0.2-0.2-0.4-0.6-0.6-0.9c-0.1-0.3-0.5-0.4-0.8-0.6c-0.3-0.2-0.8-0.2-1.1-0.3c-0.3-0.1-0.8,0-1.1,0
				c-0.4,0-0.7,0-1.1,0c-0.4,0-0.7,0.1-1.1,0.1c-0.3,0-0.6,0.2-0.9,0.2c-0.3,0-0.6-0.4-0.8-0.7c-0.3-0.4-0.6-0.4-0.9-0.7
				c-0.3-0.2-0.6-0.3-0.8-0.5c-0.2-0.2-0.9-0.3-1.2-0.4c-0.4-0.1-0.8-0.2-1.1-0.4c-0.4-0.2-0.4-0.4-0.7-0.8
				c-0.2-0.4-0.3-0.6-0.3-0.9c0-0.3-0.2-0.8-0.3-1c-0.1-0.1-0.2-0.3-0.2-0.4c-0.1-0.3,0-0.4,0-0.6c0.1-0.1,0.1-0.2-0.2-0.2
				c0,0-0.7,0.6-0.8,0.7c-0.3,0.2-0.5,0.2-0.9,0.3c-0.6,0.2-0.7,0.1-1.2-0.1c-0.2-0.1-0.3-0.2-0.3-0.3c-0.1-0.1-0.1-0.1-0.5,0
				c-0.3,0.1-0.6,0.3-0.9,0.5c-0.3,0.2-0.5,0.2-0.8,0.4c-0.3,0.2-0.9,0.4-1.1,0.6c-0.3,0.2-1-0.2-1.1-0.2c-0.4-0.2-0.4-0.8-0.4-1
				c-0.1-0.3-0.2-0.4-0.3-0.3c-0.1,0.1-0.2,0.3-0.3,0.5c-0.1,0.2-0.3,0.3-0.5,0.3c-0.2,0-0.3,0-0.5-0.1c0,0,0-1,0-1.1
				c0-0.2-0.6-0.7-0.7-0.7c-0.2-0.2-0.3-0.1-0.4,0c-0.1,0.1-0.2,0.4-0.2,0.5c-0.2,0.4-0.2,0.8-0.3,1.3c-0.1,0.4-0.1,0.8-0.1,1.2
				c0,0.3-0.2,0.5-0.4,0.7c-0.2,0.2-0.2-0.1-0.2-0.4c0-0.4,0.1-0.8,0-1c-0.1-0.4-0.2-0.7-0.3-1.1c-0.1-0.3-0.1-0.6-0.2-0.9
				c-0.1-0.2-0.3,0-0.5,0.2c-0.2,0.3-0.4,0.6-0.5,0.7c-0.3,0.4-1,0.8-1.2,1.1c-0.1,0.1-0.7,0.4-0.9,0.5c-0.4,0.2-0.9,0.8-1.2,1
				c-0.3,0.2-0.3,0.9-0.3,1.3c0,0.5,0.2,0.4-0.1,0.9c-0.1,0.2-0.3,0.2-0.5,0.1c-0.2-0.1-0.3-0.2-0.3-0.3c-0.3-0.3-0.5-0.4-0.9-0.5
				c-0.4-0.1-0.7,0.1-1.1,0.2c-0.5,0.1-0.9,0.3-1.3,0.4c-0.4,0.1-0.9,0-1.2-0.1c-0.3-0.1-0.5-0.4-0.8-0.7c-0.3-0.3-0.4-0.4-0.7-0.8
				c-0.2-0.3-0.3-0.5-0.6-0.7c-0.4-0.3-0.5-0.1-0.7-0.5c-0.2-0.3-0.3-0.6-0.5-0.7c-0.2-0.2-0.1-0.7-0.1-1c0-0.4-0.1-0.8-0.1-1.2
				c0-0.4-0.1-0.8-0.1-1c-0.1-0.3,0-0.8,0-1.1c0-0.3-0.5-0.5-0.7-0.6c-0.4-0.1-0.7-0.2-1.3-0.2c-0.5,0-0.9,0-1.4,0
				c-0.4,0-0.8,0-1.1,0c-0.3,0-0.4-0.1-0.5-0.1c-0.1,0-0.4-1-0.4-1.1c0-0.4-0.1-0.7-0.1-1.1c0-0.4-0.1-0.7-0.1-1
				c-0.1-0.3-0.1-0.7-0.1-1c-0.1-0.3,0-0.8,0-1.1c0-0.4,0.1-0.6,0.1-1c0-0.3,0-0.7,0-1c0-0.4-0.2-0.8-0.6-0.9
				c-0.3-0.2-0.7-0.1-1.1-0.1c-0.4,0-0.6,0.1-1,0.2c-0.4,0.1-0.6,0.5-0.8,0.7c-0.3,0.3-0.3,0.7-0.4,1c-0.1,0.3,0,0.8,0,1.1
				c0,0.2-0.4,0.7-0.5,0.9c-0.1,0.4-0.7,0.7-0.9,0.8c-0.4,0.2-1.1,0-1.4-0.2c-0.2-0.1-0.7-0.8-0.8-1c-0.2-0.3-0.4-0.5-0.6-0.7
				c-0.3-0.2-0.5-0.4-0.8-0.7c-0.2-0.3-0.4-0.6-0.5-0.8c-0.2-0.4-0.2-0.6-0.4-1c-0.2-0.4-0.4-0.7-0.6-1.1c-0.2-0.4-0.2-0.6-0.5-0.9
				c-0.3-0.3-0.4-0.7-0.4-1.1c0-0.4-0.1-0.8-0.1-1.3c0-0.4-0.1-0.7-0.1-1.1c0-0.4,0-0.7,0-1.1c0-0.3,0.2-0.6,0.2-1
				c0-0.4-0.1-0.6-0.1-1c0-0.5,0-0.7,0.2-1.2c0.1-0.3,0.5-0.5,0.6-0.8c0.1-0.3,0.3-0.5,0.5-0.8c0.2-0.3,0.5-0.4,0.9-0.6
				c0.3-0.1,0.7-0.2,1-0.3c0.5-0.1,0.9-0.1,1.4,0c0.5,0.1,1,0.2,1.6,0.2c0.3,0,0.4,0.1,0.5,0.2c0.1,0.1,0.3,0.2,0.5,0.1
				c0.3-0.1,0.2-0.9,0.2-1.1c0-0.3-0.1-0.4-0.1-0.5c0-0.1,0.1-0.2,0.4-0.3c0.4-0.2,0.5-0.3,1-0.3c0.5,0,0.9,0.1,1.4,0.1
				c0.3,0,0.7,0.3,0.9,0.4c0.2,0.1,0.4,0.1,0.6,0.1c0.2,0,0.3,0.1,0.5,0.3c0.3,0.3,0.6,0.6,0.9,0.8c0.3,0.3,0.8,0.4,1,0.5
				c0.2,0.1,0.1,0.9,0.2,1.1c0.1,0.4,0.3,0.7,0.5,1c0.2,0.5,0.3,0.9,0.5,1.4c0.1,0.3,0.3,0.6,0.4,0.9c0.2,0.4,0.3,0.6,0.7,0.7
				c0.3,0.1,0.6,0.2,0.9,0.2c0.4,0.1,0.7-0.2,0.9-0.5c0.1-0.2,0.1-0.4,0-0.7c-0.1-0.3-0.1-0.5-0.2-0.7c-0.3-0.5-0.2-0.9-0.4-1.4
				c-0.1-0.4-0.4-0.8-0.7-1.1c-0.2-0.3-0.3-0.8-0.4-1.1c-0.2-0.3-0.3-0.6-0.4-1c-0.1-0.4-0.1-0.7-0.2-1c-0.1-0.5,0.2-0.9,0.5-1.2
				c0.2-0.2,0.3-0.4,0.3-0.7c0.4-0.4,0.6-0.8,0.8-1.3c0.2-0.4,0.3-0.7,0.3-1.1c0-0.2,0.2-0.5,0.5-0.7c0.3-0.2,0.6-0.5,0.7-0.7
				c0.3-0.4,0.7-0.7,0.9-1.1c0.2-0.3,0.5-0.6,0.6-1c0.1-0.3,0.1-0.7,0.1-1c0.1-0.4,0.2-0.7,0.3-1.1c0.1-0.4,0.1-0.7,0-1.1
				c-0.1-0.4-0.2-0.7-0.4-1c-0.2-0.4-0.4-0.6-0.7-0.8c-0.2-0.2-0.1-0.8-0.1-1.1c0-0.2,0.7-0.2,0.9-0.2c0.3,0,0.8-0.2,1-0.3
				c0.2-0.1,0.5-0.6,0.7-0.8c0.2-0.3,0.3-0.6,0.4-1c0.1-0.4-0.1-0.7-0.1-1.1c0-0.3,0.4-0.7,0.6-0.8c0.4-0.2,0.6-0.3,1-0.3
				c0.4,0,0.8,0.1,1.2,0.1c0.5,0,0.6-0.1,0.8-0.5c0.1-0.3,0.1-0.8,0.1-1.1c0-0.4,0-0.7-0.1-1c-0.1-0.2,0-0.5,0.1-0.7
				c-0.1-0.3,0.5-1,0.5-1.1c0.2-0.2,0.5-0.5,0.9-0.7c0.3-0.1,0.6-0.4,0.9-0.7c0.3-0.3,0.6-0.7,0.8-0.8c0.3-0.3,0.3-0.5,0.6-0.8
				c0.1-0.1,0.1,0.9,0,1c-0.1,0.2,0,0.3,0,0.5c0.1,0.2,0.2,0.3,0.3,0.5c0.1,0.2,0,0.4,0,0.5c0,0.1,0,0.2,0.4,0.2
				c0.5,0,0.6-0.1,0.8-0.5c0.2-0.4,0.5-0.4,0.9-0.7c0.3-0.2,0.4-0.5,0.7-0.7c0.3-0.3,0.5-0.4,0.8-0.7c0.2-0.3,0.6-0.3,0.9-0.5
				c0.5-0.3,0.3-0.6,0.9-0.7c0.4-0.1,0.6-0.4,0.7-0.7c0.1-0.3-0.2-0.7-0.2-1c0-0.5-0.1-0.7-0.4-1c-0.1-0.2-0.3-0.2-0.4-0.2
				c-0.1,0-0.2,0.1-0.3,0.2c-0.2,0.2-0.3,0.8-0.5,1.1c-0.2,0.4-0.1,0.6-0.4,0.9c-0.2,0.2-0.9-0.5-1-0.6c-0.3-0.2-0.7-0.3-1.1-0.3
				c-0.2,0-0.4,0.1-0.5,0.1c-0.1,0-0.2,0-0.4-0.3c-0.1-0.3-0.1-0.8-0.1-1c-0.1-0.2-0.2-0.3-0.2-0.4c-0.1-0.1,0-0.2,0.2-0.4
				c0.3-0.3,0.4-0.2,0.4-0.7c0-0.4,0.3-0.7,0.6-0.8c0.4-0.2,0.2-0.5,0.7-0.5c0.4,0,0.8-0.1,1-0.2c0.2-0.1,0.3-0.3,0.3-0.4
				c0-0.1-0.1-0.2-0.4-0.2c-0.5,0-0.7,0.3-1.2,0.3c-0.3,0-0.8,0.3-1,0.4c-0.4,0.1-0.7,0-1.1,0.1c-0.4,0.1-0.7,0.4-1.1,0.5
				c-0.4,0.1-0.8,0.7-0.9,1c-0.1,0.5-0.5,0.9-0.9,1.2c-0.3,0.3-0.5,0.4-0.9,0.2c0,0,0.5-1,0.6-1.2c0.2-0.5,0.3-0.8,0.8-1.2
				c0.3-0.3,0.7-0.5,0.9-0.8c0.3-0.3,0.5-0.6,0.9-0.7c0.4-0.1,0.9,0,1.4,0c0.4,0,0.7-0.2,1.1-0.2c0.3,0,0.7-0.5,1-0.7
				c0.3-0.3,0.9-0.2,1.3-0.3c0.5-0.1,0.6-0.2,0.8-0.5c0.2-0.3,0.6-0.3,0.9-0.5c0.2-0.2,0.2-0.3,0.2-0.5c0-0.1,0.1-0.2,0.3-0.3
				c0.4-0.1,0.8-0.1,1.1-0.1c0.3-0.1,0.7,0,1.1,0c0.3,0,0.4,0,0.5-0.1c0.1-0.1,0.1-0.3,0.1-0.5c0-0.4-0.2-0.7-0.5-0.9
				c-0.3-0.3-0.5-0.6-0.7-1c-0.2-0.3-0.3-0.8-0.5-1c-0.2-0.3-0.3-0.7-0.4-1c-0.2-0.4-0.6-0.6-0.9-0.7c-0.3-0.1-0.7-0.4-0.9-0.6
				c-0.2-0.2-0.4-0.4-0.7-0.6c-0.3-0.2-0.5-0.3-0.6-0.6c-0.1-0.3-0.3-0.5-0.5-0.9c-0.1-0.3-0.3-0.4-0.5-0.7c-0.1-0.3,0-0.7-0.1-0.9
				c-0.1-0.3-0.2-0.7-0.4-1c-0.2-0.3-0.3-0.4-0.4-0.7c-0.2-0.4,0-0.7-0.2-0.9c-0.3-0.3-0.3-0.5-0.6-0.7c-0.2-0.1-0.3-0.2-0.4-0.2
				c-0.1,0-0.2,0-0.4,0.1c0,0-0.3,0.7-0.4,0.8c-0.2,0.3-0.4,0.4-0.8,0.7c-0.3,0.3-0.5,0.5-0.7,0.8c-0.1,0.3-0.7,0.1-0.9,0
				c-0.2,0-0.2-0.2-0.2-0.4c0-0.2,0-0.4,0-0.6c-0.1-0.3,0-0.8,0-1.1c0-0.2,0.2-0.2,0.4-0.2c0.2,0,0.5-0.1,0.6-0.2
				c0.1-0.1,0.2-0.2,0.2-0.3c0-0.1-0.1-0.2-0.2-0.4c-0.2-0.2-0.7-0.1-1-0.2c-0.5-0.1-0.7-0.1-1.1-0.4c-0.4-0.3-0.6-0.5-0.7-0.9
				c-0.1-0.3-0.6-0.2-0.9-0.3c-0.4-0.1-0.8-0.1-1.2-0.1c-0.4,0-0.6,0.3-1,0.4c-0.2,0.1-0.4,0-0.5,0c-0.1,0-0.3,0-0.3,0.3
				c-0.1,0.4-0.3,0.7-0.4,1c-0.1,0.2-0.1,0.7-0.1,1c0,0.5-0.1,0.5,0,1c0.1,0.3,0,0.8-0.1,1c-0.1,0.4,0.1,0.7,0,1.1
				c-0.1,0.5-0.3,0.7,0,1.1c0.2,0.4,0.4,0.5,0.5,0.9c0.1,0.4-0.1,0.7-0.1,1.1c0,0.3-0.5,0.7-0.6,0.9c-0.2,0.2-0.4,0.6-0.4,0.9
				c0,0.3-0.6,0.4-0.8,0.5c-0.4,0.2-0.6,0.5-0.8,0.8c-0.2,0.2-0.2,0.8-0.2,1.1c0,0.4-0.1,0.7-0.1,1.1c0,0.4,0,0.7,0,1.1
				c0,0.4,0.1,0.6,0,0.9c-0.1,0.4-0.5,0.6-0.8,0.7c-0.2,0.1-0.4,0-0.6-0.2c-0.1-0.2-0.2-0.4-0.2-0.6c0-0.4,0-0.8,0-1.2
				c0-0.3-0.1-0.7-0.1-1c0-0.4,0-0.8,0-1.2c0-0.5-0.1-0.7-0.2-1c-0.1-0.2-0.6-0.6-0.8-0.7c-0.3-0.3-0.6-0.5-0.9-0.6
				c-0.2-0.1-0.6-0.4-0.8-0.6c-0.4-0.4-0.6-0.5-0.8-0.8c-0.2-0.4-0.7-0.4-1-0.4c-0.4,0-0.8-0.1-1.1-0.3c-0.2-0.2-0.3-0.7-0.3-1
				c0-0.5-0.1-0.8-0.1-1.3c-0.1-0.3,0-0.8,0-1.1c0.1-0.4,0.6-0.7,0.7-1c0.2-0.4,0.8-0.7,1.1-1c0.3-0.3,0.5-0.7,0.9-1
				c0.5-0.4,1-0.6,1.5-0.9c0.3-0.1,0.3-0.5,0.4-0.7c0.2-0.4,0.3-0.7,0.6-1c0.3-0.3,0.6-0.6,0.9-0.8c0.2-0.2,0.9-0.2,1-0.2
				c0.2,0,0.5,0.9,0.5,1c0.1,0.2,0.2,0.3,0.3,0.4c0.1,0.1,0.4,0,0.6,0c0.4-0.1,0.8-0.3,1.3-0.4c0.3-0.1,0.6-0.6,0.9-0.7
				c0.3-0.1,0.3-0.7,0.3-1.1c0-0.4,0-0.6,0-1c0-0.2-0.6-0.4-0.8-0.5c-0.2-0.1-0.2-0.3-0.1-0.5c0.1-0.2,0.2-0.4,0.3-0.5
				c0.2-0.2,0.6-0.4,0.9-0.5c0.4-0.1,0.8-0.1,1.1-0.2c0.3-0.2,0.4-0.4,0.7-0.6c0.4-0.4,0.4-0.6,0.5-1c0.1-0.3,0-0.8,0.1-1
				c0.1-0.4,0.5-0.7,0.6-0.9c0.1-0.1,0.2-0.3,0.3-0.4c0.1-0.1,0.3-0.1,0.6-0.1c0.3,0,0.4,0,0.6,0.1c0.1,0.1,0.2,0.2,0.3,0.4
				c0.1,0.3,0,0.8,0,1.1c0,0.4-0.3,0.5-0.5,0.7c-0.2,0.2,0.7,0.6,0.8,0.7c0.2,0.1,0.1,0.4-0.1,0.6c-0.2,0.3-0.4,0.5-0.4,0.6
				c-0.1,0.2-0.4,0.5-0.6,0.8c-0.2,0.5-0.3,0.5-0.9,0.7c-0.4,0.1-0.8,0.4-1,0.6c-0.2,0.1-0.2,0.2-0.1,0.4c0.1,0.2,0.1,0.3,0.2,0.4
				c0.3,0.3,0.5,0.3,0.9,0.4c0.5,0.1,0.7,0,1,0.4c0.2,0.3,0.3,0.4,0.4,0.7c0.2,0.4,0.4,0.6,0.5,1c0,0.2,0.7,0.3,1,0.4
				c0.3,0.2,0.8,0.2,1.1,0.3c0.3,0.2,0.5,0.3,0.9,0.4c0.3,0.1,0.4,0.2,0.8,0.3c0.2,0.1,0.4,0.1,0.5,0c0.1-0.1,0.1-0.2,0.2-0.4
				c0-0.2-0.1-0.4-0.3-0.5c-0.2-0.1-0.4-0.2-0.4-0.2c-0.4-0.2-0.6-0.3-0.8-0.5c-0.2-0.2-0.3-0.4-0.3-0.5c0-0.1,0.1-0.2,0.3-0.4
				c0.1-0.1,0.3-0.1,0.5,0c0.2,0.1,0.4,0.3,0.4,0.3c0.2,0.2,0.4,0.1,0.5,0c0.2-0.1,0.3-0.3,0.3-0.4c0.1-0.3,0.1-0.5,0.1-0.9
				c0-0.5-0.3-0.5-0.2-1c0.1-0.2-0.1-0.4-0.3-0.5c-0.2-0.1-0.4-0.2-0.6-0.3c-0.4-0.3-0.6-0.3-0.8-0.7c-0.1-0.3,0-0.4,0.1-0.5
				c0.1,0,0.3,0,0.4,0c0.4,0.1,0.5,0.3,0.8,0.6c0.3,0.3,0.3,0.5,0.7,0.7c0.4,0.2,0.4,0.5,0.8,0.5c0.3,0,0.3-0.8,0.3-1
				c0-0.4-0.2-0.7-0.2-1.1c0-0.2,0.4-0.5,0.5-0.6c0.1-0.2,0.1-0.4,0-0.6c-0.1-0.1-0.3-0.3-0.4-0.4c-0.3-0.3-0.5-0.4-0.7-0.7
				c-0.2-0.4-0.6-0.5-0.9-0.8c0-0.1-0.2,0-0.4,0c-0.2,0-0.3,0-0.4-0.3c-0.1-0.3,0.1-0.8,0.2-1.1c0.1-0.4,0.3-0.5,0.4-0.8
				c0.1-0.3,0.2-0.3,0.3-0.4c0.1-0.1,0.1-0.2,0-0.4c-0.1-0.2-0.6-0.4-0.8-0.5c-0.3-0.1-0.5-0.4-0.7-0.6c-0.2-0.2-0.1-0.9-0.1-1.1
				c0-0.2-0.1-0.3-0.2-0.4c-0.1-0.1-0.3-0.1-0.5-0.2c-0.3-0.1-0.6-0.1-1-0.1c-0.3,0-0.8-0.1-1.1-0.1c-0.3-0.1-0.8,0.1-1,0.1
				c-0.3,0.1-0.8,0-1.1,0c-0.4,0-0.5-0.1-0.9-0.2c-0.2-0.1-0.8,0.4-1,0.5c-0.2,0.1-0.3,0-0.3-0.1c0-0.2,0-0.4,0-0.6
				c0-0.4,0-0.7,0-1.1c0-0.2-0.1-0.2-0.3-0.3C-179.5,233.6-179.7,233.6-179.8,233.6L-179.8,233.6z M-138.8,238.1
				c-0.2,0-0.4,0.2-0.4,0.4c-0.1,0.2-0.1,0.6-0.1,0.8c0,0.1-0.9-0.1-1.5,0.1c-0.2,0.1-0.5,0.2-0.8,0.3c-0.3,0.1-0.2,0.3-0.1,0.5
				c0.1,0.3,0.9,0.4,1.2,0.4c0.2,0,0.4,0.4,0.6,0.6c0.2,0.2,0.5,0.3,0.7,0.5c0.2,0.1,0.3,0.5,0.5,0.7c0.2,0.2,0.6,0.3,0.9,0.4
				c0.3,0.1,0.5-0.1,0.9-0.1c0.3,0,0.5,0.1,0.9,0.1c0.3,0,0.6-0.1,0.9-0.1c0.2,0,0.3-0.4,0.5-0.6c0.2-0.2,0.2-0.6,0.2-0.9
				c0-0.3-0.1-0.5-0.1-0.7c-0.1-0.2-0.5-0.4-0.7-0.6c-0.2-0.3-0.2-0.4-0.5-0.7c-0.2-0.2-0.7-0.4-0.9-0.5c-0.3-0.1-0.5-0.3-0.7-0.4
				c-0.1-0.1-0.4-0.1-0.6-0.1c-0.2,0-0.4,0-0.5,0C-138.7,238.1-138.8,238.1-138.8,238.1L-138.8,238.1z M-122.2,244.1
				c-0.3,0-0.4,0.5-0.4,0.9c0,0.4-0.5,0.8-0.7,0.9c-0.2,0.2,0.9,0.6,1,0.7c0.4,0.1,0.7,0.4,1.1,0.5c0.3,0.1,0.8,0.4,1.1,0.5
				c0.2,0.1,0.3,0.4,0.3,0.7c0.1,0.3,0.1,0.6,0.1,0.8c0,0.4,0,0.8,0.1,1.2c0.1,0.4,0.2,0.5,0.1,1c-0.1,0.2-0.1,0.4-0.1,0.6
				c0,0.2,0,0.3,0.2,0.5c0.3,0.3,1.2,0.1,1.6,0.5c0.4,0.4,0.7,0.6,1.1,1.1c0.2,0.3,0,0.7,0.3,1c0.2,0.2,0.9,0.2,1.1,0.2
				c0.2,0,0.2-1,0.3-1.1c0.1-0.2,0.3-0.3,0.7-0.3c0.3,0,0.7,0,0.9,0.1c0.3,0.1,0.3,0.6,0.2,0.9c-0.1,0.2,0,0.4,0.1,0.5
				c0.1,0.1,0.3,0.2,0.4,0.3c0.3,0.2,0.7,0.1,0.9,0c0.3-0.1,0.5-0.6,0.7-0.9c0.1-0.2,0.2-0.4,0.2-0.5c0-0.1,0.1-0.3,0.3-0.4
				c0.3-0.2,0.5-0.4,0.4-0.7c-0.1-0.4-0.2-0.7-0.4-1.1c-0.2-0.5-0.7-0.6-1.1-0.9c-0.3-0.2-0.3-0.3-0.4-0.7c-0.1-0.3-0.5-0.5-0.8-0.6
				c-0.3-0.1-0.4-0.6-0.8-0.7c-0.5-0.2-0.9-0.3-1.3-0.6c-0.4-0.3-0.8-0.4-1.2-0.7c-0.4-0.3-0.8-0.7-1.1-1c-0.3-0.3-0.7-0.5-0.9-0.7
				c-0.3-0.3-0.8-0.5-1.1-0.7c-0.4-0.2-0.7-0.5-1-0.6c-0.4-0.2-0.8-0.2-1.2-0.3c-0.1,0-0.3-0.2-0.4-0.2
				C-122.1,244.1-122.2,244.1-122.2,244.1L-122.2,244.1z M-163.5,266.2c-0.1,0.1-0.4,0-0.5,0.1c-0.2,0.1-0.2,0.4-0.3,0.6
				c-0.1,0.2,0,0.5-0.1,0.7c-0.1,0.3,0,0.8,0.1,1c0.1,0.2-0.3,0.5-0.4,0.7c-0.1,0.2-0.2,0.4-0.4,0.6c-0.2,0.2-0.1,0.7-0.2,0.9
				c-0.1,0.3-0.1,0.5-0.1,0.8c-0.1,0.2,0,0.4,0,0.6c0,0.2,0.4,0.3,0.5,0.3c0.1,0.1,0.2-0.1,0.3-0.3c0.1-0.2,0.1-0.4,0.2-0.5
				c0.2-0.2,0.3-0.3,0.7-0.3c0.2,0,0.4,0,0.7,0c0.1,0,0.4,0.1,0.5,0.1c0.2,0.1,0.4,0.2,0.5,0.4c0.2,0.2,0.1,0.4,0.4,0.5
				c0.2,0.1,0.4,0.2,0.7,0.2c0.3,0,0.5,0,0.8,0c0.2,0,0.4,0,0.6,0c0.3,0,0.3-0.2,0.3-0.5c0-0.3,0-0.4,0.1-0.7
				c0.1-0.2-0.1-0.4-0.1-0.6c-0.1-0.2-0.4-0.4-0.5-0.6c-0.3-0.3-0.6-0.2-0.7-0.6c0-0.2,0-0.4,0-0.6c0-0.2,0-0.4,0-0.6
				c0-0.2-0.2-0.3-0.2-0.5c-0.1-0.2-0.3-0.2-0.5-0.2c-0.2,0-0.5-0.1-0.7-0.1c-0.2,0-0.4,0-0.5-0.2c-0.2-0.2-0.3-0.1-0.3-0.4
				c0-0.1-0.1-0.3-0.1-0.5c-0.1-0.2-0.1-0.3-0.2-0.4C-163.2,266.2-163.4,266.2-163.5,266.2L-163.5,266.2z M-93.2,268
				c-0.2,0-0.2,0.9-0.5,1.2c-0.2,0.2-0.5,0.3-0.7,0.5c-0.4,0.3-0.8,0.7-1.1,1c-0.3,0.3-0.4,0.9-0.5,1.3c-0.1,0.3,0,0.9,0,1.2
				c0,0.4-0.5,1-0.6,1.4c-0.1,0.2-0.2,0.3-0.3,0.4c-0.2,0.1-0.4,0.1-0.6,0.1c-0.4,0.1-0.8,0.2-1.1,0.4c-0.3,0.1-0.5,0.7-0.6,1
				c-0.1,0.3-0.1,0.8-0.1,1.1c-0.1,0.5-0.1,1.1,0,1.5c0.1,0.4,0.1,0.7,0.2,1.1c0.1,0.4-0.1,0.8-0.1,1c-0.1,0.4-0.2,0.7-0.3,1.1
				c-0.1,0.4,0.4,0.8,0.4,1.2c0,0.4,0.1,0.8,0,1.3c-0.1,0.3,0.1,0.7,0.2,1.1c0.2,0.4,0.4,0.8,0.5,1.1c0,0.2-1,1.4-1.1,1.7
				c-0.1,0.3-0.3,0.8-0.6,1.2c-0.2,0.4,0,0.8,0,1.2c0,0.4,0.1,0.9,0.1,1.3c0,0.5,0.1,1.1,0.1,1.6c0,0.5-0.5,1.2-0.6,1.6
				c-0.1,0.4,0,1,0.2,1.3c0.1,0.3-0.1,0.9-0.2,1.3c-0.1,0.5,0.1,1.1,0.1,1.6c0,0.1,0,0.2,0,0.2c0,0.7,0.6,1.7,0.8,2.5
				c0.1,0.4-0.2,0.7-0.2,1c-0.1,0.5,0.1,0.8,0.2,1.2c0.2,0.6,0,1.1-0.2,1.7c-0.1,0.3-0.1,0.5-0.1,0.7c0,0.2,0.1,0.5,0.2,0.7
				c0.2,0.4,0,1.1,0.1,1.5c0.1,0.4,0,1.2,0,1.6c0,0.3-0.1,0.5-0.2,0.7s-0.2,0.4,0,0.8c0,0.1,0,0.2,0,0.3c0.1,0.3,0.8,1.1,1.1,1.3
				c0.2,0.2,0.3,0.3,0.3,0.5c0,0.2,0,0.3,0,0.6c0,0.6,0.1,0.9,0.4,1.3c0.2,0.2,0.7,0.2,0.9,0.5c0.2,0.3,0.2,1,0.2,1.3
				c0,0.4,0,0.7,0.1,0.9c0.1,0.2,0.4,0.5,0.7,0.7c0.1,0.1,0.3,0.2,0.4,0.3c0.3,0.3,0.3,0.8,0.7,1.1c0.3,0.3,0.7,0.6,1.1,0.8
				c0.2,0.1,0.5,0,0.7-0.1c0.2-0.1,0.4-0.3,0.6-0.4c0.5-0.3,0.8-0.7,1-1.1c0.3-0.6,0.9-1.3,1-2c0.1-0.3,0.1-0.4,0.3-0.6
				c0.2-0.1,0.4-0.2,0.6-0.3c0.4-0.2,0.7-0.6,0.9-0.9c0.2-0.4,0.6-0.6,1-0.5c0.3,0.1,0.5,0.3,0.7,0.6c0.2,0.2,0.3,0.5,0.4,0.7
				c0.1,0.4-0.3,0.9-0.5,1.2c-0.3,0.5-0.1,1-0.5,1.4c-0.3,0.4-0.5,1.1-0.7,1.5c-0.3,0.6-0.2,1.4-0.3,2c-0.1,0.3-0.2,0.8-0.4,1.1
				c-0.2,0.4-0.3,1.1-0.3,1.5c0,0.5-0.6,1-0.8,1.4c-0.3,0.6-0.5,1.2-0.8,1.8c-0.2,0.5-0.4,0.9-0.7,1.3c-0.2,0.4-0.4,0.8-0.5,1.2
				c-0.1,0.4-0.3,0.7-0.5,1c-0.2,0.3-0.2,0.7-0.4,1c-0.3,0.7-1.1,1.8-1.7,2.4c-0.5,0.5-1.1,1.1-1.4,1.6c-0.2,0.3-0.3,0.6-0.4,0.9
				c-0.2,0.4-0.5,0.9-0.8,1.5c-0.2,0.4-0.5,0.6-0.7,0.9c-0.2,0.4-0.3,0.5-0.3,0.7c10.8-12.5,17.4-28.6,17.4-46.3
				c0-9-1.8-17.6-4.9-25.6c-0.3,0-0.9,0.1-1.2,0.1c-0.2,0-0.4,0.2-0.5,0.4c-0.1,0.2-0.2,0.4-0.2,0.6c-0.1,0.4-0.1,0.9,0,1.4
				c0.1,0.5,0.4,0.9,0.6,1.1c0.2,0.2,0.3,0.4,0.3,0.5c0,0.1-0.2,0.2-0.5,0.2c-0.3,0-0.5-0.1-0.7-0.1s-0.2-0.2-0.4-0.4
				c-0.3-0.3-0.6-0.6-1-0.8c-0.4-0.2-0.7-0.3-1-0.5c-0.2-0.1-0.4-0.8-0.6-1c-0.2-0.4-0.3-0.7-0.3-1.2c0-0.3-0.3-0.7-0.4-1
				c-0.1-0.3-0.3-0.6-0.5-0.9C-92.6,268.5-92.8,268.3-93.2,268C-93.2,268-93.2,268-93.2,268L-93.2,268z M-182.8,306.7
				c-0.1,0-0.1,0.1-0.2,0.1c-0.2,0.2-0.2,0.2-0.5,0c0.1,0,1,1.1,1.2,1.4c0.1,0.2,0.4,0.2,0.6,0.2c0.3,0,0.5-0.1,0.7-0.1
				c0.3-0.1,0.4-0.3,0.4-0.5c0-0.2-0.2-0.4-0.4-0.5c-0.4-0.2-0.7-0.4-1.1-0.5C-182.6,306.8-182.7,306.7-182.8,306.7L-182.8,306.7z
				 M-182,309.9c-0.3,0-0.7,0.2-0.9,0.4c-0.1,0.1,0,0.3,0.1,0.6c0.1,0.2,0.3,0.4,0.3,0.5c0.1,0.3,1,0.4,1.3,0.4
				c0.3,0,0.4-0.1,0.4-0.3c0-0.2,0-0.3,0-0.5c-0.1-0.3-0.4-0.6-0.6-0.7c-0.2-0.2,0,0-0.4-0.3C-181.8,309.8-181.9,309.8-182,309.9
				L-182,309.9z M-185.8,312.4c-0.5,0-1,0-1.6,0.4c-0.6,0.5-1.4,1.4-1.8,1.5c0.1,0.2,0.2,0.4,0.3,0.5c0.2,0.1,0.4,0.1,0.7,0
				c0.4-0.2,0.7-0.3,1-0.5c0.4-0.2,0.6-0.3,1-0.3c0.5,0,0.8,0.2,1.3,0.3c0.3,0.1,0.6,0.2,0.9,0.4c0.4,0.2,0.7,0.3,1,0.7
				c0.3,0.3,0.8,0.4,1.1,0.7c0.3,0.2,0.8,0.5,1.1,0.7c0.2,0.2,0.6,0.6,0.9,0.7c0.3,0.2,0.6,0.1,0.9,0c0.3-0.1,0.5-0.2,0.9-0.2
				c0.3,0,0.7,0,1.1,0c0.4,0,0.8,0,0.9-0.1c0.1-0.1,0.2-0.2,0.3-0.4c0-0.1,0-0.3-0.3-0.3c-0.4-0.1-0.8-0.2-1.2-0.3
				c-0.6-0.1-0.4-0.4-0.9-0.7c-0.6-0.3-0.7-0.4-1.4-0.5c-0.4-0.1-1.1-0.2-1.4-0.5c-0.3-0.3-0.5-0.9-0.8-1c-0.6-0.3-1-0.7-1.7-0.8
				c-0.7-0.1-1.5-0.3-2.1-0.3C-185.5,312.4-185.6,312.4-185.8,312.4L-185.8,312.4z M-173.2,316.6c-0.1,0-0.2,0-0.3,0
				c-0.4,0.1-1.6,0-1.7,0.1c-0.1,0.1-0.2,0.2-0.2,0.4c-0.2,0.3-0.1,0.4,0,0.5c0.1,0.1,0.2,0.1,0.4,0.2c0.1,0.1,0.2,0.2,0.2,0.4
				c0,0.2,0,0.4-0.2,0.5c0,0-1,0.5-0.9,0.5c0.1,0.2,0.3,0.3,0.8,0.3c0.5,0,0.8,0.1,1.2,0.1c0.3,0.1,0.9,0.2,1.1,0.1
				c0.6-0.2,1.1-0.3,1.5-0.7c0.3-0.3,0.3-0.2,0.9-0.3c0.2-0.1,0.5,0,0.6-0.1c0.2-0.1,0.2-0.2,0.2-0.4c0-0.3-0.3-0.7-0.7-0.7
				c-0.3,0-0.8,0-1.1-0.1c-0.4-0.2-0.4-0.6-0.9-0.7C-172.6,316.8-172.9,316.6-173.2,316.6L-173.2,316.6z M-167.8,318.2
				c-0.1,0-0.2,0.2-0.2,0.4c0,0.2,0.1,0.5,0.1,0.6c0.1,0.2,0.8,0.3,1.1,0.3c0.3,0,0.5,0,0.6,0c0.1-0.1,0.1-0.1,0-0.4
				c-0.2-0.3-0.3-0.7-0.6-0.8C-167.2,318.2-167.5,318.2-167.8,318.2L-167.8,318.2z M-163.6,318.6c-0.1,0.1-0.1,0.3-0.1,0.5
				c0,0.2,0.1,0.4,0.5,0.5c0.3,0.1,0.8,0.1,1,0c0.2,0,0.1-0.2,0-0.4c-0.2-0.2-0.4-0.4-0.5-0.5C-162.9,318.6-163.3,318.6-163.6,318.6
				C-163.5,318.6-163.5,318.5-163.6,318.6L-163.6,318.6z M-179,319c-0.1,0-0.2,0-0.2,0c-0.1-0.1-0.7,0-1,0.1
				c-0.2,0.1-0.4,0.2-0.4,0.3c-0.1,0.1-0.1,0.3,0,0.5c0.1,0.2,0.1,0.4,0.2,0.5c0.1,0.1,0.1,0.2,0.4,0.2c0.5,0.1,0.9,0.3,1.3,0
				c0.3-0.2,0.5-0.6,0.5-1c0-0.4-0.1-0.7-0.5-0.8C-178.9,319.1-179,319-179,319L-179,319z M-161.6,320.7c-0.2,0.1-0.2,0.4,0,0.7
				c0.3,0.3,0.6,0.2,0.8,0.1c0.2-0.1,0.1-0.3,0-0.4c-0.2-0.1-0.5-0.2-0.5-0.2C-161.4,320.7-161.5,320.7-161.6,320.7L-161.6,320.7z
				 M-160.1,322.8c-0.1,0.1-0.5,0.4-0.5,0.6c0,0.2,0.2,0.2,0.4,0.1c0.2,0,0.5-0.1,0.5-0.1C-159.5,323.2-159.9,322.9-160.1,322.8
				C-160.1,322.8-160.1,322.7-160.1,322.8L-160.1,322.8z M-159.8,324.4C-159.8,324.4-159.8,324.5-159.8,324.4
				C-159.7,324.5-159.7,324.4-159.8,324.4C-159.7,324.4-159.8,324.4-159.8,324.4L-159.8,324.4z M-159.8,324.5
				c-0.2,0.1-0.7,0.5-0.8,0.7c-0.1,0.2,0.9,0,0.9,0C-159.4,325.1-159.6,324.7-159.8,324.5L-159.8,324.5z M-157.8,325
				c0,0.2-0.3,0.8,0,1c0.3,0.2,0.5,0.2,0.5,0c0.1-0.1,0.1-0.3,0-0.4C-157.4,325.4-157.6,325.2-157.8,325L-157.8,325z"/>
			
				<linearGradient id="path12062_1_" gradientUnits="userSpaceOnUse" x1="-77.0492" y1="400.6011" x2="-125.8533" y2="257.9915" gradientTransform="matrix(2.8212 0.42 0.42 -2.8212 -51.2053 1357.5046)">
				<stop  offset="0" style="stop-color:#FFFFFF"/>
				<stop  offset="1" style="stop-color:#FFFFFF;stop-opacity:0"/>
			</linearGradient>
			<path id="path12062" class="st3" d="M-145.4,224.4c-19.2-2.7-37.7,2.3-52.2,12.8c-5.2,35.9,18.8,71,55.9,79.9
				c21.7,5.2,43.2,0.4,59.5-11.4c5.2-35.9-18.8-71-55.9-79.9C-140.5,225.2-143,224.7-145.4,224.4z"/>
		</g>
		<path id="path12064" class="st4" d="M-303.7-1304.1l131.1-65.4l10.5,6.2l4.9,6.6l3.3,7.7l0.5,8.9l-1.8,4.5l-0.8,2l-124.5,71.2
			l-7-2l-9.7-11.1l-4.9-12.3l-3.1-10.2L-303.7-1304.1z"/>
		<path id="path12066" class="st5" d="M-281.9-1261.9c-3.2,1.7-10.7-6.3-16.8-17.9c-6.1-11.6-8.4-22.3-5.2-24
			c3.2-1.7,10.7,6.3,16.8,17.9C-281-1274.3-278.7-1263.6-281.9-1261.9L-281.9-1261.9z"/>
		
			<linearGradient id="path12068_1_" gradientUnits="userSpaceOnUse" x1="-453.8578" y1="-1348.4816" x2="-445.7163" y2="-1442.4225" gradientTransform="matrix(1.2367 -0.5275 -0.5275 -1.2367 -383.5544 -3245.3367)">
			<stop  offset="0" style="stop-color:#A0892C"/>
			<stop  offset="0.2041" style="stop-color:#28220B"/>
			<stop  offset="0.2267" style="stop-color:#D3BC5F"/>
			<stop  offset="0.7264" style="stop-color:#D2BB5E;stop-opacity:0.4196"/>
			<stop  offset="0.8563" style="stop-color:#504416"/>
			<stop  offset="1" style="stop-color:#504416"/>
		</linearGradient>
		<path id="path12068" class="st6" d="M-302.9-1304l129.2-65.1c16.7-2.8,27.5,26.7,17.9,34.7l-125.4,71.9
			C-273-1269.6-293.2-1307.2-302.9-1304L-302.9-1304z"/>
		
			<linearGradient id="path12070_1_" gradientUnits="userSpaceOnUse" x1="-454.287" y1="-1273.8534" x2="-368.9852" y2="-1260.8983" gradientTransform="matrix(0.4771 0.9103 0.9103 -0.4771 1077.3794 -1486.8014)">
			<stop  offset="0" style="stop-color:#504416"/>
			<stop  offset="0.4714" style="stop-color:#E9DDAF"/>
			<stop  offset="1" style="stop-color:#28220B"/>
		</linearGradient>
		<path id="path12070" class="st7" d="M-281.1-1262.2c-3.8,2-11.9-5.7-17.9-17.3c-6.1-11.6-7.9-22.6-4-24.6
			c3.8-2,11.9,5.7,17.9,17.3C-279.1-1275.2-277.3-1264.2-281.1-1262.2z"/>
		<g id="g12072" transform="matrix(0.55639136,-0.23732963,0.23732963,0.55639136,-163.06081,-1580.1924)">
			<path id="path12074" class="st8" d="M-393.9,329l241.1-15.1c4.5,1.2,16.2,1.3,18.6,9.9L-369,341.4
				C-370,326.6-391,328.6-393.9,329z"/>
			
				<linearGradient id="path12076_1_" gradientUnits="userSpaceOnUse" x1="-679.2506" y1="121.6344" x2="-335.0977" y2="121.6344" gradientTransform="matrix(1.2367 0.5275 0.5275 -1.2367 382.3208 837.307)">
				<stop  offset="0" style="stop-color:#E8DCAE"/>
				<stop  offset="0.5603" style="stop-color:#28220B"/>
				<stop  offset="1" style="stop-color:#28220B"/>
			</linearGradient>
			<path id="path12076" class="st9" d="M-393.6,329l240.8-15.1c4.5,1.2,12-1.9,19.4,10c0,0-93.5,7.1-97.7,8.1
				c-3.2,0.7-4.2,1-6.9,1.5c1.7-0.2-12.1,1.4-12.1,1.4l-9.3,0.5c-4.4,0.5-6.7-0.8-11.6-0.5l-104.6,8.3
				C-380.6,329.8-390.7,328.6-393.6,329L-393.6,329z"/>
		</g>
		<path id="path12078" class="st10" d="M-236.2-1337.9c0.3-0.3,8.6-4.3,8.6-4.3s2.3-0.8,5.8,2c4.8,3.8,3.4,2.8,3.4,2.8
			s4.7,4.9,6.5,8.8c1.9,3.8,2.6,5.4,4,10.7c0.6,2.9,0.7,5.9,0.5,8.1c-0.4,1.8-0.5,4.1-1.7,5.7c-0.3,0.4-0.3,0.5-0.3,0.5
			s13.1,0.6,12.8,0.7c-0.1,0.1-8,1.9-8.7,2.6c-0.8,0.7,0.3,4.9,0.3,4.9l-12-3.9c0,0,0.3-0.3,0.6-0.7c0.8-1.1,2-2,2.6-4.4
			c0.8-3.1,0.5-7.4-0.2-9.9c-1-3.4-2.4-7.3-4.4-10.9c-1.6-3-6-9-8.5-10.8c-2.4-1.8-4.3-2.7-6.1-2.7c-0.7,0-1.9,0.2-2.5,0.5
			C-235.8-1338.1-236.2-1337.9-236.2-1337.9L-236.2-1337.9z"/>
		
			<linearGradient id="path12080_1_" gradientUnits="userSpaceOnUse" x1="-426.3074" y1="-1380.9414" x2="-427.3251" y2="-1370.373" gradientTransform="matrix(1.6356 -0.6977 -0.6977 -1.6356 -471.7632 -3854.6003)">
			<stop  offset="0" style="stop-color:#FF2A2A"/>
			<stop  offset="0.9626" style="stop-color:#550000"/>
			<stop  offset="1" style="stop-color:#FF2A2A;stop-opacity:0"/>
		</linearGradient>
		<path id="path12080" class="st11" d="M-216.7-1299.3l7.3-4.2l12.2,0.8l-7.8,2.1c0,0-0.3-0.2-0.6,0.6c-0.3,0.8,0,3.7,0.2,4
			c0.1,0.3,0.2,0.6,0.2,0.6L-216.7-1299.3z"/>
		
			<linearGradient id="path12082_1_" gradientUnits="userSpaceOnUse" x1="-428.2987" y1="-1352.1619" x2="-425.7936" y2="-1423.2438" gradientTransform="matrix(1.6356 -0.6977 -0.6977 -1.6356 -471.7632 -3854.6003)">
			<stop  offset="0" style="stop-color:#550000"/>
			<stop  offset="0.3374" style="stop-color:#FF0000;stop-opacity:0.5608"/>
			<stop  offset="0.5543" style="stop-color:#FF0000"/>
			<stop  offset="1" style="stop-color:#FF0000;stop-opacity:0"/>
		</linearGradient>
		<path id="path12082" class="st12" d="M-236-1338c0.3-0.3,8.6-4.3,8.6-4.3s2.3-0.8,5.8,2c4.8,3.8,3.4,2.8,3.4,2.8s4.7,4.9,6.5,8.8
			c1.9,3.8,2.6,5.4,4,10.7c0.6,2.9,0.7,5.9,0.5,8.1c-0.4,1.8-0.5,4.1-1.7,5.7c-0.3,0.4-0.3,0.5-0.3,0.5s-2.1,1.2-2.7,1.6
			c-3.1,1.8-2.4,1.3-4,2.2l-0.9,0.5c0,0,0.3-0.3,0.6-0.7c0.8-1.1,2-2,2.6-4.4c0.8-3.1,0.5-7.4-0.2-9.9c-1-3.4-2.4-7.3-4.4-10.9
			c-1.6-3-6-9-8.5-10.8c-2.4-1.8-4.3-2.7-6.1-2.7c-0.7,0-1.9,0.2-2.5,0.5C-235.6-1338.2-236-1338-236-1338L-236-1338z"/>
		<path id="path12084" class="st5" d="M-281.9-1261.9c-3.2,1.7-10.7-6.3-16.8-17.9c-6.1-11.6-8.4-22.3-5.2-24
			c3.2-1.7,10.7,6.3,16.8,17.9C-281-1274.3-278.7-1263.6-281.9-1261.9L-281.9-1261.9z"/>
		
			<linearGradient id="path12086_1_" gradientUnits="userSpaceOnUse" x1="-453.8578" y1="-1348.4816" x2="-445.7163" y2="-1442.4225" gradientTransform="matrix(1.2367 -0.5275 -0.5275 -1.2367 -383.5544 -3245.3367)">
			<stop  offset="0" style="stop-color:#A0892C"/>
			<stop  offset="0.2041" style="stop-color:#28220B"/>
			<stop  offset="0.2267" style="stop-color:#D3BC5F"/>
			<stop  offset="0.7264" style="stop-color:#D2BB5E;stop-opacity:0.4196"/>
			<stop  offset="0.8563" style="stop-color:#504416"/>
			<stop  offset="1" style="stop-color:#504416"/>
		</linearGradient>
		<path id="path12086" class="st13" d="M-302.9-1304l129.2-65.1c16.7-2.8,27.5,26.7,17.9,34.7l-125.4,71.9
			C-273-1269.6-293.2-1307.2-302.9-1304L-302.9-1304z"/>
		
			<linearGradient id="path12088_1_" gradientUnits="userSpaceOnUse" x1="-454.287" y1="-1273.8534" x2="-368.9852" y2="-1260.8983" gradientTransform="matrix(0.4771 0.9103 0.9103 -0.4771 1077.3794 -1486.8014)">
			<stop  offset="0" style="stop-color:#504416"/>
			<stop  offset="0.4714" style="stop-color:#E9DDAF"/>
			<stop  offset="1" style="stop-color:#28220B"/>
		</linearGradient>
		<path id="path12088" class="st14" d="M-281.1-1262.2c-3.8,2-11.9-5.7-17.9-17.3c-6.1-11.6-7.9-22.6-4-24.6
			c3.8-2,11.9,5.7,17.9,17.3C-279.1-1275.2-277.3-1264.2-281.1-1262.2z"/>
		<g id="g12090" transform="matrix(0.55639136,-0.23732963,0.23732963,0.55639136,-163.06081,-1580.1924)">
			<path id="path12092" class="st8" d="M-393.9,329l241.1-15.1c4.5,1.2,16.2,1.3,18.6,9.9L-369,341.4
				C-370,326.6-391,328.6-393.9,329z"/>
			
				<linearGradient id="path12094_1_" gradientUnits="userSpaceOnUse" x1="-679.2506" y1="121.6344" x2="-335.0977" y2="121.6344" gradientTransform="matrix(1.2367 0.5275 0.5275 -1.2367 382.3208 837.307)">
				<stop  offset="0" style="stop-color:#E8DCAE"/>
				<stop  offset="0.5603" style="stop-color:#28220B"/>
				<stop  offset="1" style="stop-color:#28220B"/>
			</linearGradient>
			<path id="path12094" class="st15" d="M-393.6,329l240.8-15.1c4.5,1.2,12-1.9,19.4,10c0,0-93.5,7.1-97.7,8.1
				c-3.2,0.7-4.2,1-6.9,1.5c1.7-0.2-12.1,1.4-12.1,1.4l-9.3,0.5c-4.4,0.5-6.7-0.8-11.6-0.5l-104.6,8.3
				C-380.6,329.8-390.7,328.6-393.6,329L-393.6,329z"/>
		</g>
		<path id="path12096" class="st10" d="M-236.2-1337.9c0.3-0.3,8.6-4.3,8.6-4.3s2.3-0.8,5.8,2c4.8,3.8,3.4,2.8,3.4,2.8
			s4.7,4.9,6.5,8.8c1.9,3.8,2.6,5.4,4,10.7c0.6,2.9,0.7,5.9,0.5,8.1c-0.4,1.8-0.5,4.1-1.7,5.7c-0.3,0.4-0.3,0.5-0.3,0.5
			s13.1,0.6,12.8,0.7c-0.1,0.1-8,1.9-8.7,2.6c-0.8,0.7,0.3,4.9,0.3,4.9l-12-3.9c0,0,0.3-0.3,0.6-0.7c0.8-1.1,2-2,2.6-4.4
			c0.8-3.1,0.5-7.4-0.2-9.9c-1-3.4-2.4-7.3-4.4-10.9c-1.6-3-6-9-8.5-10.8c-2.4-1.8-4.3-2.7-6.1-2.7c-0.7,0-1.9,0.2-2.5,0.5
			C-235.8-1338.1-236.2-1337.9-236.2-1337.9L-236.2-1337.9z"/>
		
			<linearGradient id="path12098_1_" gradientUnits="userSpaceOnUse" x1="-426.3074" y1="-1380.9414" x2="-427.3251" y2="-1370.373" gradientTransform="matrix(1.6356 -0.6977 -0.6977 -1.6356 -471.7632 -3854.6003)">
			<stop  offset="0" style="stop-color:#FF2A2A"/>
			<stop  offset="0.9626" style="stop-color:#550000"/>
			<stop  offset="1" style="stop-color:#FF2A2A;stop-opacity:0"/>
		</linearGradient>
		<path id="path12098" class="st16" d="M-216.7-1299.3l7.3-4.2l12.2,0.8l-7.8,2.1c0,0-0.3-0.2-0.6,0.6c-0.3,0.8,0,3.7,0.2,4
			c0.1,0.3,0.2,0.6,0.2,0.6L-216.7-1299.3z"/>
		
			<linearGradient id="path12100_1_" gradientUnits="userSpaceOnUse" x1="-428.2987" y1="-1352.1619" x2="-425.7936" y2="-1423.2438" gradientTransform="matrix(1.6356 -0.6977 -0.6977 -1.6356 -471.7632 -3854.6003)">
			<stop  offset="0" style="stop-color:#550000"/>
			<stop  offset="0.3374" style="stop-color:#FF0000;stop-opacity:0.5608"/>
			<stop  offset="0.5543" style="stop-color:#FF0000"/>
			<stop  offset="1" style="stop-color:#FF0000;stop-opacity:0"/>
		</linearGradient>
		<path id="path12100" class="st17" d="M-236-1338c0.3-0.3,8.6-4.3,8.6-4.3s2.3-0.8,5.8,2c4.8,3.8,3.4,2.8,3.4,2.8s4.7,4.9,6.5,8.8
			c1.9,3.8,2.6,5.4,4,10.7c0.6,2.9,0.7,5.9,0.5,8.1c-0.4,1.8-0.5,4.1-1.7,5.7c-0.3,0.4-0.3,0.5-0.3,0.5s-2.1,1.2-2.7,1.6
			c-3.1,1.8-2.4,1.3-4,2.2l-0.9,0.5c0,0,0.3-0.3,0.6-0.7c0.8-1.1,2-2,2.6-4.4c0.8-3.1,0.5-7.4-0.2-9.9c-1-3.4-2.4-7.3-4.4-10.9
			c-1.6-3-6-9-8.5-10.8c-2.4-1.8-4.3-2.7-6.1-2.7c-0.7,0-1.9,0.2-2.5,0.5C-235.6-1338.2-236-1338-236-1338L-236-1338z"/>
		<path id="path12102" d="M-369.6-1461l87.5-28l88.3,27.5l-87.5,28L-369.6-1461z"/>
		
			<linearGradient id="path12104_1_" gradientUnits="userSpaceOnUse" x1="-550.4145" y1="-1312.3013" x2="-537.3506" y2="-1368.985" gradientTransform="matrix(3.0335 0 0 -3.0335 1379.5468 -5478.2925)">
			<stop  offset="0" style="stop-color:#C8BEB7"/>
			<stop  offset="1" style="stop-color:#C8BEB7;stop-opacity:0"/>
		</linearGradient>
		<path id="path12104" class="st18" d="M-361.9-1461.6c26.8,8.4,53.5,16.7,80.3,25.1c26.5-8.5,53-17,79.6-25.5
			c-26.8-8.4-53.5-16.7-80.3-25.1C-308.8-1478.6-335.3-1470.1-361.9-1461.6L-361.9-1461.6z"/>
		
			<linearGradient id="path12106_1_" gradientUnits="userSpaceOnUse" x1="-548.4225" y1="-1312.5286" x2="-545.7655" y2="-1364.5625" gradientTransform="matrix(2.9397 0 0 -2.9397 1328.0746 -5355.4048)">
			<stop  offset="0" style="stop-color:#C8BEB7"/>
			<stop  offset="1" style="stop-color:#C8BEB7;stop-opacity:0"/>
		</linearGradient>
		<path id="path12106" class="st19" d="M-353.2-1462.2c23.7,7.4,47.4,14.8,71.1,22.2c23.5-7.5,47-15,70.5-22.6
			c-23.7-7.4-47.4-14.8-71.1-22.2C-306.2-1477.2-329.7-1469.7-353.2-1462.2z"/>
		<path id="path12108" class="st20" d="M-288.4-1461.9c-0.2,1.1-1.8,1.9,1.1,2.2c14.5,1.8,58,7.2,60.3,7.5c2.8,1.5,5.5,3.7,6,7.7
			c0.6,5.6-2.4,29.9-2.4,29.9l1.8,3.1h3l0.6-35.7c-0.5-3-3.1-4.7-6-6.6c-20.4-3.2-41.7-5.9-63.7-8.3L-288.4-1461.9z"/>
		<path id="path12110" class="st21" d="M-221.3-1417c-4.5,22-4.9,22.8-4.9,22.8"/>
		<path id="path12112" class="st22" d="M-217.9-1416.6c-0.9,23.3-1,24.2-1,24.2"/>
		<path id="path12114" class="st23" d="M-219.7-1416.9c-1.7,19.1-1.9,19.8-1.9,19.8"/>
		<path id="path12116" class="st24" d="M-222.4-1417.5c-3.9,15.4-4.4,16-4.4,16"/>
		<path id="path12118" class="st25" d="M-220.5-1416.4c-2.9,19.2-3.2,19.9-3.2,19.9"/>
		<path id="path12120" class="st26" d="M-218.7-1416.6c-1,18.7-1.1,19.4-1.1,19.4"/>
		<path id="path12122" class="st27" d="M-221-1416.8c-2.7,22.3-3,23.2-3,23.2"/>
		<path id="path12124" class="st28" d="M-217.6-1416.6c1,23.3,1,24.2,1,24.2"/>
		<path id="path12126" class="st29" d="M-219.4-1416.8c-0.2,19.2-0.3,19.9-0.3,19.9"/>
		<path id="path12128" class="st30" d="M-222.1-1417.1c-2.7,15.7-3.1,16.3-3.1,16.3"/>
		<path id="path12130" class="st31" d="M-220.1-1416.2c-1.3,19.4-1.6,20.1-1.6,20.1"/>
		<path id="path12132" class="st32" d="M-218.4-1416.5c0.5,18.7,0.5,19.4,0.5,19.4"/>
		<path id="path12134" class="st33" d="M-220.4-1416.8c-7.3,21.2-7.8,22-7.8,22"/>
		<path id="path12136" class="st34" d="M-217.1-1415.9c-3.9,23-4.1,23.8-4.1,23.8"/>
		<path id="path12138" class="st35" d="M-218.8-1416.5c-4.1,18.7-4.4,19.4-4.4,19.4"/>
		<path id="path12140" class="st36" d="M-221.4-1417.4c-5.9,14.8-6.4,15.3-6.4,15.3"/>
		<path id="path12142" class="st37" d="M-219.7-1416.1c-5.3,18.7-5.8,19.4-5.8,19.4"/>
		<path id="path12144" class="st38" d="M-217.9-1416c-3.4,18.4-3.6,19.1-3.6,19.1"/>
		<path id="path12146" class="st39" d="M-221.1-1416.3c-2.1,17.7-2.4,18.4-2.4,18.4"/>
		<path id="path12148" class="st40" d="M-217.7-1416.5c1.6,18.1,1.6,18.8,1.6,18.8"/>
		<path id="path12150" class="st41" d="M-219.5-1416.5c0.4,15.1,0.2,15.6,0.2,15.6"/>
		<path id="path12152" class="st42" d="M-222.2-1416.4c-2.2,12.6-2.6,13.1-2.6,13.1"/>
		<path id="path12154" class="st43" d="M-220.2-1415.9c-0.8,15.3-1.1,15.9-1.1,15.9"/>
		<path id="path12156" class="st44" d="M-218.5-1416.3c1,14.6,1,15.2,1,15.2"/>
		<path id="path12158" class="st21" d="M-220.6-1415.3c-2.9,22-3.3,22.8-3.3,22.8"/>
		<path id="path12160" class="st22" d="M-217.2-1414.9c0.8,23.3,0.7,24.2,0.7,24.2"/>
		<path id="path12162" class="st23" d="M-219-1415.2c-0.3,19.1-0.5,19.8-0.5,19.8"/>
		<path id="path12164" class="st24" d="M-221.7-1415.7c-2.8,15.4-3.3,16-3.3,16"/>
		<path id="path12166" class="st25" d="M-219.7-1414.6c-1.5,19.2-1.8,19.9-1.8,19.9"/>
		<path id="path12168" class="st26" d="M-218-1414.9c0.3,18.7,0.3,19.4,0.3,19.4"/>
		<path id="path12170" class="st27" d="M-220.3-1415.1c-1.1,22.3-1.4,23.2-1.4,23.2"/>
		<path id="path12172" class="st28" d="M-216.9-1414.9c2.7,23.3,2.7,24.2,2.7,24.2"/>
		<path id="path12174" class="st29" d="M-218.7-1415.1c1.2,19.2,1.1,19.9,1.1,19.9"/>
		<path id="path12176" class="st30" d="M-221.4-1415.4c-1.5,15.7-1.9,16.3-1.9,16.3"/>
		<path id="path12178" class="st31" d="M-219.4-1414.5c0.1,19.4-0.2,20.1-0.2,20.1"/>
		<path id="path12180" class="st32" d="M-217.7-1414.8c1.9,18.7,1.9,19.4,1.9,19.4"/>
		<path id="path12182" class="st33" d="M-219.7-1415.1c-5.7,21.2-6.2,22-6.2,22"/>
		<path id="path12184" class="st34" d="M-216.4-1414.2c-2.2,23-2.4,23.8-2.4,23.8"/>
		<path id="path12186" class="st35" d="M-218.1-1414.8c-2.8,18.7-3,19.4-3,19.4"/>
		<path id="path12188" class="st36" d="M-220.8-1415.7c-4.8,14.8-5.3,15.3-5.3,15.3"/>
		<path id="path12190" class="st37" d="M-218.9-1414.3c-4,18.7-4.4,19.4-4.4,19.4"/>
		<path id="path12192" class="st38" d="M-217.1-1414.3c-2.1,18.4-2.2,19.1-2.2,19.1"/>
		<path id="path12194" class="st39" d="M-220.2-1415.2c-0.8,17.7-1.1,18.4-1.1,18.4"/>
		<path id="path12196" class="st40" d="M-217-1414.7c2.9,18.1,2.9,18.8,2.9,18.8"/>
		<path id="path12198" class="st41" d="M-218.7-1414.7c1.4,15.1,1.4,15.6,1.4,15.6"/>
		<path id="path12200" class="st42" d="M-221.3-1415.3c-1.3,12.6-1.7,13.1-1.7,13.1"/>
		<path id="path12202" class="st43" d="M-219-1414.9c0.3,15.3,0.1,15.9,0.1,15.9"/>
		<path id="path12204" class="st44" d="M-217.7-1414.6c2.1,14.6,2.1,15.2,2.1,15.2"/>
		<path id="path12206" class="st45" d="M-288.2-1461.3c3,0.2-0.2,0.3,3.4,0.7c15.5,1.9,56.8,7.1,59.1,7.3c3.3,2.7,4.3,3.4,5.3,6.6
			c1.4,4.3-0.9,20.9-1.4,27.3c0,0.3,0,0.3-0.1,0.5c-0.1,1.2-1.2,1-1.2,1c-1.1,1.4-0.9,3.7-0.5,3.5c2-1,3.1-0.7,3.7-0.6
			c1.3,0,2.1,0.4,2.6,2.4c0.8-1,0.7-3.1,0.7-3.1l-0.9-2.2l0.6-30.4c-0.5-3-3.1-4.7-6-6.6c-20.4-3.2-41.7-5.9-63.7-8.3L-288.2-1461.3
			z"/>
		<g id="path12208" class="st46">
			<polygon class="st47" points="-255.9,-1442.2 -229.3,-1433.4 -227.3,-1410.3 -230.4,-1404.4 -229.3,-1401.9 -231.3,-1396.2 
				-233.3,-1392.9 -233.1,-1397.7 -233.7,-1394.2 -234.2,-1397.5 -236.8,-1393.7 -236.2,-1398.4 -237.7,-1397.5 -235.7,-1402.8 
				-232,-1408.1 -232,-1413.2 -229.8,-1420.5 -230.9,-1429.8 -238.4,-1434.3 -257.4,-1439.8 -259.2,-1442.2 			"/>
		</g>
		<path id="path12210" class="st21" d="M-221.3-1417c-4.5,22-4.9,22.8-4.9,22.8"/>
		<path id="path12212" class="st22" d="M-217.9-1416.6c-0.9,23.3-1,24.2-1,24.2"/>
		<path id="path12214" class="st23" d="M-219.7-1416.9c-1.7,19.1-1.9,19.8-1.9,19.8"/>
		<path id="path12216" class="st24" d="M-222.4-1417.5c-3.9,15.4-4.4,16-4.4,16"/>
		<path id="path12218" class="st25" d="M-220.5-1416.4c-2.9,19.2-3.2,19.9-3.2,19.9"/>
		<path id="path12220" class="st26" d="M-218.7-1416.6c-1,18.7-1.1,19.4-1.1,19.4"/>
		<path id="path12222" class="st27" d="M-221-1416.8c-2.7,22.3-3,23.2-3,23.2"/>
		<path id="path12224" class="st28" d="M-217.6-1416.6c1,23.3,1,24.2,1,24.2"/>
		<path id="path12226" class="st29" d="M-219.4-1416.8c-0.2,19.2-0.3,19.9-0.3,19.9"/>
		<path id="path12228" class="st30" d="M-222.1-1417.1c-2.7,15.7-3.1,16.3-3.1,16.3"/>
		<path id="path12230" class="st31" d="M-220.1-1416.2c-1.3,19.4-1.6,20.1-1.6,20.1"/>
		<path id="path12232" class="st32" d="M-218.4-1416.5c0.5,18.7,0.5,19.4,0.5,19.4"/>
		<path id="path12234" class="st33" d="M-220.4-1416.8c-7.3,21.2-7.8,22-7.8,22"/>
		<path id="path12236" class="st34" d="M-217.1-1415.9c-3.9,23-4.1,23.8-4.1,23.8"/>
		<path id="path12238" class="st35" d="M-218.8-1416.5c-4.1,18.7-4.4,19.4-4.4,19.4"/>
		<path id="path12240" class="st36" d="M-221.4-1417.4c-5.9,14.8-6.4,15.3-6.4,15.3"/>
		<path id="path12242" class="st37" d="M-219.7-1416.1c-5.3,18.7-5.8,19.4-5.8,19.4"/>
		<path id="path12244" class="st38" d="M-217.9-1416c-3.4,18.4-3.6,19.1-3.6,19.1"/>
		<path id="path12246" class="st39" d="M-221.1-1416.3c-2.1,17.7-2.4,18.4-2.4,18.4"/>
		<path id="path12248" class="st40" d="M-217.7-1416.5c1.6,18.1,1.6,18.8,1.6,18.8"/>
		<path id="path12250" class="st41" d="M-219.5-1416.5c0.4,15.1,0.2,15.6,0.2,15.6"/>
		<path id="path12252" class="st42" d="M-222.2-1416.4c-2.2,12.6-2.6,13.1-2.6,13.1"/>
		<path id="path12254" class="st43" d="M-220.2-1415.9c-0.8,15.3-1.1,15.9-1.1,15.9"/>
		<path id="path12256" class="st44" d="M-218.5-1416.3c1,14.6,1,15.2,1,15.2"/>
		<path id="path12258" class="st21" d="M-220.6-1415.3c-2.9,22-3.3,22.8-3.3,22.8"/>
		<path id="path12260" class="st22" d="M-217.2-1414.9c0.8,23.3,0.7,24.2,0.7,24.2"/>
		<path id="path12262" class="st23" d="M-219-1415.2c-0.3,19.1-0.5,19.8-0.5,19.8"/>
		<path id="path12264" class="st24" d="M-221.7-1415.7c-2.8,15.4-3.3,16-3.3,16"/>
		<path id="path12266" class="st25" d="M-219.7-1414.6c-1.5,19.2-1.8,19.9-1.8,19.9"/>
		<path id="path12268" class="st26" d="M-218-1414.9c0.3,18.7,0.3,19.4,0.3,19.4"/>
		<path id="path12270" class="st27" d="M-220.3-1415.1c-1.1,22.3-1.4,23.2-1.4,23.2"/>
		<path id="path12272" class="st28" d="M-216.9-1414.9c2.7,23.3,2.7,24.2,2.7,24.2"/>
		<path id="path12274" class="st29" d="M-218.7-1415.1c1.2,19.2,1.1,19.9,1.1,19.9"/>
		<path id="path12276" class="st30" d="M-221.4-1415.4c-1.5,15.7-1.9,16.3-1.9,16.3"/>
		<path id="path12278" class="st31" d="M-219.4-1414.5c0.1,19.4-0.2,20.1-0.2,20.1"/>
		<path id="path12280" class="st32" d="M-217.7-1414.8c1.9,18.7,1.9,19.4,1.9,19.4"/>
		<path id="path12282" class="st33" d="M-219.7-1415.1c-5.7,21.2-6.2,22-6.2,22"/>
		<path id="path12284" class="st34" d="M-216.4-1414.2c-2.2,23-2.4,23.8-2.4,23.8"/>
		<path id="path12286" class="st35" d="M-218.1-1414.8c-2.8,18.7-3,19.4-3,19.4"/>
		<path id="path12288" class="st36" d="M-220.8-1415.7c-4.8,14.8-5.3,15.3-5.3,15.3"/>
		<path id="path12290" class="st37" d="M-218.9-1414.3c-4,18.7-4.4,19.4-4.4,19.4"/>
		<path id="path12292" class="st38" d="M-217.1-1414.3c-2.1,18.4-2.2,19.1-2.2,19.1"/>
		<path id="path12294" class="st39" d="M-220.2-1415.2c-0.8,17.7-1.1,18.4-1.1,18.4"/>
		<path id="path12296" class="st40" d="M-217-1414.7c2.9,18.1,2.9,18.8,2.9,18.8"/>
		<path id="path12298" class="st41" d="M-218.7-1414.7c1.4,15.1,1.4,15.6,1.4,15.6"/>
		<path id="path12300" class="st42" d="M-221.3-1415.3c-1.3,12.6-1.7,13.1-1.7,13.1"/>
		<path id="path12302" class="st43" d="M-219-1414.9c0.3,15.3,0.1,15.9,0.1,15.9"/>
		<path id="path12304" class="st44" d="M-217.7-1414.6c2.1,14.6,2.1,15.2,2.1,15.2"/>
		<g id="path12306" class="st46">
			<polygon class="st47" points="-255.9,-1442.2 -229.3,-1433.4 -227.3,-1410.3 -230.4,-1404.4 -229.3,-1401.9 -231.3,-1396.2 
				-233.3,-1392.9 -233.1,-1397.7 -233.7,-1394.2 -234.2,-1397.5 -236.8,-1393.7 -236.2,-1398.4 -237.7,-1397.5 -235.7,-1402.8 
				-232,-1408.1 -232,-1413.2 -229.8,-1420.5 -230.9,-1429.8 -238.4,-1434.3 -257.4,-1439.8 -259.2,-1442.2 			"/>
		</g>
		<path id="path12308" class="st4" d="M-303.7-1304.1l131.1-65.4l10.5,6.2l4.9,6.6l3.3,7.7l0.5,8.9l-1.8,4.5l-0.8,2l-124.5,71.2
			l-7-2l-9.7-11.1l-4.9-12.3l-3.1-10.2L-303.7-1304.1z"/>
		<path id="path12310" class="st5" d="M-281.9-1261.9c-3.2,1.7-10.7-6.3-16.8-17.9c-6.1-11.6-8.4-22.3-5.2-24
			c3.2-1.7,10.7,6.3,16.8,17.9C-281-1274.3-278.7-1263.6-281.9-1261.9L-281.9-1261.9z"/>
		
			<linearGradient id="path12312_1_" gradientUnits="userSpaceOnUse" x1="-453.8578" y1="-1348.4816" x2="-445.7163" y2="-1442.4225" gradientTransform="matrix(1.2367 -0.5275 -0.5275 -1.2367 -383.5544 -3245.3367)">
			<stop  offset="0" style="stop-color:#A0892C"/>
			<stop  offset="0.2041" style="stop-color:#28220B"/>
			<stop  offset="0.2267" style="stop-color:#D3BC5F"/>
			<stop  offset="0.7264" style="stop-color:#D2BB5E;stop-opacity:0.4196"/>
			<stop  offset="0.8563" style="stop-color:#504416"/>
			<stop  offset="1" style="stop-color:#504416"/>
		</linearGradient>
		<path id="path12312" class="st48" d="M-302.9-1304l129.2-65.1c16.7-2.8,27.5,26.7,17.9,34.7l-125.4,71.9
			C-273-1269.6-293.2-1307.2-302.9-1304L-302.9-1304z"/>
		
			<linearGradient id="path12314_1_" gradientUnits="userSpaceOnUse" x1="-454.287" y1="-1273.8534" x2="-368.9852" y2="-1260.8983" gradientTransform="matrix(0.4771 0.9103 0.9103 -0.4771 1077.3794 -1486.8014)">
			<stop  offset="0" style="stop-color:#504416"/>
			<stop  offset="0.4714" style="stop-color:#E9DDAF"/>
			<stop  offset="1" style="stop-color:#28220B"/>
		</linearGradient>
		<path id="path12314" class="st49" d="M-281.1-1262.2c-3.8,2-11.9-5.7-17.9-17.3c-6.1-11.6-7.9-22.6-4-24.6
			c3.8-2,11.9,5.7,17.9,17.3C-279.1-1275.2-277.3-1264.2-281.1-1262.2z"/>
		<g id="g12316" transform="matrix(0.55639136,-0.23732963,0.23732963,0.55639136,-163.06081,-1580.1924)">
			<path id="path12318" class="st8" d="M-393.9,329l241.1-15.1c4.5,1.2,16.2,1.3,18.6,9.9L-369,341.4
				C-370,326.6-391,328.6-393.9,329z"/>
			
				<linearGradient id="path12320_1_" gradientUnits="userSpaceOnUse" x1="-679.2506" y1="121.6344" x2="-335.0977" y2="121.6344" gradientTransform="matrix(1.2367 0.5275 0.5275 -1.2367 382.3208 837.307)">
				<stop  offset="0" style="stop-color:#E8DCAE"/>
				<stop  offset="0.5603" style="stop-color:#28220B"/>
				<stop  offset="1" style="stop-color:#28220B"/>
			</linearGradient>
			<path id="path12320" class="st50" d="M-393.6,329l240.8-15.1c4.5,1.2,12-1.9,19.4,10c0,0-93.5,7.1-97.7,8.1
				c-3.2,0.7-4.2,1-6.9,1.5c1.7-0.2-12.1,1.4-12.1,1.4l-9.3,0.5c-4.4,0.5-6.7-0.8-11.6-0.5l-104.6,8.3
				C-380.6,329.8-390.7,328.6-393.6,329L-393.6,329z"/>
		</g>
		<path id="path12322" class="st10" d="M-236.2-1337.9c0.3-0.3,8.6-4.3,8.6-4.3s2.3-0.8,5.8,2c4.8,3.8,3.4,2.8,3.4,2.8
			s4.7,4.9,6.5,8.8c1.9,3.8,2.6,5.4,4,10.7c0.6,2.9,0.7,5.9,0.5,8.1c-0.4,1.8-0.5,4.1-1.7,5.7c-0.3,0.4-0.3,0.5-0.3,0.5
			s13.1,0.6,12.8,0.7c-0.1,0.1-8,1.9-8.7,2.6c-0.8,0.7,0.3,4.9,0.3,4.9l-12-3.9c0,0,0.3-0.3,0.6-0.7c0.8-1.1,2-2,2.6-4.4
			c0.8-3.1,0.5-7.4-0.2-9.9c-1-3.4-2.4-7.3-4.4-10.9c-1.6-3-6-9-8.5-10.8c-2.4-1.8-4.3-2.7-6.1-2.7c-0.7,0-1.9,0.2-2.5,0.5
			C-235.8-1338.1-236.2-1337.9-236.2-1337.9L-236.2-1337.9z"/>
		
			<linearGradient id="path12324_1_" gradientUnits="userSpaceOnUse" x1="-426.3074" y1="-1380.9414" x2="-427.3251" y2="-1370.373" gradientTransform="matrix(1.6356 -0.6977 -0.6977 -1.6356 -471.7632 -3854.6003)">
			<stop  offset="0" style="stop-color:#FF2A2A"/>
			<stop  offset="0.9626" style="stop-color:#550000"/>
			<stop  offset="1" style="stop-color:#FF2A2A;stop-opacity:0"/>
		</linearGradient>
		<path id="path12324" class="st51" d="M-216.7-1299.3l7.3-4.2l12.2,0.8l-7.8,2.1c0,0-0.3-0.2-0.6,0.6c-0.3,0.8,0,3.7,0.2,4
			c0.1,0.3,0.2,0.6,0.2,0.6L-216.7-1299.3z"/>
		
			<linearGradient id="path12326_1_" gradientUnits="userSpaceOnUse" x1="-428.2987" y1="-1352.1619" x2="-425.7936" y2="-1423.2438" gradientTransform="matrix(1.6356 -0.6977 -0.6977 -1.6356 -471.7632 -3854.6003)">
			<stop  offset="0" style="stop-color:#550000"/>
			<stop  offset="0.3374" style="stop-color:#FF0000;stop-opacity:0.5608"/>
			<stop  offset="0.5543" style="stop-color:#FF0000"/>
			<stop  offset="1" style="stop-color:#FF0000;stop-opacity:0"/>
		</linearGradient>
		<path id="path12326" class="st52" d="M-236-1338c0.3-0.3,8.6-4.3,8.6-4.3s2.3-0.8,5.8,2c4.8,3.8,3.4,2.8,3.4,2.8s4.7,4.9,6.5,8.8
			c1.9,3.8,2.6,5.4,4,10.7c0.6,2.9,0.7,5.9,0.5,8.1c-0.4,1.8-0.5,4.1-1.7,5.7c-0.3,0.4-0.3,0.5-0.3,0.5s-2.1,1.2-2.7,1.6
			c-3.1,1.8-2.4,1.3-4,2.2l-0.9,0.5c0,0,0.3-0.3,0.6-0.7c0.8-1.1,2-2,2.6-4.4c0.8-3.1,0.5-7.4-0.2-9.9c-1-3.4-2.4-7.3-4.4-10.9
			c-1.6-3-6-9-8.5-10.8c-2.4-1.8-4.3-2.7-6.1-2.7c-0.7,0-1.9,0.2-2.5,0.5C-235.6-1338.2-236-1338-236-1338L-236-1338z"/>
		<path id="path12328" class="st5" d="M-281.9-1261.9c-3.2,1.7-10.7-6.3-16.8-17.9c-6.1-11.6-8.4-22.3-5.2-24
			c3.2-1.7,10.7,6.3,16.8,17.9C-281-1274.3-278.7-1263.6-281.9-1261.9L-281.9-1261.9z"/>
		
			<linearGradient id="path12330_1_" gradientUnits="userSpaceOnUse" x1="-453.8578" y1="-1348.4816" x2="-445.7163" y2="-1442.4225" gradientTransform="matrix(1.2367 -0.5275 -0.5275 -1.2367 -383.5544 -3245.3367)">
			<stop  offset="0" style="stop-color:#A0892C"/>
			<stop  offset="0.2041" style="stop-color:#28220B"/>
			<stop  offset="0.2267" style="stop-color:#D3BC5F"/>
			<stop  offset="0.7264" style="stop-color:#D2BB5E;stop-opacity:0.4196"/>
			<stop  offset="0.8563" style="stop-color:#504416"/>
			<stop  offset="1" style="stop-color:#504416"/>
		</linearGradient>
		<path id="path12330" class="st53" d="M-302.9-1304l129.2-65.1c16.7-2.8,27.5,26.7,17.9,34.7l-125.4,71.9
			C-273-1269.6-293.2-1307.2-302.9-1304L-302.9-1304z"/>
		
			<linearGradient id="path12332_1_" gradientUnits="userSpaceOnUse" x1="-454.287" y1="-1273.8534" x2="-368.9852" y2="-1260.8983" gradientTransform="matrix(0.4771 0.9103 0.9103 -0.4771 1077.3794 -1486.8014)">
			<stop  offset="0" style="stop-color:#504416"/>
			<stop  offset="0.4714" style="stop-color:#E9DDAF"/>
			<stop  offset="1" style="stop-color:#28220B"/>
		</linearGradient>
		<path id="path12332" class="st54" d="M-281.1-1262.2c-3.8,2-11.9-5.7-17.9-17.3c-6.1-11.6-7.9-22.6-4-24.6
			c3.8-2,11.9,5.7,17.9,17.3C-279.1-1275.2-277.3-1264.2-281.1-1262.2z"/>
		<g id="g12334" transform="matrix(0.55639136,-0.23732963,0.23732963,0.55639136,-163.06081,-1580.1924)">
			<path id="path12336" class="st8" d="M-393.9,329l241.1-15.1c4.5,1.2,16.2,1.3,18.6,9.9L-369,341.4
				C-370,326.6-391,328.6-393.9,329z"/>
			
				<linearGradient id="path12338_1_" gradientUnits="userSpaceOnUse" x1="-679.2506" y1="121.6344" x2="-335.0977" y2="121.6344" gradientTransform="matrix(1.2367 0.5275 0.5275 -1.2367 382.3208 837.307)">
				<stop  offset="0" style="stop-color:#E8DCAE"/>
				<stop  offset="0.5603" style="stop-color:#28220B"/>
				<stop  offset="1" style="stop-color:#28220B"/>
			</linearGradient>
			<path id="path12338" class="st55" d="M-393.6,329l240.8-15.1c4.5,1.2,12-1.9,19.4,10c0,0-93.5,7.1-97.7,8.1
				c-3.2,0.7-4.2,1-6.9,1.5c1.7-0.2-12.1,1.4-12.1,1.4l-9.3,0.5c-4.4,0.5-6.7-0.8-11.6-0.5l-104.6,8.3
				C-380.6,329.8-390.7,328.6-393.6,329L-393.6,329z"/>
		</g>
		<path id="path12340" class="st10" d="M-236.2-1337.9c0.3-0.3,8.6-4.3,8.6-4.3s2.3-0.8,5.8,2c4.8,3.8,3.4,2.8,3.4,2.8
			s4.7,4.9,6.5,8.8c1.9,3.8,2.6,5.4,4,10.7c0.6,2.9,0.7,5.9,0.5,8.1c-0.4,1.8-0.5,4.1-1.7,5.7c-0.3,0.4-0.3,0.5-0.3,0.5
			s13.1,0.6,12.8,0.7c-0.1,0.1-8,1.9-8.7,2.6c-0.8,0.7,0.3,4.9,0.3,4.9l-12-3.9c0,0,0.3-0.3,0.6-0.7c0.8-1.1,2-2,2.6-4.4
			c0.8-3.1,0.5-7.4-0.2-9.9c-1-3.4-2.4-7.3-4.4-10.9c-1.6-3-6-9-8.5-10.8c-2.4-1.8-4.3-2.7-6.1-2.7c-0.7,0-1.9,0.2-2.5,0.5
			C-235.8-1338.1-236.2-1337.9-236.2-1337.9L-236.2-1337.9z"/>
		
			<linearGradient id="path12342_1_" gradientUnits="userSpaceOnUse" x1="-426.3074" y1="-1380.9414" x2="-427.3251" y2="-1370.373" gradientTransform="matrix(1.6356 -0.6977 -0.6977 -1.6356 -471.7632 -3854.6003)">
			<stop  offset="0" style="stop-color:#FF2A2A"/>
			<stop  offset="0.9626" style="stop-color:#550000"/>
			<stop  offset="1" style="stop-color:#FF2A2A;stop-opacity:0"/>
		</linearGradient>
		<path id="path12342" class="st56" d="M-216.7-1299.3l7.3-4.2l12.2,0.8l-7.8,2.1c0,0-0.3-0.2-0.6,0.6c-0.3,0.8,0,3.7,0.2,4
			c0.1,0.3,0.2,0.6,0.2,0.6L-216.7-1299.3z"/>
		
			<linearGradient id="path12344_1_" gradientUnits="userSpaceOnUse" x1="-428.2987" y1="-1352.1619" x2="-425.7936" y2="-1423.2438" gradientTransform="matrix(1.6356 -0.6977 -0.6977 -1.6356 -471.7632 -3854.6003)">
			<stop  offset="0" style="stop-color:#550000"/>
			<stop  offset="0.3374" style="stop-color:#FF0000;stop-opacity:0.5608"/>
			<stop  offset="0.5543" style="stop-color:#FF0000"/>
			<stop  offset="1" style="stop-color:#FF0000;stop-opacity:0"/>
		</linearGradient>
		<path id="path12344" class="st57" d="M-236-1338c0.3-0.3,8.6-4.3,8.6-4.3s2.3-0.8,5.8,2c4.8,3.8,3.4,2.8,3.4,2.8s4.7,4.9,6.5,8.8
			c1.9,3.8,2.6,5.4,4,10.7c0.6,2.9,0.7,5.9,0.5,8.1c-0.4,1.8-0.5,4.1-1.7,5.7c-0.3,0.4-0.3,0.5-0.3,0.5s-2.1,1.2-2.7,1.6
			c-3.1,1.8-2.4,1.3-4,2.2l-0.9,0.5c0,0,0.3-0.3,0.6-0.7c0.8-1.1,2-2,2.6-4.4c0.8-3.1,0.5-7.4-0.2-9.9c-1-3.4-2.4-7.3-4.4-10.9
			c-1.6-3-6-9-8.5-10.8c-2.4-1.8-4.3-2.7-6.1-2.7c-0.7,0-1.9,0.2-2.5,0.5C-235.6-1338.2-236-1338-236-1338L-236-1338z"/>
		<path id="path12346" d="M-369.6-1461l87.5-28l88.3,27.5l-87.5,28L-369.6-1461z"/>
		
			<linearGradient id="path12348_1_" gradientUnits="userSpaceOnUse" x1="-550.4145" y1="-1312.3013" x2="-537.3506" y2="-1368.985" gradientTransform="matrix(3.0335 0 0 -3.0335 1379.5468 -5478.2925)">
			<stop  offset="0" style="stop-color:#C8BEB7"/>
			<stop  offset="1" style="stop-color:#C8BEB7;stop-opacity:0"/>
		</linearGradient>
		<path id="path12348" class="st58" d="M-361.9-1461.6c26.8,8.4,53.5,16.7,80.3,25.1c26.5-8.5,53-17,79.6-25.5
			c-26.8-8.4-53.5-16.7-80.3-25.1C-308.8-1478.6-335.3-1470.1-361.9-1461.6L-361.9-1461.6z"/>
		
			<linearGradient id="path12350_1_" gradientUnits="userSpaceOnUse" x1="-548.4225" y1="-1312.5286" x2="-545.7655" y2="-1364.5625" gradientTransform="matrix(2.9397 0 0 -2.9397 1328.0746 -5355.4048)">
			<stop  offset="0" style="stop-color:#C8BEB7"/>
			<stop  offset="1" style="stop-color:#C8BEB7;stop-opacity:0"/>
		</linearGradient>
		<path id="path12350" class="st59" d="M-353.2-1462.2c23.7,7.4,47.4,14.8,71.1,22.2c23.5-7.5,47-15,70.5-22.6
			c-23.7-7.4-47.4-14.8-71.1-22.2C-306.2-1477.2-329.7-1469.7-353.2-1462.2z"/>
		<path id="path12352" class="st20" d="M-288.4-1461.9c-0.2,1.1-1.8,1.9,1.1,2.2c14.5,1.8,58,7.2,60.3,7.5c2.8,1.5,5.5,3.7,6,7.7
			c0.6,5.6-2.4,29.9-2.4,29.9l1.8,3.1h3l0.6-35.7c-0.5-3-3.1-4.7-6-6.6c-20.4-3.2-41.7-5.9-63.7-8.3L-288.4-1461.9z"/>
		<path id="path12354" class="st21" d="M-221.3-1417c-4.5,22-4.9,22.8-4.9,22.8"/>
		<path id="path12356" class="st22" d="M-217.9-1416.6c-0.9,23.3-1,24.2-1,24.2"/>
		<path id="path12358" class="st23" d="M-219.7-1416.9c-1.7,19.1-1.9,19.8-1.9,19.8"/>
		<path id="path12360" class="st24" d="M-222.4-1417.5c-3.9,15.4-4.4,16-4.4,16"/>
		<path id="path12362" class="st25" d="M-220.5-1416.4c-2.9,19.2-3.2,19.9-3.2,19.9"/>
		<path id="path12364" class="st26" d="M-218.7-1416.6c-1,18.7-1.1,19.4-1.1,19.4"/>
		<path id="path12366" class="st27" d="M-221-1416.8c-2.7,22.3-3,23.2-3,23.2"/>
		<path id="path12368" class="st28" d="M-217.6-1416.6c1,23.3,1,24.2,1,24.2"/>
		<path id="path12370" class="st29" d="M-219.4-1416.8c-0.2,19.2-0.3,19.9-0.3,19.9"/>
		<path id="path12372" class="st30" d="M-222.1-1417.1c-2.7,15.7-3.1,16.3-3.1,16.3"/>
		<path id="path12374" class="st31" d="M-220.1-1416.2c-1.3,19.4-1.6,20.1-1.6,20.1"/>
		<path id="path12376" class="st32" d="M-218.4-1416.5c0.5,18.7,0.5,19.4,0.5,19.4"/>
		<path id="path12378" class="st33" d="M-220.4-1416.8c-7.3,21.2-7.8,22-7.8,22"/>
		<path id="path12380" class="st34" d="M-217.1-1415.9c-3.9,23-4.1,23.8-4.1,23.8"/>
		<path id="path12382" class="st35" d="M-218.8-1416.5c-4.1,18.7-4.4,19.4-4.4,19.4"/>
		<path id="path12384" class="st36" d="M-221.4-1417.4c-5.9,14.8-6.4,15.3-6.4,15.3"/>
		<path id="path12386" class="st37" d="M-219.7-1416.1c-5.3,18.7-5.8,19.4-5.8,19.4"/>
		<path id="path12388" class="st38" d="M-217.9-1416c-3.4,18.4-3.6,19.1-3.6,19.1"/>
		<path id="path12390" class="st39" d="M-221.1-1416.3c-2.1,17.7-2.4,18.4-2.4,18.4"/>
		<path id="path12393" class="st40" d="M-217.7-1416.5c1.6,18.1,1.6,18.8,1.6,18.8"/>
		<path id="path12395" class="st41" d="M-219.5-1416.5c0.4,15.1,0.2,15.6,0.2,15.6"/>
		<path id="path12397" class="st42" d="M-222.2-1416.4c-2.2,12.6-2.6,13.1-2.6,13.1"/>
		<path id="path12399" class="st43" d="M-220.2-1415.9c-0.8,15.3-1.1,15.9-1.1,15.9"/>
		<path id="path12401" class="st44" d="M-218.5-1416.3c1,14.6,1,15.2,1,15.2"/>
		<path id="path12403" class="st21" d="M-220.6-1415.3c-2.9,22-3.3,22.8-3.3,22.8"/>
		<path id="path12405" class="st22" d="M-217.2-1414.9c0.8,23.3,0.7,24.2,0.7,24.2"/>
		<path id="path12407" class="st23" d="M-219-1415.2c-0.3,19.1-0.5,19.8-0.5,19.8"/>
		<path id="path12409" class="st24" d="M-221.7-1415.7c-2.8,15.4-3.3,16-3.3,16"/>
		<path id="path12411" class="st25" d="M-219.7-1414.6c-1.5,19.2-1.8,19.9-1.8,19.9"/>
		<path id="path12413" class="st26" d="M-218-1414.9c0.3,18.7,0.3,19.4,0.3,19.4"/>
		<path id="path12415" class="st27" d="M-220.3-1415.1c-1.1,22.3-1.4,23.2-1.4,23.2"/>
		<path id="path12417" class="st28" d="M-216.9-1414.9c2.7,23.3,2.7,24.2,2.7,24.2"/>
		<path id="path12419" class="st29" d="M-218.7-1415.1c1.2,19.2,1.1,19.9,1.1,19.9"/>
		<path id="path12421" class="st30" d="M-221.4-1415.4c-1.5,15.7-1.9,16.3-1.9,16.3"/>
		<path id="path12423" class="st31" d="M-219.4-1414.5c0.1,19.4-0.2,20.1-0.2,20.1"/>
		<path id="path12425" class="st32" d="M-217.7-1414.8c1.9,18.7,1.9,19.4,1.9,19.4"/>
		<path id="path12427" class="st33" d="M-219.7-1415.1c-5.7,21.2-6.2,22-6.2,22"/>
		<path id="path12429" class="st34" d="M-216.4-1414.2c-2.2,23-2.4,23.8-2.4,23.8"/>
		<path id="path12431" class="st35" d="M-218.1-1414.8c-2.8,18.7-3,19.4-3,19.4"/>
		<path id="path12433" class="st36" d="M-220.8-1415.7c-4.8,14.8-5.3,15.3-5.3,15.3"/>
		<path id="path12436" class="st37" d="M-218.9-1414.3c-4,18.7-4.4,19.4-4.4,19.4"/>
		<path id="path12438" class="st38" d="M-217.1-1414.3c-2.1,18.4-2.2,19.1-2.2,19.1"/>
		<path id="path12440" class="st39" d="M-220.2-1415.2c-0.8,17.7-1.1,18.4-1.1,18.4"/>
		<path id="path12442" class="st40" d="M-217-1414.7c2.9,18.1,2.9,18.8,2.9,18.8"/>
		<path id="path12444" class="st41" d="M-218.7-1414.7c1.4,15.1,1.4,15.6,1.4,15.6"/>
		<path id="path12446" class="st42" d="M-221.3-1415.3c-1.3,12.6-1.7,13.1-1.7,13.1"/>
		<path id="path12448" class="st43" d="M-219-1414.9c0.3,15.3,0.1,15.9,0.1,15.9"/>
		<path id="path12450" class="st44" d="M-217.7-1414.6c2.1,14.6,2.1,15.2,2.1,15.2"/>
		<path id="path12452" class="st45" d="M-288.2-1461.3c3,0.2-0.2,0.3,3.4,0.7c15.5,1.9,56.8,7.1,59.1,7.3c3.3,2.7,4.3,3.4,5.3,6.6
			c1.4,4.3-0.9,20.9-1.4,27.3c0,0.3,0,0.3-0.1,0.5c-0.1,1.2-1.2,1-1.2,1c-1.1,1.4-0.9,3.7-0.5,3.5c2-1,3.1-0.7,3.7-0.6
			c1.3,0,2.1,0.4,2.6,2.4c0.8-1,0.7-3.1,0.7-3.1l-0.9-2.2l0.6-30.4c-0.5-3-3.1-4.7-6-6.6c-20.4-3.2-41.7-5.9-63.7-8.3L-288.2-1461.3
			z"/>
		<g id="path12454" class="st46">
			<polygon class="st47" points="-255.9,-1442.2 -229.3,-1433.4 -227.3,-1410.3 -230.4,-1404.4 -229.3,-1401.9 -231.3,-1396.2 
				-233.3,-1392.9 -233.1,-1397.7 -233.7,-1394.2 -234.2,-1397.5 -236.8,-1393.7 -236.2,-1398.4 -237.7,-1397.5 -235.7,-1402.8 
				-232,-1408.1 -232,-1413.2 -229.8,-1420.5 -230.9,-1429.8 -238.4,-1434.3 -257.4,-1439.8 -259.2,-1442.2 			"/>
		</g>
		<path id="path12456" class="st21" d="M-221.3-1417c-4.5,22-4.9,22.8-4.9,22.8"/>
		<path id="path12458" class="st22" d="M-217.9-1416.6c-0.9,23.3-1,24.2-1,24.2"/>
		<path id="path12460" class="st23" d="M-219.7-1416.9c-1.7,19.1-1.9,19.8-1.9,19.8"/>
		<path id="path12462" class="st24" d="M-222.4-1417.5c-3.9,15.4-4.4,16-4.4,16"/>
		<path id="path12464" class="st25" d="M-220.5-1416.4c-2.9,19.2-3.2,19.9-3.2,19.9"/>
		<path id="path12466" class="st26" d="M-218.7-1416.6c-1,18.7-1.1,19.4-1.1,19.4"/>
		<path id="path12468" class="st27" d="M-221-1416.8c-2.7,22.3-3,23.2-3,23.2"/>
		<path id="path12470" class="st28" d="M-217.6-1416.6c1,23.3,1,24.2,1,24.2"/>
		<path id="path12472" class="st29" d="M-219.4-1416.8c-0.2,19.2-0.3,19.9-0.3,19.9"/>
		<path id="path12474" class="st30" d="M-222.1-1417.1c-2.7,15.7-3.1,16.3-3.1,16.3"/>
		<path id="path12476" class="st31" d="M-220.1-1416.2c-1.3,19.4-1.6,20.1-1.6,20.1"/>
		<path id="path12478" class="st32" d="M-218.4-1416.5c0.5,18.7,0.5,19.4,0.5,19.4"/>
		<path id="path12480" class="st33" d="M-220.4-1416.8c-7.3,21.2-7.8,22-7.8,22"/>
		<path id="path12482" class="st34" d="M-217.1-1415.9c-3.9,23-4.1,23.8-4.1,23.8"/>
		<path id="path12484" class="st35" d="M-218.8-1416.5c-4.1,18.7-4.4,19.4-4.4,19.4"/>
		<path id="path12486" class="st36" d="M-221.4-1417.4c-5.9,14.8-6.4,15.3-6.4,15.3"/>
		<path id="path12488" class="st37" d="M-219.7-1416.1c-5.3,18.7-5.8,19.4-5.8,19.4"/>
		<path id="path12490" class="st38" d="M-217.9-1416c-3.4,18.4-3.6,19.1-3.6,19.1"/>
		<path id="path12492" class="st39" d="M-221.1-1416.3c-2.1,17.7-2.4,18.4-2.4,18.4"/>
		<path id="path12494" class="st40" d="M-217.7-1416.5c1.6,18.1,1.6,18.8,1.6,18.8"/>
		<path id="path12496" class="st41" d="M-219.5-1416.5c0.4,15.1,0.2,15.6,0.2,15.6"/>
		<path id="path12498" class="st42" d="M-222.2-1416.4c-2.2,12.6-2.6,13.1-2.6,13.1"/>
		<path id="path12500" class="st43" d="M-220.2-1415.9c-0.8,15.3-1.1,15.9-1.1,15.9"/>
		<path id="path12502" class="st44" d="M-218.5-1416.3c1,14.6,1,15.2,1,15.2"/>
		<path id="path12504" class="st21" d="M-220.6-1415.3c-2.9,22-3.3,22.8-3.3,22.8"/>
		<path id="path12506" class="st22" d="M-217.2-1414.9c0.8,23.3,0.7,24.2,0.7,24.2"/>
		<path id="path12508" class="st23" d="M-219-1415.2c-0.3,19.1-0.5,19.8-0.5,19.8"/>
		<path id="path12510" class="st24" d="M-221.7-1415.7c-2.8,15.4-3.3,16-3.3,16"/>
		<path id="path12512" class="st25" d="M-219.7-1414.6c-1.5,19.2-1.8,19.9-1.8,19.9"/>
		<path id="path12514" class="st26" d="M-218-1414.9c0.3,18.7,0.3,19.4,0.3,19.4"/>
		<path id="path12516" class="st27" d="M-220.3-1415.1c-1.1,22.3-1.4,23.2-1.4,23.2"/>
		<path id="path12518" class="st28" d="M-216.9-1414.9c2.7,23.3,2.7,24.2,2.7,24.2"/>
		<path id="path12520" class="st29" d="M-218.7-1415.1c1.2,19.2,1.1,19.9,1.1,19.9"/>
		<path id="path12522" class="st30" d="M-221.4-1415.4c-1.5,15.7-1.9,16.3-1.9,16.3"/>
		<path id="path12524" class="st31" d="M-219.4-1414.5c0.1,19.4-0.2,20.1-0.2,20.1"/>
		<path id="path12526" class="st32" d="M-217.7-1414.8c1.9,18.7,1.9,19.4,1.9,19.4"/>
		<path id="path12528" class="st33" d="M-219.7-1415.1c-5.7,21.2-6.2,22-6.2,22"/>
		<path id="path12530" class="st34" d="M-216.4-1414.2c-2.2,23-2.4,23.8-2.4,23.8"/>
		<path id="path12532" class="st35" d="M-218.1-1414.8c-2.8,18.7-3,19.4-3,19.4"/>
		<path id="path12534" class="st36" d="M-220.8-1415.7c-4.8,14.8-5.3,15.3-5.3,15.3"/>
		<path id="path12536" class="st37" d="M-218.9-1414.3c-4,18.7-4.4,19.4-4.4,19.4"/>
		<path id="path12538" class="st38" d="M-217.1-1414.3c-2.1,18.4-2.2,19.1-2.2,19.1"/>
		<path id="path12540" class="st39" d="M-220.2-1415.2c-0.8,17.7-1.1,18.4-1.1,18.4"/>
		<path id="path12542" class="st40" d="M-217-1414.7c2.9,18.1,2.9,18.8,2.9,18.8"/>
		<path id="path12544" class="st41" d="M-218.7-1414.7c1.4,15.1,1.4,15.6,1.4,15.6"/>
		<path id="path12546" class="st42" d="M-221.3-1415.3c-1.3,12.6-1.7,13.1-1.7,13.1"/>
		<path id="path12548" class="st43" d="M-219-1414.9c0.3,15.3,0.1,15.9,0.1,15.9"/>
		<path id="path12550" class="st44" d="M-217.7-1414.6c2.1,14.6,2.1,15.2,2.1,15.2"/>
		<g id="path12552" class="st46">
			<polygon class="st47" points="-255.9,-1442.2 -229.3,-1433.4 -227.3,-1410.3 -230.4,-1404.4 -229.3,-1401.9 -231.3,-1396.2 
				-233.3,-1392.9 -233.1,-1397.7 -233.7,-1394.2 -234.2,-1397.5 -236.8,-1393.7 -236.2,-1398.4 -237.7,-1397.5 -235.7,-1402.8 
				-232,-1408.1 -232,-1413.2 -229.8,-1420.5 -230.9,-1429.8 -238.4,-1434.3 -257.4,-1439.8 -259.2,-1442.2 			"/>
		</g>
	</g>
</g>
</svg>
