<?xml version="1.0" encoding="utf-8"?>
<!-- Generator: Adobe Illustrator 19.2.1, SVG Export Plug-In . SVG Version: 6.00 Build 0)  -->
<svg version="1.1" id="Layer_1" xmlns="http://www.w3.org/2000/svg" xmlns:xlink="http://www.w3.org/1999/xlink" x="0px" y="0px"
	 viewBox="0 0 512 512" style="enable-background:new 0 0 512 512;" xml:space="preserve">
<style type="text/css">
	.st0{fill:none;stroke:#ED7625;stroke-width:5.6693;}
	.st1{fill:#FFFFFF;}
	.st2{fill:none;stroke:#00205C;stroke-width:4;stroke-linecap:round;stroke-linejoin:round;stroke-miterlimit:10;}
	.st3{fill:#FFFFFF;stroke:#00205C;stroke-width:4;stroke-linecap:round;stroke-linejoin:round;stroke-miterlimit:10;}
	.st4{fill:#00205C;stroke:#00205C;stroke-width:4;stroke-linecap:round;stroke-linejoin:round;stroke-miterlimit:10;}
	.st5{fill:#00205C;}
	.st6{opacity:0.99;fill:#00205C;enable-background:new    ;}
</style>
<g>
	<circle class="st0" cx="256.3" cy="256.1" r="252.2"/>
</g>
<circle class="st1" cx="255.2" cy="415.1" r="35"/>
<circle class="st2" cx="255.2" cy="415.1" r="36.2"/>
<path class="st2" d="M218.9,311.1L196.4,345l24.9,56.5 M289.1,401.5l26-56.5l-22.6-33.9"/>
<line class="st2" x1="246.2" y1="378.9" x2="218.7" y2="311.5"/>
<line class="st2" x1="265.4" y1="378.9" x2="292.9" y2="311.5"/>
<polyline class="st3" points="202.1,337.1 225.8,391.4 238.2,382.3 213.4,320.1 "/>
<polyline class="st3" points="309.5,337.1 284.6,391.4 273.3,382.3 298.2,320.1 "/>
<polygon class="st4" points="233,345 278.9,345 292.5,311.1 218.9,311.1 "/>
<path class="st5" d="M263.7,415.1l11-16.9l3-2.7h-19.4l4.7,2.7l-7.2,10.8l-7.2-10.8l4.7-2.7h-19.4l3,2.7l11,16.9l-10.9,16.8l-3,2.8
	h19.4l-4.7-2.7l7.2-10.8L263,432l-4.7,2.7h19.4l-3-2.8L263.7,415.1z"/>
<g>
	<path class="st6" d="M255.8,73c-1.7,0-3.4,0.3-4.7,0.9L92.7,143.5c-2.6,1.1-2.6,3,0,4.2L251,217.3c2.6,1.2,6.8,1.2,9.5,0
		l158.4-69.6c2.6-1.1,2.6-3,0-4.2L260.5,73.9C259.2,73.3,257.5,73,255.8,73z"/>
	<path class="st6" d="M376.2,174.7l-7.7,3.4v35c-3.2,1.5-5.2,4.7-5.2,8.2c0,3,1.5,5.9,4.1,7.5l-4.3,17.6h18.6l-4.3-17.6
		c2.5-1.7,4.1-4.5,4.1-7.5c0-3.5-2-6.7-5.2-8.2L376.2,174.7L376.2,174.7z"/>
	<path class="st6" d="M160.4,185.7v40c0,34.4,42.5,62.1,95.4,62.1s95.4-27.7,95.4-62.1v-40l-90.6,39.9c-2.6,1.2-6.9,1.2-9.5,0
		L160.4,185.7z"/>
</g>
</svg>
