<?xml version="1.0" encoding="utf-8"?>
<!-- Generator: Adobe Illustrator 16.0.0, SVG Export Plug-In . SVG Version: 6.00 Build 0)  -->
<!DOCTYPE svg PUBLIC "-//W3C//DTD SVG 1.1//EN" "http://www.w3.org/Graphics/SVG/1.1/DTD/svg11.dtd">
<svg version="1.1" id="Layer_1" xmlns="http://www.w3.org/2000/svg" xmlns:xlink="http://www.w3.org/1999/xlink" x="0px" y="0px"
	 width="160px" height="160px" viewBox="-48 -48.5 160 160" enable-background="new -48 -48.5 160 160" xml:space="preserve">
<g>
	<g>
		<circle fill="#FFFFFF" cx="31.771" cy="93.35" r="14.138"/>
		
			<circle fill="none" stroke="#0C2340" stroke-width="4" stroke-linecap="round" stroke-linejoin="round" stroke-miterlimit="10" cx="31.771" cy="93.349" r="14.632"/>
		<path fill="none" stroke="#0C2340" stroke-width="4" stroke-linecap="round" stroke-linejoin="round" stroke-miterlimit="10" d="
			M17.093,51.283L7.995,65l10.059,22.861 M45.488,87.861L56.005,65l-9.146-13.717"/>
		
			<line fill="none" stroke="#0C2340" stroke-width="4" stroke-linecap="round" stroke-linejoin="round" stroke-miterlimit="10" x1="28.113" y1="78.717" x2="17.002" y2="51.467"/>
		
			<line fill="none" stroke="#0C2340" stroke-width="4" stroke-linecap="round" stroke-linejoin="round" stroke-miterlimit="10" x1="35.886" y1="78.717" x2="46.997" y2="51.467"/>
		
			<polyline fill="#FFFFFF" stroke="#0C2340" stroke-width="4" stroke-linecap="round" stroke-linejoin="round" stroke-miterlimit="10" points="
			10.281,61.799 19.883,83.748 24.913,80.09 14.853,54.939 		"/>
		
			<polyline fill="#FFFFFF" stroke="#0C2340" stroke-width="4" stroke-linecap="round" stroke-linejoin="round" stroke-miterlimit="10" points="
			53.719,61.799 43.659,83.748 39.086,80.09 49.146,54.939 		"/>
		
			<polygon fill="#0C2340" stroke="#0C2340" stroke-width="4" stroke-linecap="round" stroke-linejoin="round" stroke-miterlimit="10" points="
			22.809,65 41.373,65 46.859,51.283 17.093,51.283 		"/>
	</g>
	<path fill="#0C2340" d="M35.201,93.348l4.442-6.818l1.206-1.109h-7.83l1.89,1.092l-2.908,4.363l-2.909-4.363l1.891-1.092H23.15
		l1.2,1.096l4.451,6.832l-4.421,6.787l-1.229,1.141h7.832l-1.891-1.09l2.909-4.363l2.908,4.363l-1.89,1.09h7.83l-1.226-1.137
		L35.201,93.348z"/>
	<g>
		<path opacity="0.99" fill="#0C2340" enable-background="new    " d="M32.001-44.981c-0.692,0-1.382,0.115-1.913,0.348
			l-64.035,28.162c-1.06,0.465-1.06,1.215,0,1.68L30.088,13.37c1.06,0.466,2.766,0.466,3.825,0l64.035-28.161
			c1.058-0.465,1.058-1.215,0-1.68L33.913-44.633C33.383-44.866,32.691-44.981,32.001-44.981z"/>
		<path opacity="0.99" fill="#0C2340" enable-background="new    " d="M80.697-3.863l-3.129,1.377v14.153
			c-1.277,0.604-2.088,1.887-2.088,3.298c0,1.226,0.618,2.371,1.641,3.046l-1.746,7.132h7.519l-1.747-7.132
			c1.021-0.675,1.639-1.82,1.639-3.046c0-1.411-0.813-2.692-2.088-3.297V-3.863z"/>
		<path opacity="0.99" fill="#0C2340" enable-background="new    " d="M-6.558,0.595v16.158c0,13.91,17.197,25.11,38.559,25.11
			c21.362,0,38.557-11.2,38.557-25.11V0.595L33.913,16.71c-1.06,0.466-2.784,0.505-3.825,0L-6.558,0.595z"/>
	</g>
</g>
</svg>
