<?xml version="1.0" encoding="utf-8"?>
<!-- Generator: Adobe Illustrator 20.1.0, SVG Export Plug-In . SVG Version: 6.00 Build 0)  -->
<svg version="1.1" xmlns="http://www.w3.org/2000/svg" xmlns:xlink="http://www.w3.org/1999/xlink" x="0px" y="0px"
	 viewBox="0 0 48 48" enable-background="new 0 0 48 48" xml:space="preserve">
<g id="Layer_1" display="none">
	<path display="inline" d="M8.8,12.5c-1.5,1.1-2.5,2.8-2.5,4.8v0.6c0,2,1,3.7,2.5,4.8c-1.5,1.1-2.5,2.8-2.5,4.8v0.6
		c0,3.3,2.7,5.9,5.9,5.9H37c3.3,0,5.9-2.7,5.9-5.9v-0.6c0-2-1-3.7-2.5-4.8c1.5-1.1,2.5-2.8,2.5-4.8v-0.6c0-2-1-3.7-2.5-4.8
		 M40.7,27.5v0.6c0,2-1.7,3.7-3.7,3.7H12.3c-2,0-3.7-1.7-3.7-3.7v-0.6c0-2,1.7-3.7,3.7-3.7H37C39.1,23.8,40.7,25.5,40.7,27.5
		L40.7,27.5z M40.7,17.3v0.6c0,2-1.7,3.7-3.7,3.7H12.3c-2,0-3.7-1.7-3.7-3.7v-0.6c0-2,1.7-3.7,3.7-3.7H37
		C39.1,13.6,40.7,15.3,40.7,17.3L40.7,17.3z M37,11.4H12.3"/>
	<path display="inline" fill="#00AEEF" d="M34.6,6.3H24.3c-0.6,0-1.1,0.5-1.1,1.1c0,0.6,0.5,1.1,1.1,1.1h10.3c0.6,0,1.1-0.5,1.1-1.1
		C35.7,6.8,35.2,6.3,34.6,6.3L34.6,6.3z M34.6,6.3"/>
	<path display="inline" fill="#00AEEF" d="M17.1,7.4c0,0.6-0.5,1.2-1.2,1.2c-0.6,0-1.2-0.5-1.2-1.2c0-0.6,0.5-1.2,1.2-1.2
		C16.5,6.2,17.1,6.8,17.1,7.4L17.1,7.4z M17.1,7.4"/>
	<path display="inline" d="M24.3,18.7h10.3c0.6,0,1.1-0.5,1.1-1.1c0-0.6-0.5-1.1-1.1-1.1H24.3c-0.6,0-1.1,0.5-1.1,1.1
		C23.2,18.2,23.7,18.7,24.3,18.7L24.3,18.7z M24.3,18.7"/>
	<path display="inline" d="M17.1,17.6c0,0.6-0.5,1.2-1.2,1.2c-0.6,0-1.2-0.5-1.2-1.2c0-0.6,0.5-1.2,1.2-1.2
		C16.5,16.4,17.1,17,17.1,17.6L17.1,17.6z M17.1,17.6"/>
	<path display="inline" d="M24.3,28.9h10.3c0.6,0,1.1-0.5,1.1-1.1c0-0.6-0.5-1.1-1.1-1.1H24.3c-0.6,0-1.1,0.5-1.1,1.1
		C23.2,28.4,23.7,28.9,24.3,28.9L24.3,28.9z M24.3,28.9"/>
	<path display="inline" d="M17.1,27.8c0,0.6-0.5,1.2-1.2,1.2c-0.6,0-1.2-0.5-1.2-1.2c0-0.6,0.5-1.2,1.2-1.2
		C16.5,26.6,17.1,27.2,17.1,27.8L17.1,27.8z M17.1,27.8"/>
	<path display="inline" fill="#00AEEF" d="M28.1,43.9h9.4c0.5,1.4,1.8,2.4,3.4,2.4c2,0,3.6-1.6,3.6-3.6c0-2-1.6-3.6-3.6-3.6
		c-1.6,0-2.9,1-3.4,2.4h-9.4c-0.4-1.1-1.2-1.9-2.3-2.3v-2.4c0-0.6-0.5-1.1-1.1-1.1c-0.6,0-1.1,0.5-1.1,1.1v2.4
		c-1.1,0.4-1.9,1.2-2.3,2.3h-9.4c-0.5-1.4-1.8-2.4-3.4-2.4c-2,0-3.6,1.6-3.6,3.6c0,2,1.6,3.6,3.6,3.6c1.6,0,2.9-1,3.4-2.4h9.4
		c0.5,1.4,1.8,2.4,3.4,2.4C26.2,46.4,27.6,45.4,28.1,43.9L28.1,43.9z M40.9,41.5c0.7,0,1.3,0.6,1.3,1.3c0,0.7-0.6,1.3-1.3,1.3
		c-0.7,0-1.3-0.6-1.3-1.3C39.5,42.1,40.1,41.5,40.9,41.5L40.9,41.5z M8.4,44.1c-0.7,0-1.3-0.6-1.3-1.3c0-0.7,0.6-1.3,1.3-1.3
		c0.7,0,1.3,0.6,1.3,1.3C9.8,43.5,9.2,44.1,8.4,44.1L8.4,44.1z M24.7,44.1c-0.7,0-1.3-0.6-1.3-1.3c0-0.7,0.6-1.3,1.3-1.3
		c0.7,0,1.3,0.6,1.3,1.3C26,43.5,25.4,44.1,24.7,44.1L24.7,44.1z M24.7,44.1"/>
	<path display="inline" fill="#00AEEF" d="M34.6,6.3H24.3c-0.6,0-1.1,0.5-1.1,1.1c0,0.6,0.5,1.1,1.1,1.1h10.3c0.6,0,1.1-0.5,1.1-1.1
		C35.7,6.8,35.2,6.3,34.6,6.3L34.6,6.3z M34.6,6.3"/>
	<path display="inline" fill="#00AEEF" d="M17.1,7.4c0,0.6-0.5,1.2-1.2,1.2c-0.6,0-1.2-0.5-1.2-1.2c0-0.6,0.5-1.2,1.2-1.2
		C16.5,6.2,17.1,6.8,17.1,7.4L17.1,7.4z M17.1,7.4"/>
	<path display="inline" d="M24.3,18.7h10.3c0.6,0,1.1-0.5,1.1-1.1c0-0.6-0.5-1.1-1.1-1.1H24.3c-0.6,0-1.1,0.5-1.1,1.1
		C23.2,18.2,23.7,18.7,24.3,18.7L24.3,18.7z M24.3,18.7"/>
	<path display="inline" d="M17.1,17.6c0,0.6-0.5,1.2-1.2,1.2c-0.6,0-1.2-0.5-1.2-1.2c0-0.6,0.5-1.2,1.2-1.2
		C16.5,16.4,17.1,17,17.1,17.6L17.1,17.6z M17.1,17.6"/>
	<path display="inline" d="M24.3,28.9h10.3c0.6,0,1.1-0.5,1.1-1.1c0-0.6-0.5-1.1-1.1-1.1H24.3c-0.6,0-1.1,0.5-1.1,1.1
		C23.2,28.4,23.7,28.9,24.3,28.9L24.3,28.9z M24.3,28.9"/>
	<path display="inline" d="M17.1,27.8c0,0.6-0.5,1.2-1.2,1.2c-0.6,0-1.2-0.5-1.2-1.2c0-0.6,0.5-1.2,1.2-1.2
		C16.5,26.6,17.1,27.2,17.1,27.8L17.1,27.8z M17.1,27.8"/>
	<path display="inline" fill="none" stroke="#00AEEF" stroke-width="2.4606" stroke-miterlimit="10" d="M37,12.4H12.5
		c-2.7,0-5-2.2-5-5V7.2c0-2.7,2.2-5,5-5H37c2.7,0,5,2.2,5,5v0.3C42,10.2,39.7,12.4,37,12.4z"/>
</g>
<g id="Layer_2" display="none">
	<path display="inline" fill="#00AEEF" d="M41.3,9.5c-4-4-9.4-6.3-15.1-6.3c-5.8,0-11.2,2.3-15.3,6.4c-0.4,0.5-0.4,1.2,0,1.6
		c0.5,0.4,1.2,0.4,1.6,0c3.6-3.7,8.5-5.7,13.6-5.7c10.5,0,19.1,8.5,19.1,19.1c0,10.5-8.5,19.1-19.1,19.1S7.1,35.1,7.1,24.6v-0.2
		L9,26.2c0.2,0.2,0.5,0.3,0.8,0.3c0.3,0,0.6-0.1,0.8-0.3c0.5-0.5,0.5-1.2,0-1.6l-3.9-3.9c-0.5-0.5-1.2-0.5-1.6,0l-3.9,3.9
		c-0.5,0.5-0.5,1.2,0,1.6c0.2,0.2,0.5,0.3,0.8,0.3c0.3,0,0.6-0.1,0.8-0.3l1.9-1.9v0.2c0,5.7,2.2,11.1,6.3,15.1c4,4,9.4,6.3,15.1,6.3
		c5.7,0,11.1-2.2,15.1-6.3c4-4,6.2-9.4,6.2-15.1C47.6,18.9,45.3,13.5,41.3,9.5L41.3,9.5z M41.3,9.5"/>
	<rect x="1" y="3.2" display="inline" fill="none" width="46.6" height="42.9"/>
	<path display="inline" d="M26.2,12.1c-3.7,0-6.8,3-6.8,6.8v3.3h-2.1c-0.6,0-1.2,0.5-1.2,1.1v11.5c0,0.6,0.5,1.2,1.2,1.2h17.8
		c0.6,0,1.2-0.5,1.2-1.2V23.3c0-0.6-0.5-1.2-1.2-1.2H33v-3.3C33,15.2,29.9,12.1,26.2,12.1L26.2,12.1z M21.7,18.9
		c0-2.5,2-4.5,4.5-4.5c2.5,0,4.5,2,4.5,4.5v3.3h-9V18.9z M33.9,33.7H18.5v-9.2h15.5V33.7z M33.9,33.7"/>
	<rect x="1" y="3.2" display="inline" fill="none" width="46.6" height="42.9"/>
</g>
<g id="Layer_3" display="none">
	<g display="inline">
		<g>
			<path d="M41.3,1.9c-2.7,0-4.8,2.2-4.8,4.8c0,0.8,0.2,1.6,0.6,2.3l-7.9,7.9c-1.1-0.9-2.5-1.4-3.9-1.4c-1.5,0-2.8,0.5-3.9,1.4
				l-6.2-6.2c0.3-0.5,0.5-1,0.5-1.6c0-1.8-1.4-3.2-3.2-3.2c-1.8,0-3.2,1.4-3.2,3.2c0,1.8,1.4,3.2,3.2,3.2c0.6,0,1.1-0.2,1.6-0.5
				l6.2,6.2c-0.8,1.1-1.4,2.5-1.4,3.9c0,1.5,0.5,2.8,1.4,3.9L9.9,36.1c-0.9-0.8-2-1.3-3.2-1.3c-2.7,0-4.8,2.2-4.8,4.8
				c0,2.7,2.2,4.8,4.8,4.8c2.7,0,4.8-2.2,4.8-4.8c0-0.8-0.2-1.6-0.6-2.3l10.3-10.3c0.9,0.7,2,1.2,3.1,1.3v8.2c-2.3,0.4-4,2.4-4,4.7
				c0,2.7,2.2,4.8,4.8,4.8c2.7,0,4.8-2.2,4.8-4.8c0-2.4-1.7-4.4-4-4.7v-8.2c1.2-0.1,2.2-0.6,3.1-1.3l6.2,6.2c-0.3,0.5-0.5,1-0.5,1.6
				c0,1.8,1.4,3.2,3.2,3.2c1.8,0,3.2-1.4,3.2-3.2c0-1.8-1.4-3.2-3.2-3.2c-0.6,0-1.1,0.2-1.6,0.5l-6.2-6.2c0.8-1.1,1.4-2.5,1.4-3.9
				c0-1.5-0.5-2.8-1.4-3.9l7.8-7.8c0.9,0.8,2,1.3,3.2,1.3c2.7,0,4.8-2.2,4.8-4.8C46.1,4.1,43.9,1.9,41.3,1.9L41.3,1.9z M10.7,9.1
				c0-0.9,0.7-1.6,1.6-1.6c0.9,0,1.6,0.7,1.6,1.6c0,0.9-0.7,1.6-1.6,1.6C11.5,10.7,10.7,10,10.7,9.1L10.7,9.1z M6.7,42.9
				c-1.8,0-3.2-1.4-3.2-3.2c0-1.8,1.4-3.2,3.2-3.2c1.8,0,3.2,1.4,3.2,3.2C9.9,41.5,8.5,42.9,6.7,42.9L6.7,42.9z M28.4,41.3
				c0,1.8-1.4,3.2-3.2,3.2c-1.8,0-3.2-1.4-3.2-3.2c0-1.8,1.4-3.2,3.2-3.2C27,38.1,28.4,39.5,28.4,41.3L28.4,41.3z M25.2,26.8
				c-2.7,0-4.8-2.2-4.8-4.8c0-2.7,2.2-4.8,4.8-4.8c2.7,0,4.8,2.2,4.8,4.8C30,24.7,27.9,26.8,25.2,26.8L25.2,26.8z M39.7,34.9
				c0,0.9-0.7,1.6-1.6,1.6c-0.9,0-1.6-0.7-1.6-1.6c0-0.9,0.7-1.6,1.6-1.6C39,33.2,39.7,34,39.7,34.9L39.7,34.9z M41.3,9.9
				c-1.8,0-3.2-1.4-3.2-3.2c0-1.8,1.4-3.2,3.2-3.2c1.8,0,3.2,1.4,3.2,3.2C44.5,8.5,43.1,9.9,41.3,9.9L41.3,9.9z M41.3,9.9"/>
		</g>
		<circle fill="none" stroke="#00AEEF" stroke-width="1.7086" stroke-miterlimit="10" cx="41.3" cy="6.7" r="4"/>
		<circle fill="none" stroke="#00AEEF" stroke-width="2.0284" stroke-miterlimit="10" cx="25.3" cy="22" r="5.6"/>
	</g>
</g>
<g id="Layer_4" display="none">
	<g display="inline">
		<path fill="#2C2F33" d="M28.1,8.1V4.9c0-2.1-1.7-3.8-3.8-3.8h-0.7c-2.1,0-3.8,1.7-3.8,3.8v3.2c0,0.6,0.2,1.2,0.6,1.6v2.1
			c-0.8,0.4-2.6,1.4-4.2,2.8c-0.6,0.5-0.9,1.2-0.9,1.9v2.2c0,0.5,0.4,0.9,0.9,0.9c0.5,0,0.9-0.4,0.9-0.9v-2.2c0-0.2,0.1-0.4,0.2-0.5
			c1.9-1.5,3.9-2.6,4.3-2.8c0.4-0.2,0.6-0.6,0.6-1V9.3c0-0.3-0.2-0.6-0.4-0.8c-0.1-0.1-0.2-0.3-0.2-0.4V4.9c0-1.1,0.9-1.9,1.9-1.9
			h0.7c1.1,0,1.9,0.9,1.9,1.9v3.2c0,0.2-0.1,0.3-0.2,0.4c-0.3,0.2-0.4,0.5-0.4,0.8v3.1c0,0.4,0.2,0.8,0.6,1c0.4,0.2,2.4,1.2,4.3,2.8
			c0.1,0.1,0.2,0.3,0.2,0.5v2.2c0,0.5,0.4,0.9,0.9,0.9c0.5,0,0.9-0.4,0.9-0.9v-2.2c0-0.7-0.3-1.4-0.9-1.9c-1.6-1.4-3.4-2.3-4.2-2.8
			V9.7C27.9,9.2,28.1,8.7,28.1,8.1L28.1,8.1z M28.1,8.1"/>
		<path fill="#2C2F33" d="M42.6,42.3c-1.4-1.2-2.9-2-3.7-2.4v-1.8c0.4-0.4,0.6-0.9,0.6-1.5v-2.8c0-1.9-1.5-3.4-3.4-3.4h-0.6
			c-1.9,0-3.4,1.5-3.4,3.4v2.8c0,0.5,0.2,1.1,0.6,1.5v1.8c-0.8,0.4-2.3,1.3-3.7,2.4C28.3,42.7,28,43.4,28,44v1.9
			c0,0.5,0.4,0.9,0.9,0.9c0.5,0,0.9-0.4,0.9-0.9V44c0-0.1,0.1-0.2,0.1-0.3c1.7-1.4,3.4-2.3,3.8-2.4c0.4-0.2,0.6-0.5,0.6-0.9v-2.7
			c0-0.3-0.2-0.6-0.4-0.8c-0.1-0.1-0.1-0.2-0.1-0.3v-2.8c0-0.9,0.7-1.6,1.6-1.6H36c0.9,0,1.6,0.7,1.6,1.6v2.8c0,0.1-0.1,0.2-0.1,0.3
			c-0.3,0.2-0.4,0.5-0.4,0.8v2.7c0,0.4,0.2,0.8,0.6,0.9c0.3,0.2,2.1,1.1,3.8,2.4c0.1,0.1,0.1,0.2,0.1,0.3v1.9c0,0.5,0.4,0.9,0.9,0.9
			c0.5,0,0.9-0.4,0.9-0.9V44C43.4,43.4,43.1,42.7,42.6,42.3L42.6,42.3z M42.6,42.3"/>
		<path fill="#2C2F33" d="M19,42.2c-1.4-1.1-2.9-2-3.6-2.4V38c0.4-0.4,0.6-0.9,0.6-1.4v-2.7c0-1.9-1.5-3.4-3.4-3.4h-0.6
			c-1.9,0-3.4,1.5-3.4,3.4v2.7c0,0.5,0.2,1.1,0.6,1.4v1.7c-0.8,0.4-2.2,1.3-3.6,2.4c-0.5,0.4-0.8,1.1-0.8,1.7v1.9
			c0,0.5,0.4,0.9,0.9,0.9c0.5,0,0.9-0.4,0.9-0.9v-1.9c0-0.1,0.1-0.2,0.1-0.3c1.6-1.3,3.4-2.2,3.7-2.4c0.4-0.2,0.6-0.5,0.6-0.9v-2.6
			c0-0.3-0.2-0.6-0.4-0.8c-0.1-0.1-0.1-0.2-0.1-0.3v-2.7c0-0.9,0.7-1.5,1.5-1.5h0.6c0.9,0,1.5,0.7,1.5,1.5v2.7
			c0,0.1-0.1,0.2-0.1,0.3c-0.3,0.2-0.4,0.5-0.4,0.8v2.6c0,0.4,0.2,0.8,0.6,0.9c0.3,0.2,2.1,1.1,3.7,2.4c0.1,0.1,0.1,0.2,0.1,0.3v1.9
			c0,0.5,0.4,0.9,0.9,0.9c0.5,0,0.9-0.4,0.9-0.9v-1.9C19.8,43.2,19.5,42.6,19,42.2L19,42.2z M19,42.2"/>
		<path fill="#00AEEF" d="M35.7,29.2c0.5,0,0.9-0.4,0.9-0.9v-4c0-0.5-0.4-0.9-0.9-0.9H24.9v-3.1c0-0.5-0.4-0.9-0.9-0.9
			c-0.5,0-0.9,0.4-0.9,0.9v3.1H12.2c-0.5,0-0.9,0.4-0.9,0.9v4c0,0.5,0.4,0.9,0.9,0.9c0.5,0,0.9-0.4,0.9-0.9v-3.1h21.6v3.1
			C34.8,28.8,35.2,29.2,35.7,29.2L35.7,29.2z M35.7,29.2"/>
	</g>
</g>
<g id="Layer_5" display="none">
	<g display="inline">
		<g>
			<path d="M43.9,31.3H5.3c-0.4,0-0.7,0.3-0.7,0.7c0,0.4,0.3,0.7,0.7,0.7h38.6c0.4,0,0.7-0.3,0.7-0.7C44.6,31.6,44.3,31.3,43.9,31.3
				L43.9,31.3z M43.9,31.3"/>
			<path fill="#00AEEF" d="M12.3,28.8h3.9c0.4,0,0.7-0.3,0.7-0.7V17.4c0-0.4-0.3-0.7-0.7-0.7h-3.9c-0.4,0-0.7,0.3-0.7,0.7v10.7
				C11.5,28.5,11.9,28.8,12.3,28.8L12.3,28.8z M13,18.1h2.5v9.2H13V18.1z M13,18.1"/>
			<path fill="#00AEEF" d="M19.2,28.8h3.9c0.4,0,0.7-0.3,0.7-0.7V13.9c0-0.4-0.3-0.7-0.7-0.7h-3.9c-0.4,0-0.7,0.3-0.7,0.7v14.2
				C18.4,28.5,18.7,28.8,19.2,28.8L19.2,28.8z M19.9,14.7h2.5v12.7h-2.5V14.7z M19.9,14.7"/>
			<path fill="#00AEEF" d="M26,28.8H30c0.4,0,0.7-0.3,0.7-0.7V10.6c0-0.4-0.3-0.7-0.7-0.7H26c-0.4,0-0.7,0.3-0.7,0.7v17.5
				C25.3,28.5,25.6,28.8,26,28.8L26,28.8z M26.8,11.4h2.5v16h-2.5V11.4z M26.8,11.4"/>
			<path fill="#00AEEF" d="M32.9,28.8h3.9c0.4,0,0.7-0.3,0.7-0.7v-7.3c0-0.4-0.3-0.7-0.7-0.7h-3.9c-0.4,0-0.7,0.3-0.7,0.7v7.3
				C32.2,28.5,32.5,28.8,32.9,28.8L32.9,28.8z M33.7,21.5h2.5v5.8h-2.5V21.5z M33.7,21.5"/>
			<path fill="none" stroke="#000000" stroke-width="1.382" stroke-linecap="round" stroke-miterlimit="10" d="M42.1,38.3H6.6
				c-2.6,0-4.8-2.2-4.8-4.8V8.5c0-2.6,2.2-4.8,4.8-4.8h35.5c2.6,0,4.8,2.2,4.8,4.8v25.1C46.9,36.2,44.7,38.3,42.1,38.3z"/>
		</g>
		<g>
			
				<line fill="none" stroke="#000000" stroke-width="1.382" stroke-linecap="round" stroke-miterlimit="10" x1="12" y1="46.1" x2="36.6" y2="46.1"/>
			
				<line fill="none" stroke="#000000" stroke-width="1.382" stroke-linecap="round" stroke-miterlimit="10" x1="19.7" y1="39" x2="19.7" y2="45.9"/>
			
				<line fill="none" stroke="#000000" stroke-width="1.382" stroke-linecap="round" stroke-miterlimit="10" x1="28.8" y1="39" x2="28.8" y2="45.9"/>
		</g>
	</g>
</g>
<g id="Layer_6" display="none">
	<g display="inline">
		<path d="M46.6,9.7H21l-3.2-4.8c-0.2-0.2-0.4-0.4-0.7-0.4H1.4C1,4.5,0.6,4.9,0.6,5.4v33.8c0,2.4,1.9,4.3,4.3,4.3h38.2
			c2.4,0,4.3-1.9,4.3-4.3V10.6C47.4,10.1,47,9.7,46.6,9.7L46.6,9.7z M45.7,13.2H2.3v-1.7h43.4V13.2z M2.3,6.2h14.3l2.3,3.5H2.3V6.2z
			 M45.7,39.2c0,1.4-1.2,2.6-2.6,2.6H4.9c-1.4,0-2.6-1.2-2.6-2.6V14.9h43.4V39.2z M45.7,39.2"/>
		<path fill="#00AEEF" d="M14.5,32.2c1,0,1.9-0.4,2.5-1.1l8.8,4.2c0,0.1,0,0.2,0,0.3c0,1.9,1.6,3.5,3.5,3.5c1.9,0,3.5-1.6,3.5-3.5
			c0-1.3-0.7-2.4-1.7-3l0.8-6.6c1.5-0.4,2.7-1.7,2.7-3.4c0-1.9-1.6-3.5-3.5-3.5c-1.9,0-3.4,1.5-3.5,3.3l-10.4,4
			c-0.6-0.7-1.6-1.2-2.6-1.2c-1.9,0-3.5,1.6-3.5,3.5C11,30.7,12.5,32.2,14.5,32.2L14.5,32.2z M29.2,37.4c-1,0-1.7-0.8-1.7-1.7
			c0-1,0.8-1.7,1.7-1.7c1,0,1.7,0.8,1.7,1.7C30.9,36.7,30.2,37.4,29.2,37.4L29.2,37.4z M30.9,21c1,0,1.7,0.8,1.7,1.7
			c0,1-0.8,1.7-1.7,1.7c-1,0-1.7-0.8-1.7-1.7C29.2,21.7,30,21,30.9,21L30.9,21z M27.9,24.2c0.4,0.9,1.2,1.5,2.1,1.8l-0.7,6.2
			c0,0,0,0,0,0c-1.2,0-2.2,0.6-2.9,1.5l-8.5-4.1c0.1-0.3,0.1-0.6,0.1-0.9c0-0.2,0-0.5-0.1-0.7L27.9,24.2z M14.5,27
			c1,0,1.7,0.8,1.7,1.7c0,0.2,0,0.4-0.1,0.6c-0.1,0.1-0.2,0.2-0.2,0.3c0,0.1,0,0.1,0,0.2c-0.3,0.4-0.8,0.7-1.3,0.7
			c-1,0-1.7-0.8-1.7-1.7C12.7,27.8,13.5,27,14.5,27L14.5,27z M14.5,27"/>
	</g>
</g>
<g id="Layer_7" display="none">
	<g display="inline">
		<path fill="#00AEEF" d="M12.5,14.8c0,0.9,0.4,1.8,1,2.5c0.1,0.1,0.3,0.2,0.5,0.2c0.2,0,0.4-0.1,0.5-0.2c0.3-0.3,0.3-0.8,0-1.1
			c-0.4-0.4-0.6-0.9-0.6-1.4c0-0.5,0.2-1,0.6-1.4c0.7-0.7,1-1.5,1-2.5c0-0.9-0.4-1.8-1-2.5c-0.3-0.3-0.8-0.3-1.1,0
			c-0.3,0.3-0.3,0.8,0,1.1c0.4,0.4,0.6,0.9,0.6,1.4c0,0.5-0.2,1-0.6,1.4C12.8,13,12.5,13.9,12.5,14.8L12.5,14.8z M12.5,14.8"/>
		<path fill="#00AEEF" d="M29.3,14.8c0,0.9,0.4,1.8,1,2.5c0.1,0.1,0.3,0.2,0.5,0.2c0.2,0,0.4-0.1,0.5-0.2c0.3-0.3,0.3-0.8,0-1.1
			c-0.4-0.4-0.6-0.9-0.6-1.4c0-0.5,0.2-1,0.6-1.4c0.7-0.7,1-1.5,1-2.5c0-0.9-0.4-1.8-1-2.5c-0.3-0.3-0.8-0.3-1.1,0
			c-0.3,0.3-0.3,0.8,0,1.1c0.4,0.4,0.6,0.9,0.6,1.4c0,0.5-0.2,1-0.6,1.4C29.6,13,29.3,13.9,29.3,14.8L29.3,14.8z M29.3,14.8"/>
		<path fill="#00AEEF" d="M20.5,11.8c0,1.2,0.5,2.3,1.3,3.2c0.1,0.1,0.3,0.2,0.5,0.2c0.2,0,0.4-0.1,0.5-0.2c0.3-0.3,0.3-0.8,0-1.1
			c-0.6-0.6-0.9-1.3-0.9-2.1c0-0.8,0.3-1.5,0.9-2.1c0.8-0.8,1.3-2,1.3-3.2c0-1.2-0.5-2.3-1.3-3.2c-0.3-0.3-0.8-0.3-1.1,0
			c-0.3,0.3-0.3,0.8,0,1.1c0.6,0.6,0.9,1.3,0.9,2.1c0,0.8-0.3,1.5-0.9,2.1C21,9.5,20.5,10.7,20.5,11.8L20.5,11.8z M20.5,11.8"/>
		<path d="M36.9,33C37,33,37,33,36.9,33c5.7,0,10-3.9,10-9.1c0-0.4-0.3-0.8-0.8-0.8h-6.9c0-0.5,0-1,0-1.5c0-0.4-0.3-0.8-0.8-0.8
			H17.9V20c0-0.4-0.3-0.8-0.8-0.8c-0.4,0-0.8,0.3-0.8,0.8v0.8H6.4c-0.4,0-0.8,0.3-0.8,0.8c0,7.4,2.2,13.3,6.4,16.8H1.9
			c-0.4,0-0.8,0.3-0.8,0.8c0,1.2,5.5,3.2,5.5,3.2c3.1,1.1,8.4,2.5,15.8,2.5c14.2,0,20.8-4.9,21.1-5.1c0.3-0.2,0.4-0.5,0.3-0.9
			c-0.1-0.3-0.4-0.5-0.7-0.5H32.9C34.6,36.9,35.9,35.1,36.9,33L36.9,33z M45.3,24.6c-0.4,3.8-3.5,6.6-7.7,6.8c0.8-2,1.3-4.3,1.5-6.8
			H45.3z M22.5,43.2c-9,0-14.8-2-17.8-3.4h35.4C37.1,41.3,31.3,43.2,22.5,43.2L22.5,43.2z M14.6,38.3c-4.6-2.9-7.2-8.5-7.4-16h9.1
			v1.5h-1.5c-0.4,0-0.8,0.3-0.8,0.8v5.7c0,0.4,0.3,0.8,0.8,0.8h4.6c0.4,0,0.8-0.3,0.8-0.8v-5.7c0-0.4-0.3-0.8-0.8-0.8h-1.5v-1.5
			h19.8c-0.2,7.5-2.8,13.1-7.4,16H14.6z M18.7,25.4v4.2h-3.1v-4.2H18.7z M18.7,25.4"/>
	</g>
</g>
<g id="Layer_8" display="none">
	<g display="inline">
		<g>
			<path d="M2.3,11.8l0,34.5h1.2V13h11.2v33.4h1.2v-21h9.6v21h1.2v-28h12v28h1.2V17.2h-6.6v-2.9H32v2.9h-6.6v6.9h-4.2v-2.9H20v2.9
				h-4.2V11.8H9.6V9.3H8.5v2.5H2.3z M8.5,11.8"/>
			<path d="M27.7,19.9v4.2h9.6v-4.2H27.7z M33.1,21.1h3.1V23h-3.1V21.1z M28.9,21.1H32V23h-3.1V21.1z M28.9,23"/>
			<path d="M27.7,29.2v4.2h9.6v-4.2H27.7z M33.1,30.4h3.1v1.9h-3.1V30.4z M28.9,30.4H32v1.9h-3.1V30.4z M28.9,32.3"/>
			<path d="M27.7,38.5v4.2h9.6v-4.2H27.7z M33.1,39.6h3.1v1.9h-3.1V39.6z M28.9,39.6H32v1.9h-3.1V39.6z M28.9,41.5"/>
			<path d="M4.6,14.5v4.2h8.9v-4.2H4.6z M5.8,15.7h6.6v1.9H5.8V15.7z M5.8,17.6"/>
			<path d="M4.6,26.3v4.2h8.9v-4.2H4.6z M5.8,27.4h6.6v1.9H5.8V27.4z M5.8,29.4"/>
			<path d="M4.6,39.2v4.2h8.9v-4.2H4.6z M5.8,40.4h6.6v1.9H5.8V40.4z M5.8,42.3"/>
			<rect x="16.8" y="26.9" width="7.7" height="1.2"/>
			<rect x="16.8" y="33.1" width="7.7" height="1.2"/>
			<rect x="16.8" y="39.2" width="7.7" height="1.2"/>
		</g>
		<g>
			<path fill="#00AEEF" stroke="#00AEEF" stroke-width="0.5279" stroke-miterlimit="10" d="M35.6,1.6c-0.2,0-0.4,0.1-0.4,0.3
				c0,0.2,0.1,0.4,0.3,0.4c2.7,0.2,5.1,1.4,6.9,3.4c1.8,2,2.6,4.6,2.5,7.3c0,0.2,0.1,0.4,0.3,0.4c0.1,0,0.2,0,0.3-0.1
				c0.1-0.1,0.1-0.2,0.1-0.3c0.2-2.9-0.8-5.7-2.7-7.8C41.1,3.1,38.5,1.8,35.6,1.6L35.6,1.6z M35.6,1.6"/>
			<path fill="#00AEEF" stroke="#00AEEF" stroke-width="0.5279" stroke-miterlimit="10" d="M35.5,3.9c-0.2,0-0.4,0.1-0.4,0.3
				c0,0.2,0.1,0.4,0.3,0.4c4.3,0.3,7.6,4,7.3,8.3c0,0.2,0.1,0.4,0.3,0.4c0.1,0,0.2,0,0.3-0.1c0.1-0.1,0.1-0.2,0.1-0.3
				C43.8,8.3,40.2,4.2,35.5,3.9L35.5,3.9z M35.5,3.9"/>
			<path fill="#00AEEF" stroke="#00AEEF" stroke-width="0.5279" stroke-miterlimit="10" d="M35.3,6.1c-0.2,0-0.4,0.1-0.4,0.3
				c0,0.2,0.1,0.4,0.3,0.4c3.1,0.2,5.4,2.9,5.2,5.9c0,0.2,0.1,0.4,0.3,0.4c0.1,0,0.2,0,0.3-0.1c0.1-0.1,0.1-0.2,0.1-0.3
				c0.1-1.7-0.4-3.3-1.6-4.6C38.6,7,37,6.2,35.3,6.1L35.3,6.1z M35.3,6.1"/>
		</g>
	</g>
</g>
<g id="Layer_9" display="none">
	<g display="inline">
		<path d="M45.7,45H42V21.8c0-0.4-0.3-0.7-0.7-0.7h-4.5c-0.4,0-0.7,0.3-0.7,0.7V45h-1.5V32.2c0-0.4-0.3-0.7-0.7-0.7h-4.4
			c-0.4,0-0.7,0.3-0.7,0.7V45H27V27.7c0-0.4-0.3-0.7-0.7-0.7h-4.5c-0.4,0-0.7,0.3-0.7,0.7V45h-1.5V30.7c0-0.4-0.3-0.7-0.7-0.7h-4.5
			c-0.4,0-0.7,0.3-0.7,0.7V45H12v-8.2c0-0.4-0.3-0.7-0.7-0.7H6.8C6.4,36,6,36.3,6,36.7V45H2.3c-0.4,0-0.7,0.3-0.7,0.7
			c0,0.4,0.3,0.7,0.7,0.7h4.5c0.4,0,0.7-0.3,0.7-0.7v-8.2h3v8.2c0,0.4,0.3,0.7,0.7,0.7h3c0.4,0,0.7-0.3,0.7-0.7V31.5h3v14.2
			c0,0.4,0.3,0.7,0.7,0.7h3c0.4,0,0.7-0.3,0.7-0.7V28.5h3v17.2c0,0.4,0.3,0.7,0.7,0.7h3.1c0.4,0,0.7-0.3,0.7-0.7V33H33v12.7
			c0,0.4,0.3,0.7,0.7,0.7h3c0.4,0,0.7-0.3,0.7-0.7V22.5h3v23.2c0,0.4,0.3,0.7,0.7,0.7h4.5c0.4,0,0.7-0.3,0.7-0.7
			C46.5,45.3,46.1,45,45.7,45L45.7,45z M45.7,45"/>
		<path fill="#00AEEF" d="M4.5,30c1.7,0,3-1.3,3-3c0-0.4-0.1-0.7-0.2-1l14.7-14.7c0.5,0.5,1.2,0.7,1.9,0.7c0.6,0,1.1-0.2,1.5-0.4
			l3.4,3.4c-0.3,0.4-0.4,1-0.4,1.5c0,1.7,1.3,3,3,3c1.7,0,3-1.3,3-3c0-0.6-0.2-1.1-0.4-1.5L42,7.1c0.4,0.3,1,0.4,1.5,0.4
			c1.7,0,3-1.3,3-3c0-1.7-1.3-3-3-3c-1.7,0-3,1.3-3,3c0,0.6,0.2,1.1,0.4,1.5L33,13.9c-0.4-0.3-1-0.4-1.5-0.4c-0.6,0-1.1,0.2-1.5,0.4
			l-3.4-3.4c0.3-0.4,0.4-1,0.4-1.5c0-1.7-1.3-3-3-3c-1.7,0-3,1.3-3,3c0,0.4,0.1,0.7,0.2,1L6.5,24.7C6,24.3,5.3,24,4.5,24
			c-1.7,0-3,1.3-3,3C1.5,28.6,2.9,30,4.5,30L4.5,30z M43.5,3C44.3,3,45,3.7,45,4.5C45,5.4,44.3,6,43.5,6c-0.4,0-0.8-0.2-1-0.4
			c0,0,0,0,0,0c0,0,0,0,0,0c-0.3-0.3-0.4-0.6-0.4-1C42,3.7,42.6,3,43.5,3L43.5,3z M31.5,15c0.8,0,1.5,0.7,1.5,1.5
			c0,0.8-0.7,1.5-1.5,1.5c-0.8,0-1.5-0.7-1.5-1.5C30,15.7,30.7,15,31.5,15L31.5,15z M24,7.5c0.8,0,1.5,0.7,1.5,1.5
			c0,0.8-0.7,1.5-1.5,1.5c-0.8,0-1.5-0.7-1.5-1.5C22.5,8.2,23.2,7.5,24,7.5L24,7.5z M4.5,25.5C5.4,25.5,6,26.2,6,27
			c0,0.8-0.7,1.5-1.5,1.5C3.7,28.5,3,27.8,3,27C3,26.2,3.7,25.5,4.5,25.5L4.5,25.5z M4.5,25.5"/>
	</g>
</g>
<g id="Layer_10" display="none">
	<g display="inline">
		<path fill="#FFFFFF" stroke="#231F20" stroke-width="1.7294" stroke-miterlimit="10" d="M38.5,31.8c4.5,0,8.2-3.7,8.2-8.1
			c0-4.5-3.7-8.1-8.2-8.1l-0.9,0l-0.1-0.8c-0.7-4.7-4.8-8.3-9.6-8.3c-3.9,0-7.4,2.3-8.9,5.8l-0.4,1l-0.9-0.6
			c-1.7-1.1-3.7-1.7-5.7-1.7C6,11,1.3,15.7,1.3,21.4c0,5.7,4.6,10.3,10.3,10.4H38.5z"/>
		<path fill="#00AEEF" d="M26.8,39.6h7.6c0.4,1.1,1.5,2,2.8,2c1.6,0,2.9-1.3,2.9-2.9c0-1.6-1.3-2.9-2.9-2.9c-1.3,0-2.4,0.8-2.8,2
			h-7.6c-0.3-0.9-1-1.5-1.8-1.8V34c0-0.5-0.4-0.9-0.9-0.9c-0.5,0-0.9,0.4-0.9,0.9v1.9c-0.9,0.3-1.5,1-1.8,1.8h-7.7
			c-0.4-1.1-1.5-2-2.8-2c-1.6,0-2.9,1.3-2.9,2.9c0,1.6,1.3,2.9,2.9,2.9c1.3,0,2.4-0.8,2.8-2h7.7c0.4,1.1,1.5,2,2.8,2
			C25.3,41.5,26.4,40.7,26.8,39.6L26.8,39.6z M37.2,37.6c0.6,0,1.1,0.5,1.1,1.1c0,0.6-0.5,1.1-1.1,1.1c-0.6,0-1.1-0.5-1.1-1.1
			C36.1,38.1,36.6,37.6,37.2,37.6L37.2,37.6z M10.8,39.7c-0.6,0-1.1-0.5-1.1-1.1c0-0.6,0.5-1.1,1.1-1.1c0.6,0,1.1,0.5,1.1,1.1
			C11.9,39.2,11.4,39.7,10.8,39.7L10.8,39.7z M24,39.7c-0.6,0-1.1-0.5-1.1-1.1c0-0.6,0.5-1.1,1.1-1.1c0.6,0,1.1,0.5,1.1,1.1
			C25.1,39.2,24.6,39.7,24,39.7L24,39.7z M24,39.7"/>
	</g>
</g>
<g id="Layer_11" display="none">
	<g display="inline">
		<path fill="none" stroke="#1D1D1B" stroke-width="1.4086" stroke-miterlimit="10" d="M7.7,25.8h32.6c0.7,0,1.4-0.6,1.4-1.4
			c0-0.8-0.6-1.4-1.4-1.4h-0.1C39.6,15.6,34,9.6,26.7,8.4V6.4h-2.4V1.7c0-0.2-0.1-0.3-0.3-0.3c-0.2,0-0.3,0.2-0.3,0.3v4.8h-2.4v1.9
			C14,9.6,8.4,15.6,7.7,23.1H7.7c-0.8,0-1.4,0.6-1.4,1.4C6.3,25.2,6.9,25.8,7.7,25.8L7.7,25.8z M7.7,25.8"/>
		<path fill="none" stroke="#1D1D1B" stroke-width="1.3333" stroke-miterlimit="10" d="M41.7,43.9h-1.3v-13h1.3
			c0.7,0,1.3-0.6,1.3-1.4c0-0.8-0.6-1.4-1.3-1.4H6.3c-0.7,0-1.3,0.6-1.3,1.4c0,0.8,0.6,1.4,1.3,1.4h1.3v13H6.3
			c-0.7,0-1.3,0.6-1.3,1.4c0,0.8,0.6,1.4,1.3,1.4h35.4c0.7,0,1.3-0.6,1.3-1.4C43,44.5,42.4,43.9,41.7,43.9L41.7,43.9z"/>
		<rect x="34.6" y="31.4" fill="none" stroke="#21A9E0" stroke-width="1.2818" stroke-miterlimit="10" width="2.2" height="12"/>
		<rect x="22.9" y="31.4" fill="none" stroke="#21A9E0" stroke-width="1.2818" stroke-miterlimit="10" width="2.2" height="12"/>
		<rect x="17.1" y="31.4" fill="none" stroke="#21A9E0" stroke-width="1.2818" stroke-miterlimit="10" width="2.2" height="12"/>
		<rect x="28.7" y="31.4" fill="none" stroke="#21A9E0" stroke-width="1.2818" stroke-miterlimit="10" width="2.2" height="12"/>
		<rect x="11.2" y="31.4" fill="none" stroke="#21A9E0" stroke-width="1.2818" stroke-miterlimit="10" width="2.2" height="12"/>
		<path fill="none" stroke="#1D1D1B" stroke-width="1.4086" stroke-miterlimit="10" d="M10,30.8"/>
	</g>
</g>
<g id="Layer_12" display="none">
	<rect x="1.8" y="3.9" display="inline" fill="none" width="44.5" height="40.2"/>
	<path display="inline" fill="#00AEEF" stroke="#FFFFFF" stroke-width="1.1131" stroke-miterlimit="10" d="M37.8,23.5h-5.9l-2.2-8.2
		c-0.2-0.7-0.8-1.2-1.6-1.2h0c-0.7,0-1.4,0.5-1.6,1.2L23.7,26l-2.9-10.7c-0.2-0.7-0.8-1.2-1.5-1.2c0,0,0,0,0,0
		c-0.7,0-1.4,0.5-1.6,1.2l-1.5,5.2h-5.9c-0.9,0-1.6,0.7-1.6,1.6c0,0.9,0.7,1.6,1.6,1.6h7.1c0.7,0,1.4-0.5,1.6-1.2l0.2-0.8l2.9,10.9
		c0.2,0.7,0.8,1.2,1.6,1.2c0.7,0,1.4-0.5,1.6-1.2L28.1,22l1,3.6c0.2,0.7,0.8,1.2,1.6,1.2h7.1c0.9,0,1.6-0.7,1.6-1.6
		C39.4,24.3,38.7,23.5,37.8,23.5L37.8,23.5z M37.8,23.5"/>
	<path display="inline" fill="none" stroke="#000000" stroke-width="1.5" stroke-miterlimit="10" d="M23.9,42.3
		c0,0-10.6-4.1-18-15.6c-1.3-1.9-2.2-4.1-2.6-6.4c-0.4-2.6,0.1-6.6,1.6-8.7c3.7-5,7.8-5.6,7.8-5.6s6.7-2.1,11.2,5.6
		c0,0,4-6.1,9.9-5.9c5.9,0.2,9.3,6,9.3,6s4.3,7.3-1.1,15.8S23.9,42.3,23.9,42.3z"/>
</g>
<g id="Layer_13" display="none">
	<g display="inline">
		<path d="M46.3,40.8h-0.8v-5.6c0-0.4-0.3-0.7-0.7-0.7h-0.8V9.6c0-0.4-0.3-0.7-0.7-0.7h-0.1V6.5c0-0.4-0.3-0.7-0.7-0.7h-8
			c-0.4,0-0.7,0.3-0.7,0.7v2.4h0c-0.4,0-0.7,0.3-0.7,0.7v24.8h-1.7V13.6c0-1.7-1.4-3.1-3.1-3.1h0v0c0-1.7-1.4-3.1-3.1-3.1H20
			c-1,0-1.8,0.4-2.4,1.1c-0.6-0.7-1.4-1.1-2.4-1.1h-4.8c-1.7,0-3.1,1.4-3.1,3.1v0h0c-1.7,0-3.1,1.4-3.1,3.1v20.8H3.3
			c-0.4,0-0.7,0.3-0.7,0.7v5.6H1.7c-0.4,0-0.7,0.3-0.7,0.7c0,0.4,0.3,0.7,0.7,0.7h44.7c0.4,0,0.7-0.3,0.7-0.7
			C47.1,41.1,46.7,40.8,46.3,40.8L46.3,40.8z M35.1,7.2h6.5v1.7h-6.5V7.2z M34.3,10.4h8.1v24h-8.1V10.4z M26.4,34.4h-1.7V15.2h4.9
			v19.2h-1.7 M21.6,34.4v-3.3h1.7v3.3H21.6z M16.9,34.4h-1.7V15.2h4.9v19.2h-1.7 M12,34.4v-3.3h1.7v3.3H12z M18.4,12
			c0.9,0,1.6,0.7,1.6,1.6v0h-4.9v0c0-0.9,0.7-1.6,1.6-1.6H18.4z M29.6,13.6L29.6,13.6l-4.9,0v0c0-0.9,0.7-1.6,1.6-1.6H28
			C28.9,12,29.6,12.7,29.6,13.6L29.6,13.6z M20,8.8h4.8c0.9,0,1.6,0.7,1.6,1.6v0h-0.1c-1.7,0-3.1,1.4-3.1,3.1v16h-1.7v-16
			c0-1.7-1.4-3.1-3.1-3.1h0v0C18.4,9.5,19.1,8.8,20,8.8L20,8.8z M8.8,10.4c0-0.9,0.7-1.6,1.6-1.6h4.8c0.9,0,1.6,0.7,1.6,1.6v0h0
			c-1.7,0-3.1,1.4-3.1,3.1v16H12v-16C12,11.9,10.6,10.5,8.8,10.4L8.8,10.4L8.8,10.4z M7.2,12h1.6c0.9,0,1.6,0.7,1.6,1.6v0H5.6v0
			C5.6,12.7,6.3,12,7.2,12L7.2,12z M7.3,34.4H5.6V15.2h4.9v19.2H8.8 M5.7,40.8H4v-4.9h40v4.9h-1.7 M8.9,40.8H7.2 M12.1,40.8h-1.7
			 M15.3,40.8h-1.7 M18.5,40.8h-1.7 M21.7,40.8H20 M24.8,40.8h-1.7 M28,40.8h-1.7 M31.2,40.8h-1.7 M34.4,40.8h-1.7 M37.6,40.8h-1.7
			 M40.8,40.8h-1.7 M42.3,40.8"/>
		<path fill="none" stroke="#29AAE1" stroke-width="1.8261" stroke-miterlimit="10" d="M8,10.5c0,0,0.3-2.5,2-2.5c1.7,0,5.5,0,5.5,0
			s2.1,0.4,2.2,2.5c0,0,0.3-2.4,1.7-2.4c1.5,0,5.6,0,5.6,0s2.2,0.1,2.2,2.4"/>
		<path fill="none" stroke="#29AAE1" stroke-width="1.8261" stroke-miterlimit="10" d="M8,10.5c0,0,0.3-2.5,2-2.5c1.7,0,5.5,0,5.5,0
			s2.1,0.4,2.2,2.5c0,0,0.3-2.4,1.7-2.4c1.5,0,5.6,0,5.6,0s2.2,0.1,2.2,2.4"/>
	</g>
</g>
<g id="Layer_14" display="none">
	<g display="inline">
		<g>
			<defs>
				<rect id="SVGID_1_" x="1.2" y="1.1" width="45.6" height="45.8"/>
			</defs>
			<clipPath id="SVGID_2_">
				<use xlink:href="#SVGID_1_"  overflow="visible"/>
			</clipPath>
			<path clip-path="url(#SVGID_2_)" d="M24,1.1h-0.8V23H1.2v0.8c0,12.6,10.2,22.8,22.8,22.8c12.6,0,22.8-10.2,22.8-22.8
				C46.8,11.3,36.6,1.1,24,1.1L24,1.1z M24,45C12.6,45,3.4,36,2.9,24.7h21.9V2.8c11.2,0.4,20.3,9.7,20.3,21.1
				C45.1,35.5,35.6,45,24,45L24,45z M24,45"/>
		</g>
		<rect x="18.1" y="9.5" fill="#00AEEF" width="1.7" height="11.8"/>
		<rect x="14.7" y="13.7" fill="#00AEEF" width="1.7" height="7.6"/>
		<rect x="11.3" y="7.8" fill="#00AEEF" width="1.7" height="13.5"/>
		<rect x="8" y="5.3" fill="#00AEEF" width="1.7" height="16"/>
		<rect x="4.6" y="11.2" fill="#00AEEF" width="1.7" height="10.1"/>
	</g>
</g>
<g id="Layer_15" display="none">
	<g display="inline">
		<path fill="none" stroke="#009FE3" stroke-miterlimit="10" d="M21.1,10.2c0,0-0.1-2.6-2.2-2.6H6c-0.3,0-0.5,0-0.8,0.1
			C4.7,8,3.9,8.4,3.6,9.3C3.5,9.5,3.5,9.7,3.5,10l0.1,9.4"/>
		<polyline fill="none" stroke="#009FE3" stroke-linejoin="round" stroke-miterlimit="10" points="5.4,18.1 3.5,20 1.5,18.1 		"/>
	</g>
	<g display="inline">
		<path fill="none" stroke="#009FE3" stroke-miterlimit="10" d="M26.9,37.9c0,0,0.1,2.6,2.2,2.6h13c0.3,0,0.5,0,0.8-0.1
			c0.5-0.2,1.2-0.6,1.6-1.5c0.1-0.2,0.1-0.4,0.1-0.7l-0.1-9.4"/>
		<polyline fill="none" stroke="#009FE3" stroke-linejoin="round" stroke-miterlimit="10" points="42.6,30.1 44.5,28.1 46.5,30.1 		
			"/>
	</g>
	<path display="inline" fill="#00AEEF" d="M10.6,21.6"/>
	<path display="inline" fill="#00AEEF" d="M34.4,34.5"/>
	<path display="inline" fill="#00AEEF" d="M32.3,21.7"/>
	<g display="inline">
		<path d="M12.1,26h3.5l1.2,2.5c0.1,0.2,0.3,0.3,0.5,0.3c0.2,0,0.4-0.1,0.5-0.3L19,26h0.3c0.3,0,0.5-0.2,0.5-0.5
			c0-0.3-0.2-0.5-0.5-0.5h-0.6c-0.2,0-0.4,0.1-0.5,0.3l-0.9,1.9l-0.9-1.9c-0.1-0.2-0.3-0.3-0.5-0.3h-3.8c0,0-0.1,0-0.1-0.1V12.1
			c0,0,0-0.1,0.1-0.1h10.3c0,0,0.1,0,0.1,0.1v5.5c0,0.3,0.2,0.5,0.5,0.5c0.3,0,0.5-0.2,0.5-0.5v-5.5c0-0.6-0.5-1.1-1.1-1.1H12.1
			c-0.6,0-1.1,0.5-1.1,1.1v12.8C11,25.5,11.5,26,12.1,26L12.1,26z M12.1,26"/>
		<path d="M17.3,13c-1.4,0-2.6,1.1-2.6,2.6c0,1.4,1.1,2.6,2.6,2.6c1.4,0,2.6-1.1,2.6-2.6C19.9,14.2,18.7,13,17.3,13L17.3,13z
			 M17.3,17.1c-0.8,0-1.5-0.7-1.5-1.5c0-0.8,0.7-1.5,1.5-1.5c0.8,0,1.5,0.7,1.5,1.5C18.8,16.5,18.2,17.1,17.3,17.1L17.3,17.1z
			 M17.3,17.1"/>
		<path d="M17.3,20.2c0.6,0,1.2,0.2,1.7,0.5c0.2,0.1,0.6,0.1,0.7-0.2c0.1-0.2,0.1-0.6-0.2-0.7c-0.7-0.4-1.4-0.6-2.2-0.6
			c-2.3,0-4.2,1.9-4.2,4.2c0,0.3,0.2,0.5,0.5,0.5h5.7c0.3,0,0.5-0.2,0.5-0.5c0-0.3-0.2-0.5-0.5-0.5h-5.1
			C14.4,21.4,15.7,20.2,17.3,20.2L17.3,20.2z M17.3,20.2"/>
		<path d="M42,11H31.7c-0.6,0-1.1,0.5-1.1,1.1v5.5c0,0.3,0.2,0.5,0.5,0.5c0.3,0,0.5-0.2,0.5-0.5v-5.5c0,0,0-0.1,0.1-0.1H42
			c0,0,0.1,0,0.1,0.1v12.8c0,0,0,0.1-0.1,0.1h-3.8c-0.2,0-0.4,0.1-0.5,0.3l-0.9,1.9l-0.9-1.9c-0.1-0.2-0.3-0.3-0.5-0.3h-0.6
			c-0.3,0-0.5,0.2-0.5,0.5c0,0.3,0.2,0.5,0.5,0.5h0.3l1.2,2.5c0.1,0.2,0.3,0.3,0.5,0.3c0.2,0,0.4-0.1,0.5-0.3l1.2-2.5H42
			c0.6,0,1.1-0.5,1.1-1.1V12.1C43.1,11.5,42.6,11,42,11L42,11z M42,11"/>
		<path d="M36.8,13c-1.4,0-2.6,1.1-2.6,2.6c0,1.4,1.1,2.6,2.6,2.6c1.4,0,2.6-1.1,2.6-2.6C39.4,14.2,38.2,13,36.8,13L36.8,13z
			 M36.8,17.1c-0.8,0-1.5-0.7-1.5-1.5c0-0.8,0.7-1.5,1.5-1.5c0.8,0,1.5,0.7,1.5,1.5C38.4,16.5,37.7,17.1,36.8,17.1L36.8,17.1z
			 M36.8,17.1"/>
		<path d="M34.4,23.4c0,0.3,0.2,0.5,0.5,0.5h5.7c0.3,0,0.5-0.2,0.5-0.5c0-2.3-1.9-4.2-4.2-4.2c-0.8,0-1.6,0.2-2.2,0.6
			c-0.2,0.1-0.3,0.5-0.2,0.7c0.1,0.2,0.5,0.3,0.7,0.2c0.5-0.3,1.1-0.5,1.7-0.5c1.6,0,2.9,1.2,3.2,2.7h-5.1
			C34.6,22.9,34.4,23.1,34.4,23.4L34.4,23.4z M34.4,23.4"/>
		<path d="M20.8,20.3V33c0,0.6,0.5,1.1,1.1,1.1h3.5l1.2,2.5c0.1,0.2,0.3,0.3,0.5,0.3c0.2,0,0.4-0.1,0.5-0.3l1.2-2.5h3.5
			c0.6,0,1.1-0.5,1.1-1.1V20.3c0-0.6-0.5-1.1-1.1-1.1H21.9C21.3,19.2,20.8,19.7,20.8,20.3L20.8,20.3z M32.3,20.3V33
			c0,0,0,0.1-0.1,0.1h-3.8c-0.2,0-0.4,0.1-0.5,0.3l-0.9,1.9l-0.9-1.9c-0.1-0.2-0.3-0.3-0.5-0.3h-3.8c0,0-0.1,0-0.1-0.1V20.3
			c0,0,0-0.1,0.1-0.1L32.3,20.3C32.3,20.2,32.3,20.2,32.3,20.3L32.3,20.3z M32.3,20.3"/>
		<path fill="#00AEEF" d="M27.1,26.3c1.4,0,2.6-1.1,2.6-2.6c0-1.4-1.1-2.6-2.6-2.6s-2.6,1.1-2.6,2.6C24.5,25.2,25.7,26.3,27.1,26.3
			L27.1,26.3z M27.1,22.2c0.8,0,1.5,0.7,1.5,1.5c0,0.8-0.7,1.5-1.5,1.5c-0.8,0-1.5-0.7-1.5-1.5C25.5,22.9,26.2,22.2,27.1,22.2
			L27.1,22.2z M27.1,22.2"/>
		<path fill="#00AEEF" d="M23.4,32.1h7.4c0.3,0,0.5-0.2,0.5-0.5c0-2.3-1.9-4.2-4.2-4.2s-4.2,1.9-4.2,4.2
			C22.8,31.9,23.1,32.1,23.4,32.1L23.4,32.1z M27.1,28.4c1.6,0,2.9,1.2,3.2,2.7h-6.3C24.2,29.6,25.5,28.4,27.1,28.4L27.1,28.4z
			 M27.1,28.4"/>
	</g>
</g>
<g id="Layer_16">
	<g>
		<g>
			<defs>
				<rect id="SVGID_3_" x="4.7" y="0.8" width="38.6" height="46.4"/>
			</defs>
			<clipPath id="SVGID_4_">
				<use xlink:href="#SVGID_3_"  overflow="visible"/>
			</clipPath>
			<path clip-path="url(#SVGID_4_)" d="M43.2,42.1L37,27.3c-0.2-0.4-0.6-0.6-1-0.4c-0.4,0.2-0.6,0.6-0.4,1l5.6,13.4l-5.1-1.5
				c-0.3-0.1-0.7,0.1-0.9,0.4l-2.5,4.6l-6-14.4C33.7,29,38.9,23,38.9,15.7c0-8.2-6.7-14.9-14.9-14.9C15.7,0.8,9,7.5,9,15.7
				c0,3.3,1.1,6.4,3,8.9L4.7,42.1c-0.1,0.3-0.1,0.6,0.1,0.8c0.2,0.2,0.5,0.3,0.8,0.2l6-1.7l3,5.5c0.1,0.2,0.4,0.4,0.6,0.4
				c0,0,0,0,0,0c0.3,0,0.5-0.2,0.6-0.5l5.7-13.9c0.2-0.4,0-0.8-0.4-1c-0.4-0.2-0.8,0-1,0.4l-5.2,12.4l-2.5-4.6
				c-0.2-0.3-0.5-0.5-0.9-0.4l-5.1,1.5l6.4-15.4c2.7,2.9,6.6,4.7,10.9,4.7c0.4,0,0.9,0,1.3-0.1L32,46.8c0.1,0.3,0.4,0.4,0.6,0.5
				c0,0,0,0,0,0c0.3,0,0.5-0.1,0.6-0.4l3-5.5l6,1.7c0.3,0.1,0.6,0,0.8-0.2C43.2,42.7,43.3,42.4,43.2,42.1L43.2,42.1z M10.5,15.7
				c0-7.4,6-13.4,13.4-13.4c7.4,0,13.4,6,13.4,13.4c0,7.4-6,13.4-13.4,13.4C16.5,29.2,10.5,23.1,10.5,15.7L10.5,15.7z M10.5,15.7"/>
		</g>
		<path fill="#00AEEF" d="M32.5,12.9c-0.1-0.3-0.3-0.5-0.6-0.5l-5-0.8l-2.3-4.5c-0.1-0.2-0.4-0.4-0.7-0.4c-0.3,0-0.5,0.2-0.7,0.4
			L21,11.6l-5,0.8c-0.3,0-0.5,0.2-0.6,0.5c-0.1,0.3,0,0.6,0.2,0.7l3.5,3.6l-0.7,5c0,0.3,0.1,0.5,0.3,0.7c0.2,0.2,0.5,0.2,0.8,0.1
			l4.5-2.3l4.5,2.3c0.1,0.1,0.2,0.1,0.3,0.1c0.2,0,0.3,0,0.4-0.1c0.2-0.2,0.3-0.4,0.3-0.7l-0.7-5l3.5-3.6
			C32.5,13.5,32.6,13.2,32.5,12.9L32.5,12.9z M27.5,16.5c-0.2,0.2-0.2,0.4-0.2,0.6l0.6,4l-3.6-1.8c-0.1-0.1-0.2-0.1-0.3-0.1
			c-0.1,0-0.2,0-0.3,0.1L20,21.1l0.6-4c0-0.2,0-0.5-0.2-0.6l-2.8-2.9l3.9-0.7c0.2,0,0.4-0.2,0.5-0.4L24,9.1l1.8,3.5
			c0.1,0.2,0.3,0.3,0.5,0.4l3.9,0.7L27.5,16.5z M27.5,16.5"/>
		<path d="M35.2,16.5c-0.4-0.1-0.8,0.2-0.8,0.6c-0.7,5.2-5.2,9.1-10.4,9.1c-5.8,0-10.5-4.7-10.5-10.5c0-5.8,4.7-10.5,10.5-10.5
			c5.2,0,9.7,3.9,10.4,9.1c0.1,0.4,0.4,0.7,0.8,0.6c0.4-0.1,0.7-0.4,0.6-0.8C35,8.2,29.9,3.8,24,3.8c-6.6,0-12,5.4-12,12
			c0,6.6,5.4,12,12,12c6,0,11.1-4.5,11.9-10.4C35.9,16.9,35.6,16.5,35.2,16.5L35.2,16.5z M35.2,16.5"/>
	</g>
</g>
</svg>
