<svg xmlns="http://www.w3.org/2000/svg" id="Layer_1" viewBox="0 0 240 240"> <defs> <style>.cls-1{fill:#e5e8ec;}.cls-2{fill:#fff;}.cls-3{fill:#424242;}.cls-4{fill:#8ee555;}.cls-5{fill:#72be44;}</style> </defs> <title>performance-management</title> <circle class="cls-1" cx="158.67" cy="43.13" r="12.88"></circle> <path class="cls-2" d="M161.23,45.52H160l-.07-1.64a2.6,2.6,0,0,0,.83-.68h2.86c-1.25-.23-.72-3.48-1.25-5.33s-2.15-2.14-3.44-2.14h0c-1.3,0-2.9.28-3.44,2.14s0,5.1-1.25,5.33h2.46a5.48,5.48,0,0,0,.76.68v1.64h-1.27a2.88,2.88,0,0,0-2.87,2.87v2.14H164.1V48.39A2.87,2.87,0,0,0,161.23,45.52Z"></path> <path class="cls-3" d="M87,59.67a20.21,20.21,0,1,1,20.22-20.22A20.24,20.24,0,0,1,87,59.67Zm0-38.43a18.21,18.21,0,1,0,18.22,18.21A18.23,18.23,0,0,0,87,21.24Z"></path> <path class="cls-1" d="M91.17,43H89.11v-2.2a4.84,4.84,0,0,0,2.71-3.77l.19,0A1.11,1.11,0,0,0,93.12,36V34.3A1.11,1.11,0,0,0,92,33.19h-.15v-.65a4.84,4.84,0,0,0-9.68,0v.65H82A1.11,1.11,0,0,0,80.9,34.3V36A1.11,1.11,0,0,0,82,37.09l.2,0a4.85,4.85,0,0,0,2.7,3.77V43H82.85a4.67,4.67,0,0,0-4.67,4.67v3.48H95.84V47.71A4.67,4.67,0,0,0,91.17,43Z"></path> <circle class="cls-4" cx="166.09" cy="185.15" r="26.08"></circle> <path class="cls-3" d="M166.09,212.23a27.08,27.08,0,1,1,27.08-27.08A27.11,27.11,0,0,1,166.09,212.23Zm0-52.16a25.08,25.08,0,1,0,25.08,25.08A25.11,25.11,0,0,0,166.09,160.08Z"></path> <path class="cls-2" d="M171.28,190h-2.57l-.13-3.33a5.38,5.38,0,0,0,1.67-1.38H176c-2.54-.47-1.45-7-2.54-10.8s-4.35-4.34-7-4.34h-.09c-2.63,0-5.89.58-7,4.34s0,10.33-2.54,10.8h5a11.46,11.46,0,0,0,1.54,1.38V190H160.9a5.82,5.82,0,0,0-5.82,5.82v4.34h22v-4.34A5.82,5.82,0,0,0,171.28,190Z"></path> <circle class="cls-4" cx="40.89" cy="127.54" r="17.4"></circle> <path class="cls-2" d="M44.66,130.8H42.79v-2a4.38,4.38,0,0,0,2.45-3.42l.17,0a1,1,0,0,0,1-1v-1.51a1,1,0,0,0-1-1h-.14v-.59a4.39,4.39,0,1,0-8.77,0v.59h-.15a1,1,0,0,0-1,1v1.51a1,1,0,0,0,1,1l.18,0A4.38,4.38,0,0,0,39,128.8v2H37.12A4.23,4.23,0,0,0,32.89,135v3.15h16V135A4.23,4.23,0,0,0,44.66,130.8Z"></path> <circle class="cls-1" cx="97.26" cy="201.56" r="19.2"></circle> <path class="cls-2" d="M101.42,205.15H99.36v-2.21a4.84,4.84,0,0,0,2.7-3.77l.19,0a1.11,1.11,0,0,0,1.11-1.11v-1.67a1.11,1.11,0,0,0-1.11-1.11h-.15v-.65a4.84,4.84,0,1,0-9.68,0v.65h-.17a1.11,1.11,0,0,0-1.11,1.11v1.67a1.11,1.11,0,0,0,1.11,1.11l.2,0a4.83,4.83,0,0,0,2.69,3.76v2.21H93.1a4.67,4.67,0,0,0-4.67,4.67v3.48h17.65v-3.48A4.66,4.66,0,0,0,101.42,205.15Z"></path> <path class="cls-3" d="M201,129.33a17.2,17.2,0,1,1,17.2-17.21A17.22,17.22,0,0,1,201,129.33Zm0-32.41a15.2,15.2,0,1,0,15.2,15.2A15.22,15.22,0,0,0,201,96.92Z"></path> <path class="cls-5" d="M204.18,115.13h-1.59l-.09-2.07a3.32,3.32,0,0,0,1-.85h3.61c-1.58-.29-.9-4.37-1.58-6.71s-2.7-2.69-4.33-2.69h-.05c-1.63,0-3.66.36-4.33,2.69s0,6.42-1.57,6.71h3.1a7.18,7.18,0,0,0,1,.85v2.07h-1.59a3.62,3.62,0,0,0-3.62,3.62v2.69H207.8v-2.69A3.62,3.62,0,0,0,204.18,115.13Z"></path> <circle class="cls-5" cx="201.41" cy="60.12" r="11.1"></circle> <rect class="cls-3" x="175.34" y="141.28" width="18.5" height="2"></rect> <rect class="cls-3" x="183.59" y="133.02" width="2" height="18.5"></rect> <rect class="cls-3" x="49.09" y="56.37" width="18.5" height="2"></rect> <rect class="cls-3" x="57.34" y="48.12" width="2" height="18.5"></rect> <rect class="cls-3" x="116.82" y="195.08" width="18.5" height="2"></rect> <rect class="cls-3" x="125.07" y="186.83" width="2" height="18.5"></rect> <path class="cls-3" d="M207.41,165.09a7.6,7.6,0,1,1,7.6-7.6A7.61,7.61,0,0,1,207.41,165.09Zm0-13.2a5.6,5.6,0,1,0,5.6,5.6A5.61,5.61,0,0,0,207.41,151.88Z"></path> <path class="cls-3" d="M50.73,96.32A7.3,7.3,0,1,1,58,89,7.31,7.31,0,0,1,50.73,96.32Zm0-12.6A5.3,5.3,0,1,0,56,89,5.31,5.31,0,0,0,50.73,83.72Z"></path> <circle class="cls-4" cx="121.57" cy="33.51" r="8.4"></circle> <rect class="cls-3" x="153.97" y="24.13" width="19.8" height="2"></rect> <rect class="cls-3" x="88.81" y="181.11" width="24.61" height="2"></rect> <rect class="cls-3" x="178.58" y="79.92" width="15.61" height="2"></rect> <circle class="cls-1" cx="125.54" cy="107.82" r="54.47"></circle> <circle class="cls-2" cx="126" cy="108.01" r="41.42"></circle> <path class="cls-5" d="M136.43,116.82h-5.16v-6.14a10.62,10.62,0,0,1-10.55,0v6.14h-5.16a11.71,11.71,0,0,0-11.71,11.71v13.89h.54c1.3,3.9,10.33,6.93,21.29,6.93s20-3,21.3-6.93h1.15V128.53A11.71,11.71,0,0,0,136.43,116.82Z"></path> <path class="cls-2" d="M138.54,90.85a2.79,2.79,0,0,0-.38,0V89.24a12.14,12.14,0,0,0-24.28,0v1.64a2.88,2.88,0,0,0-.41,0,2.79,2.79,0,0,0-2.79,2.79v4.19a2.79,2.79,0,0,0,3.3,2.75,12.14,12.14,0,0,0,24.1,0,2.77,2.77,0,0,0,3.27-2.75V93.64A2.79,2.79,0,0,0,138.54,90.85Z"></path> <path class="cls-3" d="M126,112.23a13.15,13.15,0,0,1-12.9-10.63,3.8,3.8,0,0,1-3.45-3.78V93.64a3.8,3.8,0,0,1,3.21-3.75v-.65a13.14,13.14,0,0,1,26.28,0v.65a3.8,3.8,0,0,1,3.18,3.74v4.19a3.8,3.8,0,0,1-3.42,3.78A13.15,13.15,0,0,1,126,112.23ZM114.84,99.4l.13,1.06a11.14,11.14,0,0,0,22.11,0l.13-1,1,.18a1.84,1.84,0,0,0,2.1-1.76V93.64a1.82,1.82,0,0,0-2-1.77l-1.14.16V89.24a11.14,11.14,0,0,0-22.28,0V92l-1.14-.17a1.83,1.83,0,0,0-2.06,1.77v4.19a1.84,1.84,0,0,0,2.12,1.76Z"></path> <path class="cls-3" d="M149.14,142.42h-2V128.53a10.72,10.72,0,0,0-10.71-10.71h-6.16v-7.69h2v5.69h4.16a12.72,12.72,0,0,1,12.71,12.71Z"></path> <path class="cls-3" d="M104.86,142.42h-2V128.53a12.72,12.72,0,0,1,12.71-12.71h4.16v-5.69h2v7.69h-6.16a10.72,10.72,0,0,0-10.71,10.71Z"></path> <path class="cls-3" d="M115.33,92.13c-.39,0-.79,0-1.19,0l.1-2c10.76.56,15.38-7.21,15.57-7.54l1.1-1.9.71,2.07c0,.07,2.34,6.68,6.48,7.31l-.3,2c-3.8-.58-6.23-4.56-7.35-6.92A19.06,19.06,0,0,1,115.33,92.13Z"></path> <path class="cls-3" d="M126,150.43A42.42,42.42,0,1,1,168.42,108,42.46,42.46,0,0,1,126,150.43Zm0-82.83A40.42,40.42,0,1,0,166.42,108,40.46,40.46,0,0,0,126,67.6Z"></path> <rect class="cls-1" x="69.57" y="135.15" width="15.04" height="37.61" transform="translate(131.46 -9.41) rotate(45.01)"></rect> <path class="cls-5" d="M86.77,167.18,49.48,204.48a16.25,16.25,0,0,1-22.91,0h0a16.24,16.24,0,0,1,0-22.91l37.3-37.3Z"></path> </svg>