<svg xmlns="http://www.w3.org/2000/svg" id="Layer_1" viewBox="0 0 240 240"> <defs> <style>.cls-1{fill:#72be44;}.cls-2{fill:#fff;}.cls-3{fill:#8ee555;}.cls-4{fill:#424242;}.cls-5{fill:#e5e8ec;}</style> </defs> <title>recruitment</title> <rect class="cls-1" x="32.82" y="30.52" width="97.05" height="127.04"></rect> <rect class="cls-2" x="48.41" y="44.86" width="97.05" height="127.04"></rect> <rect class="cls-3" x="48.41" y="44.86" width="97.05" height="127.04"></rect> <rect class="cls-2" x="63.45" y="64.37" width="66.97" height="2"></rect> <rect class="cls-2" x="63.45" y="74.43" width="66.97" height="2"></rect> <rect class="cls-2" x="63.45" y="84.49" width="66.97" height="2"></rect> <rect class="cls-2" x="63.45" y="94.55" width="66.97" height="2"></rect> <rect class="cls-2" x="63.45" y="104.61" width="66.97" height="2"></rect> <rect class="cls-2" x="63.45" y="114.67" width="66.97" height="2"></rect> <rect class="cls-2" x="63.45" y="124.73" width="66.97" height="2"></rect> <rect class="cls-2" x="84.7" y="59.48" width="121.46" height="158.99"></rect> <path class="cls-4" d="M207.17,219.47H83.7v-161H207.17Zm-121.46-2H205.17v-157H85.7Z"></path> <rect class="cls-4" x="166.92" y="52.15" width="28.06" height="2"></rect> <rect class="cls-4" x="66.53" y="187.45" width="11.85" height="2"></rect> <rect class="cls-4" x="19.77" y="170.61" width="11.85" height="2"></rect> <rect class="cls-4" x="8.55" y="145.05" width="14.96" height="2"></rect> <rect class="cls-4" x="15.03" y="138.57" width="2" height="14.96"></rect> <rect class="cls-4" x="148.21" y="31.57" width="14.96" height="2"></rect> <rect class="cls-4" x="154.69" y="25.09" width="2" height="14.96"></rect> <path class="cls-4" d="M20.39,83.45a4.74,4.74,0,1,1,4.74-4.74A4.75,4.75,0,0,1,20.39,83.45Zm0-7.48a2.74,2.74,0,1,0,2.74,2.74A2.74,2.74,0,0,0,20.39,76Z"></path> <circle class="cls-5" cx="147.51" cy="102.47" r="30.06"></circle> <path class="cls-2" d="M156.25,91.43l-.27,0V90.31a8.5,8.5,0,1,0-17,0v1.15l-.29,0a2,2,0,0,0-2,2v2.93a2,2,0,0,0,2,2,1.92,1.92,0,0,0,.35,0,8.49,8.49,0,0,0,16.86,0,2,2,0,0,0,.33,0,2,2,0,0,0,2-2V93.38A2,2,0,0,0,156.25,91.43Z"></path> <path class="cls-2" d="M143.79,104.92v4.68h-3.61A8.19,8.19,0,0,0,132,117.8v4.85h31V117.8a8.2,8.2,0,0,0-8.19-8.19h-3.61v-4.68Z"></path> <path class="cls-4" d="M147.49,106.69a9.5,9.5,0,0,1-9.28-7.47,3,3,0,0,1-2.46-2.91V93.38A3,3,0,0,1,138,90.51v-.21a9.5,9.5,0,1,1,19,0v.21a3,3,0,0,1,2.22,2.86v2.93a3,3,0,0,1-2.44,2.91A9.5,9.5,0,0,1,147.49,106.69Zm-7.74-9.62.3,1a7.49,7.49,0,0,0,14.88,0l.13-1,1,.17a.94.94,0,0,0,1.12-.94V93.38a1,1,0,0,0-1-1l-1.13.15L155,91.45V90.31a7.5,7.5,0,1,0-15,0v2.3l-1.14-.17h0a1,1,0,0,0-1.07.94v2.93a1,1,0,0,0,1,1Z"></path> <path class="cls-4" d="M164,123.65H131V117.8a9.2,9.2,0,0,1,9.19-9.19h2.61v-3.68h2v5.68h-4.61A7.2,7.2,0,0,0,133,117.8v3.85h29V117.8a7.2,7.2,0,0,0-7.19-7.19h-4.61v-5.68h2v3.68h2.61A9.2,9.2,0,0,1,164,117.8Z"></path> <path class="cls-4" d="M142,93.57a24.33,24.33,0,0,1-7.81-1.36l.64-1.89c13.08,4.42,19.64-4,19.91-4.37l1.6,1.2A18.68,18.68,0,0,1,142,93.57Z"></path> <path class="cls-4" d="M187.1,154H107.71V137.42H187.1Zm-77.38-2H185.1V139.42H109.71Z"></path> <path class="cls-4" d="M187.1,182.08H107.71V165.45H187.1Zm-77.38-2H185.1V167.45H109.71Z"></path> <rect class="cls-3" x="129.43" y="191.43" width="34.12" height="14.62"></rect> <circle class="cls-5" cx="118.44" cy="173.51" r="3.5"></circle> <circle class="cls-5" cx="128.8" cy="173.51" r="3.5"></circle> <circle class="cls-5" cx="139.16" cy="173.51" r="3.5"></circle> <circle class="cls-5" cx="149.52" cy="173.51" r="3.5"></circle> <rect class="cls-4" x="132.49" y="143.72" width="8.33" height="2"></rect> <rect class="cls-4" x="147.37" y="143.72" width="8.33" height="2"></rect> <rect class="cls-4" x="117.6" y="143.72" width="8.33" height="2"></rect> <rect class="cls-4" x="162.25" y="143.72" width="8.33" height="2"></rect> <circle class="cls-1" cx="46.66" cy="200.26" r="12.17"></circle> </svg>