<svg xmlns="http://www.w3.org/2000/svg" viewBox="0 0 256 210.02"><title>redmill-course-icon</title><g id="Layer_2" data-name="Layer 2"><g id="Layer_1-2" data-name="Layer 1"><rect y="5.62" width="210.63" height="197.7" style="fill:#fff"/><rect x="206.02" y="44.39" width="43.35" height="158.92" style="fill:#fff"/><rect x="203.97" y="18.69" width="28.63" height="38.46" transform="translate(28.68 152.54) rotate(-41.01)" style="fill:#fff"/><path d="M256,50V204.4a5.63,5.63,0,0,1-5.62,5.62H5.47C2.38,210,0,207.13,0,204V5.62A5.62,5.62,0,0,1,5.62,0c74.5,0,131.52.05,206,.07,1.8,0,4.18.57,5.36,2l37,43a8.18,8.18,0,0,1,2,5ZM37.16,66C28,66,28,52,37.16,52h89.68c9.12,0,9.12,14,0,14Zm-1,71A5.93,5.93,0,0,1,30,131.14,6.12,6.12,0,0,1,36.12,125h91.05a6.12,6.12,0,0,1,6.12,6.12,5.93,5.93,0,0,1-6.12,5.89Zm0,26a6,6,0,1,1,0-12h46a6,6,0,1,1,0,12Zm0-50A5.93,5.93,0,0,1,30,107.14,6.12,6.12,0,0,1,36.12,101h91.05a6.12,6.12,0,0,1,6.12,6.12,5.93,5.93,0,0,1-6.12,5.89ZM244,56l-32.36,0A5.93,5.93,0,0,1,206,50V12L12,12V198H244V56ZM217.26,21V44.39h20.68L217.26,21Z" style="fill:#3c4752;fill-rule:evenodd"/><path d="M196.67,100.85c19.36,0,19.36,29.41,0,29.41s-19.36-29.41,0-29.41Zm0-5.22a19.92,19.92,0,1,1-19.92,19.92,19.92,19.92,0,0,1,19.92-19.92Zm-2.3,60.28-6.78,23.69-7.16-6.35L171,175.17l7.79-24.74c6.33.22,5.52-1.78,8.53,1.07,2.11,2,4.05,3.77,7,4.41Zm20.13-5.49,7.79,24.75-9.38-1.92-7.16,6.35L199,155.92c7-1.49,5.9-6.51,11.31-5.82a27.18,27.18,0,0,0,4.23.32ZM196.67,80.35c3.71-.29,5.92,4.67,9.41,5.8s8.36-1.52,11.29.92c3.17,1.94,2,7.26,4.2,10.22s7.66,3.69,8.59,7.38c1.42,3.43-2.61,7.08-2.61,10.74s4,7.49,2.61,11c-.87,3.62-6.27,4.19-8.42,7.15S220.59,142,217.36,144c-2.83,2.41-7.54-.3-11,.83s-5.88,6.15-9.68,5.89c-3.71.29-5.92-4.67-9.41-5.8S178.9,146.48,176,144c-3.17-1.94-2-7.26-4.2-10.22s-7.66-3.69-8.59-7.38c-1.42-3.44,2.61-7.08,2.61-10.74s-4-7.49-2.61-11c.87-3.62,6.27-4.19,8.42-7.15s1.14-8.43,4.37-10.45c2.83-2.41,7.53.29,11-.83s5.88-6.14,9.68-5.89Z" style="fill:#b02b3c;fill-rule:evenodd"/></g></g></svg>