<svg xmlns="http://www.w3.org/2000/svg" xmlns:xlink="http://www.w3.org/1999/xlink" id="Layer_1" x="0px" y="0px" viewBox="0 0 700 420" style="enable-background:new 0 0 700 420;" xml:space="preserve"> <style type="text/css"> .st0{fill:#8EE555;} .st1{fill:none;stroke:#424242;stroke-width:4;} .st2{fill:#E5E8EC;} .st3{fill:none;stroke:#72BE44;stroke-width:4;} .st4{fill:#FFFFFF;} .st5{fill:#FFD13D;} .st6{fill:#282D33;} .st7{fill:none;stroke:#424242;stroke-width:4;stroke-linecap:square;} .st8{fill:#136FB7;} .st9{fill:#FFFFFF;stroke:#424242;stroke-width:3;stroke-miterlimit:10;} .st10{fill:#72BE44;} .st11{fill:#E5E8EC;stroke:#424242;stroke-width:3;stroke-miterlimit:10;} .st12{fill:none;stroke:#424242;stroke-width:4;stroke-linejoin:bevel;} .st13{fill:#E5E8EC;stroke:#424242;stroke-width:4;} .st14{fill:none;stroke:#FFFFFF;stroke-width:4;} </style> <g> <g> <g> <circle class="st0" cx="354.2" cy="100.8" r="29.2"></circle> <g> <polyline class="st0" points="354.1,112.5 354.1,85.6 344.9,95.2 "></polyline> <line class="st0" x1="347.8" y1="112.4" x2="360.3" y2="112.4"></line> </g> </g> <g> <polyline class="st1" points="252.9,152.4 269.4,152.4 269.4,168.9 "></polyline> <line class="st1" x1="267.1" y1="154.7" x2="209.1" y2="212.7"></line> </g> <g> <polyline class="st1" points="319.9,117 336.4,117 336.4,133.5 "></polyline> </g> <circle class="st2" cx="364.7" cy="155.7" r="19.5"></circle> <circle class="st0" cx="70.3" cy="204.8" r="19.5"></circle> <circle class="st0" cx="384.8" cy="184.2" r="7.5"></circle> <circle class="st0" cx="183.6" cy="129.3" r="7.5"></circle> <g> <circle class="st1" cx="344.2" cy="166.4" r="13"></circle> <g> <line class="st1" x1="344.2" y1="172.4" x2="344.2" y2="160.5"></line> </g> </g> <g> <circle class="st1" cx="96.6" cy="156.4" r="13"></circle> <g> <line class="st1" x1="96.6" y1="162.4" x2="96.6" y2="150.4"></line> </g> </g> <g> <circle class="st3" cx="313.8" cy="169.5" r="6.5"></circle> </g> <polyline class="st1" points="38,299.2 120,217.4 178,275.3 335.8,117.6 "></polyline> <g> <polyline class="st3" points="184.3,170.9 200.7,170.9 200.7,187.4 "></polyline> <line class="st3" x1="198.5" y1="173.2" x2="97.6" y2="274"></line> </g> <g> <line class="st1" x1="339.9" y1="211.2" x2="322.7" y2="211.2"></line> <line class="st1" x1="331.3" y1="219.7" x2="331.3" y2="202.6"></line> </g> <g> <line class="st1" x1="432.4" y1="120.8" x2="415.3" y2="120.8"></line> <line class="st1" x1="423.8" y1="129.4" x2="423.8" y2="112.3"></line> </g> </g> <circle class="st0" cx="641.7" cy="269.7" r="19.5"></circle> <g> <circle class="st1" cx="621.2" cy="280.4" r="13"></circle> <g> <line class="st1" x1="621.2" y1="286.4" x2="621.2" y2="274.5"></line> </g> </g> <g> <line class="st1" x1="616.9" y1="325.2" x2="599.7" y2="325.2"></line> <line class="st1" x1="608.3" y1="333.7" x2="608.3" y2="316.6"></line> </g> <g> <line class="st3" x1="662" y1="317.7" x2="619.1" y2="317.7"></line> <line class="st3" x1="640.5" y1="339.1" x2="640.5" y2="296.2"></line> </g> <g> <g> <path class="st0" d="M458,165.8c-16.6,0-32.2-6.5-44-18.2c-10.7-10.7-17.1-24.7-18.1-39.7l18,0c2.2,22.4,21.2,40,44.1,40 c22.9,0,41.9-17.6,44.1-40l17.9,0c-1,15-7.3,29-18.1,39.7C490.2,159.3,474.6,165.8,458,165.8z"></path> <path class="st4" d="M395.9,100.2c0.7-13.9,6-26.9,15.1-37.4l12.7,12.7c-5.8,7-9.2,15.6-9.9,24.7L395.9,100.2z"></path> <path class="st1" d="M502.2,100.2c-1.7-22.8-20.9-40.9-44.2-40.9c-10.7,0-20.9,3.8-28.9,10.7l-12.7-12.7 c11.4-10.3,26.1-16,41.6-16c33.2,0,60.3,26.1,62.1,58.8L502.2,100.2z"></path> </g> </g> <g> <path class="st1" d="M516.6,176.7c0,0.4-0.4,0.8-0.8,0.8h-48.7c-0.4,0-0.8-0.4-0.8-0.8v-66.5c0-0.4,0.4-0.8,0.8-0.8h48.7 c0.4,0,0.8,0.4,0.8,0.8V176.7z"></path> <path class="st1" d="M516.6,118.2V169c0,0.4-0.4,0.8-0.8,0.8h-48.7c-0.4,0-0.8-0.4-0.8-0.8v-50.8"></path> <rect x="474.2" y="119.6" class="st4" width="34.6" height="8.8"></rect> <g> <line class="st1" x1="472.7" y1="137.3" x2="479.1" y2="137.3"></line> <line class="st1" x1="483.1" y1="137.3" x2="489.4" y2="137.3"></line> <line class="st1" x1="493.5" y1="137.3" x2="499.8" y2="137.3"></line> <line class="st1" x1="503.8" y1="137.3" x2="510.2" y2="137.3"></line> </g> <g> <line class="st1" x1="472.7" y1="145.1" x2="479.1" y2="145.1"></line> <line class="st1" x1="483.1" y1="145.1" x2="489.4" y2="145.1"></line> <line class="st1" x1="493.5" y1="145.1" x2="499.8" y2="145.1"></line> <line class="st1" x1="503.8" y1="145.1" x2="510.2" y2="145.1"></line> </g> <g> <line class="st1" x1="472.7" y1="153" x2="479.1" y2="153"></line> <line class="st1" x1="483.1" y1="153" x2="489.4" y2="153"></line> <line class="st1" x1="493.5" y1="153" x2="499.8" y2="153"></line> <line class="st1" x1="503.8" y1="153" x2="510.2" y2="153"></line> </g> <g> <line class="st1" x1="472.7" y1="160.8" x2="479.1" y2="160.8"></line> <line class="st1" x1="483.1" y1="160.8" x2="489.4" y2="160.8"></line> <line class="st1" x1="493.5" y1="160.8" x2="499.8" y2="160.8"></line> <line class="st1" x1="503.8" y1="160.8" x2="510.2" y2="160.8"></line> </g> </g> <g> <g> <line class="st1" x1="150.5" y1="321.4" x2="166" y2="321.4"></line> <line class="st1" x1="150.5" y1="330" x2="166" y2="330"></line> <line class="st1" x1="152.7" y1="338.6" x2="166" y2="338.6"></line> <line class="st1" x1="161.1" y1="347.2" x2="166" y2="347.2"></line> </g> <g> <line class="st1" x1="170" y1="312.8" x2="185.5" y2="312.8"></line> <line class="st1" x1="170" y1="321.4" x2="185.5" y2="321.4"></line> <line class="st1" x1="170" y1="330" x2="185.5" y2="330"></line> <line class="st1" x1="170" y1="338.6" x2="185.5" y2="338.6"></line> <line class="st1" x1="170" y1="347.2" x2="185.5" y2="347.2"></line> </g> <g> <line class="st1" x1="170" y1="304.3" x2="185.5" y2="304.3"></line> </g> <g> <line class="st1" x1="190.1" y1="312.8" x2="205.5" y2="312.8"></line> <line class="st1" x1="190.1" y1="321.4" x2="205.5" y2="321.4"></line> <line class="st1" x1="190.1" y1="330" x2="205.5" y2="330"></line> <line class="st1" x1="190.1" y1="338.6" x2="205.5" y2="338.6"></line> <line class="st1" x1="190.1" y1="347.2" x2="205.5" y2="347.2"></line> </g> <g> <line class="st1" x1="190.1" y1="287.1" x2="205.5" y2="287.1"></line> <line class="st1" x1="190.1" y1="295.7" x2="205.5" y2="295.7"></line> <line class="st1" x1="190.1" y1="304.3" x2="205.5" y2="304.3"></line> </g> <g> <line class="st1" x1="130.7" y1="338.6" x2="145.1" y2="338.6"></line> <line class="st1" x1="130.7" y1="347.2" x2="138.1" y2="347.2"></line> </g> <g> <circle class="st1" cx="148.7" cy="349.8" r="11.7"></circle> <g> <line class="st1" x1="148.7" y1="355.2" x2="148.7" y2="344.4"></line> </g> </g> </g> <g> <rect x="125.9" y="162.6" class="st1" width="70.9" height="71.8"></rect> <line class="st1" x1="125" y1="180.3" x2="196.1" y2="180.3"></line> <line class="st1" x1="133.8" y1="171" x2="169.7" y2="171"></line> <line class="st1" x1="133.8" y1="188.8" x2="169.7" y2="188.8"></line> <line class="st1" x1="133.8" y1="197.7" x2="156.5" y2="197.7"></line> <line class="st1" x1="133.8" y1="206.6" x2="169.7" y2="206.6"></line> <line class="st1" x1="133.8" y1="215.5" x2="160.4" y2="215.5"></line> <line class="st1" x1="133.8" y1="224.4" x2="164.4" y2="224.4"></line> <line class="st1" x1="182.6" y1="188.8" x2="190.4" y2="188.8"></line> <line class="st1" x1="182.6" y1="197.7" x2="190.4" y2="197.7"></line> <line class="st1" x1="182.6" y1="206.6" x2="190.4" y2="206.6"></line> <line class="st1" x1="182.6" y1="215.5" x2="190.4" y2="215.5"></line> <line class="st1" x1="182.6" y1="224.4" x2="190.4" y2="224.4"></line> </g> <g> <path class="st5" d="M96.3,339.8c-6.3,0-12.3-2.3-17-6.4l17.8-17.8H122c-0.4,6.3-3,12.2-7.5,16.7 C109.6,337.2,103.2,339.8,96.3,339.8z"></path> <path class="st0" d="M98,311.7v-23.3c12.7,0.8,22.8,10.6,23.9,23.3H98z"></path> <path class="st4" d="M96.3,339.8c-6.3,0-12.3-2.3-17-6.4l17.8-17.8H122c-0.4,6.3-3,12.2-7.5,16.7 C109.6,337.2,103.2,339.8,96.3,339.8z"></path> <path class="st1" d="M97.7,283.1c16.5,0.8,29.6,14.4,29.6,31c0,17.2-13.9,31.1-31.1,31.1c-7.9,0-15.1-3-20.6-7.8"></path> <path class="st6" d="M89.9,286.2v25.4l-17.8,18.2c-3-4.6-4.6-10-4.6-15.6C67.5,300.6,77.1,289.1,89.9,286.2 M93.9,281.6 c-17,1.2-30.4,15.3-30.4,32.6c0,8.3,3.1,15.9,8.2,21.7l22.2-22.6V281.6L93.9,281.6z"></path> </g> <g> <path class="st4" d="M263.2,107.2V83.9c12.7,0.8,22.8,10.6,23.9,23.3H263.2z"></path> <path class="st1" d="M262.9,78.6c16.5,0.8,29.6,14.4,29.6,31c0,9.1-3.9,17.3-10.2,23"></path> <path class="st7" d="M257.3,110.6V78.8c-15.1,2.1-26.8,15.1-26.8,30.8c0,17.2,13.9,31.1,31.1,31.1c5.7,0,11-1.5,15.5-4.2 L257.3,110.6z"></path> <path class="st0" d="M265.8,111.1c3.1,4,8.3,10.7,13.3,17.2c0.2-0.2,0.4-0.3,0.6-0.5c4.5-4.5,7.1-10.4,7.5-16.7H265.8z"></path> </g> <g> <rect x="314.4" y="360.1" class="st8" width="63.7" height="8.2"></rect> <path class="st9" d="M216.8,361.1v-165c0-4.9,4-8.9,8.9-8.9H468c4.9,0,8.9,4,8.9,8.9v165"></path> <rect x="230.2" y="200.8" class="st10" width="233.2" height="144.9"></rect> <path class="st11" d="M515.7,369.9v-9.6H375.4h-1.8c-1.3,4.6-5.5,4.5-10.6,4.5h-32.1c-5,0-9.3,0.1-10.6-4.5h-1.8H178v9.6 c0,0,11.7,8.7,20.2,8.7h107.4H388h107.4C504,378.6,515.7,369.9,515.7,369.9z"></path> </g> <g> <g> <g> <g> <path class="st1" d="M544.6,221.3c5.4,5.4,13.6,6.8,22,4.6c2.2-8.4,0.8-16.6-4.6-22c-5.4-5.4-13.6-6.8-22-4.6 C537.8,207.7,539.2,215.9,544.6,221.3z"></path> <line class="st1" x1="540" y1="199.3" x2="575.4" y2="234.7"></line> </g> <g> <path class="st1" d="M601.8,222c-4.1,4.1-10.4,5.2-16.7,3.5c-1.7-6.4-0.6-12.6,3.5-16.7c4.1-4.1,10.4-5.2,16.7-3.5 C607,211.6,606,217.8,601.8,222z"></path> <line class="st1" x1="585.6" y1="224.9" x2="576.4" y2="234.1"></line> </g> </g> <line class="st1" x1="575.6" y1="188.7" x2="575.6" y2="378.6"></line> <g> <rect x="531.2" y="137.3" class="st1" width="89.6" height="51.7"></rect> <path class="st0" d="M545.4,179.9c-0.5-2.6-2.5-4.6-5.1-5v-23.6c2.6-0.4,4.6-2.4,5.1-4.9h61.2c0.5,2.5,2.6,4.5,5.1,4.9v23.6 c-2.6,0.4-4.7,2.4-5.1,5H545.4z"></path> <circle class="st1" cx="575.9" cy="163.1" r="9.8"></circle> <g> <g> <line class="st1" x1="591" y1="163.1" x2="605.4" y2="163.1"></line> <g> <path class="st1" d="M601.7,157.2"></path> <path class="st1" d="M591,157.2"></path> </g> </g> <g> <line class="st1" x1="560.9" y1="163.1" x2="546.5" y2="163.1"></line> </g> </g> </g> </g> <g> <line class="st1" x1="511.3" y1="233.8" x2="511.3" y2="378.6"></line> <g> <g> <path class="st1" d="M532.5,250.6c-3.2,3.2-8,4-12.9,2.7c-1.3-4.9-0.5-9.7,2.7-12.9c3.2-3.2,8-4,12.9-2.7 C536.5,242.6,535.7,247.4,532.5,250.6z"></path> <line class="st1" x1="520.8" y1="252.1" x2="511.9" y2="261"></line> </g> </g> <g> <g> <path class="st1" d="M490.7,250.6c3.2,3.2,8,4,12.9,2.7c1.3-4.9,0.5-9.7-2.7-12.9c-3.2-3.2-8-4-12.9-2.7 C486.7,242.6,487.5,247.4,490.7,250.6z"></path> <line class="st1" x1="502.3" y1="252.1" x2="511.3" y2="261"></line> </g> </g> <g> <circle class="st1" cx="511.5" cy="213.5" r="18"></circle> <g> <polyline class="st12" points="511.5,220.6 511.5,207 506.8,210.7 "></polyline> </g> </g> </g> <g> <line class="st1" x1="477.9" y1="299.2" x2="477.9" y2="378.6"></line> <g> <g> <path class="st1" d="M499.1,325c-3.2,3.2-8,4-12.9,2.7c-1.3-4.9-0.5-9.7,2.7-12.9c3.2-3.2,8-4,12.9-2.7 C503.1,317,502.2,321.8,499.1,325z"></path> <line class="st1" x1="487.4" y1="326.5" x2="478.5" y2="335.4"></line> </g> </g> <g> <g> <path class="st1" d="M457.2,325c3.2,3.2,8,4,12.9,2.7c1.3-4.9,0.5-9.7-2.7-12.9c-3.2-3.2-8-4-12.9-2.7 C453.2,317,454,321.8,457.2,325z"></path> <line class="st1" x1="468.9" y1="326.5" x2="477.8" y2="335.4"></line> </g> </g> <g> <circle class="st0" cx="478.1" cy="279" r="18"></circle> <g> <polyline class="st12" points="478,286.1 478,272.5 473.4,276.2 "></polyline> </g> </g> </g> <g> <line class="st1" x1="543.8" y1="329.5" x2="543.8" y2="378.6"></line> <g> <g> <path class="st1" d="M565,355.3c-3.2,3.2-8,4-12.9,2.7c-1.3-4.9-0.5-9.7,2.7-12.9c3.2-3.2,8-4,12.9-2.7 C569,347.3,568.1,352.1,565,355.3z"></path> <line class="st1" x1="553.3" y1="356.8" x2="544.4" y2="365.7"></line> </g> </g> <g> <g> <path class="st1" d="M523.1,355.3c3.2,3.2,8,4,12.9,2.7c1.3-4.9,0.5-9.7-2.7-12.9c-3.2-3.2-8-4-12.9-2.7 C519.1,347.3,519.9,352.1,523.1,355.3z"></path> <line class="st1" x1="534.8" y1="356.8" x2="543.7" y2="365.7"></line> </g> </g> <g> <circle class="st13" cx="544" cy="309.3" r="18"></circle> <g> <polyline class="st12" points="544,316.4 544,302.8 539.3,306.5 "></polyline> </g> </g> </g> </g> <g> <g> <g> <line class="st14" x1="346.2" y1="230.6" x2="346.2" y2="239.1"></line> <line class="st14" x1="366.7" y1="236.1" x2="362.5" y2="243.5"></line> <line class="st14" x1="381.8" y1="251.1" x2="374.4" y2="255.4"></line> <line class="st14" x1="387.3" y1="271.7" x2="378.8" y2="271.7"></line> <line class="st14" x1="381.8" y1="292.3" x2="374.4" y2="288"></line> <line class="st14" x1="366.7" y1="307.3" x2="362.5" y2="299.9"></line> <line class="st14" x1="346.2" y1="312.8" x2="346.2" y2="304.3"></line> <line class="st14" x1="325.6" y1="307.3" x2="329.9" y2="299.9"></line> <line class="st14" x1="310.6" y1="292.3" x2="318" y2="288"></line> <line class="st14" x1="305.1" y1="271.7" x2="313.6" y2="271.7"></line> <line class="st14" x1="310.6" y1="251.1" x2="318" y2="255.4"></line> <line class="st14" x1="325.6" y1="236.1" x2="329.9" y2="243.5"></line> </g> <g> <polyline class="st14" points="365.8,249.8 346.3,269.8 331,260.2 "></polyline> </g> </g> </g> </g> </svg>