<?xml version="1.0" encoding="utf-8"?>
<!-- Generator: Adobe Illustrator 19.2.1, SVG Export Plug-In . SVG Version: 6.00 Build 0)  -->
<svg version="1.1" id="Capa_1" xmlns="http://www.w3.org/2000/svg" xmlns:xlink="http://www.w3.org/1999/xlink" x="0px" y="0px"
	 viewBox="0 0 378.4 378.4" style="enable-background:new 0 0 378.4 378.4;" xml:space="preserve">
<style type="text/css">
	.st0{fill:#333333;}
	.st1{fill:#009DE7;}
	.st2{clip-path:url(#SVGID_2_);fill:#333333;}
	.st3{fill:#FFCE00;}
</style>
<g id="Layer_1">
	<g>
		<path class="st0" d="M230.4,45.2h-24.1c-1.1-21.1-16.7-37.9-36-37.9s-34.9,16.8-35.9,37.9h-24.1c-5.9,0-10.7,4.2-10.7,9.4v34
			c0,5.2,4.8,9.4,10.7,9.4h120c5.9,0,10.7-4.2,10.7-9.4v-34C241.1,49.4,236.3,45.2,230.4,45.2z M170.4,42.3c-6.1,0-11-4.9-11-11
			c0-6.1,4.9-11,11-11s11,4.9,11,11C181.4,37.4,176.5,42.3,170.4,42.3z"/>
		<g>
			<path class="st0" d="M109.9,262.2h-23c-1.5,0-2.8-1.3-2.8-2.8v-23c0-1.5,1.3-2.8,2.8-2.8h23c1.5,0,2.8,1.3,2.8,2.8v23
				C112.7,260.9,111.4,262.2,109.9,262.2z"/>
			<rect x="142.6" y="238.5" class="st0" width="114.6" height="19"/>
		</g>
		<path class="st0" d="M234.9,354.8H60.8V78.2h27.7V63.8H61.1c-8.2,0-14.8,6.6-14.8,14.8v275.8c0,8.2,6.6,14.8,14.8,14.8h188.2
			C243.8,365.3,238.9,360.4,234.9,354.8z"/>
		<path class="st0" d="M280,257.8c1.6-0.1,3.2-0.2,4.9-0.2c3.2,0,6.4,0.3,9.5,0.7V78.6c0-8.2-6.6-14.8-14.8-14.8h-27.3v14.4H280
			L280,257.8L280,257.8z"/>
		<g>
			<path class="st0" d="M112.7,309.7H84.1v-25.8c0-1.5,1.3-2.8,2.8-2.8h23c1.5,0,2.8,1.3,2.8,2.8V309.7z"/>
			<path class="st0" d="M233.2,285.7h-90.6v19h82.5C226.7,297.9,229.5,291.5,233.2,285.7z"/>
		</g>
		<path class="st1" d="M284.9,261.7c-31.7,0-57.3,25.7-57.3,57.3s25.7,57.3,57.3,57.3c31.7,0,57.3-25.7,57.3-57.3
			S316.5,261.7,284.9,261.7z M287.3,338L276.3,349L265.2,338l-15.7-15.7l11.1-11.1l15.7,15.7l33-33l11.1,11.1L287.3,338z"/>
	</g>
</g>
<g id="Layer_2">
</g>
<g id="guides">
</g>
<g>
	<g>
		<defs>
			<rect id="SVGID_1_" x="118.7" y="101" width="103.4" height="124.3"/>
		</defs>
		<clipPath id="SVGID_2_">
			<use xlink:href="#SVGID_1_"  style="overflow:visible;"/>
		</clipPath>
		<path class="st2" d="M221.8,211.6L205.2,172c-0.5-1.1-1.6-1.6-2.7-1.1s-1.6,1.6-1.1,2.7l15,35.9l-13.7-4c-0.8-0.3-1.9,0.3-2.4,1.1
			l-6.7,12.3l-16.1-38.6c18.7-3.7,32.7-19.8,32.7-39.4c0-22-17.9-39.9-39.9-39.9c-22.2,0-40.2,17.9-40.2,39.9c0,8.8,2.9,17.1,8,23.8
			l-19.5,46.9c-0.3,0.8-0.3,1.6,0.3,2.1c0.5,0.5,1.3,0.8,2.1,0.5l16.1-4.6l8,14.7c0.3,0.5,1.1,1.1,1.6,1.1l0,0
			c0.8,0,1.3-0.5,1.6-1.3l15.3-37.2c0.5-1.1,0-2.1-1.1-2.7c-1.1-0.5-2.1,0-2.7,1.1L146,218.5l-6.7-12.3c-0.5-0.8-1.3-1.3-2.4-1.1
			l-13.7,4l17.1-41.2c7.2,7.8,17.7,12.6,29.2,12.6c1.1,0,2.4,0,3.5-0.3l18.7,43.9c0.3,0.8,1.1,1.1,1.6,1.3l0,0
			c0.8,0,1.3-0.3,1.6-1.1l8-14.7l16.1,4.6c0.8,0.3,1.6,0,2.1-0.5C221.8,213.2,222.1,212.4,221.8,211.6L221.8,211.6z M134.2,140.9
			c0-19.8,16.1-35.9,35.9-35.9s35.9,16.1,35.9,35.9s-16.1,35.9-35.9,35.9C150.3,177,134.2,160.7,134.2,140.9L134.2,140.9z"/>
	</g>
</g>
<path class="st3" d="M193.1,133.4c-0.3-0.8-0.8-1.3-1.6-1.3l-13.4-2.1l-6.2-12.1c-0.3-0.5-1.1-1.1-1.9-1.1c-0.8,0-1.3,0.5-1.9,1.1
	l-5.9,12.1l-13.4,2.1c-0.8,0-1.3,0.5-1.6,1.3c-0.3,0.8,0,1.6,0.5,1.9l9.4,9.6l-1.9,13.4c0,0.8,0.3,1.3,0.8,1.9
	c0.5,0.5,1.3,0.5,2.1,0.3l12.1-6.2l12.1,6.2c0.3,0.3,0.5,0.3,0.8,0.3c0.5,0,0.8,0,1.1-0.3c0.5-0.5,0.8-1.1,0.8-1.9l-1.9-13.4
	l9.4-9.6C193.1,135,193.4,134.2,193.1,133.4L193.1,133.4z M179.8,143c-0.5,0.5-0.5,1.1-0.5,1.6l1.6,10.7l-9.6-4.8
	c-0.3-0.3-0.5-0.3-0.8-0.3s-0.5,0-0.8,0.3l-9.9,4.8l1.6-10.7c0-0.5,0-1.3-0.5-1.6l-7.5-7.8l10.4-1.9c0.5,0,1.1-0.5,1.3-1.1l5.4-9.1
	l4.8,9.4c0.3,0.5,0.8,0.8,1.3,1.1l10.4,1.9L179.8,143z"/>
<path class="st0" d="M200.4,143c-1.1-0.3-2.1,0.5-2.1,1.6c-1.9,13.9-13.9,24.4-27.9,24.4c-15.5,0-28.1-12.6-28.1-28.1
	s12.6-28.1,28.1-28.1c13.9,0,26,10.4,27.9,24.4c0.3,1.1,1.1,1.9,2.1,1.6c1.1-0.3,1.9-1.1,1.6-2.1c-2.1-15.8-15.8-27.6-31.6-27.6
	c-17.7,0-32.1,14.5-32.1,32.1s14.5,32.1,32.1,32.1c16.1,0,29.7-12.1,31.9-27.9C202.2,144.1,201.4,143,200.4,143L200.4,143z"/>
</svg>
