<?xml version="1.0" encoding="utf-8"?>
<!-- Generator: Adobe Illustrator 19.2.1, SVG Export Plug-In . SVG Version: 6.00 Build 0)  -->
<svg version="1.1" id="Capa_1" xmlns="http://www.w3.org/2000/svg" xmlns:xlink="http://www.w3.org/1999/xlink" x="0px" y="0px"
	 viewBox="0 0 500 500" style="enable-background:new 0 0 500 500;" xml:space="preserve">
<style type="text/css">
	.st0{fill:none;stroke:#004595;stroke-width:8;stroke-miterlimit:10;}
	.st1{fill:none;stroke:#004595;stroke-width:10;stroke-linecap:round;stroke-miterlimit:10;}
	.st2{fill:none;stroke:#004595;stroke-width:10;stroke-miterlimit:10;}
	.st3{fill:#004595;}
	.st4{fill:none;stroke:#004595;stroke-width:8;stroke-linecap:round;stroke-miterlimit:10;}
	.st5{fill:none;stroke:#004595;stroke-width:5;stroke-linecap:round;stroke-miterlimit:10;}
</style>
<g id="logo">
	<g>
		<g>
			<path class="st0" d="M169.4,109.8c-16.3-2.4-28.6-17.8-28.6-35c0-19.7,16-35.8,35.8-35.8c7.8,0,15,2.5,20.9,6.7"/>
			<path class="st0" d="M177.4,84.6c0-30.1,21.1-45.6,40.9-45.6c13.8,0,31.7,3.4,31.7,13"/>
			<circle class="st0" cx="207.6" cy="97.3" r="10.2"/>
			<path class="st0" d="M250,107.4c-6.3,0-11.7-4.6-11.7-10.2s5.1-10.2,11.4-10.2"/>
			<circle class="st0" cx="165.6" cy="97.3" r="10.2"/>
			<line class="st0" x1="250" y1="24.9" x2="234.2" y2="24.9"/>
			<line class="st0" x1="250" y1="11" x2="250" y2="116.9"/>
			<line class="st1" x1="156.6" y1="87.9" x2="250" y2="87.9"/>
			<path class="st2" d="M229.3,87.9v-26c0,0-29.8-6.6-29.8,26"/>
			<path class="st2" d="M165.6,107.4c0,22.9,42,25.2,42,0"/>
			<path class="st2" d="M207.6,107.4c0,22.9,41.4,25.2,41.4,0"/>
		</g>
		<g>
			<path class="st0" d="M330.6,109.8c16.3-2.4,28.6-17.8,28.6-35c0-19.7-16-35.8-35.8-35.8c-7.8,0-15,2.5-20.9,6.7"/>
			<path class="st0" d="M322.6,84.6c0-30.1-21.1-45.6-40.9-45.6c-13.8,0-31.7,3.4-31.7,13"/>
			<circle class="st0" cx="292.4" cy="97.3" r="10.2"/>
			<path class="st0" d="M250,107.4c6.3,0,11.7-4.6,11.7-10.2s-5.1-10.2-11.4-10.2"/>
			<circle class="st0" cx="334.4" cy="97.3" r="10.2"/>
			<line class="st0" x1="250" y1="24.9" x2="265.8" y2="24.9"/>
			<line class="st0" x1="250" y1="11" x2="250" y2="116.9"/>
			<line class="st1" x1="343.4" y1="87.9" x2="250" y2="87.9"/>
			<path class="st2" d="M270.7,87.9v-26c0,0,29.8-6.6,29.8,26"/>
			<path class="st2" d="M334.4,107.4c0,22.9-42,25.2-42,0"/>
			<path class="st2" d="M292.4,107.4c0,22.9-41.4,25.2-41.4,0"/>
		</g>
	</g>
	<circle class="st3" cx="207.6" cy="139.9" r="4.8"/>
	<circle class="st3" cx="250" cy="134.2" r="4.8"/>
	<circle class="st3" cx="292.1" cy="139.8" r="4.8"/>
	<circle class="st0" cx="250" cy="294.8" r="104.1"/>
	<path class="st0" d="M250,367c-39.8,0-72.1-32.4-72.1-72.1s32.4-72.1,72.1-72.1c39.8,0,72.1,32.4,72.1,72.1S289.8,367,250,367z"/>
	<circle class="st0" cx="250" cy="294.8" r="14"/>
	<path class="st4" d="M265.7,298.3c4.1-2.2,8.7-3.5,13.6-3.5"/>
	<path class="st5" d="M254.1,310.2c2.7-5,6.7-9.1,11.7-11.8"/>
	<path class="st4" d="M294.2,351.6c-3.1,0.2-11.4,0.9-14.9,0.9c-15.8,0-28.7-12.8-28.7-28.7c0-4.9,1.2-9.6,3.4-13.7"/>
	<line class="st4" x1="279.2" y1="322.8" x2="307.2" y2="294.8"/>
	<line class="st4" x1="279.2" y1="322.8" x2="279.3" y2="294.8"/>
	<line class="st4" x1="279.2" y1="322.8" x2="259.9" y2="304.8"/>
	<line class="st4" x1="279.2" y1="322.8" x2="250.7" y2="322.8"/>
	<line class="st4" x1="279.2" y1="322.8" x2="258.5" y2="343.5"/>
	<line class="st4" x1="279.2" y1="322.8" x2="279.3" y2="352.5"/>
	<line class="st4" x1="279.2" y1="322.8" x2="301.6" y2="345.2"/>
	<line class="st4" x1="279.2" y1="322.8" x2="316.5" y2="322.8"/>
	<line class="st1" x1="266.4" y1="294.8" x2="321.1" y2="294.8"/>
	<path class="st0" d="M260.9,247.8c4.5,0,36.9,12.1,36.9,47"/>
	<line class="st0" x1="262.8" y1="271.3" x2="294.7" y2="238.2"/>
	<line class="st0" x1="292.4" y1="272.1" x2="264.1" y2="294.8"/>
	<line class="st2" x1="236" y1="294.8" x2="177.9" y2="294.8"/>
	<line class="st4" x1="222.5" y1="275.3" x2="222.5" y2="361.5"/>
	<line class="st4" x1="208" y1="294.8" x2="208" y2="353.4"/>
	<line class="st0" x1="192.6" y1="294.8" x2="192.6" y2="338.9"/>
	<line class="st4" x1="236" y1="294.8" x2="236" y2="348"/>
	<polyline class="st1" points="250,311.1 250,334 249.7,336.1 	"/>
	<path class="st4" d="M210.5,355.1c13.9,0,24.1,0.1,39.1-19"/>
	<line class="st2" x1="250" y1="222.7" x2="250" y2="280.8"/>
	<line class="st0" x1="208" y1="254.8" x2="236" y2="254.8"/>
	<line class="st0" x1="222" y1="228.4" x2="222" y2="254.8"/>
	<path class="st0" d="M207,237c1,5.6,3.7,39.1-7.4,39.3c0,6,0,18.5,0,18.5"/>
	<path class="st0" d="M236,239c0,3.7-0.4,24-0.2,28.1s6.5,13.1,10.3,14.2"/>
	<path class="st0" d="M183,164.5c20.1-10.4,42.9-16.2,67-16.2c24.6,0,47.8,6.1,68.1,16.8"/>
	<line class="st0" x1="205.7" y1="155.1" x2="218.8" y2="195.4"/>
	<line class="st0" x1="231.1" y1="149.5" x2="235.7" y2="190.7"/>
	<line class="st0" x1="270.3" y1="149.7" x2="262.8" y2="191.5"/>
	<line class="st0" x1="296.1" y1="155.7" x2="281.2" y2="195.4"/>
	<path class="st0" d="M146.8,163.1c4.3-1.7,24.1-15,26.2-19.8c3.8,8.6,28.8,59.2,28.8,59.2"/>
	<path class="st0" d="M351.6,161.6c-4.3-1.7-22.5-13.4-24.6-18.2c-3.8,8.6-28.8,59.2-28.8,59.2"/>
	<line class="st0" x1="236" y1="398" x2="228.5" y2="460.8"/>
	<line class="st0" x1="218.5" y1="394.1" x2="201.2" y2="453.7"/>
	<line class="st0" x1="201.2" y1="386.8" x2="174.2" y2="441.8"/>
	<line class="st0" x1="186.4" y1="376.9" x2="148.7" y2="426.3"/>
	<line class="st0" x1="167.8" y1="357" x2="120" y2="395.1"/>
	<line class="st0" x1="157.7" y1="343.5" x2="109.3" y2="365.9"/>
	<line class="st0" x1="150.5" y1="325.4" x2="103.3" y2="338.9"/>
	<line class="st0" x1="148.7" y1="304.8" x2="103.4" y2="313.1"/>
	<line class="st0" x1="103.4" y1="275.3" x2="146.8" y2="283.5"/>
	<line class="st0" x1="105.8" y1="250.6" x2="151" y2="262.4"/>
	<line class="st0" x1="112.5" y1="219.8" x2="157.7" y2="246.6"/>
	<line class="st0" x1="122.9" y1="197.9" x2="167.5" y2="231.3"/>
	<circle class="st0" cx="250" cy="294.8" r="104.1"/>
	<line class="st0" x1="264.1" y1="398" x2="271.5" y2="460.8"/>
	<line class="st0" x1="281.6" y1="394.1" x2="298.9" y2="453.7"/>
	<line class="st0" x1="298.9" y1="386.8" x2="325.9" y2="441.8"/>
	<line class="st0" x1="313.7" y1="376.9" x2="351.4" y2="426.3"/>
	<line class="st0" x1="332.3" y1="357" x2="380" y2="395.1"/>
	<line class="st0" x1="342.4" y1="343.5" x2="390.8" y2="365.9"/>
	<line class="st0" x1="349.6" y1="325.4" x2="396.8" y2="338.9"/>
	<line class="st0" x1="351.4" y1="304.8" x2="396.6" y2="313.1"/>
	<line class="st0" x1="396.6" y1="275.3" x2="353.2" y2="283.5"/>
	<line class="st0" x1="394.3" y1="250.6" x2="349" y2="262.4"/>
	<line class="st0" x1="387.6" y1="219.8" x2="342.4" y2="246.6"/>
	<line class="st0" x1="377.2" y1="197.9" x2="332.5" y2="231.3"/>
	<polyline class="st0" points="313.5,212.2 359.3,153 384.2,162.3 387.3,190.7 377.2,197.9 387.6,219.8 399,230.5 394.3,250.6 
		396.6,275.3 409.9,272.1 414.5,294.8 408.3,315.3 396.6,313.1 396.6,337.7 398.7,358 384.7,372 380,395.1 388.1,400.8 383.4,428 
		359.3,436.8 351.4,426.3 325.9,441.8 317.6,455 298.9,453.7 271.5,460.8 271.5,470.5 250,483 228.5,470.5 228.5,460.8 201.2,453.7 
		182.5,455 174.2,441.8 148.7,426.3 140.8,436.8 116.7,428 112,400.8 120,395.1 115.4,372 101.4,358 103.4,337.7 103.4,313.1 
		91.8,315.3 85.6,294.8 90.2,272.1 103.4,275.3 105.8,250.6 101.1,230.5 112.5,219.8 122.9,197.9 112.8,190.7 115.9,162.3 
		140.8,153 186.6,212.2 	"/>
</g>
<g id="btmtxt">
	<g>
		<path class="st3" d="M215.2,382.8l4.2-12.2l4.6,1.6c0.8,0.3,1.4,0.5,1.8,0.7c0.6,0.3,1,0.7,1.3,1.1s0.5,0.9,0.6,1.5
			c0.1,0.6,0,1.2-0.2,1.8c-0.4,1-1,1.8-1.9,2.3c-0.9,0.5-2.2,0.4-3.9-0.1l-3.1-1.1l-1.7,5L215.2,382.8z M219,376.9l3.2,1.1
			c1,0.4,1.9,0.4,2.4,0.2c0.6-0.2,1-0.7,1.2-1.4c0.2-0.5,0.2-1,0.1-1.4c-0.1-0.5-0.4-0.8-0.8-1.1c-0.2-0.2-0.7-0.4-1.5-0.6l-3.1-1.1
			L219,376.9z"/>
		<path class="st3" d="M228.2,380.5c0.4-2.1,1.2-3.6,2.6-4.6c1.3-1,2.9-1.3,4.7-1c1.2,0.2,2.2,0.7,3,1.4s1.4,1.6,1.7,2.7
			c0.3,1.1,0.4,2.3,0.1,3.5c-0.2,1.3-0.7,2.4-1.4,3.3c-0.7,0.9-1.6,1.6-2.6,1.9c-1,0.4-2.1,0.4-3.2,0.2c-1.2-0.2-2.2-0.7-3-1.4
			s-1.4-1.7-1.7-2.7C228,382.7,228,381.6,228.2,380.5z M229.9,380.9c-0.3,1.5-0.1,2.8,0.6,3.8c0.7,1,1.6,1.7,2.9,1.9
			c1.3,0.2,2.4,0,3.4-0.8c1-0.7,1.6-1.9,1.9-3.6c0.2-1,0.2-2,0-2.8s-0.6-1.5-1.2-2.1c-0.6-0.5-1.3-0.9-2.1-1c-1.2-0.2-2.3,0-3.3,0.7
			C230.9,377.7,230.2,378.9,229.9,380.9z"/>
		<path class="st3" d="M242.2,389l0.6-12.9l1.7,0.1l-0.5,11.4l6.3,0.3l-0.1,1.5L242.2,389z"/>
		<path class="st3" d="M253.1,389.3l-0.5-12.9l1.7-0.1l0.5,12.9L253.1,389.3z"/>
		<path class="st3" d="M266.9,383.3l1.7,0.2c-0.2,1.4-0.6,2.6-1.5,3.4c-0.8,0.9-1.9,1.4-3.2,1.6c-1.4,0.2-2.5,0.1-3.5-0.4
			c-0.9-0.4-1.7-1.2-2.3-2.1c-0.6-1-1-2.1-1.2-3.3c-0.2-1.3-0.1-2.5,0.3-3.6s1-1.9,1.8-2.6c0.9-0.6,1.9-1.1,3-1.2
			c1.3-0.2,2.4,0,3.4,0.5s1.7,1.4,2.2,2.5l-1.6,0.6c-0.4-0.9-1-1.5-1.6-1.8c-0.6-0.3-1.4-0.5-2.2-0.3c-1,0.1-1.8,0.5-2.4,1.1
			c-0.6,0.6-1,1.3-1.1,2.1c-0.2,0.8-0.2,1.7,0,2.5c0.2,1.1,0.4,2,0.9,2.8c0.4,0.8,1,1.3,1.7,1.6c0.7,0.3,1.5,0.4,2.3,0.3
			c0.9-0.1,1.7-0.5,2.3-1.2S266.9,384.4,266.9,383.3z"/>
		<path class="st3" d="M272.2,386.7l-3.1-12.5l1.7-0.4l3.1,12.5L272.2,386.7z"/>
		<path class="st3" d="M276.1,385.9l0.3-13.8l1.7-0.6l9.3,10.4l-1.8,0.7l-2.7-3.2l-5.1,1.8l0,4.1L276.1,385.9z M277.8,379.6l4.1-1.5
			l-2.5-2.9c-0.8-0.9-1.3-1.6-1.8-2.2c0.1,0.8,0.2,1.7,0.2,2.6L277.8,379.6z"/>
	</g>
</g>
<g id="toptext">
	<g>
		<path class="st3" d="M170.1,262.5l1-1.5c1.2,0.8,2,1.8,2.4,2.9c0.4,1.1,0.4,2.3-0.1,3.6c-0.5,1.3-1.1,2.3-1.9,2.9s-1.8,1-3,1.1
			c-1.2,0.1-2.3-0.1-3.5-0.5c-1.3-0.4-2.3-1.1-3.1-1.9c-0.8-0.8-1.3-1.8-1.4-2.8s-0.1-2.1,0.3-3.2c0.4-1.2,1.1-2.1,2-2.7
			s2-0.9,3.2-0.8l-0.2,1.7c-1,0-1.8,0.2-2.4,0.6c-0.6,0.4-1,1-1.3,1.8c-0.3,0.9-0.4,1.8-0.1,2.6c0.2,0.8,0.7,1.4,1.3,2
			c0.7,0.5,1.4,0.9,2.2,1.2c1,0.4,2,0.5,2.9,0.5c0.9,0,1.6-0.3,2.2-0.8c0.6-0.5,1-1.1,1.3-1.9c0.3-0.9,0.3-1.8,0-2.6
			C171.6,263.8,171,263.1,170.1,262.5z"/>
		<path class="st3" d="M168.3,247.2l0.8-1.5l6.6,3.5c1.1,0.6,2,1.2,2.5,1.8c0.5,0.6,0.8,1.4,0.9,2.3c0.1,0.9-0.2,1.9-0.8,3
			c-0.6,1.1-1.2,1.8-2,2.3c-0.7,0.5-1.5,0.7-2.4,0.6c-0.8-0.1-1.9-0.4-3.1-1.1l-6.6-3.5l0.8-1.5l6.6,3.5c1,0.5,1.8,0.8,2.3,0.9
			c0.6,0.1,1.1-0.1,1.6-0.4c0.5-0.3,0.9-0.8,1.3-1.4c0.6-1.1,0.8-2,0.5-2.8s-1.1-1.5-2.5-2.3L168.3,247.2z"/>
		<path class="st3" d="M181.9,249.6l-10.3-7.7l5.6-7.5l1.2,0.9l-4.6,6.1l3.2,2.4l4.3-5.7l1.2,0.9l-4.3,5.7l3.5,2.6l4.7-6.3l1.2,0.9
			L181.9,249.6z"/>
		<path class="st3" d="M189.1,240.3l-9-9.2l4.1-4c0.8-0.8,1.5-1.3,2.1-1.6c0.6-0.3,1.2-0.3,1.9-0.1s1.2,0.5,1.7,1
			c0.6,0.7,1,1.4,1,2.3s-0.4,1.8-1.1,2.8c0.5-0.2,0.9-0.3,1.2-0.3c0.7,0,1.4,0.1,2.2,0.2l4.1,0.9l-1.5,1.5l-3.1-0.7
			c-0.9-0.2-1.6-0.3-2.1-0.4c-0.5-0.1-0.9-0.1-1.2,0c-0.3,0.1-0.6,0.2-0.8,0.3c-0.2,0.1-0.4,0.3-0.7,0.6l-1.4,1.4l4,4.1L189.1,240.3
			z M185.3,234l2.6-2.6c0.6-0.5,0.9-1,1.1-1.5s0.3-0.8,0.2-1.3s-0.3-0.8-0.6-1.1c-0.4-0.4-0.9-0.6-1.5-0.6c-0.6,0-1.2,0.4-1.9,1.1
			l-2.9,2.9L185.3,234z"/>
		<path class="st3" d="M198.4,231.5l-7.6-10.4l3.9-2.9c0.7-0.5,1.2-0.9,1.7-1.1c0.6-0.3,1.1-0.4,1.6-0.4c0.5,0,1,0.1,1.6,0.4
			c0.5,0.3,1,0.7,1.4,1.2c0.6,0.9,0.9,1.8,0.8,2.9c-0.1,1-0.9,2.1-2.4,3.1l-2.7,1.9l3.1,4.2L198.4,231.5z M195.8,225l2.7-2
			c0.9-0.6,1.4-1.3,1.5-1.9c0.1-0.6,0-1.2-0.5-1.8c-0.3-0.4-0.7-0.7-1.1-0.9s-0.9-0.1-1.3,0c-0.3,0.1-0.7,0.4-1.4,0.8l-2.7,1.9
			L195.8,225z"/>
		<path class="st3" d="M204.6,219.3c-1-1.9-1.2-3.7-0.8-5.3c0.5-1.6,1.5-2.8,3.1-3.6c1.1-0.5,2.1-0.8,3.3-0.7s2.1,0.4,3,1.1
			c0.9,0.7,1.7,1.6,2.2,2.7c0.6,1.2,0.9,2.3,0.9,3.5c0,1.2-0.3,2.2-0.9,3.1s-1.4,1.6-2.4,2.1c-1.1,0.6-2.2,0.8-3.3,0.7
			c-1.1-0.1-2.1-0.5-3-1.1S205.1,220.4,204.6,219.3z M206.2,218.6c0.7,1.4,1.6,2.3,2.8,2.7s2.3,0.3,3.4-0.2c1.1-0.6,1.9-1.5,2.2-2.6
			s0.1-2.5-0.6-4c-0.5-0.9-1.1-1.7-1.7-2.2c-0.7-0.5-1.4-0.8-2.2-0.9c-0.8-0.1-1.6,0.1-2.3,0.5c-1.1,0.6-1.8,1.4-2.2,2.5
			C205.1,215.4,205.3,216.8,206.2,218.6z"/>
		<path class="st3" d="M225.2,216.9l-3.1-12.5l1.7-0.4l9,8.2l-2.5-9.8l1.6-0.4l3.1,12.5l-1.7,0.4l-9-8.2l2.5,9.8L225.2,216.9z"/>
		<path class="st3" d="M236.2,214.2l3.7-13.3l1.8-0.2l6.5,12.3l-1.9,0.2l-1.9-3.7l-5.4,0.5l-1,4L236.2,214.2z M239.4,208.5l4.3-0.4
			l-1.7-3.4c-0.5-1-0.9-1.9-1.2-2.6c-0.1,0.8-0.2,1.7-0.5,2.5L239.4,208.5z"/>
		<path class="st3" d="M258.8,209.1l1.7,0.5c-0.4,1.4-1.1,2.4-2.1,3.1c-1,0.7-2.1,1-3.5,0.9c-1.4-0.1-2.5-0.4-3.3-1
			c-0.8-0.6-1.5-1.5-1.9-2.6c-0.4-1.1-0.6-2.3-0.5-3.5c0.1-1.3,0.4-2.5,1-3.5c0.6-1,1.3-1.7,2.3-2.2s2-0.7,3.2-0.6
			c1.3,0.1,2.4,0.5,3.2,1.2c0.8,0.7,1.4,1.7,1.7,2.9l-1.7,0.3c-0.2-1-0.6-1.7-1.2-2.1c-0.5-0.5-1.2-0.7-2.1-0.8
			c-1-0.1-1.8,0.1-2.5,0.6c-0.7,0.4-1.2,1-1.5,1.8c-0.3,0.8-0.5,1.6-0.5,2.4c-0.1,1.1,0,2.1,0.3,2.9c0.3,0.8,0.7,1.5,1.4,1.9
			s1.4,0.7,2.2,0.7c1,0.1,1.8-0.2,2.5-0.7C258,210.9,258.5,210.1,258.8,209.1z"/>
		<path class="st3" d="M262.6,214.2l2.1-12.7l1.7,0.3l-2.1,12.7L262.6,214.2z"/>
		<path class="st3" d="M268.5,208.7c0.6-2.1,1.6-3.5,3-4.3c1.4-0.8,3-1,4.8-0.5c1.1,0.3,2.1,0.9,2.9,1.7c0.8,0.8,1.2,1.8,1.4,2.9
			c0.2,1.1,0.1,2.3-0.2,3.5c-0.4,1.3-0.9,2.3-1.7,3.1c-0.8,0.8-1.7,1.4-2.8,1.6c-1.1,0.2-2.2,0.2-3.2-0.1c-1.2-0.3-2.1-0.9-2.9-1.7
			c-0.8-0.8-1.2-1.8-1.4-2.9S268.2,209.8,268.5,208.7z M270.2,209.2c-0.4,1.5-0.4,2.8,0.2,3.9c0.6,1.1,1.4,1.8,2.6,2.2
			c1.2,0.4,2.4,0.2,3.4-0.4c1-0.6,1.8-1.8,2.3-3.3c0.3-1,0.4-1.9,0.2-2.8c-0.1-0.9-0.5-1.6-1-2.2c-0.5-0.6-1.2-1-2-1.3
			c-1.2-0.3-2.3-0.2-3.3,0.3C271.5,206.1,270.7,207.3,270.2,209.2z"/>
		<path class="st3" d="M280.4,218.9l5.5-11.6l1.6,0.8l1.8,12l4.3-9.1l1.5,0.7l-5.5,11.6l-1.6-0.8l-1.8-12l-4.3,9.1L280.4,218.9z"/>
		<path class="st3" d="M290.6,223.8l11.3-7.9l1.5,1l-2.8,13.6l-1.6-1.1l0.9-4.1l-4.5-3l-3.4,2.4L290.6,223.8z M296.6,221.4l3.6,2.4
			l0.9-3.7c0.3-1.1,0.5-2,0.7-2.7c-0.6,0.6-1.2,1.1-2,1.7L296.6,221.4z"/>
		<path class="st3" d="M301.4,231.3l8.6-9.6l1.3,1.1l-7.5,8.5l4.7,4.2l-1,1.1L301.4,231.3z"/>
		<path class="st3" d="M308.8,238.1l9.8-8.4l6.1,7.1l-1.2,1l-5-5.8l-3,2.6l4.7,5.4l-1.1,1l-4.7-5.4l-3.3,2.9l5.2,6l-1.2,1
			L308.8,238.1z"/>
		<path class="st3" d="M319.4,251.5l11.3-6.1l2.1,3.9c0.5,0.9,0.8,1.6,0.9,2.1c0.2,0.7,0.2,1.4,0.1,2.1c-0.2,0.9-0.6,1.7-1.2,2.4
			c-0.6,0.7-1.4,1.4-2.5,1.9c-0.9,0.5-1.7,0.8-2.4,0.9c-0.8,0.2-1.5,0.2-2.1,0.1c-0.6-0.1-1.1-0.2-1.6-0.5s-0.9-0.6-1.3-1
			s-0.8-1-1.2-1.7L319.4,251.5z M321.5,252.2l1.3,2.4c0.4,0.7,0.8,1.3,1.2,1.6c0.4,0.3,0.7,0.6,1.1,0.7c0.5,0.2,1.2,0.2,1.9,0.1
			c0.7-0.1,1.5-0.4,2.3-0.9c1.2-0.6,2-1.3,2.4-2.1c0.4-0.7,0.6-1.4,0.5-2.1c-0.1-0.5-0.3-1.2-0.8-2.1l-1.3-2.4L321.5,252.2z"/>
		<path class="st3" d="M325.3,262.8l12.1-4.4l3.2,8.8l-1.4,0.5l-2.6-7.2l-3.7,1.3l2.4,6.7l-1.4,0.5l-2.4-6.7l-4.1,1.5l2.7,7.4
			l-1.4,0.5L325.3,262.8z"/>
	</g>
</g>
</svg>
