<?xml version="1.0" encoding="utf-8"?>
<!-- Generator: Adobe Illustrator 19.2.1, SVG Export Plug-In . SVG Version: 6.00 Build 0)  -->
<svg version="1.1" id="Capa_1" xmlns="http://www.w3.org/2000/svg" xmlns:xlink="http://www.w3.org/1999/xlink" x="0px" y="0px"
	 viewBox="0 0 311.8 311.8" style="enable-background:new 0 0 311.8 311.8;" xml:space="preserve">
<style type="text/css">
	.st0{fill:#FFFFFF;}
	.st1{fill:#52A5DF;}
</style>
<path class="st0" d="M307.2,217.2c-100.9,0-201.8,0-302.6,0c0-40.8,0-81.7,0-122.5c100.9,0,201.8,0,302.6,0
	C307.2,135.5,307.2,176.3,307.2,217.2z"/>
<path class="st0" d="M12.5,130.7c0,16.5,0,33,0,49.5c9.6,0,19.1,0,28.8,0c0,9.5,0,18.9,0,28.4c16.8,0,33.4,0,50.2,0
	c0-9.5,0-18.9,0-28.4c9.6,0,19.2,0,28.8,0c0-16.5,0-32.9,0-49.3c-9.6,0-19.2,0-28.8,0c0-9.5,0-18.9,0-28.4c-16.8,0-33.4,0-50.1,0
	c0,0.1,0,0.1,0,0.2c0,5,0,10,0,14.9c0,0.2,0.1,0.5,0.3,0.7c0.7,0.7,1.6,1.3,2.3,2c0.9,0.9,1.7,1.9,2.6,2.8c0.3,0.3,0.6,0.6,0.8,0.9
	c0.2,0.3,0.6,0.6,0.9,0.4c0.2-0.1,0.3-0.5,0.3-0.7c0-4.5,0-8.9,0-13.4c0-0.2,0-0.5,0-0.7c12,0,23.8,0,35.7,0c0,9.4,0,18.8,0,28.2
	c9.6,0,19.2,0,28.7,0c0,11.8,0,23.6,0,35.4c-9.6,0-19.2,0-28.8,0c0,9.5,0,18.8,0,28.2c-12,0-23.9,0-35.9,0c0-9.4,0-18.8,0-28.3
	c-9.6,0-19.1,0-28.6,0c0-11.8,0-23.6,0-35.3c0.1,0,0.2,0,0.3,0c2,0,4,0,6,0c0.3,0,0.6,0.1,0.8,0.3c0.7,0.6,1.4,1.2,2.1,1.8
	c0.7,0.6,1.3,1.4,1.9,2c1,1,2.1,1.9,3.1,2.9c0.9,0.8,1.8,1.7,2.6,2.5c0.4,0.4,0.8,0.7,1.1,1.1c1,1,1.9,1.9,2.8,2.9
	c0.6,0.6,1.3,1.2,1.9,1.8c0.4,0.4,0.6,0.9,1,1.2c1.3,1.3,2.6,2.5,4,3.8c0.2,0.2,0.5,0.2,0.8,0.3c0.1-0.2,0.2-0.5,0.2-0.7
	c0-2.5-0.1-5,0-7.5c0-1.1-0.5-1.8-1.2-2.5c-1.4-1.4-2.9-2.7-4.4-4c-0.1-0.1-0.3-0.2-0.3-0.3c-0.6-1.2-1.8-1.9-2.7-2.8
	c-0.7-0.8-1.6-1.4-2.3-2.1c-0.4-0.4-0.7-0.8-1-1.2c-0.5-0.5-1-0.9-1.5-1.4c-0.6-0.5-1.1-1-1.7-1.6c-0.7-0.7-1.3-1.5-2-2.3
	c-0.6-0.6-1.1-1.2-2.1-1.2c-5.4,0-10.7,0-16.1,0C13.1,130.7,12.8,130.7,12.5,130.7z"/>
<path class="st0" d="M77.1,164.8c0-1.1,0-2.2,0-3.3c0-0.7,0.1-1.4-0.6-2c-0.8-0.6-1.4-1.5-2.1-2.2c-1-1-2-1.9-3-2.9
	c-0.6-0.6-1.2-1.3-1.8-1.9c-0.5-0.5-1.1-1-1.6-1.5c-0.7-0.7-1.4-1.3-2.1-2c-0.7-0.7-1.4-1.6-2.1-2.3c-1-0.9-2-1.8-3-2.7
	c-0.3-0.3-0.6-0.5-0.8-0.8c-0.4-0.4-0.7-0.9-1.1-1.3c-1-1-2.1-2-3.1-3c-0.4-0.4-0.8-0.9-1.2-1.3c-1.2-1.1-2.4-2.2-3.5-3.3
	c-1.1-1.1-2.2-2.2-3.2-3.3c-0.5-0.5-1.1-1-1.6-1.5c-0.7-0.7-1.4-1.3-2.1-2c-0.7-0.7-1.3-1.4-2-2.2c-0.1-0.1-0.4-0.2-0.5-0.2
	c-0.1,0.2-0.2,0.4-0.2,0.5c0,2.9,0,5.7,0,8.6c0,0.3,0.1,0.8,0.3,1c0.5,0.6,1.2,1.1,1.8,1.6c0.5,0.5,1,1,1.5,1.6
	c0.1,0.1,0.3,0.3,0.4,0.4c1.4,1.4,2.9,2.7,4.4,4.1c0.4,0.3,0.6,0.8,1,1.1c1.4,1.3,2.8,2.6,4.1,3.9c0.4,0.4,0.7,1,1.2,1.4
	c1.3,1.2,2.6,2.4,3.9,3.7c1.1,1,2.1,2.1,3.1,3.2c0.9,0.9,1.8,1.7,2.7,2.6c1.1,1.1,2.2,2.1,3.3,3.2c0.7,0.7,1.5,1.4,2.2,2.1
	c0.4,0.4,0.7,0.9,1.1,1.3c1.3,1.3,2.7,2.6,4,3.9c0.2,0.2,0.4,0.2,0.6,0.3c0.1-0.2,0.2-0.4,0.2-0.6C77.1,167.6,77.1,166.2,77.1,164.8
	z"/>
<path class="st1" d="M284.2,170.5c0,0.1,0,0.1,0,0.2c1.1-0.2,2.1-0.4,3.2-0.6c0.4-0.1,0.7-0.3,1.1-0.4c1.1-0.4,2.2-0.7,3.2-1.2
	c2-1,3.8-2.3,5-4.3c0.7-1.3,1.6-2.4,2-3.9c0.2-0.8,0.4-1.6,0.6-2.3c0.1-0.4,0.2-0.8,0.2-1.2c0.1-2.2-0.2-4.3-1-6.3
	c-0.4-0.9-0.7-1.9-1.2-2.7c-1.1-1.6-2.5-3-4.2-4.1c-0.2-0.2-0.4-0.4-0.7-0.6c-0.2-0.2-0.4-0.5-0.6-0.6c-1.2-0.6-2.4-1.1-3.7-1.3
	c-1.8-0.4-3.5-0.6-5.4-0.4c-0.6,0.1-1.2,0.2-1.8,0.3c-1,0.3-2,0.6-3,0.9c-0.6,0.2-1.1,0.5-1.6,0.8c-0.7,0.5-1.2,1.1-1.9,1.6
	c-1.8,1.5-3.2,3.2-4,5.4c-0.2,0.4-0.4,0.9-0.5,1.3c-0.3,1.1-0.5,2.1-0.7,3.2c-0.1,0.7-0.1,1.4-0.1,2.2c0,0.6,0.1,1.1,0.3,1.7
	c0.3,1.2,0.6,2.3,1.1,3.5c0.2,0.7,0.7,1.2,1.1,1.8c0.5,0.8,1,1.6,1.7,2.2c0.6,0.6,1.4,1.1,2.1,1.7c0.9,0.8,2,1.3,3.1,1.6
	c0.7,0.2,1.4,0.3,1.9,0.6C281.7,170.4,282.9,170.7,284.2,170.5z"/>
<path class="st1" d="M284.4,131.5c1-0.2,2.1-0.3,3.1-0.5c1.4-0.4,2.8-0.8,4.1-1.4c0.9-0.4,1.8-1.1,2.6-1.7c0.3-0.2,0.5-0.5,0.7-0.8
	c0.2-0.2,0.4-0.4,0.6-0.7c0.9-1,1.8-2.1,2.4-3.4c0.3-0.7,0.5-1.4,0.7-2.1c0.2-0.7,0.5-1.5,0.6-2.3c0.1-1,0-2.1,0-3.1
	c0.1-1.7-0.6-3.2-1.1-4.8c-0.4-1.1-1.2-2-1.9-3c-0.5-0.7-1.3-1.2-1.8-1.9c-0.4-0.7-1-1-1.6-1.4c-2-1.3-4.2-2.1-6.5-2.4
	c-2.2-0.3-4.4-0.1-6.5,0.5c-2.5,0.8-4.9,2-6.6,4.1c-0.8,1-1.7,2.1-2.3,3.3c-0.9,1.7-1.5,3.5-1.7,5.4c-0.1,0.8-0.1,1.5,0,2.3
	c0.2,1.2,0.4,2.4,0.7,3.6c0.2,0.8,0.4,1.6,0.9,2.3c0.7,1.1,1.5,2,2.3,3c0.1,0.2,0.3,0.3,0.4,0.5c0.3,0.4,0.5,0.9,0.9,1.1
	c1.4,0.8,2.8,1.7,4.5,2.3C280.7,131.1,282.5,131.4,284.4,131.5z"/>
<path class="st1" d="M163.8,140.8c-0.7,0.1-1.5,0.2-2.2,0.2c-1.4,0-2.7,0.5-4,1c-1.3,0.4-2.2,1.3-3.2,2.1c-0.9,0.7-1.7,1.4-2.4,2.2
	c-0.5,0.5-1,1.2-1.3,1.8c-0.7,1.6-1.6,3.2-1.7,5.1c-0.1,0.7-0.4,1.4-0.3,2.2c0.1,1.5,0.3,3.1,0.6,4.6c0.4,2,1.6,3.5,2.7,5.1
	c1.1,1.5,2.7,2.7,4.4,3.6c1,0.5,2.1,0.7,3.1,1.2c2,1,4.1,0.8,6.2,0.5c0.7-0.1,1.4-0.4,2.1-0.7c1.2-0.6,2.5-1.1,3.6-1.8
	c1.4-0.9,2.7-2.1,3.4-3.7c0.6-1.3,1.3-2.6,1.6-4.1c0.2-1,0.3-1.9,0.5-2.9c0.1-1.1,0-1.3-0.7-1.6c-0.3-0.1-0.6-0.1-0.9-0.1
	c-1.2,0-2.3,0-3.5,0c-1.9,0-3.8,0-5.8,0c-0.6,0-0.8,0.3-0.8,0.9c0,0.5,0,1,0,1.5c0,0.6,0.2,0.9,0.9,0.9c0.4,0,0.7,0,1.1,0
	c1.6,0,3.3,0,4.9,0c0.5,0,0.8,0.3,0.7,0.8c-0.2,0.7-0.4,1.5-0.7,2.1c-0.7,1.4-1.8,2.6-3,3.5c-1.5,1.2-3.2,2-5.1,2
	c-1.4,0-2.7-0.1-4-0.5c-0.8-0.3-1.5-0.6-2.2-1.1c-0.6-0.4-1.1-0.9-1.5-1.4c-0.8-0.8-1.6-1.6-2.3-2.6c-0.7-1-1.1-2.1-1.3-3.4
	c-0.2-1.2-0.5-2.4-0.4-3.6c0.3-2.3,1.2-4.2,2.4-6.1c0.9-1.3,2.2-2.2,3.6-2.9c1.4-0.7,2.9-1.2,4.5-1.3c1.4-0.1,2.8-0.1,4.1,0.5
	c2,0.8,3.9,1.7,5.2,3.4c0.3,0.4,0.7,0.5,1.1,0.1c0.5-0.4,1-0.9,1.5-1.4c0.5-0.4,0.5-0.7,0-1.1c-0.6-0.5-1.2-1-1.9-1.5
	c-0.3-0.3-0.7-0.6-1-0.9c-0.3-0.3-0.6-0.7-1-0.8c-1-0.4-2-0.6-3-1C166.7,141,165.3,140.7,163.8,140.8z"/>
<path class="st1" d="M260.4,155.3C260.4,155.3,260.4,155.3,260.4,155.3c-1,0.1-2.1,0.1-3.1,0.1c-0.7,0-1,0.4-0.9,1.1
	c0.1,0.4,0.1,0.9,0.1,1.4c0,0.5,0.1,0.8,0.6,0.8c2,0,4-0.1,6-0.1c0.6,0,0.9,0.3,0.8,0.9c-0.4,2.4-1.9,4.1-3.7,5.7
	c-0.4,0.3-0.8,0.6-1.3,0.9c-1,0.5-2,1-3.1,1c-1.1,0-2.1,0.1-3.1,0c-1-0.2-2-0.5-2.9-1c-0.7-0.3-1.5-0.8-2-1.4
	c-0.8-0.8-1.5-1.9-2.3-2.7c-1.4-1.5-1.7-3.4-2-5.2c-0.3-1.7,0.1-3.5,0.8-5.1c0.6-1.5,1.5-2.9,2.6-4.1c1.6-1.7,3.7-2.6,6-3
	c1.6-0.3,3.3-0.3,4.9,0.3c2.1,0.8,4.1,1.6,5.6,3.5c0.4,0.4,0.7,0.4,1.2,0c0.5-0.4,0.9-0.8,1.4-1.2c0.5-0.4,0.6-0.7,0.1-1.1
	c-0.6-0.6-1.3-1.1-1.9-1.6c-0.4-0.3-0.7-0.6-1.1-0.9c-0.4-0.3-0.8-0.7-1.2-0.8c-1-0.4-2-0.5-3-0.9c-1.2-0.5-2.4-0.6-3.6-0.6
	c-0.9,0-1.7,0.2-2.6,0.2c-1.7,0-3.1,0.7-4.6,1.4c-0.4,0.2-0.8,0.4-1.1,0.6c-0.7,0.5-1.3,1.1-2,1.6c-1.2,0.9-2.3,2-3,3.3
	c-0.8,1.4-1.3,2.9-1.7,4.4c-0.5,1.8-0.6,3.6-0.2,5.4c0.2,0.6,0.1,1.3,0.3,2c0.2,0.8,0.6,1.5,0.9,2.3c0.6,1.1,1.2,2.2,1.9,3.2
	c1.2,1.6,2.9,2.7,4.6,3.6c0.5,0.3,1.1,0.5,1.7,0.7c0.5,0.2,1.1,0.3,1.6,0.5c0.4,0.1,0.9,0.5,1.3,0.5c1.5,0.1,2.9,0,4.4,0
	c0.1,0,0.2,0,0.3-0.1c0.6-0.2,1.1-0.6,1.7-0.7c2.1-0.6,3.8-1.7,5.4-3.1c1.1-1,1.7-2.2,2.3-3.5c1-2,1.6-4.2,1.5-6.4
	c0-0.9,0-0.9-0.9-1.1c-0.2,0-0.4,0-0.5,0c-0.7,0-1.5,0.1-2.2,0.1C263,155.4,261.7,155.4,260.4,155.3z"/>
<path class="st1" d="M261.8,208.7c1.9-0.1,4.1,0.2,6.2-0.5c0.5-0.1,1-0.1,1.5-0.3c0.9-0.3,1.7-0.5,2.4-1.2c0.1-0.1,0.3-0.1,0.4-0.1
	c1.3-0.5,2.4-1.4,3.4-2.3c1.6-1.4,2.4-3.4,3.1-5.4c0.9-2.5,0.7-5.1,0.4-7.6c-0.2-1.7-0.9-3.3-2-4.7c-0.5-0.6-0.7-1.3-1.2-1.8
	c-0.6-0.7-1.4-1.2-2.2-1.7c-1.3-1-2.9-1.4-4.4-1.9c-0.5-0.2-1-0.1-1.5-0.3c-0.8-0.4-1.7-0.7-2.6-0.7c-1.4,0-2.8,0-4.2,0
	c-0.9,0-1.9,0.1-2.8,0c-1.1-0.1-1.1,0.2-1.1,1c0,1,0.1,2.1,0.1,3.1c0,7.1,0,14.1,0,21.2c0,0.3-0.1,0.7-0.1,1c0,0.5,0.1,1,0.1,1.5
	c-0.1,0.6,0.2,0.7,0.6,0.7C259.2,208.7,260.4,208.7,261.8,208.7z"/>
<path class="st1" d="M214.3,130.7c-0.2-0.4-0.4-0.6-0.6-0.9c-0.6-0.7-1.2-1.4-1.7-2.1c-0.2-0.3-0.3-0.8-0.5-1.1
	c-0.7-0.9-1.4-1.7-2-2.5c-0.6-0.7-1.2-1.4-1.7-2.2c-0.6-0.9-1.3-1.8-1.9-2.6c-0.1-0.2-0.3-0.5-0.2-0.6c0.1-0.2,0.4-0.4,0.6-0.4
	c1.5-0.2,2.9-0.7,3.7-2.1c0.5-0.7,1.2-1.1,1.4-2c0.1-0.5,0.4-1.1,0.5-1.6c0.4-1.2,0.4-2.5,0.1-3.7c-0.3-1.1-0.9-2.1-1.4-3.1
	c-0.8-1.4-2.2-2.2-3.6-2.7c-1.4-0.5-3-0.6-4.6-0.7c-1.6-0.1-3.3-0.1-5-0.1c-1,0-1.2,0.2-1.1,1.2c0,0.8,0.1,1.6,0.1,2.4
	c0,8-0.1,16-0.1,24c0,0.8,0.1,1,1,1c0.7,0,1.3,0,2,0c0.6,0,0.9-0.3,0.9-0.9c0-1.7,0-3.5,0-5.2c0-1.4-0.1-2.7-0.1-4.1
	c0-0.4,0-0.8,0-1.2c0-0.5,0.3-0.8,0.7-0.7c0.4,0.1,0.9,0.4,1.2,0.7c0.7,0.9,1.4,1.9,2.1,2.9c0.7,0.9,1.3,1.8,2,2.7
	c0.7,1,1.4,2.1,2.1,3.1c0.4,0.6,0.9,1.2,1.3,1.8c0.4,0.6,0.9,0.9,1.6,0.9c0.9,0,1.7,0,2.6,0C213.8,130.9,214,130.8,214.3,130.7z"/>
<path class="st1" d="M146.9,206.2c0.1,0.2,0.2,0.3,0.2,0.4c0,0.4,0,0.8,0,1.2c-0.1,0.7,0.1,0.9,0.8,0.9c0.6,0,1.2,0,1.9,0
	c1,0,1,0,1-1c0-10.2,0-20.4,0-30.7c0-0.1,0-0.3,0-0.4c-0.1-0.2-0.3-0.4-0.4-0.5c-0.8-0.1-1.6-0.1-2.4-0.1c-0.5,0-0.8,0.2-0.8,0.8
	c0,3.9,0,7.8,0,11.7c0,1.5,0.1,2.9,0.1,4.4c0,0.2-0.2,0.4-0.3,0.6c-0.2-0.1-0.4-0.2-0.5-0.3c-0.3-0.3-0.6-0.6-0.9-0.9
	c-0.2-0.2-0.7-0.3-0.8-0.5c-0.5-0.8-1.3-0.9-2-1.1c-1.2-0.3-2.5-0.4-3.7,0c-0.7,0.2-1.5,0.3-2.1,0.9c-0.4,0.4-1,0.6-1.4,1
	c-1.1,1.2-2.1,2.4-2.5,4c-0.4,1.6-0.5,3.2-0.4,4.8c0.1,1,0.4,2,0.8,2.9c0.9,1.8,2.1,3.4,3.9,4.3c0.6,0.3,1.2,0.5,1.8,0.6
	c1,0.1,1.9,0,2.9,0c1,0.1,1.8-0.4,2.6-0.8c0.4-0.2,0.8-0.4,1.1-0.8C146.2,207.2,146.5,206.7,146.9,206.2z"/>
<path class="st1" d="M235.4,189.4c0-2.8,0-5.6,0-8.4c0-0.9-0.1-1-1-1c-0.6,0-1.2,0.1-1.7,0.1c-0.7-0.1-0.9,0-0.9,0.7
	c0,6.3,0.1,12.7,0.1,19c0,1.7,0.6,3.3,1.5,4.7c0.7,1.1,1.7,2,2.5,3c0.1,0.1,0.2,0.2,0.4,0.3c1.4,0.6,2.7,1.3,4.3,1.4
	c1.4,0,2.9,0.1,4.3-0.1c1.1-0.2,2.1-0.8,3.1-1.2c0.3-0.1,0.6-0.3,0.8-0.6c0.5-0.5,1-1.1,1.6-1.7c1.2-1.2,1.8-2.8,2.2-4.4
	c0.3-1.2,0.3-2.5,0.3-3.7c0-5.1,0-10.2,0-15.4c0-0.4,0.1-0.8,0.1-1.2c0.1-0.5-0.2-0.8-0.7-0.8c-0.7,0-1.4,0-2.2,0
	c-0.6,0-1,0.3-0.8,0.9c0.1,0.3,0.1,0.6,0.1,0.9c0,0.7-0.1,1.4-0.1,2c0,4,0,8.1,0,12.1c0,0.4,0.1,0.9,0,1.3c-0.1,0.7-0.2,1.4-0.3,2.1
	c-0.1,1.3-0.5,2.6-1.2,3.6c-0.8,1.2-1.8,2.1-3.3,2.3c-1.4,0.2-2.8,0.3-4.2,0c-1.6-0.3-2.7-1.2-3.5-2.5c-0.5-0.9-0.8-1.9-1.1-2.9
	c-0.2-1-0.2-2-0.3-3.1C235.3,194.5,235.4,192,235.4,189.4z"/>
<path class="st1" d="M216.3,179.2c-0.1,0-0.1,0-0.2,0c-0.1,0.2-0.2,0.3-0.3,0.5c-0.3,0.6-0.5,1.2-0.8,1.8c-0.5,1-1,2-1.5,3.1
	c-0.8,1.6-1.5,3.3-2.3,5c-0.7,1.6-1.5,3.2-2.2,4.8c-0.4,0.8-0.6,1.6-1,2.4c-0.5,1.1-1.1,2.2-1.6,3.3c-0.4,0.9-0.8,1.8-1.2,2.6
	c-0.3,0.7-0.7,1.5-1.1,2.2c-0.4,0.8-0.7,1.5-1,2.3c-0.2,0.4-0.5,0.9-0.3,1.3c0.2,0.6,0.8,0.2,1.2,0.2c0,0,0,0,0.1,0
	c0.6,0,1.2,0.1,1.8,0c0.3,0,0.7-0.2,0.8-0.4c0.6-1.2,1.1-2.4,1.7-3.6c0.4-0.8,0.7-1.7,1.1-2.5c0.2-0.5,0.5-0.7,1.1-0.7
	c3.8,0,7.6,0,11.5,0c0.6,0,1.1,0.1,1.2,0.8c0,0.2,0.2,0.4,0.3,0.6c0.5,0.9,0.9,1.9,1.4,2.8c0.4,0.8,0.7,1.7,1.1,2.5
	c0.1,0.2,0.3,0.4,0.5,0.4c0.9,0.1,1.7,0.1,2.6,0.1c0.8,0,0.9-0.4,0.6-1c-0.6-1.1-1.1-2.3-1.7-3.4c-0.5-1.1-0.9-2.2-1.4-3.3
	c-0.6-1.2-1.2-2.4-1.7-3.6c-0.4-0.8-0.7-1.6-1-2.4c-0.7-1.5-1.4-3-2-4.4c-0.4-0.8-0.8-1.6-1.2-2.5c-0.3-0.6-0.7-1.3-1-1.9
	c-0.4-0.9-0.7-1.8-1.1-2.6c-0.5-1.1-1-2.2-1.5-3.3C216.7,179.9,216.5,179.5,216.3,179.2z"/>
<path class="st1" d="M180.6,169.7c0.7,0.1,0.9-0.4,1.2-1c0.2-0.5,0.4-1,0.7-1.5c0.6-1.3,1.2-2.5,1.7-3.8c0.2-0.6,0.5-0.8,1.1-0.8
	c3.9,0,7.8,0,11.6,0c0.5,0,0.9,0.2,1.1,0.7c0.3,0.8,0.7,1.6,1,2.4c0.5,1,1,2,1.4,3c0.3,0.7,0.7,1,1.4,0.9c0.7,0,1.3,0,2,0
	c0.7,0.1,1-0.2,0.7-0.8c-0.3-0.7-0.7-1.3-1-2c-0.4-0.9-0.8-1.8-1.2-2.7c-0.6-1.4-1.3-2.7-2-4c-0.3-0.5-0.4-1.1-0.7-1.6
	c-0.5-1.1-1.1-2.1-1.6-3.2c-0.3-0.7-0.6-1.5-0.9-2.2c-0.6-1.3-1.2-2.6-1.8-3.8c-0.7-1.4-1.4-2.8-2-4.3c-0.6-1.2-1.1-2.5-1.6-3.8
	c-0.1-0.3-0.2-0.7-0.6-0.5c-0.2,0.1-0.4,0.3-0.5,0.6c-0.3,0.7-0.5,1.5-0.9,2.2c-0.8,1.8-1.7,3.6-2.6,5.4c-0.8,1.8-1.6,3.6-2.4,5.4
	c-0.9,1.9-1.8,3.8-2.7,5.7c-0.2,0.3-0.3,0.6-0.4,1c-0.5,1-0.9,1.9-1.4,2.9c-0.2,0.5-0.4,1.1-0.6,1.6c-0.6,1.2-1.2,2.3-1.8,3.5
	c-0.4,0.7-0.2,1,0.6,1C179,169.7,179.8,169.7,180.6,169.7z"/>
<path class="st1" d="M231,166.5c-1.6,0-3.2,0-4.8,0c-0.7,0-0.9-0.2-0.8-0.9c0-0.4,0.1-0.7,0.1-1.1c0-0.9-0.1-1.8-0.1-2.7
	c0-1.8,0-3.5,0-5.3c0-0.6,0.2-0.8,0.9-0.8c0.4,0,0.7,0.1,1.1,0.1c1.9,0,3.9,0,5.8,0c1.1,0,2.1,0,3.2,0c0.5,0,0.8-0.2,0.8-0.8
	c0-0.5,0-1,0-1.4c0-1-0.3-1.3-1.3-1.3c-2.3,0-4.6,0-6.8,0c-0.8,0-1.6,0.1-2.3,0.1c-0.7,0-0.9-0.1-1-0.8c-0.1-0.4,0-0.9,0-1.3
	c0-1.6-0.1-3.2-0.1-4.8c0-0.6,0.2-0.9,0.8-0.9c1.6,0,3.3,0,4.9,0c1.7,0,3.4,0,5.2,0c0.8,0,1.2-0.3,1.1-1c0-0.6,0-1.2-0.1-1.7
	c-0.1-0.3-0.4-0.7-0.7-0.7c-1-0.1-2,0-3,0c-2.1,0-4.1-0.1-6.2-0.1c-0.7,0-1.5,0.1-2.2,0.1c-0.9,0-1.7-0.1-2.6-0.1
	c-0.6,0-0.9,0.3-0.9,0.8c0,1,0,2,0,3c0,1,0.1,1.9,0.1,2.9c0,3.3-0.1,6.5-0.1,9.8c0,2.1,0.1,4.1,0.1,6.2c0,1.6,0,3.2-0.1,4.8
	c0,0.7,0.6,1,1.1,0.9c0.4-0.1,0.8-0.1,1.2-0.1c1.8,0,3.6,0.1,5.4,0.1c2.3,0,4.7,0,7,0c0.7,0,0.9-0.2,0.9-0.9c0-0.5,0-1,0.1-1.6
	c0-0.5-0.5-0.9-1-0.8c-0.3,0-0.5,0.1-0.8,0.1C234,166.5,232.5,166.5,231,166.5z"/>
<path class="st1" d="M283,196c0,3.9,0,7.9,0,11.8c0,0.8,0,0.8,0.8,0.8c4,0,8.1,0,12.1,0c0.7,0,1.3,0,2,0c0.4,0,0.6-0.2,0.6-0.6
	c0-0.8,0-1.6,0-2.3c0-0.4-0.2-0.6-0.7-0.6c-0.7,0-1.5,0-2.2,0c-0.9,0-1.8,0.1-2.7,0.1c-1.2,0-2.4,0-3.6,0c-0.5,0-1.1,0-1.6,0
	c-0.8,0.1-1.1-0.1-1.1-0.9c0-2.9,0-5.9,0-8.8c0-0.8,0.1-0.8,0.8-0.8c2.8,0,5.5,0,8.3,0c0.6,0,1.2,0,1.8,0c0.5,0,0.8-0.4,0.7-0.9
	c-0.1-0.4,0-0.8,0-1.2c0.1-0.7-0.2-1.2-0.9-1.1c-0.6,0-1.3,0.1-1.9,0.1c-0.8,0-1.5-0.1-2.3-0.1c-0.9,0-1.8,0.1-2.7,0.1c-1,0-2,0-3,0
	c-0.6,0-0.8-0.1-0.8-0.7c0-2.1,0-4.3,0-6.4c0-0.6,0.3-0.9,0.9-0.9c3.4,0,6.9,0,10.3,0c0.5,0,0.6-0.2,0.6-0.7c0-0.5,0-1,0-1.6
	c0-1.2,0-1.2-1.1-1.2c-4,0-8,0-12.1,0c-0.6,0-1.1-0.1-1.7-0.1c-0.5,0-0.7,0.2-0.7,0.7c0,1.3,0,2.6,0,3.9
	C283,188.4,283,192.2,283,196z"/>
<path class="st1" d="M184.3,102.4c-2.2,0-4.4,0-6.7,0c-1.1,0-1.2,0-1,1.1c0,0.2,0,0.3,0,0.5c0,1.2,0,2.5,0,3.7
	c0,0.8-0.1,1.7-0.1,2.5c0,1,0.1,2,0.1,3c0,2.4,0,4.9,0,7.3c0,3.1-0.1,6.2-0.1,9.2c0,0.9,0.1,1,1,1c3.9,0,7.7-0.1,11.6-0.1
	c0.8,0,1.5,0.1,2.3,0.1c0.5,0,0.7-0.1,0.6-0.6c0-0.6,0-1.2,0-1.8c0-0.6-0.2-0.8-0.7-0.8c-3.3,0-6.7,0-10,0c-0.9,0-1-0.1-1-1
	c0-3.1,0-6.1,0-9.2c0-0.5,0.3-0.6,0.7-0.6c0.3,0,0.6,0.1,0.9,0.1c3,0,5.9,0,8.9,0c0.7,0,1.1-0.5,1-1.2c0-0.4,0-0.8,0-1.2
	c0.1-0.6-0.2-1.1-0.9-1.1c-1.9,0.1-3.7,0-5.6,0c-0.6,0-1.3,0.1-1.9,0.1c-0.7,0-1.4,0-2.1,0c-0.7,0.1-1-0.2-1-0.9c0-2.1,0-4.2,0-6.2
	c0-0.6,0.3-0.8,0.9-0.8c0.4,0.1,0.7,0.1,1.1,0.1c1.3,0,2.6,0,3.9,0c1.8,0,3.5-0.1,5.3-0.1c0.5,0,0.7-0.4,0.6-0.9
	c0-0.4-0.1-0.7,0-1.1c0.2-1.2-0.1-1.4-1.2-1.4C188.7,102.4,186.5,102.4,184.3,102.4z"/>
<path class="st1" d="M192.3,209.3c0,0.1,0,0.1,0,0.2c1.1-0.2,2.2-0.4,3.3-0.7c0.7-0.2,1.5-0.5,2.1-0.9c1.3-0.9,2.3-2.1,3-3.5
	c0.5-0.9,0.8-2,0.8-3.1c0.1-1.6-0.2-3.2-0.7-4.6c-0.4-0.9-0.9-1.7-1.7-2.3c-1.3-1-2.8-1.8-4.3-2.3c-0.8-0.3-1.6-0.8-2.4-1
	c-1-0.3-1.9-0.8-2.7-1.5c-0.5-0.4-0.9-0.9-1.1-1.5c-0.5-1.5,0-2.8,1.3-3.8c0.6-0.5,1.3-1,2.3-1c0.7,0.1,1.5,0,2.2,0
	c1.2,0,2.1,0.5,2.7,1.5c0.5,0.8,1.1,0.9,1.8,0.3c0.3-0.2,0.6-0.5,0.9-0.6c0.8-0.4,0.8-0.8,0.2-1.4c-0.5-0.5-1-1-1.5-1.5
	c-0.5-0.5-1-1-1.7-1.3c-1-0.4-2.1-0.6-3.2-0.7c-1.2-0.1-2.4,0-3.6,0.4c-0.6,0.2-1.1,0.4-1.5,0.8c-0.1,0.1-0.3,0.2-0.4,0.3
	c-1.1,0.6-2.2,1.3-2.7,2.5c-1.1,2.5-1.3,4.9,0.5,7.4c1,1.3,2.3,2.1,3.7,2.8c1.1,0.6,2.4,0.9,3.5,1.4c0.6,0.2,1.3,0.5,1.8,0.9
	c0.6,0.4,1,1,1.5,1.4c1.6,1.4,1.4,3.3,1,5c-0.3,1.2-1.2,2.1-2.3,2.7c-1.7,0.9-3.4,0.9-5.1,0.1c-0.6-0.3-1.3-0.6-1.7-1
	c-0.8-0.8-1.2-1.9-1.3-3c-0.1-0.7-0.4-0.9-1.2-0.7c-0.6,0.2-1.3,0.3-2,0.4c-0.5,0.1-0.7,0.4-0.6,0.8c0.2,1.1,0.5,2.2,1.2,3.1
	c0.9,1.1,1.6,2.4,3,3.1C189.2,208.7,190.7,209.3,192.3,209.3z"/>
<path class="st1" d="M258.2,130.9c0.5,0,0.9,0,1.4,0c2.5,0,5,0,7.5,0c1.3,0,1.3,0,1.3-1.2c0-0.3,0-0.7,0-1c0.1-0.8-0.3-1.1-1-1
	c-0.3,0.1-0.5,0.1-0.8,0.1c-3,0-5.9,0-8.9,0c-1,0-2,0-2.9,0c-0.7,0-0.8-0.3-0.6-0.9c0.1-0.1,0.1-0.2,0.2-0.3
	c0.7-1.2,1.6-2.3,2.2-3.5c0.8-1.4,1.4-2.9,2.4-4.2c0.9-1.2,1.6-2.6,2.3-4c0.6-1,1.1-1.9,1.6-2.9c0.2-0.4,0.4-0.8,0.7-1.3
	c0.8-1.3,1.6-2.6,2.4-4c0.6-1.1,1.3-2.2,1.9-3.3c0.1-0.3,0.3-0.7,0.2-0.9c-0.1-0.2-0.5-0.2-0.8-0.2c-0.2,0-0.5,0.1-0.8,0.1
	c-5,0-9.9,0-14.9,0c-0.2,0-0.5,0-0.7-0.1c-0.7-0.1-1.1,0.3-1,1c0.1,0.4,0,0.8,0,1.2c-0.1,0.9,0,1.4,1.1,1.4c3.2,0,6.4,0,9.6,0
	c0.2,0,0.4,0,0.6-0.1c0.4-0.3,0.7-0.1,0.9,0.3c0.1,0.2,0,0.5-0.1,0.8c-0.6,0.9-1.2,1.8-1.8,2.8c-1,1.6-1.9,3.2-2.8,4.9
	c-0.5,0.8-0.9,1.6-1.3,2.4c-0.3,0.5-0.6,1.1-0.9,1.6c-0.2,0.4-0.5,0.7-0.7,1.1c-1.1,1.8-2.1,3.7-3.2,5.5c-0.4,0.6-0.8,1.2-1.1,1.9
	c-0.5,0.9-1,1.8-1.5,2.7c-0.2,0.3-0.3,0.6-0.3,1c0,0.1,0.5,0.3,0.8,0.3C252.1,130.9,255.1,130.9,258.2,130.9z"/>
<path class="st1" d="M164.7,101.9c-0.4,0-0.9,0.1-1.4,0.1c-1.5,0-2.9,0.4-4.1,1.3c-0.7,0.5-1.6,1.1-2,1.9c-0.6,1-1.4,2-1.2,3.3
	c0.1,0.9,0,1.9,0.3,2.8c0.5,2,2.1,3.1,3.8,3.9c0.9,0.5,1.8,0.9,2.6,1.3c0.3,0.2,0.6,0.5,0.9,0.6c1.6,0.4,3,1.2,4.3,2.3
	c0.4,0.3,0.7,0.8,0.9,1.3c0.4,1,0.3,2.1,0.1,3.2c-0.3,1.3-1.1,2.1-2,2.9c-0.6,0.5-1,1.2-1.9,1.2c-1.6,0-3.2,0.3-4.4-1.2
	c0-0.1-0.1-0.1-0.2-0.2c-1.1-0.7-1.9-1.7-2-3.1c-0.1-0.7-0.5-0.8-1.2-0.7c-0.6,0.2-1.2,0.3-1.8,0.4c-0.4,0.1-0.6,0.2-0.6,0.6
	c0,0.3,0,0.5,0.1,0.8c0.3,0.7,0.7,1.5,1,2.2c0.4,1.4,1.5,2.2,2.6,3c1.2,0.8,2.5,1.2,3.8,1.4c1.8,0.3,3.5-0.1,5.1-0.7
	c0.9-0.3,1.6-0.8,2.4-1.4c0.6-0.5,1.2-1,1.5-1.7c0.2-0.3,0.2-0.8,0.4-1c0.9-1,1-2.4,1.1-3.6c0.1-1.3-0.1-2.6-0.7-3.8
	c-1.1-2.1-2.7-3.5-4.8-4.5c-1.4-0.6-2.9-1.1-4.3-1.6c-1.6-0.5-2.6-1.6-3.2-3.1c-0.1-0.4-0.1-0.9-0.1-1.3c0.2-1,0.8-1.8,1.7-2.3
	c1-0.5,1.8-1.3,3-1.2c0.8,0,1.5,0.1,2.2,0.7c0.7,0.5,1.5,1,2,1.7c0.3,0.4,0.7,0.4,1.1,0.2c0.6-0.3,1.1-0.7,1.7-1
	c0.6-0.3,0.5-0.7,0.2-1c-0.6-0.6-1.2-1.3-1.9-1.9C168.4,102.5,166.7,102,164.7,101.9z"/>
<path class="st1" d="M226.4,123c-0.1-0.1-0.2-0.3-0.2-0.4c-0.2-0.6-0.3-1.1-0.5-1.7c-0.6-1.4-1.1-2.8-1.7-4.2
	c-0.3-0.7-0.6-1.5-0.9-2.2c-0.6-1.4-1.2-2.9-1.8-4.3c-0.6-1.3-1.2-2.7-1.7-4c-0.4-1-0.7-2-1.1-3c-0.2-0.6-0.5-0.8-1.1-0.8
	c-0.7,0-1.3,0-2,0c-0.4,0-0.7,0.1-1.2,0.1c4.1,9.9,8.2,19.6,12.3,29.4c0.3-0.3,0.6-0.4,0.7-0.7c0.4-0.8,0.7-1.7,1.1-2.5
	c0.5-1.2,1-2.4,1.5-3.6c0.4-0.9,0.7-1.8,1.1-2.8c0.2-0.6,0.5-1.2,0.7-1.8c0.5-1.2,1.1-2.4,1.6-3.7c0.3-0.6,0.5-1.3,0.8-1.9
	c0.2-0.4,0.4-0.8,0.6-1.3c0.5-1.1,0.9-2.3,1.3-3.4c0.5-1.2,1.2-2.3,1.7-3.5c0.5-1.2,0.9-2.4,1.4-3.6c0.2-0.6,0.1-0.8-0.5-0.8
	c-0.8,0-1.6,0-2.5,0c-0.6,0-0.8,0.3-1,0.8c-0.5,1.4-1.1,2.8-1.7,4.2c-0.5,1.1-1,2.1-1.4,3.2c-0.5,1.2-0.9,2.4-1.4,3.6
	c-0.3,0.8-0.7,1.5-1,2.2c-0.5,1.2-1,2.4-1.4,3.7c-0.3,0.7-0.6,1.4-0.7,2.1C227.1,122.7,226.9,123,226.4,123z"/>
<path class="st1" d="M162.4,190.2c0,0,0,0.1,0,0.1c-0.6,0-1.2,0-1.7,0.1c-1.1,0.2-2,0.6-3,1.2c-1.9,1.2-3,2.9-3.6,5
	c-0.5,1.6-0.4,3.3-0.3,5c0.2,2.4,1.4,4.2,3,5.8c0.9,0.9,2.2,1.4,3.5,1.7c0.8,0.2,1.7,0.1,2.5,0.1c1.7,0,3.3-0.5,4.7-1.4
	c0.5-0.3,0.9-0.8,1.3-1.2c0.5-0.5,1-1,1.5-1.5c0.4-0.5,0.3-0.9-0.3-1.3c-0.5-0.3-0.9-0.6-1.4-0.8c-0.2-0.1-0.6-0.1-0.9,0
	c-0.3,0.1-0.4,0.4-0.6,0.7c-0.4,0.5-0.8,1-1.3,1.3c-1.6,1-3.4,1.4-5.2,0.5c-1.6-0.8-2.9-1.8-3.1-3.8c0-0.2-0.1-0.5-0.2-0.7
	c-0.2-0.5,0.1-0.9,0.7-0.8c0.2,0,0.5,0.1,0.7,0.1c0.9,0,1.8-0.1,2.7-0.1c0.7,0,1.4,0.1,2.1,0.1c1,0,2-0.1,3-0.1
	c1.2,0,2.3,0.1,3.5,0.1c0.3,0,0.7-0.1,0.8-0.2c0.1-0.5,0.2-1.1,0.1-1.6c-0.3-1.2-0.6-2.4-1-3.6c-0.4-1-1.1-1.9-1.9-2.6
	c-0.5-0.4-1.3-0.6-1.6-1.3c0-0.1-0.2-0.2-0.3-0.2C164.8,190.7,163.6,190.5,162.4,190.2z"/>
<path class="st1" d="M209,141.3c-0.4,0-0.7,0-1.1,0c-0.7,0-0.9,0.2-0.9,0.9c0,0.4,0.1,0.7,0.1,1.1c0,7.9,0,15.9,0,23.8
	c0,0.1,0,0.3,0,0.4c0,0.4-0.1,0.9-0.1,1.3c0,0.5,0.2,0.8,0.8,0.7c1-0.1,2.1,0,3.1,0c2.7,0,5.3,0,8,0c0.4,0,0.6-0.3,0.6-0.7
	c0-0.6,0-1.2,0-1.8c0-0.6,0-0.7-0.7-0.7c-2.4,0-4.8,0-7.1,0c-0.9,0-0.9-0.1-0.9-0.9c0-7.6,0-15.2,0-22.9c0-0.2,0-0.4,0-0.6
	c0.1-0.5-0.1-0.8-0.7-0.8C209.8,141.3,209.4,141.3,209,141.3z"/>
<path class="st1" d="M245,107.1c0-1.3,0-2.6,0-3.8c0-0.7-0.1-0.8-0.8-0.8c-0.6,0-1.2,0-1.9,0c-0.8,0-1.1,0.2-1.1,1.1
	c0,2.3,0.1,4.6,0.1,6.9c0,5.5,0,11,0,16.4c0,0.5,0,1.1,0,1.6c0,0.5-0.1,0.9-0.1,1.4c0,0.8,0.2,1,1,1c0.5,0,1.1,0,1.6,0
	c1,0,1.4-0.5,1.2-1.5c-0.1-0.3-0.1-0.7-0.1-1.1c0-1.3,0.1-2.5,0.1-3.8c0-4.7-0.1-9.4-0.1-14.1C245,109.3,245,108.2,245,107.1z"/>
<path class="st1" d="M239.9,180.1c0.2-0.1,0.4-0.1,0.6-0.3c0.4-0.3,0.8-0.7,1.2-1.1c0.8-0.7,1.7-1.4,2.5-2.2c0.6-0.5,1.1-1,1.6-1.5
	c0.3-0.4,0.2-0.8-0.3-1c-0.6-0.3-1.2-0.5-1.7-0.8c-0.6-0.3-0.9-0.3-1.3,0.3c-0.6,0.8-1,1.7-1.6,2.5c-0.7,0.9-1.5,1.7-2.2,2.5
	c-0.3,0.3-0.4,0.8,0,1C239.1,179.8,239.5,179.9,239.9,180.1z"/>
<path class="st1" d="M12.5,130.7c0.3,0,0.6,0,0.8,0c5.4,0,10.7,0,16.1,0c1,0,1.6,0.6,2.1,1.2c0.7,0.7,1.3,1.5,2,2.3
	c0.5,0.6,1.1,1,1.7,1.6c0.5,0.5,1,0.9,1.5,1.4c0.4,0.4,0.6,0.9,1,1.2c0.8,0.7,1.6,1.4,2.3,2.1c0.9,1,2.1,1.6,2.7,2.8
	c0.1,0.1,0.2,0.2,0.3,0.3c1.5,1.3,2.9,2.7,4.4,4c0.7,0.7,1.2,1.4,1.2,2.5c-0.1,2.5,0,5,0,7.5c0,0.2-0.1,0.5-0.2,0.7
	c-0.3-0.1-0.6-0.1-0.8-0.3c-1.3-1.2-2.7-2.5-4-3.8c-0.4-0.4-0.6-0.8-1-1.2c-0.6-0.6-1.3-1.2-1.9-1.8c-1-0.9-1.9-1.9-2.8-2.9
	c-0.4-0.4-0.7-0.7-1.1-1.1c-0.9-0.8-1.8-1.7-2.6-2.5c-1-1-2.1-1.9-3.1-2.9c-0.7-0.6-1.3-1.4-1.9-2c-0.7-0.6-1.4-1.3-2.1-1.8
	c-0.2-0.2-0.5-0.3-0.8-0.3c-2,0-4,0-6,0c-0.1,0-0.2,0-0.3,0c0,11.8,0,23.5,0,35.3c9.5,0,19,0,28.6,0c0,9.5,0,18.8,0,28.3
	c12,0,23.9,0,35.9,0c0-9.4,0-18.8,0-28.2c9.6,0,19.2,0,28.8,0c0-11.8,0-23.6,0-35.4c-9.5,0-19.1,0-28.7,0c0-9.4,0-18.8,0-28.2
	c-11.9,0-23.8,0-35.7,0c0,0.2,0,0.5,0,0.7c0,4.5,0,8.9,0,13.4c0,0.3-0.1,0.7-0.3,0.7c-0.4,0.2-0.7-0.1-0.9-0.4
	c-0.2-0.3-0.5-0.6-0.8-0.9c-0.9-0.9-1.7-1.9-2.6-2.8c-0.7-0.7-1.5-1.3-2.3-2c-0.2-0.2-0.3-0.4-0.3-0.7c0-5,0-10,0-14.9
	c0,0,0-0.1,0-0.2c16.7,0,33.4,0,50.1,0c0,9.4,0,18.9,0,28.4c9.6,0,19.2,0,28.8,0c0,16.5,0,32.9,0,49.3c-9.6,0-19.1,0-28.8,0
	c0,9.5,0,18.9,0,28.4c-16.8,0-33.4,0-50.2,0c0-9.5,0-18.9,0-28.4c-9.6,0-19.2,0-28.8,0C12.5,163.7,12.5,147.3,12.5,130.7z"/>
<path class="st1" d="M77.1,164.8c0,1.4,0,2.8,0,4.2c0,0.2-0.1,0.4-0.2,0.6c-0.2-0.1-0.5-0.2-0.6-0.3c-1.4-1.3-2.7-2.6-4-3.9
	c-0.4-0.4-0.7-0.9-1.1-1.3c-0.7-0.7-1.4-1.4-2.2-2.1c-1.1-1.1-2.2-2.1-3.3-3.2c-0.9-0.9-1.8-1.7-2.7-2.6c-1.1-1.1-2-2.2-3.1-3.2
	c-1.3-1.3-2.6-2.4-3.9-3.7c-0.4-0.4-0.7-1-1.2-1.4c-1.4-1.3-2.8-2.6-4.1-3.9c-0.4-0.3-0.6-0.8-1-1.1c-1.4-1.4-2.9-2.7-4.4-4.1
	c-0.1-0.1-0.3-0.3-0.4-0.4c-0.5-0.5-1-1.1-1.5-1.6c-0.6-0.6-1.2-1-1.8-1.6c-0.2-0.2-0.3-0.7-0.3-1c0-2.9,0-5.7,0-8.6
	c0-0.2,0.1-0.4,0.2-0.5c0.2,0.1,0.4,0.1,0.5,0.2c0.7,0.7,1.3,1.5,2,2.2c0.7,0.7,1.4,1.3,2.1,2c0.5,0.5,1.1,1,1.6,1.5
	c1.1,1.1,2.1,2.2,3.2,3.3c1.1,1.1,2.3,2.2,3.5,3.3c0.4,0.4,0.8,0.9,1.2,1.3c1,1,2.1,2,3.1,3c0.4,0.4,0.7,0.9,1.1,1.3
	c0.3,0.3,0.5,0.6,0.8,0.8c1,0.9,2,1.8,3,2.7c0.7,0.7,1.4,1.6,2.1,2.3c0.7,0.7,1.4,1.3,2.1,2c0.5,0.5,1.1,1,1.6,1.5
	c0.6,0.6,1.1,1.3,1.8,1.9c1,1,2,1.9,3,2.9c0.7,0.7,1.3,1.6,2.1,2.2c0.8,0.6,0.6,1.3,0.6,2C77.1,162.6,77.1,163.7,77.1,164.8z"/>
<path class="st1" d="M284.2,170.5c-1.3,0.2-2.5-0.1-3.7-0.8c-0.6-0.3-1.3-0.5-1.9-0.6c-1.1-0.3-2.2-0.8-3.1-1.6
	c-0.7-0.6-1.5-1-2.1-1.7c-0.6-0.7-1.1-1.4-1.7-2.2c-0.4-0.6-0.8-1.2-1.1-1.8c-0.4-1.1-0.7-2.3-1.1-3.5c-0.1-0.5-0.2-1.1-0.3-1.7
	c0-0.7,0-1.5,0.1-2.2c0.2-1.1,0.4-2.2,0.7-3.2c0.1-0.5,0.3-0.9,0.5-1.3c0.8-2.2,2.2-4,4-5.4c0.6-0.5,1.2-1.1,1.9-1.6
	c0.5-0.3,1-0.6,1.6-0.8c1-0.3,2-0.6,3-0.9c0.6-0.2,1.2-0.2,1.8-0.3c1.8-0.2,3.6,0,5.4,0.4c1.3,0.3,2.5,0.7,3.7,1.3
	c0.2,0.1,0.4,0.4,0.6,0.6c0.2,0.2,0.4,0.4,0.7,0.6c1.6,1.1,3.1,2.4,4.2,4.1c0.5,0.8,0.9,1.7,1.2,2.7c0.8,2,1.1,4.2,1,6.3
	c0,0.4-0.1,0.8-0.2,1.2c-0.2,0.8-0.3,1.6-0.6,2.3c-0.4,1.4-1.2,2.6-2,3.9c-1.2,2-3,3.3-5,4.3c-1,0.5-2.1,0.8-3.2,1.2
	c-0.4,0.1-0.7,0.4-1.1,0.4c-1.1,0.2-2.1,0.4-3.2,0.6C284.2,170.6,284.2,170.5,284.2,170.5z M284.5,144.2c-2.3-0.1-4.5,0.6-6.4,1.7
	c-1.2,0.7-2.4,1.6-3.1,2.9c-0.7,1.3-1.4,2.6-1.7,4c-0.3,1.2-0.4,2.5-0.2,3.8c0.2,1.2,0.3,2.4,0.8,3.6c0.8,2,2.3,3.5,3.9,4.7
	c1.6,1.3,3.5,1.9,5.6,2c0.7,0,1.5,0.1,2.2,0c1-0.1,2-0.2,2.9-0.6c1.3-0.5,2.6-1.2,3.5-2.3c0.4-0.5,1-0.8,1.3-1.3
	c0.6-0.9,1.2-1.9,1.7-2.8c0.1-0.2,0.2-0.4,0.2-0.7c0.1-0.4,0.1-0.8,0.3-1.2c0.5-1.4,0.5-2.9,0.2-4.3c-0.3-1.5-0.6-3.1-1.8-4.3
	c0,0,0-0.1,0-0.1c-0.4-1-1.1-1.7-1.9-2.4C289.7,145.1,287.2,144.3,284.5,144.2z"/>
<path class="st1" d="M284.4,131.5c-1.9-0.1-3.7-0.5-5.4-1.1c-1.6-0.5-3-1.4-4.5-2.3c-0.4-0.2-0.6-0.7-0.9-1.1
	c-0.1-0.2-0.3-0.3-0.4-0.5c-0.8-1-1.6-1.9-2.3-3c-0.4-0.7-0.7-1.5-0.9-2.3c-0.3-1.2-0.6-2.4-0.7-3.6c-0.1-0.8-0.1-1.5,0-2.3
	c0.2-1.9,0.8-3.8,1.7-5.4c0.6-1.2,1.5-2.2,2.3-3.3c1.7-2.1,4.1-3.3,6.6-4.1c2.1-0.7,4.3-0.8,6.5-0.5c2.4,0.3,4.6,1.1,6.5,2.4
	c0.6,0.4,1.2,0.8,1.6,1.4c0.5,0.7,1.3,1.2,1.8,1.9c0.7,0.9,1.5,1.9,1.9,3c0.5,1.5,1.2,3.1,1.1,4.8c-0.1,1,0.1,2.1,0,3.1
	c-0.1,0.8-0.3,1.5-0.6,2.3c-0.2,0.7-0.5,1.4-0.7,2.1c-0.5,1.3-1.5,2.3-2.4,3.4c-0.2,0.2-0.4,0.4-0.6,0.7c-0.2,0.3-0.4,0.6-0.7,0.8
	c-0.8,0.6-1.7,1.3-2.6,1.7c-1.3,0.6-2.7,1-4.1,1.4C286.5,131.3,285.4,131.4,284.4,131.5z M284.1,128.1c0.5,0,1.2-0.1,1.8-0.2
	c0.6-0.1,1.3-0.1,1.9-0.3c0.7-0.3,1.5-0.6,2.1-1.1c0.7-0.4,1.3-0.9,2-1.5c1-0.8,1.8-1.7,2.3-2.8c0.7-1.5,1.5-2.9,1.5-4.6
	c0-1,0.1-2-0.1-2.9c-0.4-1.7-0.9-3.3-1.9-4.8c-1-1.5-2.3-2.6-3.9-3.4c-1.4-0.7-3-1.3-4.6-1.4c-1.3-0.1-2.6-0.2-3.7,0.5
	c-0.2,0.1-0.3,0.1-0.5,0.2c-1.3,0.4-2.5,0.9-3.6,1.7c-1,0.8-1.9,1.6-2.6,2.7c-0.6,0.9-0.9,2-1.3,3c-0.9,2-0.6,4.1-0.2,6.1
	c0.3,1.5,0.9,3,2,4.2c0.8,0.9,1.7,1.7,2.7,2.4c0.8,0.6,1.7,0.9,2.6,1.4C281.6,128.1,282.8,128,284.1,128.1z"/>
<path class="st1" d="M163.8,140.8c1.5,0,2.9,0.2,4.3,0.7c1,0.3,2,0.6,3,1c0.4,0.1,0.6,0.5,1,0.8c0.3,0.3,0.7,0.6,1,0.9
	c0.6,0.5,1.3,1,1.9,1.5c0.5,0.4,0.4,0.7,0,1.1c-0.5,0.5-1,0.9-1.5,1.4c-0.4,0.3-0.8,0.3-1.1-0.1c-1.4-1.7-3.3-2.6-5.2-3.4
	c-1.3-0.5-2.7-0.5-4.1-0.5c-1.6,0.1-3.1,0.6-4.5,1.3c-1.4,0.7-2.7,1.6-3.6,2.9c-1.2,1.8-2.2,3.8-2.4,6.1c-0.1,1.3,0.1,2.4,0.4,3.6
	c0.2,1.2,0.7,2.4,1.3,3.4c0.6,0.9,1.5,1.7,2.3,2.6c0.5,0.5,1,1,1.5,1.4c0.7,0.4,1.4,0.8,2.2,1.1c1.3,0.5,2.6,0.6,4,0.5
	c2,0,3.7-0.8,5.1-2c1.2-1,2.3-2.1,3-3.5c0.3-0.7,0.5-1.4,0.7-2.1c0.1-0.4-0.2-0.8-0.7-0.8c-1.6,0-3.3,0-4.9,0c-0.4,0-0.7,0-1.1,0
	c-0.6,0-0.9-0.3-0.9-0.9c0-0.5,0-1,0-1.5c0-0.6,0.2-0.9,0.8-0.9c1.9,0,3.8,0,5.8,0c1.2,0,2.3,0,3.5,0c0.3,0,0.6,0,0.9,0.1
	c0.7,0.2,0.9,0.5,0.7,1.6c-0.1,1-0.3,2-0.5,2.9c-0.3,1.5-1,2.8-1.6,4.1c-0.8,1.6-2,2.8-3.4,3.7c-1.1,0.7-2.4,1.2-3.6,1.8
	c-0.7,0.3-1.4,0.6-2.1,0.7c-2.1,0.4-4.2,0.5-6.2-0.5c-1-0.5-2.1-0.7-3.1-1.2c-1.7-0.8-3.3-2-4.4-3.6c-1.1-1.6-2.3-3.2-2.7-5.1
	c-0.3-1.5-0.5-3-0.6-4.6c-0.1-0.7,0.3-1.4,0.3-2.2c0.1-1.8,0.9-3.5,1.7-5.1c0.3-0.7,0.8-1.3,1.3-1.8c0.8-0.8,1.6-1.6,2.4-2.2
	c1-0.8,1.9-1.7,3.2-2.1c1.3-0.4,2.6-1,4-1C162.3,140.9,163,140.8,163.8,140.8z"/>
<path class="st1" d="M260.4,155.3c1.3,0.1,2.6,0.1,3.9,0.2c0.7,0,1.5-0.1,2.2-0.1c0.2,0,0.4,0,0.5,0c0.9,0.2,0.9,0.2,0.9,1.1
	c0,2.3-0.5,4.4-1.5,6.4c-0.6,1.3-1.2,2.5-2.3,3.5c-1.6,1.4-3.3,2.5-5.4,3.1c-0.6,0.2-1.1,0.5-1.7,0.7c-0.1,0-0.2,0.1-0.3,0.1
	c-1.5,0-2.9,0-4.4,0c-0.4,0-0.9-0.3-1.3-0.5c-0.5-0.2-1.1-0.3-1.6-0.5c-0.6-0.2-1.1-0.4-1.7-0.7c-1.7-0.9-3.4-2-4.6-3.6
	c-0.8-1-1.3-2.1-1.9-3.2c-0.4-0.7-0.7-1.5-0.9-2.3c-0.2-0.6-0.2-1.3-0.3-2c-0.5-1.8-0.3-3.6,0.2-5.4c0.4-1.5,1-3.1,1.7-4.4
	c0.7-1.3,1.7-2.4,3-3.3c0.7-0.5,1.3-1.1,2-1.6c0.3-0.3,0.7-0.5,1.1-0.6c1.5-0.7,2.9-1.3,4.6-1.4c0.9,0,1.7-0.3,2.6-0.2
	c1.2,0.1,2.4,0.2,3.6,0.6c0.9,0.4,2,0.6,3,0.9c0.5,0.2,0.8,0.5,1.2,0.8c0.4,0.3,0.8,0.6,1.1,0.9c0.6,0.5,1.3,1.1,1.9,1.6
	c0.5,0.4,0.4,0.7-0.1,1.1c-0.5,0.4-0.9,0.8-1.4,1.2c-0.4,0.4-0.8,0.4-1.2,0c-1.5-1.8-3.5-2.7-5.6-3.5c-1.6-0.6-3.3-0.6-4.9-0.3
	c-2.2,0.4-4.3,1.3-6,3c-1.1,1.2-2,2.6-2.6,4.1c-0.7,1.7-1,3.4-0.8,5.1c0.3,1.8,0.6,3.8,2,5.2c0.8,0.9,1.5,1.9,2.3,2.7
	c0.6,0.6,1.3,1,2,1.4c0.9,0.4,1.9,0.8,2.9,1c1,0.2,2.1,0.1,3.1,0c1.1,0,2.1-0.5,3.1-1c0.5-0.2,0.9-0.5,1.3-0.9
	c1.8-1.5,3.3-3.2,3.7-5.7c0.1-0.6-0.2-0.9-0.8-0.9c-2,0.1-4,0.1-6,0.1c-0.4,0-0.6-0.3-0.6-0.8c0-0.5,0-0.9-0.1-1.4
	c-0.1-0.7,0.2-1.1,0.9-1.1C258.3,155.3,259.3,155.3,260.4,155.3C260.4,155.3,260.4,155.3,260.4,155.3z"/>
<path class="st1" d="M261.8,208.7c-1.5,0-2.6,0-3.8,0c-0.5,0-0.7-0.1-0.6-0.7c0.1-0.5,0-1-0.1-1.5c0-0.3,0.1-0.7,0.1-1
	c0-7.1,0-14.1,0-21.2c0-1-0.1-2.1-0.1-3.1c0-0.8,0.1-1.1,1.1-1c0.9,0.1,1.9,0,2.8,0c1.4,0,2.8,0,4.2,0c0.9,0,1.8,0.3,2.6,0.7
	c0.5,0.2,1,0.2,1.5,0.3c1.5,0.5,3.1,0.9,4.4,1.9c0.7,0.6,1.5,1.1,2.2,1.7c0.5,0.5,0.7,1.2,1.2,1.8c1.1,1.4,1.8,3,2,4.7
	c0.3,2.5,0.5,5.1-0.4,7.6c-0.7,2-1.5,3.9-3.1,5.4c-1,0.9-2.1,1.8-3.4,2.3c-0.1,0-0.3,0.1-0.4,0.1c-0.6,0.7-1.5,0.9-2.4,1.2
	c-0.5,0.1-1,0.1-1.5,0.3C265.9,208.8,263.7,208.6,261.8,208.7z M260.9,194.4c0,3.3,0,6.6,0,10c0,0.7,0.2,0.9,0.9,0.9
	c0.6,0,1.1-0.1,1.7-0.1c1.4,0,2.8,0,4.1-0.5c0.9-0.3,1.9-0.5,2.8-0.9c1.3-0.5,2.4-1.3,3.2-2.5c0.6-0.9,1.1-1.7,1.5-2.6
	c0.3-0.7,0.5-1.5,0.6-2.3c0.2-1.8,0.3-3.6-0.3-5.3c-0.3-0.9-0.5-1.9-1.1-2.6c-0.8-1.1-1.9-1.9-2.9-2.8c-1.4-1.2-3.2-1.4-4.8-1.8
	c-1.5-0.3-3.1-0.2-4.6-0.3c-0.8,0-0.9,0.2-0.9,0.9C260.9,187.8,260.9,191.1,260.9,194.4z"/>
<path class="st1" d="M214.3,130.7c-0.3,0.1-0.6,0.2-0.8,0.2c-0.9,0-1.7,0-2.6,0c-0.7,0-1.2-0.2-1.6-0.9c-0.4-0.6-0.9-1.2-1.3-1.8
	c-0.7-1-1.4-2.1-2.1-3.1c-0.6-0.9-1.3-1.8-2-2.7c-0.7-1-1.3-2-2.1-2.9c-0.3-0.3-0.7-0.6-1.2-0.7c-0.4-0.1-0.7,0.2-0.7,0.7
	c0,0.4,0,0.8,0,1.2c0,1.4,0.1,2.7,0.1,4.1c0,1.7,0,3.5,0,5.2c0,0.5-0.3,0.9-0.9,0.9c-0.7,0-1.3,0-2,0c-0.8,0-1-0.2-1-1
	c0-8,0.1-16,0.1-24c0-0.8-0.1-1.6-0.1-2.4c0-1,0.2-1.2,1.1-1.2c1.7,0,3.3,0,5,0.1c1.5,0.1,3.1,0.2,4.6,0.7c1.4,0.5,2.7,1.2,3.6,2.7
	c0.6,1,1.2,1.9,1.4,3.1c0.3,1.3,0.3,2.5-0.1,3.7c-0.2,0.5-0.4,1.1-0.5,1.6c-0.2,0.9-0.9,1.3-1.4,2c-0.9,1.3-2.2,1.8-3.7,2.1
	c-0.2,0-0.5,0.2-0.6,0.4c-0.1,0.1,0.1,0.4,0.2,0.6c0.6,0.9,1.2,1.8,1.9,2.6c0.6,0.7,1.2,1.5,1.7,2.2c0.7,0.8,1.4,1.7,2,2.5
	c0.2,0.3,0.3,0.8,0.5,1.1c0.5,0.7,1.1,1.4,1.7,2.1C213.9,130.1,214.1,130.4,214.3,130.7z M199.9,114.1
	C200,114.1,200,114.1,199.9,114.1c0,0.2,0,0.5,0,0.7c0,0.7,0.2,0.9,0.9,0.9c1.7,0,3.5,0,5.1-0.6c0.6-0.2,1.1-0.5,1.5-1
	c0.9-1,1.2-2.3,1.2-3.7c0-1.5-0.6-2.7-1.9-3.5c-0.5-0.3-1.1-0.6-1.7-0.7c-1.4-0.2-2.8-0.4-4.2-0.5c-0.6,0-0.9,0.3-0.9,0.9
	c0,1.6,0,3.3,0,4.9C200.1,112.5,200,113.3,199.9,114.1z"/>
<path class="st1" d="M146.9,206.2c-0.4,0.5-0.7,1-1.1,1.4c-0.3,0.3-0.7,0.6-1.1,0.8c-0.8,0.4-1.6,0.9-2.6,0.8c-1-0.1-1.9,0.1-2.9,0
	c-0.6-0.1-1.2-0.3-1.8-0.6c-1.9-0.9-3-2.5-3.9-4.3c-0.4-0.9-0.7-1.9-0.8-2.9c-0.1-1.6-0.1-3.2,0.4-4.8c0.4-1.6,1.4-2.9,2.5-4
	c0.4-0.4,1-0.6,1.4-1c0.6-0.6,1.4-0.7,2.1-0.9c1.2-0.4,2.5-0.4,3.7,0c0.8,0.2,1.5,0.3,2,1.1c0.1,0.3,0.6,0.3,0.8,0.5
	c0.3,0.3,0.6,0.6,0.9,0.9c0.1,0.1,0.4,0.2,0.5,0.3c0.1-0.2,0.3-0.4,0.3-0.6c0-1.5-0.1-2.9-0.1-4.4c0-3.9,0-7.8,0-11.7
	c0-0.6,0.3-0.9,0.8-0.8c0.8,0,1.6,0.1,2.4,0.1c0.2,0,0.3,0.3,0.4,0.5c0.1,0.1,0,0.3,0,0.4c0,10.2,0,20.4,0,30.7c0,1,0,1-1,1
	c-0.6,0-1.2,0-1.9,0c-0.6,0-0.8-0.2-0.8-0.9c0-0.4,0-0.8,0-1.2C147.1,206.4,147,206.4,146.9,206.2z M147.4,199.9c-0.1,0-0.2,0-0.2,0
	c0.3-1.2-0.1-2.4-0.6-3.5c-0.2-0.6-0.7-1.2-1.2-1.6c-1.4-1-2.9-1.5-4.6-1.2c-1.3,0.2-2.5,0.8-3.3,1.8c-1,1.2-1.4,2.6-1.4,4.2
	c0,0.7,0.1,1.4,0.2,2.1c0.3,1.6,1.1,2.9,2.5,3.6c1.1,0.6,2.3,0.8,3.6,0.6c1.9-0.3,3.4-1.2,4.2-2.9
	C147.2,202.1,147.2,201,147.4,199.9z"/>
<path class="st1" d="M235.4,189.4c0,2.5,0,5.1,0,7.6c0,1,0,2.1,0.3,3.1c0.2,1,0.5,2,1.1,2.9c0.8,1.3,1.9,2.2,3.5,2.5
	c1.4,0.3,2.8,0.2,4.2,0c1.5-0.2,2.5-1.2,3.3-2.3c0.7-1.1,1.1-2.3,1.2-3.6c0.1-0.7,0.2-1.4,0.3-2.1c0-0.4,0-0.9,0-1.3
	c0-4,0-8.1,0-12.1c0-0.7,0.1-1.4,0.1-2c0-0.3,0-0.6-0.1-0.9c-0.1-0.6,0.2-0.9,0.8-0.9c0.7,0.1,1.4,0,2.2,0c0.5,0,0.8,0.3,0.7,0.8
	c0,0.4-0.1,0.8-0.1,1.2c0,5.1,0,10.2,0,15.4c0,1.2,0,2.5-0.3,3.7c-0.4,1.6-1,3.2-2.2,4.4c-0.5,0.5-1,1.1-1.6,1.7
	c-0.2,0.2-0.5,0.4-0.8,0.6c-1,0.4-2,1-3.1,1.2c-1.4,0.2-2.8,0.1-4.3,0.1c-1.5,0-2.9-0.7-4.3-1.4c-0.1-0.1-0.3-0.2-0.4-0.3
	c-0.9-1-1.8-1.9-2.5-3c-0.9-1.4-1.5-3-1.5-4.7c0-6.3-0.1-12.7-0.1-19c0-0.7,0.2-0.8,0.9-0.7c0.6,0.1,1.1-0.1,1.7-0.1
	c0.9,0,1,0.1,1,1C235.4,183.8,235.4,186.6,235.4,189.4z"/>
<path class="st1" d="M216.3,179.2c0.2,0.3,0.4,0.7,0.6,1c0.5,1.1,1,2.2,1.5,3.3c0.4,0.9,0.7,1.8,1.1,2.6c0.3,0.7,0.7,1.3,1,1.9
	c0.4,0.8,0.8,1.6,1.2,2.5c0.7,1.5,1.4,3,2,4.4c0.4,0.8,0.7,1.6,1,2.4c0.6,1.2,1.2,2.4,1.7,3.6c0.5,1.1,0.9,2.2,1.4,3.3
	c0.5,1.2,1.1,2.3,1.7,3.4c0.3,0.7,0.2,1-0.6,1c-0.9,0-1.7,0-2.6-0.1c-0.2,0-0.4-0.2-0.5-0.4c-0.4-0.8-0.7-1.7-1.1-2.5
	c-0.4-0.9-0.9-1.9-1.4-2.8c-0.1-0.2-0.3-0.4-0.3-0.6c-0.1-0.7-0.6-0.8-1.2-0.8c-3.8,0-7.6,0-11.5,0c-0.6,0-0.9,0.2-1.1,0.7
	c-0.3,0.8-0.7,1.7-1.1,2.5c-0.5,1.2-1.1,2.4-1.7,3.6c-0.1,0.2-0.5,0.4-0.8,0.4c-0.6,0-1.2,0-1.8,0c0,0,0,0-0.1,0
	c-0.4,0-1,0.4-1.2-0.2c-0.1-0.3,0.2-0.8,0.3-1.3c0.3-0.8,0.7-1.5,1-2.3c0.3-0.7,0.7-1.5,1.1-2.2c0.4-0.9,0.8-1.8,1.2-2.6
	c0.5-1.1,1.1-2.2,1.6-3.3c0.4-0.8,0.6-1.6,1-2.4c0.7-1.6,1.5-3.2,2.2-4.8c0.8-1.7,1.5-3.3,2.3-5c0.5-1,1-2,1.5-3.1
	c0.3-0.6,0.5-1.2,0.8-1.8c0.1-0.2,0.2-0.3,0.3-0.5C216.1,179.2,216.2,179.2,216.3,179.2z M216.1,187.1c-0.3,0.6-0.6,1.1-0.8,1.5
	c-0.4,0.9-0.8,1.9-1.2,2.9c-0.4,1-0.9,1.9-1.3,2.9c-0.5,1-1,2.1-1.5,3.1c-0.2,0.5,0,1,0.5,0.9c0.3,0,0.5-0.1,0.8-0.1
	c2.5,0,5,0,7.5,0.1c0.6,0,1-0.3,0.8-0.8c-0.2-0.6-0.5-1.1-0.7-1.7c-0.9-2-1.8-4.1-2.8-6.1C217,188.9,216.6,188.1,216.1,187.1z"/>
<path class="st1" d="M180.6,169.7c-0.8,0-1.6,0-2.3,0c-0.8,0-1-0.3-0.6-1c0.6-1.2,1.2-2.3,1.8-3.5c0.3-0.5,0.4-1.1,0.6-1.6
	c0.4-1,0.9-1.9,1.4-2.9c0.2-0.3,0.3-0.6,0.4-1c0.9-1.9,1.8-3.8,2.7-5.7c0.8-1.8,1.6-3.6,2.4-5.4c0.8-1.8,1.7-3.6,2.6-5.4
	c0.3-0.7,0.6-1.5,0.9-2.2c0.1-0.2,0.3-0.5,0.5-0.6c0.4-0.2,0.5,0.3,0.6,0.5c0.5,1.2,1,2.5,1.6,3.8c0.6,1.4,1.3,2.9,2,4.3
	c0.6,1.3,1.2,2.5,1.8,3.8c0.3,0.7,0.6,1.5,0.9,2.2c0.5,1.1,1.1,2.1,1.6,3.2c0.3,0.5,0.4,1.1,0.7,1.6c0.6,1.4,1.3,2.7,2,4
	c0.4,0.9,0.8,1.8,1.2,2.7c0.3,0.7,0.7,1.3,1,2c0.3,0.7,0,0.9-0.7,0.8c-0.7-0.1-1.3-0.1-2,0c-0.7,0-1.1-0.2-1.4-0.9c-0.4-1-1-2-1.4-3
	c-0.4-0.8-0.7-1.6-1-2.4c-0.2-0.6-0.6-0.7-1.1-0.7c-3.9,0-7.8,0-11.6,0c-0.5,0-0.9,0.3-1.1,0.8c-0.5,1.3-1.1,2.5-1.7,3.8
	c-0.2,0.5-0.4,1-0.7,1.5C181.5,169.2,181.3,169.7,180.6,169.7z M195,159.4c0.9,0,1.1-0.3,0.8-1.1c-0.2-0.6-0.6-1.1-0.9-1.7
	c-0.4-0.9-0.9-1.8-1.3-2.8c-0.3-0.6-0.5-1.2-0.7-1.9c-0.4-1-0.9-2.1-1.4-3.1c-0.1-0.2-0.3-0.4-0.4-0.4c-0.1,0-0.4,0.2-0.4,0.4
	c-0.4,1-0.9,2-1.3,3c-0.4,1-0.9,2-1.4,3.1c-0.3,0.7-0.6,1.4-0.9,2c-0.3,0.6-0.7,1.1-0.9,1.7c-0.2,0.4,0.2,0.8,0.6,0.8
	c0.7-0.1,1.4-0.2,2-0.2c0.9,0,1.9,0.1,2.8,0.1C192.7,159.4,193.8,159.4,195,159.4z"/>
<path class="st1" d="M231,166.5c1.5,0,3,0,4.6,0c0.3,0,0.5-0.1,0.8-0.1c0.5-0.1,1,0.3,1,0.8c0,0.5,0,1-0.1,1.6
	c0,0.7-0.3,0.9-0.9,0.9c-2.3,0-4.7,0-7,0c-1.8,0-3.6-0.1-5.4-0.1c-0.4,0-0.8,0.1-1.2,0.1c-0.5,0.1-1.1-0.2-1.1-0.9
	c0.1-1.6,0.1-3.2,0.1-4.8c0-2.1-0.1-4.1-0.1-6.2c0-3.3,0.1-6.5,0.1-9.8c0-1-0.1-1.9-0.1-2.9c0-1,0-2,0-3c0-0.5,0.4-0.8,0.9-0.8
	c0.9,0,1.7,0.1,2.6,0.1c0.7,0,1.5-0.1,2.2-0.1c2.1,0,4.1,0.1,6.2,0.1c1,0,2-0.1,3,0c0.2,0,0.6,0.4,0.7,0.7c0.1,0.5,0.1,1.1,0.1,1.7
	c0,0.8-0.3,1-1.1,1c-1.7,0-3.4,0-5.2,0c-1.6,0-3.3,0-4.9,0c-0.7,0-0.8,0.2-0.8,0.9c0.1,1.6,0.1,3.2,0.1,4.8c0,0.4-0.1,0.9,0,1.3
	c0.1,0.7,0.3,0.8,1,0.8c0.8,0,1.6-0.1,2.3-0.1c2.3,0,4.6,0,6.8,0c1.1,0,1.3,0.3,1.3,1.3c0,0.5,0,1,0,1.4c0,0.6-0.3,0.8-0.8,0.8
	c-1.1,0-2.1,0-3.2,0c-1.9,0-3.9,0-5.8,0c-0.4,0-0.7-0.1-1.1-0.1c-0.6,0-0.9,0.2-0.9,0.8c0,1.8,0,3.5,0,5.3c0,0.9,0.1,1.8,0.1,2.7
	c0,0.4-0.1,0.7-0.1,1.1c-0.1,0.6,0.1,0.9,0.8,0.9C227.8,166.5,229.4,166.5,231,166.5z"/>
<path class="st1" d="M283,196c0-3.8,0-7.6,0-11.4c0-1.3,0-2.6,0-3.9c0-0.5,0.2-0.7,0.7-0.7c0.6,0,1.1,0.1,1.7,0.1c4,0,8,0,12.1,0
	c1.1,0,1.1,0,1.1,1.2c0,0.5,0,1,0,1.6c0,0.4-0.2,0.7-0.6,0.7c-3.4,0-6.9,0-10.3,0c-0.6,0-0.9,0.2-0.9,0.9c0,2.1,0,4.3,0,6.4
	c0,0.6,0.2,0.8,0.8,0.7c1,0,2,0,3,0c0.9,0,1.8-0.1,2.7-0.1c0.8,0,1.5,0.1,2.3,0.1c0.6,0,1.3-0.1,1.9-0.1c0.7,0,1,0.4,0.9,1.1
	c-0.1,0.4-0.1,0.8,0,1.2c0.1,0.5-0.1,0.9-0.7,0.9c-0.6,0-1.2,0-1.8,0c-2.8,0-5.5,0-8.3,0c-0.8,0-0.8,0.1-0.8,0.8c0,2.9,0,5.9,0,8.8
	c0,0.8,0.3,1,1.1,0.9c0.5-0.1,1.1,0,1.6,0c1.2,0,2.4,0,3.6,0c0.9,0,1.8-0.1,2.7-0.1c0.7,0,1.5,0,2.2,0c0.5,0,0.7,0.2,0.7,0.6
	c0,0.8,0,1.6,0,2.3c0,0.4-0.2,0.6-0.6,0.6c-0.7,0-1.3,0-2,0c-4,0-8.1,0-12.1,0c-0.8,0-0.8,0-0.8-0.8C283,203.9,283,200,283,196z"/>
<path class="st1" d="M184.3,102.4c2.2,0,4.4,0,6.7,0c1.2,0,1.4,0.3,1.2,1.4c-0.1,0.4,0,0.7,0,1.1c0.1,0.5-0.2,0.8-0.6,0.9
	c-1.8,0.1-3.5,0.1-5.3,0.1c-1.3,0-2.6,0-3.9,0c-0.4,0-0.7-0.1-1.1-0.1c-0.6-0.1-0.9,0.2-0.9,0.8c0,2.1,0,4.2,0,6.2
	c0,0.7,0.3,0.9,1,0.9c0.7-0.1,1.4,0,2.1,0c0.6,0,1.3-0.1,1.9-0.1c1.9,0,3.7,0,5.6,0c0.7,0,1,0.5,0.9,1.1c0,0.4,0,0.8,0,1.2
	c0.1,0.7-0.3,1.2-1,1.2c-3,0-5.9,0-8.9,0c-0.3,0-0.6-0.1-0.9-0.1c-0.4,0-0.7,0.1-0.7,0.6c0,3.1,0,6.1,0,9.2c0,0.9,0.1,1,1,1
	c3.3,0,6.7,0,10,0c0.6,0,0.8,0.2,0.7,0.8c0,0.6,0,1.2,0,1.8c0,0.5-0.2,0.6-0.6,0.6c-0.8-0.1-1.5-0.1-2.3-0.1
	c-3.9,0-7.7,0.1-11.6,0.1c-0.9,0-1-0.1-1-1c0-3.1,0.1-6.2,0.1-9.2c0-2.4,0-4.9,0-7.3c0-1-0.1-2-0.1-3c0-0.8,0.1-1.7,0.1-2.5
	c0-1.2,0-2.5,0-3.7c0-0.2,0-0.3,0-0.5c-0.2-1.1-0.2-1.1,1-1.1C179.8,102.4,182.1,102.4,184.3,102.4z"/>
<path class="st1" d="M192.3,209.3c-1.7,0.1-3.1-0.5-4.5-1.3c-1.4-0.7-2.1-1.9-3-3.1c-0.7-0.9-1-2-1.2-3.1c-0.1-0.4,0.1-0.7,0.6-0.8
	c0.7-0.1,1.3-0.2,2-0.4c0.7-0.2,1-0.1,1.2,0.7c0.2,1.1,0.6,2.2,1.3,3c0.4,0.5,1.1,0.8,1.7,1c1.7,0.7,3.4,0.8,5.1-0.1
	c1.1-0.6,2-1.5,2.3-2.7c0.4-1.8,0.7-3.6-1-5c-0.5-0.5-0.9-1-1.5-1.4c-0.5-0.4-1.2-0.6-1.8-0.9c-1.2-0.5-2.4-0.8-3.5-1.4
	c-1.3-0.7-2.7-1.5-3.7-2.8c-1.9-2.4-1.6-4.8-0.5-7.4c0.5-1.2,1.6-1.9,2.7-2.5c0.1-0.1,0.3-0.2,0.4-0.3c0.4-0.5,0.9-0.7,1.5-0.8
	c1.2-0.3,2.4-0.5,3.6-0.4c1.1,0.1,2.2,0.3,3.2,0.7c0.6,0.2,1.1,0.8,1.7,1.3c0.5,0.5,1,1,1.5,1.5c0.6,0.6,0.5,1.1-0.2,1.4
	c-0.3,0.2-0.6,0.4-0.9,0.6c-0.8,0.6-1.4,0.5-1.8-0.3c-0.6-1.1-1.5-1.5-2.7-1.5c-0.7,0-1.5,0-2.2,0c-0.9-0.1-1.6,0.5-2.3,1
	c-1.2,1-1.7,2.3-1.3,3.8c0.2,0.6,0.6,1.1,1.1,1.5c0.8,0.6,1.6,1.2,2.7,1.5c0.8,0.2,1.6,0.7,2.4,1c1.5,0.6,3,1.4,4.3,2.3
	c0.8,0.6,1.4,1.3,1.7,2.3c0.6,1.5,0.8,3,0.7,4.6c0,1.1-0.3,2.2-0.8,3.1c-0.7,1.4-1.8,2.6-3,3.5c-0.6,0.4-1.4,0.7-2.1,0.9
	c-1.1,0.3-2.2,0.5-3.3,0.7C192.3,209.4,192.3,209.3,192.3,209.3z"/>
<path class="st1" d="M258.2,130.9c-3.1,0-6.1,0-9.2,0c-0.3,0-0.8-0.2-0.8-0.3c0-0.3,0.1-0.7,0.3-1c0.5-0.9,1-1.8,1.5-2.7
	c0.4-0.6,0.8-1.2,1.1-1.9c1.1-1.8,2.1-3.7,3.2-5.5c0.2-0.4,0.5-0.8,0.7-1.1c0.3-0.5,0.6-1.1,0.9-1.6c0.4-0.8,0.9-1.6,1.3-2.4
	c0.9-1.6,1.9-3.3,2.8-4.9c0.6-0.9,1.2-1.8,1.8-2.8c0.1-0.2,0.2-0.6,0.1-0.8c-0.1-0.3-0.5-0.5-0.9-0.3c-0.1,0.1-0.4,0.1-0.6,0.1
	c-3.2,0-6.4,0-9.6,0c-1.1,0-1.2-0.5-1.1-1.4c0-0.4,0.1-0.8,0-1.2c-0.1-0.7,0.2-1.1,1-1c0.2,0,0.5,0.1,0.7,0.1c5,0,9.9,0,14.9,0
	c0.3,0,0.5-0.1,0.8-0.1c0.3,0,0.7,0.1,0.8,0.2c0.1,0.2,0,0.6-0.2,0.9c-0.6,1.1-1.3,2.2-1.9,3.3c-0.8,1.3-1.6,2.6-2.4,4
	c-0.2,0.4-0.4,0.8-0.7,1.3c-0.5,1-1.1,1.9-1.6,2.9c-0.8,1.3-1.4,2.7-2.3,4c-0.9,1.3-1.6,2.8-2.4,4.2c-0.6,1.2-1.5,2.3-2.2,3.5
	c-0.1,0.1-0.1,0.2-0.2,0.3c-0.3,0.6-0.1,0.9,0.6,0.9c1,0,2,0,2.9,0c3,0,5.9,0,8.9,0c0.3,0,0.5,0,0.8-0.1c0.7-0.1,1.1,0.2,1,1
	c0,0.3,0,0.7,0,1c0,1.2,0,1.2-1.3,1.2c-2.5,0-5,0-7.5,0C259.1,130.9,258.7,130.9,258.2,130.9z"/>
<path class="st1" d="M164.7,101.9c2,0.1,3.6,0.6,5,1.8c0.7,0.6,1.3,1.2,1.9,1.9c0.3,0.4,0.4,0.8-0.2,1c-0.6,0.3-1.1,0.7-1.7,1
	c-0.4,0.2-0.9,0.2-1.1-0.2c-0.6-0.7-1.3-1.2-2-1.7c-0.7-0.5-1.4-0.6-2.2-0.7c-1.2,0-2.1,0.7-3,1.2c-0.9,0.5-1.5,1.3-1.7,2.3
	c-0.1,0.4-0.1,0.9,0.1,1.3c0.6,1.5,1.6,2.6,3.2,3.1c1.5,0.5,2.9,0.9,4.3,1.6c2.1,0.9,3.7,2.4,4.8,4.5c0.6,1.2,0.9,2.6,0.7,3.8
	c-0.1,1.2-0.1,2.5-1.1,3.6c-0.2,0.3-0.3,0.7-0.4,1c-0.3,0.7-0.9,1.2-1.5,1.7c-0.7,0.6-1.5,1.1-2.4,1.4c-1.7,0.6-3.3,0.9-5.1,0.7
	c-1.4-0.2-2.7-0.6-3.8-1.4c-1.1-0.8-2.2-1.6-2.6-3c-0.2-0.8-0.7-1.5-1-2.2c-0.1-0.2-0.1-0.5-0.1-0.8c0-0.4,0.2-0.6,0.6-0.6
	c0.6-0.1,1.2-0.2,1.8-0.4c0.7-0.2,1.1,0,1.2,0.7c0.2,1.4,0.9,2.4,2,3.1c0.1,0,0.1,0.1,0.2,0.2c1.2,1.5,2.8,1.2,4.4,1.2
	c0.9,0,1.3-0.6,1.9-1.2c0.9-0.8,1.7-1.7,2-2.9c0.2-1.1,0.3-2.1-0.1-3.2c-0.2-0.5-0.5-1-0.9-1.3c-1.2-1.1-2.7-1.8-4.3-2.3
	c-0.3-0.1-0.6-0.4-0.9-0.6c-0.9-0.5-1.8-0.9-2.6-1.3c-1.7-0.9-3.2-2-3.8-3.9c-0.2-0.9-0.1-1.9-0.3-2.8c-0.1-1.3,0.7-2.3,1.2-3.3
	c0.4-0.8,1.3-1.3,2-1.9c1.2-0.9,2.6-1.3,4.1-1.3C163.8,102.1,164.3,102,164.7,101.9z"/>
<path class="st1" d="M226.4,123c0.6,0,0.7-0.3,0.8-0.8c0.1-0.7,0.4-1.4,0.7-2.1c0.5-1.2,0.9-2.5,1.4-3.7c0.3-0.8,0.7-1.5,1-2.2
	c0.5-1.2,0.9-2.4,1.4-3.6c0.4-1.1,1-2.1,1.4-3.2c0.6-1.4,1.1-2.8,1.7-4.2c0.2-0.5,0.5-0.8,1-0.8c0.8,0,1.6,0,2.5,0
	c0.6,0,0.7,0.2,0.5,0.8c-0.5,1.2-0.9,2.4-1.4,3.6c-0.5,1.2-1.1,2.3-1.7,3.5c-0.5,1.1-0.9,2.3-1.3,3.4c-0.2,0.4-0.4,0.8-0.6,1.3
	c-0.3,0.6-0.5,1.3-0.8,1.9c-0.5,1.2-1.1,2.4-1.6,3.7c-0.3,0.6-0.5,1.2-0.7,1.8c-0.4,0.9-0.7,1.8-1.1,2.8c-0.5,1.2-1,2.4-1.5,3.6
	c-0.4,0.8-0.7,1.7-1.1,2.5c-0.1,0.3-0.4,0.4-0.7,0.7c-4.1-9.8-8.1-19.5-12.3-29.4c0.5,0,0.8-0.1,1.2-0.1c0.7,0,1.3,0,2,0
	c0.6,0,1,0.2,1.1,0.8c0.3,1,0.7,2,1.1,3c0.5,1.3,1.1,2.7,1.7,4c0.6,1.4,1.2,2.9,1.8,4.3c0.3,0.7,0.6,1.5,0.9,2.2
	c0.6,1.4,1.2,2.8,1.7,4.2c0.2,0.5,0.3,1.1,0.5,1.7C226.2,122.8,226.3,122.9,226.4,123z"/>
<path class="st1" d="M162.4,190.2c1.2,0.2,2.4,0.4,3.5,0.6c0.1,0,0.2,0.1,0.3,0.2c0.3,0.7,1.1,0.9,1.6,1.3c0.9,0.7,1.6,1.5,1.9,2.6
	c0.4,1.2,0.8,2.4,1,3.6c0.1,0.5,0,1.1-0.1,1.6c0,0.1-0.5,0.2-0.8,0.2c-1.2,0-2.3-0.1-3.5-0.1c-1,0-2,0.1-3,0.1
	c-0.7,0-1.4-0.1-2.1-0.1c-0.9,0-1.8,0.1-2.7,0.1c-0.2,0-0.5,0-0.7-0.1c-0.6-0.1-0.9,0.3-0.7,0.8c0.1,0.2,0.2,0.5,0.2,0.7
	c0.2,1.9,1.5,3,3.1,3.8c1.9,0.9,3.6,0.5,5.2-0.5c0.5-0.3,0.9-0.9,1.3-1.3c0.2-0.2,0.4-0.5,0.6-0.7c0.2-0.1,0.6-0.2,0.9,0
	c0.5,0.2,0.9,0.6,1.4,0.8c0.6,0.3,0.7,0.8,0.3,1.3c-0.5,0.5-1,1-1.5,1.5c-0.4,0.4-0.8,0.9-1.3,1.2c-1.4,0.9-3,1.4-4.7,1.4
	c-0.8,0-1.7,0-2.5-0.1c-1.3-0.3-2.6-0.8-3.5-1.7c-1.6-1.6-2.8-3.4-3-5.8c-0.1-1.7-0.2-3.3,0.3-5c0.6-2.1,1.7-3.7,3.6-5
	c1-0.6,1.9-1,3-1.2c0.6-0.1,1.1-0.1,1.7-0.1C162.4,190.3,162.4,190.3,162.4,190.2z M162.4,193.6c-1-0.1-1.9,0.2-2.7,0.8
	c-1,0.7-1.8,1.6-2.1,2.8c-0.2,0.5,0.1,0.8,0.7,0.8c0.5,0,1.1-0.1,1.6-0.1c1.1,0,2.2,0.1,3.3,0.1c0.7,0,1.4-0.1,2.1-0.1
	c0.5,0,0.9,0.1,1.4,0.1c0.2,0,0.6-0.3,0.6-0.5c-0.1-0.9-0.4-1.9-1.1-2.5C165.1,194.1,163.9,193.4,162.4,193.6z"/>
<path class="st1" d="M209,141.3c0.4,0,0.7,0,1.1,0c0.5,0,0.8,0.3,0.7,0.8c0,0.2,0,0.4,0,0.6c0,7.6,0,15.2,0,22.9
	c0,0.8,0.1,0.9,0.9,0.9c2.4,0,4.8,0,7.1,0c0.6,0,0.7,0.1,0.7,0.7c0,0.6,0,1.2,0,1.8c0,0.4-0.1,0.7-0.6,0.7c-2.7,0-5.3,0-8,0
	c-1,0-2.1,0-3.1,0c-0.6,0-0.8-0.3-0.8-0.7c0-0.4,0.1-0.9,0.1-1.3c0-0.1,0-0.3,0-0.4c0-7.9,0-15.9,0-23.8c0-0.4-0.1-0.7-0.1-1.1
	c0-0.7,0.3-0.9,0.9-0.9C208.3,141.3,208.7,141.3,209,141.3z"/>
<path class="st1" d="M245,107.1c0,1.1,0,2.2,0,3.3c0,4.7,0.1,9.4,0.1,14.1c0,1.3-0.1,2.5-0.1,3.8c0,0.4,0,0.7,0.1,1.1
	c0.2,1-0.2,1.5-1.2,1.5c-0.5,0-1.1,0-1.6,0c-0.8,0-1-0.2-1-1c0-0.5,0.1-0.9,0.1-1.4c0-0.5,0-1.1,0-1.6c0-5.5,0-11,0-16.4
	c0-2.3-0.1-4.6-0.1-6.9c0-0.8,0.2-1.1,1.1-1.1c0.6,0,1.2,0,1.9,0c0.7,0,0.8,0.1,0.8,0.8C245,104.6,245,105.8,245,107.1z"/>
<path class="st1" d="M239.9,180.1c-0.4-0.2-0.9-0.3-1.2-0.5c-0.4-0.3-0.3-0.7,0-1c0.7-0.9,1.5-1.7,2.2-2.5c0.6-0.8,1.1-1.6,1.6-2.5
	c0.4-0.6,0.7-0.6,1.3-0.3c0.6,0.3,1.1,0.6,1.7,0.8c0.5,0.2,0.6,0.6,0.3,1c-0.5,0.5-1.1,1-1.6,1.5c-0.8,0.7-1.7,1.4-2.5,2.2
	c-0.4,0.4-0.8,0.7-1.2,1.1C240.4,179.9,240.2,180,239.9,180.1z"/>
<path class="st0" d="M284.5,144.2c2.7,0.1,5.2,0.8,7.4,2.6c0.8,0.7,1.6,1.3,1.9,2.4c0,0,0,0.1,0,0.1c1.2,1.2,1.5,2.8,1.8,4.3
	c0.3,1.4,0.4,2.9-0.2,4.3c-0.1,0.4-0.2,0.8-0.3,1.2c-0.1,0.2-0.1,0.5-0.2,0.7c-0.6,0.9-1.1,1.9-1.7,2.8c-0.4,0.5-0.9,0.9-1.3,1.3
	c-1,1.1-2.2,1.8-3.5,2.3c-0.9,0.3-1.9,0.5-2.9,0.6c-0.7,0.1-1.5,0-2.2,0c-2.1,0-4.1-0.7-5.6-2c-1.6-1.3-3.1-2.8-3.9-4.7
	c-0.4-1.1-0.5-2.4-0.8-3.6c-0.2-1.3-0.1-2.5,0.2-3.8c0.3-1.4,1-2.7,1.7-4c0.7-1.4,1.9-2.2,3.1-2.9
	C280,144.8,282.1,144.1,284.5,144.2z"/>
<path class="st0" d="M284.1,128.1c-1.3-0.1-2.4-0.1-3.5-0.7c-0.8-0.5-1.8-0.9-2.6-1.4c-1-0.7-1.9-1.6-2.7-2.4
	c-1.1-1.2-1.7-2.7-2-4.2c-0.4-2-0.7-4.1,0.2-6.1c0.4-1,0.8-2.1,1.3-3c0.7-1,1.6-1.9,2.6-2.7c1.1-0.8,2.3-1.3,3.6-1.7
	c0.2-0.1,0.3-0.1,0.5-0.2c1.2-0.7,2.4-0.6,3.7-0.5c1.6,0.1,3.2,0.7,4.6,1.4c1.6,0.7,2.9,1.9,3.9,3.4c1,1.5,1.5,3.1,1.9,4.8
	c0.2,0.9,0.1,2,0.1,2.9c0,1.7-0.8,3.1-1.5,4.6c-0.5,1.1-1.4,2.1-2.3,2.8c-0.6,0.5-1.3,1-2,1.5c-0.7,0.4-1.4,0.8-2.1,1.1
	c-0.6,0.2-1.3,0.2-1.9,0.3C285.2,128.1,284.6,128.1,284.1,128.1z"/>
<path class="st0" d="M260.9,194.4c0-3.3,0-6.6,0-9.9c0-0.8,0.2-1,0.9-0.9c1.5,0.1,3.1,0,4.6,0.3c1.7,0.3,3.5,0.6,4.8,1.8
	c1,0.9,2.1,1.8,2.9,2.8c0.6,0.7,0.8,1.7,1.1,2.6c0.6,1.7,0.5,3.5,0.3,5.3c-0.1,0.8-0.2,1.6-0.6,2.3c-0.4,0.9-1,1.8-1.5,2.6
	c-0.8,1.2-1.9,2-3.2,2.5c-0.9,0.4-1.9,0.6-2.8,0.9c-1.3,0.4-2.7,0.5-4.1,0.5c-0.6,0-1.1,0.1-1.7,0.1c-0.7,0-0.9-0.2-0.9-0.9
	C260.9,201.1,260.9,197.7,260.9,194.4z"/>
<path class="st0" d="M199.9,114.1c0-0.8,0.1-1.6,0.1-2.4c0-1.6,0-3.3,0-4.9c0-0.6,0.2-1,0.9-0.9c1.4,0.1,2.8,0.2,4.2,0.5
	c0.6,0.1,1.2,0.4,1.7,0.7c1.3,0.8,1.9,2,1.9,3.5c0,1.4-0.3,2.7-1.2,3.7c-0.4,0.4-1,0.8-1.5,1c-1.7,0.6-3.4,0.7-5.1,0.6
	c-0.7,0-0.9-0.2-0.9-0.9C200,114.6,200,114.3,199.9,114.1C200,114.1,200,114.1,199.9,114.1z"/>
<path class="st0" d="M147.4,199.9c-0.2,1.1-0.2,2.2-0.7,3.2c-0.8,1.7-2.3,2.6-4.2,2.9c-1.3,0.2-2.5,0-3.6-0.6
	c-1.4-0.8-2.2-2.1-2.5-3.6c-0.1-0.7-0.2-1.4-0.2-2.1c0-1.6,0.4-3,1.4-4.2c0.8-1,2-1.6,3.3-1.8c1.7-0.3,3.3,0.2,4.6,1.2
	c0.5,0.4,0.9,1,1.2,1.6c0.4,1.1,0.9,2.2,0.6,3.5C147.3,199.9,147.3,199.9,147.4,199.9z"/>
<path class="st0" d="M216.1,187.1c0.5,1,0.9,1.8,1.3,2.6c0.9,2,1.8,4.1,2.8,6.1c0.3,0.6,0.5,1.1,0.7,1.7c0.2,0.5-0.1,0.8-0.8,0.8
	c-2.5,0-5-0.1-7.5-0.1c-0.3,0-0.5,0.1-0.8,0.1c-0.6,0-0.8-0.5-0.5-0.9c0.5-1,1-2,1.5-3.1c0.4-1,0.9-1.9,1.3-2.9
	c0.4-1,0.8-1.9,1.2-2.9C215.5,188.2,215.8,187.7,216.1,187.1z"/>
<path class="st0" d="M195,159.4c-1.1,0-2.3,0-3.4,0c-0.9,0-1.9-0.1-2.8-0.1c-0.7,0-1.4,0.1-2,0.2c-0.4,0-0.7-0.4-0.6-0.8
	c0.3-0.6,0.6-1.1,0.9-1.7c0.3-0.7,0.6-1.3,0.9-2c0.5-1,0.9-2,1.4-3.1c0.4-1,0.8-2,1.3-3c0.1-0.2,0.3-0.4,0.4-0.4
	c0.2,0,0.3,0.2,0.4,0.4c0.5,1,0.9,2.1,1.4,3.1c0.3,0.6,0.5,1.2,0.7,1.9c0.4,0.9,0.8,1.9,1.3,2.8c0.3,0.6,0.6,1.1,0.9,1.7
	C196.1,159.1,195.8,159.4,195,159.4z"/>
<path class="st0" d="M162.4,193.6c1.5-0.1,2.7,0.5,3.7,1.4c0.7,0.6,1,1.6,1.1,2.5c0,0.1-0.4,0.4-0.6,0.5c-0.4,0-0.9-0.1-1.4-0.1
	c-0.7,0-1.4,0.1-2.1,0.1c-1.1,0-2.2-0.1-3.3-0.1c-0.5,0-1.1,0.1-1.6,0.1c-0.6,0-0.8-0.3-0.7-0.8c0.4-1.2,1.1-2.1,2.1-2.8
	C160.5,193.8,161.4,193.4,162.4,193.6z"/>
</svg>
