<?xml version="1.0" encoding="iso-8859-1"?>
<!-- Generator: Adobe Illustrator 16.0.0, SVG Export Plug-In . SVG Version: 6.00 Build 0)  -->
<!DOCTYPE svg PUBLIC "-//W3C//DTD SVG 1.1//EN" "http://www.w3.org/Graphics/SVG/1.1/DTD/svg11.dtd">
<svg version="1.1" id="Layer_1" xmlns="http://www.w3.org/2000/svg" xmlns:xlink="http://www.w3.org/1999/xlink" x="0px" y="0px"
	 width="192.756px" height="192.756px" viewBox="0 0 192.756 192.756" style="enable-background:new 0 0 192.756 192.756;"
	 xml:space="preserve">
<g>
	<polygon style="fill-rule:evenodd;clip-rule:evenodd;fill:#FFFFFF;" points="0,0 192.756,0 192.756,192.756 0,192.756 0,0 	"/>
	<path style="fill-rule:evenodd;clip-rule:evenodd;fill:#52A5DF;" d="M92.249,62.061c0,10.816-5.31,13.963-13.963,13.963
		c-8.85,0-13.963-3.146-13.963-13.963V40.625h7.08v22.026c0,3.736,0.983,7.473,6.883,7.473c5.113,0,6.687-2.36,6.687-7.473V40.625
		h7.277V62.061L92.249,62.061z"/>
	<polygon style="fill-rule:evenodd;clip-rule:evenodd;fill:#52A5DF;" points="94.608,40.625 101.688,40.625 115.258,63.831 
		115.455,63.831 115.455,40.625 122.141,40.625 122.141,75.041 114.863,75.041 101.295,52.031 101.295,52.031 101.295,75.041 
		94.608,75.041 94.608,40.625 	"/>
	<polygon style="fill-rule:evenodd;clip-rule:evenodd;fill:#52A5DF;" points="132.367,46.524 123.715,46.524 123.715,40.625 
		148.297,40.625 148.297,46.524 139.645,46.524 139.645,75.041 132.367,75.041 132.367,46.524 	"/>
	<path style="fill-rule:evenodd;clip-rule:evenodd;fill:#52A5DF;" d="M152.623,40.625h7.473l12.193,34.416h-7.473l-2.359-7.67
		h-12.391l-2.557,7.67h-7.275L152.623,40.625L152.623,40.625z M152.033,61.864h8.457l-4.131-12.783l0,0L152.033,61.864
		L152.033,61.864z"/>
	<path style="fill-rule:evenodd;clip-rule:evenodd;fill:#52A5DF;" d="M66.092,86.447h1.966c2.753,0,3.54-1.573,3.54-3.736
		c0-2.164-0.787-3.737-3.54-3.737h-1.966V86.447L66.092,86.447z M64.322,77.4h4.327c3.343,0,4.72,2.36,4.72,5.31
		c0,2.95-1.377,5.31-4.72,5.31h-4.327V77.4L64.322,77.4z"/>
	<polygon style="fill-rule:evenodd;clip-rule:evenodd;fill:#52A5DF;" points="74.155,77.4 81.825,77.4 81.825,78.974 76.122,78.974 
		76.122,81.727 81.432,81.727 81.432,83.3 76.122,83.3 76.122,86.447 82.022,86.447 82.022,88.02 74.155,88.02 74.155,77.4 	"/>
	<path style="fill-rule:evenodd;clip-rule:evenodd;fill:#52A5DF;" d="M95.788,88.02h-1.376l-0.197-1.377
		c-0.983,1.18-1.966,1.574-3.146,1.574c-3.146,0-5.113-2.557-5.113-5.506c0-3.147,1.966-5.507,5.113-5.507
		c2.36,0,4.13,1.18,4.523,3.54h-1.77c-0.197-1.376-1.377-2.164-2.754-2.164c-2.359,0-3.343,1.967-3.343,4.13
		c0,1.967,0.983,3.933,3.343,3.933c1.771,0.197,2.95-0.983,2.95-2.753h-2.753v-1.573h4.523V88.02L95.788,88.02z"/>
	<path style="fill-rule:evenodd;clip-rule:evenodd;fill:#52A5DF;" d="M99.328,83.694h3.146L100.9,79.17l0,0L99.328,83.694
		L99.328,83.694z M99.918,77.4h1.967l4.129,10.62h-1.967l-0.982-2.95h-4.326l-0.984,2.95h-1.966L99.918,77.4L99.918,77.4z"/>
	<polygon style="fill-rule:evenodd;clip-rule:evenodd;fill:#52A5DF;" points="106.408,77.4 108.178,77.4 108.178,86.447 
		113.684,86.447 113.684,88.02 106.408,88.02 106.408,77.4 	"/>
	<polygon style="fill-rule:evenodd;clip-rule:evenodd;fill:#52A5DF;" points="114.273,77.4 116.24,77.4 116.24,88.02 114.273,88.02 
		114.273,77.4 	"/>
	<path style="fill-rule:evenodd;clip-rule:evenodd;fill:#52A5DF;" d="M124.5,80.744c-0.195-1.18-0.982-2.164-2.557-2.164
		c-2.359,0-3.146,1.967-3.146,4.13c0,1.967,0.787,3.933,3.146,3.933c1.574,0,2.557-1.18,2.754-2.753h1.77
		c-0.195,2.557-1.967,4.327-4.523,4.327c-3.146,0-5.113-2.557-5.113-5.506c0-3.147,1.967-5.507,5.113-5.507
		c2.361,0,4.328,1.18,4.523,3.54H124.5L124.5,80.744z"/>
	<polygon style="fill-rule:evenodd;clip-rule:evenodd;fill:#52A5DF;" points="127.057,77.4 129.023,77.4 129.023,88.02 
		127.057,88.02 127.057,77.4 	"/>
	<path style="fill-rule:evenodd;clip-rule:evenodd;fill:#52A5DF;" d="M132.76,83.694h3.344l-1.572-4.523l0,0L132.76,83.694
		L132.76,83.694z M133.547,77.4h1.967l4.131,10.62h-2.164l-0.982-2.95h-4.131l-0.982,2.95h-1.967L133.547,77.4L133.547,77.4z"/>
	<polygon style="fill-rule:evenodd;clip-rule:evenodd;fill:#52A5DF;" points="43.279,53.408 35.216,38.854 178.582,38.854 
		178.582,36.888 14.173,36.888 31.086,67.96 14.173,88.02 22.63,88.02 34.429,73.86 59.996,118.699 14.173,118.699 14.173,120.666 
		178.582,120.666 178.582,118.699 80.449,118.699 46.819,59.504 62.749,40.625 54.096,40.625 43.279,53.408 	"/>
	<path style="fill-rule:evenodd;clip-rule:evenodd;fill:#CC4F4F;" d="M162.26,76.417c0.393-0.197,0.787-0.393,1.377-0.393
		c1.967,0,3.539,1.573,3.539,3.54c0,0.59-0.195,0.983-0.393,1.574l-1.18,2.557h-1.377l1.377-3.147
		c0.195-0.197,0.195-0.59,0.195-0.983c0-1.18-0.982-2.163-2.162-2.163c-0.197,0-0.395,0-0.59,0
		C162.85,77.007,162.652,76.614,162.26,76.417L162.26,76.417z"/>
	<path style="fill-rule:evenodd;clip-rule:evenodd;fill:#CC4F4F;" d="M154.982,76.81v-1.376h-1.375c-1.967,0-3.541,1.573-3.541,3.54
		c0,0.59,0,1.18,0.197,1.573l1.377,3.147h1.572l-1.77-3.737c0-0.197-0.197-0.59-0.197-0.983c0-1.18,0.984-2.164,2.361-2.164H154.982
		L154.982,76.81z"/>
	<polygon style="fill-rule:evenodd;clip-rule:evenodd;fill:#CC4F4F;" points="155.77,83.694 156.949,83.694 156.949,75.434 
		155.77,75.434 155.77,83.694 	"/>
	<path style="fill-rule:evenodd;clip-rule:evenodd;fill:#CC4F4F;" d="M150.461,76.417c-0.395-0.197-0.984-0.393-1.377-0.393
		c-1.967,0-3.541,1.573-3.541,3.54c0,0.59,0,0.983,0.197,1.574l1.18,2.557h1.377l-1.377-3.147c0-0.197-0.195-0.59-0.195-0.983
		c0-1.18,0.982-2.163,2.359-2.163c0.195,0,0.393,0,0.59,0C149.871,77.007,150.066,76.614,150.461,76.417L150.461,76.417z"/>
	<polygon style="fill-rule:evenodd;clip-rule:evenodd;fill:#CC4F4F;" points="164.816,85.66 165.406,84.284 147.314,84.284 
		147.904,85.66 164.816,85.66 	"/>
	<polygon style="fill-rule:evenodd;clip-rule:evenodd;fill:#CC4F4F;" points="163.637,88.217 164.227,86.84 148.494,86.84 
		149.084,88.217 163.637,88.217 	"/>
	<path style="fill-rule:evenodd;clip-rule:evenodd;fill:#CC4F4F;" d="M157.541,76.81v-1.376h1.572c1.967,0,3.539,1.573,3.539,3.54
		c0,0.59-0.195,1.18-0.393,1.573l-1.377,3.147h-1.377l1.574-3.737c0.197-0.197,0.197-0.59,0.197-0.983
		c0-1.18-0.984-2.164-2.164-2.164H157.541L157.541,76.81z"/>
	<path style="fill-rule:evenodd;clip-rule:evenodd;fill:#CC4F4F;" d="M156.164,71.5v0.787c-0.787,0-1.182,0.787-1.182,1.376
		c0,0.787,0.592,1.377,1.377,1.377c0.787,0,1.377-0.59,1.377-1.377c0-0.59-0.59-1.376-1.18-1.376V71.5h0.393v-0.394h-0.393v-0.393
		h-0.393v0.393h-0.395V71.5H156.164L156.164,71.5z"/>
	<path style="fill-rule:evenodd;clip-rule:evenodd;fill:#52A5DF;" d="M163.439,101.982h1.18v-1.375h1.377v-1.182h-1.377v-1.375
		h-1.18v1.375h-1.377v1.182h1.377V101.982L163.439,101.982z M163.439,95.69h1.18v-1.376h1.377v-1.18h-1.377v-1.376h-1.18v1.376
		h-1.377v1.18h1.377V95.69L163.439,95.69z M147.904,108.275h1.375V106.9h1.182v-1.18h-1.182v-1.377h-1.375v1.377h-1.18v1.18h1.18
		V108.275L147.904,108.275z M147.904,101.982h1.375v-1.375h1.182v-1.182h-1.182v-1.375h-1.375v1.375h-1.18v1.182h1.18V101.982
		L147.904,101.982z M147.904,95.69h1.375v-1.376h1.182v-1.18h-1.182v-1.376h-1.375v1.376h-1.18v1.18h1.18V95.69L147.904,95.69z
		 M155.77,93.92h1.18v-1.376h1.377v-1.18h-1.377v-1.376h-1.18v1.376h-1.377v1.18h1.377V93.92L155.77,93.92z M156.359,100.016
		c1.377,0,2.557-0.982,2.557-2.359s-1.18-2.556-2.557-2.556s-2.557,1.179-2.557,2.556S154.982,100.016,156.359,100.016
		L156.359,100.016z M163.439,108.275h1.18V106.9h1.377v-1.18h-1.377v-1.377h-1.18v1.377h-1.377v1.18h1.377V108.275L163.439,108.275z
		 M145.543,89.003h21.633v15.536c0,5.9-4.916,10.816-10.816,10.816c-6.096,0-10.816-4.916-10.816-10.816V89.003L145.543,89.003z
		 M156.949,105.326c2.361-0.393,4.131-2.359,4.131-4.719h-9.439c0,2.359,1.77,4.326,4.129,4.719c0,0.197,0,0.395,0,0.787
		c0,2.557-0.982,4.916-2.557,6.686h6.098c-1.574-1.77-2.361-4.129-2.361-6.686C156.949,105.721,156.949,105.523,156.949,105.326
		L156.949,105.326z"/>
	<path style="fill-rule:evenodd;clip-rule:evenodd;fill:#52A5DF;" d="M43.672,148.199c-0.196-0.197-0.59-0.395-0.983-0.395h-1.966
		v2.754h1.966c0.394,0,0.787,0,0.983-0.197c0.394-0.195,0.394-0.59,0.394-1.18C44.066,148.789,44.066,148.395,43.672,148.199
		L43.672,148.199z M45.246,151.543c-0.59,0.393-1.376,0.785-2.359,0.785h-2.164v3.344h-1.77v-9.439h3.934
		c0.983,0,1.77,0.197,2.359,0.787c0.59,0.393,0.787,1.18,0.787,2.162C46.033,150.361,45.836,151.148,45.246,151.543L45.246,151.543z
		"/>
	<path style="fill-rule:evenodd;clip-rule:evenodd;fill:#52A5DF;" d="M49.179,152.133h2.36l-1.18-3.738L49.179,152.133
		L49.179,152.133z M49.179,146.232h2.163l3.344,9.439h-1.967l-0.787-1.967h-3.344l-0.59,1.967h-2.163L49.179,146.232L49.179,146.232
		z"/>
	<path style="fill-rule:evenodd;clip-rule:evenodd;fill:#52A5DF;" d="M57.833,147.805v2.557h2.359c0.394,0,0.59,0,0.983-0.195
		c0.394,0,0.59-0.395,0.59-0.984s-0.197-0.982-0.59-1.18c-0.196,0-0.59-0.197-0.983-0.197H57.833L57.833,147.805z M62.159,146.43
		c0.197,0.195,0.59,0.393,0.787,0.785c0.197,0.197,0.394,0.395,0.59,0.787c0,0.197,0.196,0.59,0.196,0.984
		c0,0.393-0.196,0.785-0.393,1.18c-0.197,0.59-0.59,0.785-1.18,0.982c0.394,0.197,0.787,0.395,0.983,0.787
		c0.197,0.197,0.197,0.787,0.197,1.377v0.59c0,0.59,0,0.787,0,0.982c0.197,0.197,0.197,0.395,0.393,0.59v0.197h-2.163
		c0-0.197,0-0.393,0-0.59c-0.197-0.197-0.197-0.393-0.197-0.787v-0.787c0-0.59,0-0.982-0.197-1.18
		c-0.393-0.195-0.787-0.393-1.18-0.393h-2.163v3.736h-1.771v-9.439h4.523C61.175,146.232,61.766,146.43,62.159,146.43L62.159,146.43
		z"/>
	<path style="fill-rule:evenodd;clip-rule:evenodd;fill:#52A5DF;" d="M67.862,152.133h2.36l-1.18-3.738L67.862,152.133
		L67.862,152.133z M68.059,146.232h2.164l3.343,9.439h-2.164l-0.59-1.967h-3.54l-0.59,1.967h-1.967L68.059,146.232L68.059,146.232z"
		/>
	<path style="fill-rule:evenodd;clip-rule:evenodd;fill:#52A5DF;" d="M83.792,153.312c0.59-0.59,0.787-1.377,0.787-2.361
		c0-0.982-0.197-1.965-0.787-2.359c-0.393-0.59-0.983-0.982-1.77-0.982c-0.787,0-1.377,0.393-1.967,0.785
		c-0.394,0.592-0.59,1.574-0.59,2.557c0,0.984,0.196,1.771,0.59,2.361c0.59,0.59,1.18,0.982,1.967,0.982
		C82.808,154.295,83.398,153.902,83.792,153.312L83.792,153.312z M84.972,154.885c-0.59,0.59-1.573,0.984-2.95,0.984
		c-1.377,0-2.36-0.395-3.146-0.984c-0.983-0.982-1.377-2.359-1.377-3.934c0-1.77,0.394-2.949,1.377-3.932
		c0.786-0.59,1.77-0.984,3.146-0.984c1.376,0,2.359,0.395,2.95,0.984c0.983,0.982,1.573,2.162,1.573,3.932
		C86.545,152.525,85.955,153.902,84.972,154.885L84.972,154.885z"/>
	<path style="fill-rule:evenodd;clip-rule:evenodd;fill:#52A5DF;" d="M93.428,147.805v6.098h1.77c0.983,0,1.574-0.395,1.966-1.18
		c0.197-0.59,0.395-1.18,0.395-1.967s-0.197-1.574-0.59-2.164c-0.197-0.393-0.787-0.787-1.771-0.787H93.428L93.428,147.805z
		 M96.968,146.43c0.786,0.195,1.18,0.59,1.77,1.18c0.197,0.59,0.393,0.982,0.59,1.572s0.197,0.984,0.197,1.574
		c0,1.18-0.197,2.162-0.787,3.146c-0.59,1.18-1.77,1.77-3.147,1.77h-3.933v-9.439h3.933C96.181,146.232,96.575,146.43,96.968,146.43
		L96.968,146.43z"/>
	<polygon style="fill-rule:evenodd;clip-rule:evenodd;fill:#52A5DF;" points="107.98,148.002 102.867,148.002 102.867,149.969 
		107.391,149.969 107.391,151.543 102.867,151.543 102.867,153.902 108.178,153.902 108.178,155.672 101.098,155.672 
		101.098,146.232 107.98,146.232 107.98,148.002 	"/>
	<path style="fill-rule:evenodd;clip-rule:evenodd;fill:#52A5DF;" d="M114.471,148.199c-0.197-0.197-0.59-0.395-0.982-0.395h-1.771
		v2.754h1.771c0.393,0,0.785,0,0.982-0.197c0.393-0.195,0.393-0.59,0.393-1.18C114.863,148.789,114.863,148.395,114.471,148.199
		L114.471,148.199z M116.045,151.543c-0.59,0.393-1.377,0.785-2.361,0.785h-1.967v3.344h-1.965v-9.439h3.932
		c0.984,0,1.771,0.197,2.361,0.787c0.59,0.393,0.785,1.18,0.785,2.162C116.83,150.361,116.635,151.148,116.045,151.543
		L116.045,151.543z"/>
	<path style="fill-rule:evenodd;clip-rule:evenodd;fill:#52A5DF;" d="M124.305,153.312c0.393-0.59,0.59-1.377,0.59-2.361
		c0-0.982-0.197-1.965-0.59-2.359c-0.395-0.59-0.984-0.982-1.77-0.982c-0.787,0-1.377,0.393-1.967,0.785
		c-0.395,0.592-0.59,1.574-0.59,2.557c0,0.984,0.195,1.771,0.59,2.361c0.59,0.59,1.18,0.982,1.967,0.982
		C123.32,154.295,123.91,153.902,124.305,153.312L124.305,153.312z M125.484,154.885c-0.59,0.59-1.77,0.984-2.949,0.984
		c-1.377,0-2.361-0.395-3.148-0.984c-0.982-0.982-1.375-2.359-1.375-3.934c0-1.77,0.393-2.949,1.375-3.932
		c0.787-0.59,1.771-0.984,3.148-0.984c1.18,0,2.359,0.395,2.949,0.984c0.982,0.982,1.377,2.162,1.377,3.932
		C126.861,152.525,126.467,153.902,125.484,154.885L125.484,154.885z"/>
	<path style="fill-rule:evenodd;clip-rule:evenodd;fill:#52A5DF;" d="M130.4,147.805v2.557h2.164c0.393,0,0.787,0,0.982-0.195
		c0.395,0,0.59-0.395,0.59-0.984s-0.195-0.982-0.59-1.18c-0.195,0-0.393-0.197-0.787-0.197H130.4L130.4,147.805z M134.531,146.43
		c0.393,0.195,0.785,0.393,0.982,0.785c0.197,0.197,0.395,0.395,0.395,0.787c0.195,0.197,0.195,0.59,0.195,0.984
		c0,0.393,0,0.785-0.393,1.18c-0.197,0.59-0.59,0.785-0.984,0.982c0.395,0.197,0.787,0.395,0.787,0.787
		c0.197,0.197,0.395,0.787,0.395,1.377v0.59c0,0.59,0,0.787,0,0.982c0,0.197,0.195,0.395,0.393,0.59v0.197h-2.164
		c0-0.197-0.195-0.393-0.195-0.59s0-0.393,0-0.787v-0.787c0-0.59-0.197-0.982-0.395-1.18c-0.195-0.195-0.59-0.393-1.18-0.393H130.4
		v3.736h-1.967v-9.439h4.721C133.744,146.232,134.137,146.43,134.531,146.43L134.531,146.43z"/>
	<polygon style="fill-rule:evenodd;clip-rule:evenodd;fill:#52A5DF;" points="144.561,146.232 144.561,148.002 141.807,148.002 
		141.807,155.672 139.84,155.672 139.84,148.002 137.088,148.002 137.088,146.232 144.561,146.232 	"/>
	<polygon style="fill-rule:evenodd;clip-rule:evenodd;fill:#52A5DF;" points="152.623,148.002 147.707,148.002 147.707,149.969 
		152.23,149.969 152.23,151.543 147.707,151.543 147.707,153.902 153.018,153.902 153.018,155.672 145.74,155.672 145.74,146.232 
		152.623,146.232 152.623,148.002 	"/>
	<path style="fill-rule:evenodd;clip-rule:evenodd;fill:#52A5DF;" d="M32.66,135.416c0,0.59,0.196,0.787,0.393,0.982
		c0.197,0.395,0.787,0.59,1.573,0.59c0.394,0,0.787,0,1.18-0.195c0.59-0.197,0.787-0.395,0.787-0.984
		c0-0.393-0.197-0.59-0.394-0.787c-0.196-0.195-0.787-0.195-1.376-0.393l-0.983-0.197c-0.983-0.195-1.573-0.393-1.967-0.785
		c-0.59-0.395-0.983-0.984-0.983-1.967c0-0.787,0.393-1.574,0.983-2.164c0.59-0.59,1.573-0.787,2.753-0.787
		c0.983,0,1.77,0.197,2.36,0.787c0.787,0.59,1.18,1.377,1.18,2.359h-1.967c0-0.59-0.196-0.982-0.59-1.18
		c-0.393-0.195-0.787-0.393-1.18-0.393c-0.59,0-0.983,0.197-1.18,0.393c-0.394,0.197-0.59,0.395-0.59,0.787s0.196,0.59,0.59,0.787
		c0.196,0.195,0.59,0.195,1.18,0.393l1.574,0.393c0.787,0.197,1.18,0.395,1.573,0.592c0.59,0.59,0.983,1.18,0.983,1.967
		c0,0.785-0.394,1.572-0.983,2.162c-0.787,0.59-1.573,0.787-2.95,0.787c-1.18,0-2.163-0.197-2.753-0.787
		c-0.786-0.59-0.983-1.377-0.983-2.359H32.66L32.66,135.416z"/>
	<polygon style="fill-rule:evenodd;clip-rule:evenodd;fill:#52A5DF;" points="46.819,130.695 41.903,130.695 41.903,132.662 
		46.426,132.662 46.426,134.236 41.903,134.236 41.903,136.596 47.016,136.596 47.016,138.365 39.936,138.365 39.936,128.926 
		46.819,128.926 46.819,130.695 	"/>
	<path style="fill-rule:evenodd;clip-rule:evenodd;fill:#52A5DF;" d="M49.572,129.91c0.787-0.592,1.574-0.984,2.753-0.984
		c1.573,0,2.753,0.393,3.54,1.377c0.394,0.59,0.59,1.18,0.59,1.77h-1.967c0-0.393-0.196-0.787-0.393-0.982
		c-0.393-0.395-0.983-0.59-1.573-0.59c-0.787,0-1.376,0.393-1.77,0.785c-0.393,0.59-0.59,1.377-0.59,2.557
		c0,0.984,0.197,1.771,0.59,2.361c0.59,0.393,0.983,0.785,1.77,0.785c0.59,0,1.18-0.195,1.573-0.785
		c0.197-0.197,0.393-0.59,0.393-0.984h1.967c-0.196,0.984-0.59,1.77-1.18,2.359c-0.787,0.787-1.771,0.984-2.753,0.984
		c-1.376,0-2.36-0.393-3.146-1.18c-0.787-0.984-1.18-2.164-1.18-3.541C48.196,132.072,48.589,130.893,49.572,129.91L49.572,129.91z"
		/>
	<path style="fill-rule:evenodd;clip-rule:evenodd;fill:#52A5DF;" d="M59.996,130.695v2.557h2.163c0.394,0,0.787-0.197,0.983-0.197
		c0.394-0.195,0.59-0.59,0.59-1.18s-0.196-0.785-0.59-0.982c-0.197-0.197-0.59-0.197-0.983-0.197H59.996L59.996,130.695z
		 M64.125,129.318c0.394,0,0.59,0.395,0.983,0.592c0.196,0.195,0.196,0.59,0.394,0.785c0.196,0.197,0.196,0.59,0.196,0.984
		c0,0.393-0.196,0.982-0.394,1.375c-0.196,0.395-0.59,0.592-0.983,0.787c0.393,0.197,0.59,0.395,0.787,0.787
		c0.196,0.393,0.394,0.787,0.394,1.574v0.59c0,0.393,0,0.59,0,0.785c0,0.197,0.196,0.395,0.393,0.592v0.195h-2.164
		c-0.196-0.195-0.196-0.393-0.196-0.59s0-0.393,0-0.787v-0.785c0-0.59-0.197-0.984-0.394-1.182c-0.197-0.195-0.59-0.393-1.18-0.393
		h-1.967v3.736h-1.967v-9.439h4.523C63.339,129.123,63.732,129.123,64.125,129.318L64.125,129.318z"/>
	<polygon style="fill-rule:evenodd;clip-rule:evenodd;fill:#52A5DF;" points="74.352,130.695 69.435,130.695 69.435,132.662 
		73.958,132.662 73.958,134.236 69.435,134.236 69.435,136.596 74.548,136.596 74.548,138.365 67.469,138.365 67.469,128.926 
		74.352,128.926 74.352,130.695 	"/>
	<polygon style="fill-rule:evenodd;clip-rule:evenodd;fill:#52A5DF;" points="82.808,128.926 82.808,130.695 80.055,130.695 
		80.055,138.365 78.088,138.365 78.088,130.695 75.335,130.695 75.335,128.926 82.808,128.926 	"/>
	<path style="fill-rule:evenodd;clip-rule:evenodd;fill:#52A5DF;" d="M85.562,134.826h2.36l-1.18-3.736L85.562,134.826
		L85.562,134.826z M85.758,128.926h2.163l3.344,9.439h-2.164l-0.59-1.967h-3.54l-0.59,1.967h-1.966L85.758,128.926L85.758,128.926z"
		/>
	<path style="fill-rule:evenodd;clip-rule:evenodd;fill:#52A5DF;" d="M94.412,130.695v2.557h2.163c0.394,0,0.787-0.197,0.984-0.197
		c0.393-0.195,0.59-0.59,0.59-1.18s-0.197-0.785-0.59-0.982c-0.197-0.197-0.395-0.197-0.984-0.197H94.412L94.412,130.695z
		 M98.541,129.318c0.395,0,0.59,0.395,0.984,0.592c0.195,0.195,0.393,0.59,0.393,0.785c0.197,0.197,0.197,0.59,0.197,0.984
		c0,0.393,0,0.982-0.395,1.375c-0.195,0.395-0.59,0.592-0.982,0.787c0.393,0.197,0.59,0.395,0.787,0.787
		c0.195,0.393,0.393,0.787,0.393,1.574v0.59c0,0.393,0,0.59,0,0.785c0,0.197,0.197,0.395,0.393,0.592v0.195h-2.162
		c0-0.195-0.197-0.393-0.197-0.59s0-0.393,0-0.787v-0.785c0-0.59-0.197-0.984-0.393-1.182c-0.197-0.195-0.59-0.393-1.181-0.393
		h-1.966v3.736h-1.967v-9.439h4.523C97.754,129.123,98.148,129.123,98.541,129.318L98.541,129.318z"/>
	<path style="fill-rule:evenodd;clip-rule:evenodd;fill:#52A5DF;" d="M101.688,128.926h1.967v9.439h-1.967V128.926L101.688,128.926z
		 M104.834,126.172l-1.967,1.967h-1.375l1.375-1.967H104.834L104.834,126.172z"/>
	<path style="fill-rule:evenodd;clip-rule:evenodd;fill:#52A5DF;" d="M107.98,134.826h2.361l-1.18-3.736L107.98,134.826
		L107.98,134.826z M108.178,128.926h2.164l3.342,9.439h-2.162l-0.59-1.967h-3.541l-0.59,1.967h-1.967L108.178,128.926
		L108.178,128.926z"/>
	<polygon style="fill-rule:evenodd;clip-rule:evenodd;fill:#52A5DF;" points="119.387,138.365 117.225,138.365 120.174,133.646 
		117.225,128.926 119.584,128.926 121.354,132.072 123.125,128.926 125.287,128.926 122.535,133.449 125.484,138.365 
		123.125,138.365 121.354,135.219 119.387,138.365 	"/>
	<polygon style="fill-rule:evenodd;clip-rule:evenodd;fill:#52A5DF;" points="133.547,130.695 128.631,130.695 128.631,132.662 
		133.154,132.662 133.154,134.236 128.631,134.236 128.631,136.596 133.744,136.596 133.744,138.365 126.664,138.365 
		126.664,128.926 133.547,128.926 133.547,130.695 	"/>
	<path style="fill-rule:evenodd;clip-rule:evenodd;fill:#52A5DF;" d="M137.283,130.695v2.557h2.164c0.393,0,0.787-0.197,0.982-0.197
		c0.395-0.195,0.59-0.59,0.59-1.18s-0.195-0.785-0.59-0.982c-0.195-0.197-0.393-0.197-0.982-0.197H137.283L137.283,130.695z
		 M141.414,129.318c0.393,0,0.787,0.395,0.982,0.592c0.197,0.195,0.395,0.59,0.395,0.785c0.195,0.197,0.195,0.59,0.195,0.984
		c0,0.393,0,0.982-0.393,1.375c-0.197,0.395-0.59,0.592-0.984,0.787c0.395,0.197,0.787,0.395,0.787,0.787
		c0.197,0.393,0.395,0.787,0.395,1.574v0.59c0,0.393,0,0.59,0,0.785c0,0.197,0.195,0.395,0.393,0.592v0.195h-2.164
		c0-0.195-0.195-0.393-0.195-0.59s0-0.393,0-0.787v-0.785c0-0.59-0.197-0.984-0.395-1.182c-0.195-0.195-0.59-0.393-1.18-0.393
		h-1.967v3.736h-1.967v-9.439h4.721C140.627,129.123,141.02,129.123,141.414,129.318L141.414,129.318z"/>
	<path style="fill-rule:evenodd;clip-rule:evenodd;fill:#52A5DF;" d="M147.314,134.826h2.359l-1.18-3.736L147.314,134.826
		L147.314,134.826z M147.314,128.926h2.359l3.146,9.439h-1.967l-0.59-1.967h-3.539l-0.592,1.967h-2.162L147.314,128.926
		L147.314,128.926z"/>
	<polygon style="fill-rule:evenodd;clip-rule:evenodd;fill:#52A5DF;" points="154,128.926 155.967,128.926 155.967,136.596 
		160.688,136.596 160.688,138.365 154,138.365 154,128.926 	"/>
</g>
</svg>
